<?xml version="1.0" encoding="UTF-8"?><svg xmlns="http://www.w3.org/2000/svg" xmlns:xlink="http://www.w3.org/1999/xlink" fill-opacity="1" color-rendering="auto" color-interpolation="auto" text-rendering="auto" stroke="black" stroke-linecap="square" width="1371" stroke-miterlimit="10" shape-rendering="auto" stroke-opacity="1" fill="black" stroke-dasharray="none" font-weight="normal" stroke-width="1" height="476" font-family="'Dialog'" font-style="normal" stroke-linejoin="miter" font-size="12px" stroke-dashoffset="0" image-rendering="auto">
  <!--Generated by ySVG 2.5-->
  <defs id="genericDefs"/>
  <g>
    <defs id="defs1">
      <clipPath clipPathUnits="userSpaceOnUse" id="clipPath1">
        <path d="M0 0 L1371 0 L1371 476 L0 476 L0 0 Z"/>
      </clipPath>
      <clipPath clipPathUnits="userSpaceOnUse" id="clipPath2">
        <path d="M193 121 L1564 121 L1564 597 L193 597 L193 121 Z"/>
      </clipPath>
      <clipPath clipPathUnits="userSpaceOnUse" id="clipPath3">
        <path d="M381.7637 -287.1494 L381.7637 1083.8506 L-94.2363 1083.8506 L-94.2363 -287.1494 L381.7637 -287.1494 Z"/>
      </clipPath>
      <clipPath clipPathUnits="userSpaceOnUse" id="clipPath4">
        <path d="M381.7637 -667.6494 L381.7637 703.3506 L-94.2363 703.3506 L-94.2363 -667.6494 L381.7637 -667.6494 Z"/>
      </clipPath>
      <clipPath clipPathUnits="userSpaceOnUse" id="clipPath5">
        <path d="M381.7637 -1048.1494 L381.7637 322.8506 L-94.2363 322.8506 L-94.2363 -1048.1494 L381.7637 -1048.1494 Z"/>
      </clipPath>
      <clipPath clipPathUnits="userSpaceOnUse" id="clipPath6">
        <path d="M291.5725 -1252.7653 L291.5725 118.2348 L-184.4275 118.2348 L-184.4275 -1252.7653 L291.5725 -1252.7653 Z"/>
      </clipPath>
      <clipPath clipPathUnits="userSpaceOnUse" id="clipPath7">
        <path d="M310.5745 -1164.1494 L310.5745 206.8506 L-165.4255 206.8506 L-165.4255 -1164.1494 L310.5745 -1164.1494 Z"/>
      </clipPath>
    </defs>
    <g fill="white" text-rendering="geometricPrecision" shape-rendering="geometricPrecision" transform="translate(-193,-121)" stroke="white">
      <rect x="193" width="1371" height="476" y="121" clip-path="url(#clipPath2)" stroke="none"/>
    </g>
    <g fill="rgb(255,204,0)" text-rendering="geometricPrecision" shape-rendering="geometricPrecision" transform="matrix(1,0,0,1,-193,-121)" stroke="rgb(255,204,0)">
      <rect x="237" y="324.3765" clip-path="url(#clipPath2)" width="1064" rx="4" ry="4" height="30" stroke="none"/>
    </g>
    <g text-rendering="geometricPrecision" stroke-miterlimit="1.45" shape-rendering="geometricPrecision" font-family="sans-serif" transform="matrix(1,0,0,1,-193,-121)" stroke-linecap="butt">
      <text x="736.9902" xml:space="preserve" y="344.0903" clip-path="url(#clipPath2)" stroke="none">Power Rails</text>
      <rect x="237" y="324.3765" clip-path="url(#clipPath2)" fill="none" width="1064" rx="4" ry="4" height="30"/>
    </g>
    <g fill="rgb(245,245,245)" text-rendering="geometricPrecision" shape-rendering="geometricPrecision" transform="matrix(1,0,0,1,-193,-121)" stroke="rgb(245,245,245)">
      <rect x="237" y="384.3765" clip-path="url(#clipPath2)" width="303" rx="4" ry="4" height="172.3765" stroke="none"/>
      <rect x="237" y="384.3765" clip-path="url(#clipPath2)" fill="rgb(235,235,235)" width="303" height="22.3765" stroke="none"/>
    </g>
    <g font-size="15px" stroke-linecap="butt" transform="matrix(1,0,0,1,-193,-121)" text-rendering="geometricPrecision" font-family="sans-serif" shape-rendering="geometricPrecision" stroke-miterlimit="1.45">
      <text x="446.2788" xml:space="preserve" y="401.457" clip-path="url(#clipPath2)" stroke="none">Sensor Board</text>
      <rect x="237" y="384.3765" clip-path="url(#clipPath2)" fill="none" width="303" stroke-dasharray="6,2" rx="4" ry="4" height="172.3765"/>
    </g>
    <g fill="rgb(255,204,0)" text-rendering="geometricPrecision" shape-rendering="geometricPrecision" transform="matrix(1,0,0,1,-193,-121)" stroke="rgb(255,204,0)">
      <rect x="252" width="172" height="45" y="496.7529" clip-path="url(#clipPath2)" stroke="none"/>
    </g>
    <g text-rendering="geometricPrecision" stroke-miterlimit="1.45" shape-rendering="geometricPrecision" font-family="sans-serif" transform="matrix(1,0,0,1,-193,-121)" stroke-linecap="butt">
      <text x="324.3359" xml:space="preserve" y="523.9668" clip-path="url(#clipPath2)" stroke="none">MCU</text>
      <rect fill="none" x="252" width="172" height="45" y="496.7529" clip-path="url(#clipPath2)"/>
    </g>
    <g fill="rgb(255,204,0)" text-rendering="geometricPrecision" shape-rendering="geometricPrecision" transform="matrix(1,0,0,1,-193,-121)" stroke="rgb(255,204,0)">
      <rect x="454" width="71" height="120" y="421.7529" clip-path="url(#clipPath2)" stroke="none"/>
    </g>
    <g text-rendering="geometricPrecision" stroke-miterlimit="1.45" shape-rendering="geometricPrecision" font-family="sans-serif" transform="matrix(-0,-1,1,-0,287.1494,381.7637)" stroke-linecap="butt">
      <text x="2" xml:space="preserve" y="14.0645" clip-path="url(#clipPath3)" stroke="none">Sensor</text>
    </g>
    <g text-rendering="geometricPrecision" stroke-miterlimit="1.45" shape-rendering="geometricPrecision" transform="matrix(1,0,0,1,-193,-121)" stroke-linecap="butt">
      <rect fill="none" x="454" width="71" height="120" y="421.7529" clip-path="url(#clipPath2)"/>
    </g>
    <g fill="rgb(255,204,0)" text-rendering="geometricPrecision" shape-rendering="geometricPrecision" transform="matrix(1,0,0,1,-193,-121)" stroke="rgb(255,204,0)">
      <rect x="252" width="71" height="45" y="421.7529" clip-path="url(#clipPath2)" stroke="none"/>
    </g>
    <g text-rendering="geometricPrecision" stroke-miterlimit="1.45" shape-rendering="geometricPrecision" font-family="sans-serif" transform="matrix(1,0,0,1,-193,-121)" stroke-linecap="butt">
      <text x="270.8301" xml:space="preserve" y="448.9668" clip-path="url(#clipPath2)" stroke="none">BUCK</text>
      <rect fill="none" x="252" width="71" height="45" y="421.7529" clip-path="url(#clipPath2)"/>
    </g>
    <g fill="rgb(255,204,0)" text-rendering="geometricPrecision" shape-rendering="geometricPrecision" transform="matrix(1,0,0,1,-193,-121)" stroke="rgb(255,204,0)">
      <rect x="353" width="71" height="45" y="421.7529" clip-path="url(#clipPath2)" stroke="none"/>
    </g>
    <g text-rendering="geometricPrecision" stroke-miterlimit="1.45" shape-rendering="geometricPrecision" font-family="sans-serif" transform="matrix(1,0,0,1,-193,-121)" stroke-linecap="butt">
      <text x="368.4932" xml:space="preserve" y="448.9668" clip-path="url(#clipPath2)" stroke="none">Modem</text>
      <rect fill="none" x="353" width="71" height="45" y="421.7529" clip-path="url(#clipPath2)"/>
    </g>
    <g fill="white" text-rendering="geometricPrecision" shape-rendering="geometricPrecision" transform="matrix(1,0,0,1,-193,-121)" stroke="white">
      <rect x="308" width="162" height="96" y="198.3765" clip-path="url(#clipPath2)" stroke="none"/>
    </g>
    <g text-rendering="geometricPrecision" stroke-miterlimit="1.45" shape-rendering="geometricPrecision" font-family="sans-serif" transform="matrix(1,0,0,1,-193,-121)" stroke-linecap="butt">
      <text x="341.6445" xml:space="preserve" y="251.0903" clip-path="url(#clipPath2)" stroke="none">Solar Cell Module</text>
      <rect fill="none" x="308" width="162" height="96" y="198.3765" clip-path="url(#clipPath2)"/>
    </g>
    <g fill="white" text-rendering="geometricPrecision" shape-rendering="geometricPrecision" transform="matrix(1,0,0,1,-193,-121)" stroke="white">
      <rect x="688" width="162" height="96" y="198.3765" clip-path="url(#clipPath2)" stroke="none"/>
    </g>
    <g text-rendering="geometricPrecision" stroke-miterlimit="1.45" shape-rendering="geometricPrecision" font-family="sans-serif" transform="matrix(1,0,0,1,-193,-121)" stroke-linecap="butt">
      <text x="721.6445" xml:space="preserve" y="251.0903" clip-path="url(#clipPath2)" stroke="none">Solar Cell Module</text>
      <rect fill="none" x="688" width="162" height="96" y="198.3765" clip-path="url(#clipPath2)"/>
    </g>
    <g fill="white" text-rendering="geometricPrecision" shape-rendering="geometricPrecision" transform="matrix(1,0,0,1,-193,-121)" stroke="white">
      <rect x="1068" width="162" height="96" y="198.3765" clip-path="url(#clipPath2)" stroke="none"/>
    </g>
    <g text-rendering="geometricPrecision" stroke-miterlimit="1.45" shape-rendering="geometricPrecision" font-family="sans-serif" transform="matrix(1,0,0,1,-193,-121)" stroke-linecap="butt">
      <text x="1101.6445" xml:space="preserve" y="251.0903" clip-path="url(#clipPath2)" stroke="none">Solar Cell Module</text>
      <rect fill="none" x="1068" width="162" height="96" y="198.3765" clip-path="url(#clipPath2)"/>
      <path fill="none" d="M453.9854 519.2529 L432 519.2529" clip-path="url(#clipPath2)"/>
      <path d="M424 519.2529 L436 524.2529 L433 519.2529 L436 514.2529 Z" clip-path="url(#clipPath2)" stroke="none"/>
      <path fill="none" d="M287.5 466.7529 L287.5 488.7712" clip-path="url(#clipPath2)"/>
      <path d="M287.5 496.7712 L292.5 484.7712 L287.5 487.7712 L282.5 484.7712 Z" clip-path="url(#clipPath2)" stroke="none"/>
      <path fill="none" d="M388.5 466.7529 L388.5 488.7667" clip-path="url(#clipPath2)"/>
      <path d="M388.5 496.7667 L393.5 484.7667 L388.5 487.7667 L383.5 484.7667 Z" clip-path="url(#clipPath2)" stroke="none"/>
      <path fill="none" d="M308 246.3765 L287.5 246.3765 L287.5 413.7529" clip-path="url(#clipPath2)"/>
      <path d="M287.5 421.7529 L292.5 409.7529 L287.5 412.7529 L282.5 409.7529 Z" clip-path="url(#clipPath2)" stroke="none"/>
      <path fill="none" d="M470 246.3765 L489.5 246.3765 L489.5 413.7529" clip-path="url(#clipPath2)"/>
      <path d="M489.5 421.7529 L494.5 409.7529 L489.5 412.7529 L484.5 409.7529 Z" clip-path="url(#clipPath2)" stroke="none"/>
      <path fill="none" d="M388.8787 294.3765 L388.5771 413.753" clip-path="url(#clipPath2)"/>
      <path d="M388.5569 421.7529 L393.5871 409.7656 L388.5796 412.753 L383.5872 409.7404 Z" clip-path="url(#clipPath2)" stroke="none"/>
      <path fill="none" d="M436.3842 294.3771 L436.3842 316.3912" clip-path="url(#clipPath2)"/>
      <path d="M436.3842 324.3912 L441.3842 312.3912 L436.3842 315.3912 L431.3842 312.3912 Z" clip-path="url(#clipPath2)" stroke="none"/>
      <path fill="none" d="M342.3842 294.3453 L342.3842 316.3524" clip-path="url(#clipPath2)"/>
      <path d="M342.3842 324.3524 L347.3842 312.3524 L342.3842 315.3524 L337.3842 312.3524 Z" clip-path="url(#clipPath2)" stroke="none"/>
      <path fill="none" d="M818.3842 294.4015 L818.3842 316.3842" clip-path="url(#clipPath2)"/>
      <path d="M818.3842 324.3842 L823.3842 312.3842 L818.3842 315.3842 L813.3842 312.3842 Z" clip-path="url(#clipPath2)" stroke="none"/>
      <path fill="none" d="M724.3842 294.3483 L724.3842 316.3612" clip-path="url(#clipPath2)"/>
      <path d="M724.3842 324.3612 L729.3842 312.3612 L724.3842 315.3612 L719.3842 312.3612 Z" clip-path="url(#clipPath2)" stroke="none"/>
      <path fill="none" d="M1197.3842 294.3468 L1197.3842 316.3903" clip-path="url(#clipPath2)"/>
      <path d="M1197.3842 324.3903 L1202.3842 312.3903 L1197.3842 315.3903 L1192.3842 312.3903 Z" clip-path="url(#clipPath2)" stroke="none"/>
      <path fill="none" d="M1102.3842 294.4069 L1102.3842 316.401" clip-path="url(#clipPath2)"/>
      <path d="M1102.3842 324.401 L1107.3842 312.401 L1102.3842 315.401 L1097.3842 312.401 Z" clip-path="url(#clipPath2)" stroke="none"/>
    </g>
    <g fill="rgb(245,245,245)" text-rendering="geometricPrecision" shape-rendering="geometricPrecision" transform="matrix(1,0,0,1,-193,-121)" stroke="rgb(245,245,245)">
      <rect x="617.5" y="384.3765" clip-path="url(#clipPath2)" width="303" rx="4" ry="4" height="172.3765" stroke="none"/>
      <rect x="617.5" y="384.3765" clip-path="url(#clipPath2)" fill="rgb(235,235,235)" width="303" height="22.3765" stroke="none"/>
    </g>
    <g font-size="15px" stroke-linecap="butt" transform="matrix(1,0,0,1,-193,-121)" text-rendering="geometricPrecision" font-family="sans-serif" shape-rendering="geometricPrecision" stroke-miterlimit="1.45">
      <text x="826.7788" xml:space="preserve" y="401.457" clip-path="url(#clipPath2)" stroke="none">Sensor Board</text>
      <rect x="617.5" y="384.3765" clip-path="url(#clipPath2)" fill="none" width="303" stroke-dasharray="6,2" rx="4" ry="4" height="172.3765"/>
    </g>
    <g fill="rgb(255,204,0)" text-rendering="geometricPrecision" shape-rendering="geometricPrecision" transform="matrix(1,0,0,1,-193,-121)" stroke="rgb(255,204,0)">
      <rect x="632.5" width="172" height="45" y="496.7529" clip-path="url(#clipPath2)" stroke="none"/>
    </g>
    <g text-rendering="geometricPrecision" stroke-miterlimit="1.45" shape-rendering="geometricPrecision" font-family="sans-serif" transform="matrix(1,0,0,1,-193,-121)" stroke-linecap="butt">
      <text x="704.8359" xml:space="preserve" y="523.9668" clip-path="url(#clipPath2)" stroke="none">MCU</text>
      <rect fill="none" x="632.5" width="172" height="45" y="496.7529" clip-path="url(#clipPath2)"/>
    </g>
    <g fill="rgb(255,204,0)" text-rendering="geometricPrecision" shape-rendering="geometricPrecision" transform="matrix(1,0,0,1,-193,-121)" stroke="rgb(255,204,0)">
      <rect x="834.5" width="71" height="120" y="421.7529" clip-path="url(#clipPath2)" stroke="none"/>
    </g>
    <g text-rendering="geometricPrecision" stroke-miterlimit="1.45" shape-rendering="geometricPrecision" font-family="sans-serif" transform="matrix(-0,-1,1,-0,667.6494,381.7637)" stroke-linecap="butt">
      <text x="2" xml:space="preserve" y="14.0645" clip-path="url(#clipPath4)" stroke="none">Sensor</text>
    </g>
    <g text-rendering="geometricPrecision" stroke-miterlimit="1.45" shape-rendering="geometricPrecision" transform="matrix(1,0,0,1,-193,-121)" stroke-linecap="butt">
      <rect fill="none" x="834.5" width="71" height="120" y="421.7529" clip-path="url(#clipPath2)"/>
    </g>
    <g fill="rgb(255,204,0)" text-rendering="geometricPrecision" shape-rendering="geometricPrecision" transform="matrix(1,0,0,1,-193,-121)" stroke="rgb(255,204,0)">
      <rect x="632.5" width="71" height="45" y="421.7529" clip-path="url(#clipPath2)" stroke="none"/>
    </g>
    <g text-rendering="geometricPrecision" stroke-miterlimit="1.45" shape-rendering="geometricPrecision" font-family="sans-serif" transform="matrix(1,0,0,1,-193,-121)" stroke-linecap="butt">
      <text x="651.3301" xml:space="preserve" y="448.9668" clip-path="url(#clipPath2)" stroke="none">BUCK</text>
      <rect fill="none" x="632.5" width="71" height="45" y="421.7529" clip-path="url(#clipPath2)"/>
    </g>
    <g fill="rgb(255,204,0)" text-rendering="geometricPrecision" shape-rendering="geometricPrecision" transform="matrix(1,0,0,1,-193,-121)" stroke="rgb(255,204,0)">
      <rect x="733.5" width="71" height="45" y="421.7529" clip-path="url(#clipPath2)" stroke="none"/>
    </g>
    <g text-rendering="geometricPrecision" stroke-miterlimit="1.45" shape-rendering="geometricPrecision" font-family="sans-serif" transform="matrix(1,0,0,1,-193,-121)" stroke-linecap="butt">
      <text x="748.9932" xml:space="preserve" y="448.9668" clip-path="url(#clipPath2)" stroke="none">Modem</text>
      <rect fill="none" x="733.5" width="71" height="45" y="421.7529" clip-path="url(#clipPath2)"/>
      <path fill="none" d="M850 246.3765 L870 246.3765 L870 413.7529" clip-path="url(#clipPath2)"/>
      <path d="M870 421.7529 L875 409.7529 L870 412.7529 L865 409.7529 Z" clip-path="url(#clipPath2)" stroke="none"/>
      <path fill="none" d="M834.4854 519.2529 L812.5 519.2529" clip-path="url(#clipPath2)"/>
      <path d="M804.5 519.2529 L816.5 524.2529 L813.5 519.2529 L816.5 514.2529 Z" clip-path="url(#clipPath2)" stroke="none"/>
      <path fill="none" d="M688 246.3765 L668 246.3765 L668 413.7529" clip-path="url(#clipPath2)"/>
      <path d="M668 421.7529 L673 409.7529 L668 412.7529 L663 409.7529 Z" clip-path="url(#clipPath2)" stroke="none"/>
      <path fill="none" d="M668 466.7529 L668 488.7712" clip-path="url(#clipPath2)"/>
      <path d="M668 496.7712 L673 484.7712 L668 487.7712 L663 484.7712 Z" clip-path="url(#clipPath2)" stroke="none"/>
      <path fill="none" d="M769 294.3765 L769 413.7529" clip-path="url(#clipPath2)"/>
      <path d="M769 421.7529 L774 409.7529 L769 412.7529 L764 409.7529 Z" clip-path="url(#clipPath2)" stroke="none"/>
      <path fill="none" d="M769 466.7529 L769 488.7667" clip-path="url(#clipPath2)"/>
      <path d="M769 496.7667 L774 484.7667 L769 487.7667 L764 484.7667 Z" clip-path="url(#clipPath2)" stroke="none"/>
    </g>
    <g fill="rgb(245,245,245)" text-rendering="geometricPrecision" shape-rendering="geometricPrecision" transform="matrix(1,0,0,1,-193,-121)" stroke="rgb(245,245,245)">
      <rect x="998" y="384.3765" clip-path="url(#clipPath2)" width="303" rx="4" ry="4" height="172.3765" stroke="none"/>
      <rect x="998" y="384.3765" clip-path="url(#clipPath2)" fill="rgb(235,235,235)" width="303" height="22.3765" stroke="none"/>
    </g>
    <g font-size="15px" stroke-linecap="butt" transform="matrix(1,0,0,1,-193,-121)" text-rendering="geometricPrecision" font-family="sans-serif" shape-rendering="geometricPrecision" stroke-miterlimit="1.45">
      <text x="1207.2788" xml:space="preserve" y="401.457" clip-path="url(#clipPath2)" stroke="none">Sensor Board</text>
      <rect x="998" y="384.3765" clip-path="url(#clipPath2)" fill="none" width="303" stroke-dasharray="6,2" rx="4" ry="4" height="172.3765"/>
    </g>
    <g fill="rgb(255,204,0)" text-rendering="geometricPrecision" shape-rendering="geometricPrecision" transform="matrix(1,0,0,1,-193,-121)" stroke="rgb(255,204,0)">
      <rect x="1013" width="172" height="45" y="496.7529" clip-path="url(#clipPath2)" stroke="none"/>
    </g>
    <g text-rendering="geometricPrecision" stroke-miterlimit="1.45" shape-rendering="geometricPrecision" font-family="sans-serif" transform="matrix(1,0,0,1,-193,-121)" stroke-linecap="butt">
      <text x="1085.3359" xml:space="preserve" y="523.9668" clip-path="url(#clipPath2)" stroke="none">MCU</text>
      <rect fill="none" x="1013" width="172" height="45" y="496.7529" clip-path="url(#clipPath2)"/>
    </g>
    <g fill="rgb(255,204,0)" text-rendering="geometricPrecision" shape-rendering="geometricPrecision" transform="matrix(1,0,0,1,-193,-121)" stroke="rgb(255,204,0)">
      <rect x="1215" width="71" height="120" y="421.7529" clip-path="url(#clipPath2)" stroke="none"/>
    </g>
    <g text-rendering="geometricPrecision" stroke-miterlimit="1.45" shape-rendering="geometricPrecision" font-family="sans-serif" transform="matrix(-0,-1,1,-0,1048.1494,381.7637)" stroke-linecap="butt">
      <text x="2" xml:space="preserve" y="14.0645" clip-path="url(#clipPath5)" stroke="none">Sensor</text>
    </g>
    <g text-rendering="geometricPrecision" stroke-miterlimit="1.45" shape-rendering="geometricPrecision" transform="matrix(1,0,0,1,-193,-121)" stroke-linecap="butt">
      <rect fill="none" x="1215" width="71" height="120" y="421.7529" clip-path="url(#clipPath2)"/>
    </g>
    <g fill="rgb(255,204,0)" text-rendering="geometricPrecision" shape-rendering="geometricPrecision" transform="matrix(1,0,0,1,-193,-121)" stroke="rgb(255,204,0)">
      <rect x="1013" width="71" height="45" y="421.7529" clip-path="url(#clipPath2)" stroke="none"/>
    </g>
    <g text-rendering="geometricPrecision" stroke-miterlimit="1.45" shape-rendering="geometricPrecision" font-family="sans-serif" transform="matrix(1,0,0,1,-193,-121)" stroke-linecap="butt">
      <text x="1031.8301" xml:space="preserve" y="448.9668" clip-path="url(#clipPath2)" stroke="none">BUCK</text>
      <rect fill="none" x="1013" width="71" height="45" y="421.7529" clip-path="url(#clipPath2)"/>
    </g>
    <g fill="rgb(255,204,0)" text-rendering="geometricPrecision" shape-rendering="geometricPrecision" transform="matrix(1,0,0,1,-193,-121)" stroke="rgb(255,204,0)">
      <rect x="1114" width="71" height="45" y="421.7529" clip-path="url(#clipPath2)" stroke="none"/>
    </g>
    <g text-rendering="geometricPrecision" stroke-miterlimit="1.45" shape-rendering="geometricPrecision" font-family="sans-serif" transform="matrix(1,0,0,1,-193,-121)" stroke-linecap="butt">
      <text x="1129.4932" xml:space="preserve" y="448.9668" clip-path="url(#clipPath2)" stroke="none">Modem</text>
      <rect fill="none" x="1114" width="71" height="45" y="421.7529" clip-path="url(#clipPath2)"/>
      <path fill="none" d="M1230 246.3765 L1250.5 246.3765 L1250.5 413.7529" clip-path="url(#clipPath2)"/>
      <path d="M1250.5 421.7529 L1255.5 409.7529 L1250.5 412.7529 L1245.5 409.7529 Z" clip-path="url(#clipPath2)" stroke="none"/>
      <path fill="none" d="M1214.9854 519.2529 L1193 519.2529" clip-path="url(#clipPath2)"/>
      <path d="M1185 519.2529 L1197 524.2529 L1194 519.2529 L1197 514.2529 Z" clip-path="url(#clipPath2)" stroke="none"/>
      <path fill="none" d="M1068 242.2447 L1048.5 241.25 L1048.5 413.7529" clip-path="url(#clipPath2)"/>
      <path d="M1048.5 421.7529 L1053.5 409.7529 L1048.5 412.7529 L1043.5 409.7529 Z" clip-path="url(#clipPath2)" stroke="none"/>
      <path fill="none" d="M1048.5 466.7529 L1048.5 488.7712" clip-path="url(#clipPath2)"/>
      <path d="M1048.5 496.7712 L1053.5 484.7712 L1048.5 487.7712 L1043.5 484.7712 Z" clip-path="url(#clipPath2)" stroke="none"/>
      <path fill="none" d="M1149.1213 294.3765 L1149.423 413.753" clip-path="url(#clipPath2)"/>
      <path d="M1149.4431 421.7529 L1154.4128 409.7404 L1149.4204 412.753 L1144.413 409.7656 Z" clip-path="url(#clipPath2)" stroke="none"/>
      <path fill="none" d="M1149.5 466.7529 L1149.5 488.7667" clip-path="url(#clipPath2)"/>
      <path d="M1149.5 496.7667 L1154.5 484.7667 L1149.5 487.7667 L1144.5 484.7667 Z" clip-path="url(#clipPath2)" stroke="none"/>
    </g>
    <g fill="rgb(245,245,245)" text-rendering="geometricPrecision" shape-rendering="geometricPrecision" transform="matrix(1,0,0,1,-193,-121)" stroke="rgb(245,245,245)">
      <rect x="1331" y="198" clip-path="url(#clipPath2)" width="174.6158" rx="4" ry="4" height="358.7529" stroke="none"/>
      <rect x="1331" y="198" clip-path="url(#clipPath2)" fill="rgb(235,235,235)" width="174.6158" height="22.3765" stroke="none"/>
    </g>
    <g font-size="15px" stroke-linecap="butt" transform="matrix(1,0,0,1,-193,-121)" text-rendering="geometricPrecision" font-family="sans-serif" shape-rendering="geometricPrecision" stroke-miterlimit="1.45">
      <text x="1455.2614" xml:space="preserve" y="215.0806" clip-path="url(#clipPath2)" stroke="none">Central</text>
      <rect x="1331" y="198" clip-path="url(#clipPath2)" fill="none" width="174.6158" stroke-dasharray="6,2" rx="4" ry="4" height="358.7529"/>
    </g>
    <g fill="rgb(255,204,0)" text-rendering="geometricPrecision" shape-rendering="geometricPrecision" transform="matrix(1,0,0,1,-193,-121)" stroke="rgb(255,204,0)">
      <rect x="1419.6158" width="71" height="306.3765" y="235.3765" clip-path="url(#clipPath2)" stroke="none"/>
    </g>
    <g text-rendering="geometricPrecision" stroke-miterlimit="1.45" shape-rendering="geometricPrecision" font-family="sans-serif" transform="matrix(-0,-1,1,-0,1252.7652,291.5725)" stroke-linecap="butt">
      <text x="2" xml:space="preserve" y="14.0645" clip-path="url(#clipPath6)" stroke="none"> Inverter</text>
    </g>
    <g text-rendering="geometricPrecision" stroke-miterlimit="1.45" shape-rendering="geometricPrecision" transform="matrix(1,0,0,1,-193,-121)" stroke-linecap="butt">
      <rect fill="none" x="1419.6158" width="71" height="306.3765" y="235.3765" clip-path="url(#clipPath2)"/>
    </g>
    <g fill="rgb(255,204,0)" text-rendering="geometricPrecision" shape-rendering="geometricPrecision" transform="matrix(1,0,0,1,-193,-121)" stroke="rgb(255,204,0)">
      <rect x="1346" width="41" height="306.3765" y="235.3765" clip-path="url(#clipPath2)" stroke="none"/>
    </g>
    <g text-rendering="geometricPrecision" stroke-miterlimit="1.45" shape-rendering="geometricPrecision" font-family="sans-serif" transform="matrix(-0,-1,1,-0,1164.1494,310.5745)" stroke-linecap="butt">
      <text x="2" xml:space="preserve" y="14.0645" clip-path="url(#clipPath7)" stroke="none">Server / Master</text>
    </g>
    <g text-rendering="geometricPrecision" stroke-miterlimit="1.45" shape-rendering="geometricPrecision" transform="matrix(1,0,0,1,-193,-121)" stroke-linecap="butt">
      <rect fill="none" x="1346" width="41" height="306.3765" y="235.3765" clip-path="url(#clipPath2)"/>
      <text x="1388.2864" font-size="24px" y="162.4277" clip-path="url(#clipPath2)" font-family="sans-serif" stroke="none" xml:space="preserve">Bus Overview</text>
      <rect fill="none" x="208.5" width="1328.3333" height="413" y="169" clip-path="url(#clipPath2)"/>
      <path fill="none" d="M1419.5917 331.3661 L1308.9805 332.728" clip-path="url(#clipPath2)"/>
      <path d="M1300.9811 332.8265 L1313.0417 337.6783 L1309.9803 332.7156 L1312.9186 327.6791 Z" clip-path="url(#clipPath2)" stroke="none"/>
      <path fill="none" d="M1346.0037 347.5735 L1309.0302 347.0483" clip-path="url(#clipPath2)"/>
      <path d="M1301.031 346.9347 L1312.9587 352.1046 L1310.0302 347.0625 L1313.1008 342.1056 Z" clip-path="url(#clipPath2)" stroke="none"/>
    </g>
  </g>
</svg>
