G04 #@! TF.FileFunction,Other,User*
%FSLAX46Y46*%
G04 Gerber Fmt 4.6, Leading zero omitted, Abs format (unit mm)*
G04 Created by KiCad (PCBNEW 4.0.1-2.fc23-product) date Wed 16 Mar 2016 04:27:10 PM CET*
%MOMM*%
G01*
G04 APERTURE LIST*
%ADD10C,0.100000*%
%ADD11C,0.050000*%
G04 APERTURE END LIST*
D10*
D11*
X161400000Y-92000000D02*
X161400000Y-89100000D01*
X162900000Y-92000000D02*
X162900000Y-89100000D01*
X161400000Y-92000000D02*
X162900000Y-92000000D01*
X161400000Y-89100000D02*
X162900000Y-89100000D01*
X168950000Y-83150000D02*
X166050000Y-83150000D01*
X168950000Y-81650000D02*
X166050000Y-81650000D01*
X168950000Y-83150000D02*
X168950000Y-81650000D01*
X166050000Y-83150000D02*
X166050000Y-81650000D01*
X159950000Y-77800000D02*
X159950000Y-81400000D01*
X157950000Y-77800000D02*
X157950000Y-81400000D01*
X159950000Y-77800000D02*
X157950000Y-77800000D01*
X159950000Y-81400000D02*
X157950000Y-81400000D01*
X163750000Y-77700000D02*
X163750000Y-81300000D01*
X161750000Y-77700000D02*
X161750000Y-81300000D01*
X163750000Y-77700000D02*
X161750000Y-77700000D01*
X163750000Y-81300000D02*
X161750000Y-81300000D01*
X160150000Y-82250000D02*
X160150000Y-79350000D01*
X161650000Y-82250000D02*
X161650000Y-79350000D01*
X160150000Y-82250000D02*
X161650000Y-82250000D01*
X160150000Y-79350000D02*
X161650000Y-79350000D01*
X161150000Y-82350000D02*
X165650000Y-82350000D01*
X165650000Y-82350000D02*
X165650000Y-84450000D01*
X165650000Y-84450000D02*
X161150000Y-84450000D01*
X161150000Y-82350000D02*
X161150000Y-84450000D01*
X150350000Y-87700000D02*
X150350000Y-90300000D01*
X148750000Y-87700000D02*
X148750000Y-90300000D01*
X150350000Y-87700000D02*
X148750000Y-87700000D01*
X150350000Y-90300000D02*
X148750000Y-90300000D01*
X152050000Y-87700000D02*
X152050000Y-90300000D01*
X150450000Y-87700000D02*
X150450000Y-90300000D01*
X152050000Y-87700000D02*
X150450000Y-87700000D01*
X152050000Y-90300000D02*
X150450000Y-90300000D01*
X152700000Y-86900000D02*
X150100000Y-86900000D01*
X152700000Y-85300000D02*
X150100000Y-85300000D01*
X152700000Y-86900000D02*
X152700000Y-85300000D01*
X150100000Y-86900000D02*
X150100000Y-85300000D01*
X165550000Y-92100000D02*
X162950000Y-92100000D01*
X165550000Y-90500000D02*
X162950000Y-90500000D01*
X165550000Y-92100000D02*
X165550000Y-90500000D01*
X162950000Y-92100000D02*
X162950000Y-90500000D01*
X158400000Y-84550000D02*
X158400000Y-81950000D01*
X160000000Y-84550000D02*
X160000000Y-81950000D01*
X158400000Y-84550000D02*
X160000000Y-84550000D01*
X158400000Y-81950000D02*
X160000000Y-81950000D01*
X164300000Y-76000000D02*
X167500000Y-76000000D01*
X164300000Y-78000000D02*
X167500000Y-78000000D01*
X164300000Y-76000000D02*
X164300000Y-78000000D01*
X167500000Y-76000000D02*
X167500000Y-78000000D01*
X157200000Y-84050000D02*
X154600000Y-84050000D01*
X157200000Y-82450000D02*
X154600000Y-82450000D01*
X157200000Y-84050000D02*
X157200000Y-82450000D01*
X154600000Y-84050000D02*
X154600000Y-82450000D01*
X154300000Y-84050000D02*
X151700000Y-84050000D01*
X154300000Y-82450000D02*
X151700000Y-82450000D01*
X154300000Y-84050000D02*
X154300000Y-82450000D01*
X151700000Y-84050000D02*
X151700000Y-82450000D01*
X170500000Y-81150000D02*
X170500000Y-78550000D01*
X172100000Y-81150000D02*
X172100000Y-78550000D01*
X170500000Y-81150000D02*
X172100000Y-81150000D01*
X170500000Y-78550000D02*
X172100000Y-78550000D01*
X170300000Y-78100000D02*
X170300000Y-80700000D01*
X168700000Y-78100000D02*
X168700000Y-80700000D01*
X170300000Y-78100000D02*
X168700000Y-78100000D01*
X170300000Y-80700000D02*
X168700000Y-80700000D01*
X160850000Y-91290000D02*
X160850000Y-85690000D01*
X152950000Y-91290000D02*
X152950000Y-85690000D01*
X160850000Y-91290000D02*
X152950000Y-91290000D01*
X160850000Y-85690000D02*
X152950000Y-85690000D01*
X152050000Y-78000000D02*
X158100000Y-78000000D01*
X152050000Y-65850000D02*
X158100000Y-65850000D01*
X152050000Y-78000000D02*
X152050000Y-65850000D01*
X158100000Y-78000000D02*
X158100000Y-65850000D01*
M02*
