G04 #@! TF.FileFunction,Copper,L2,Bot,Signal*
%FSLAX46Y46*%
G04 Gerber Fmt 4.6, Leading zero omitted, Abs format (unit mm)*
G04 Created by KiCad (PCBNEW 4.0.1-2.fc23-product) date Wed 16 Mar 2016 04:27:10 PM CET*
%MOMM*%
G01*
G04 APERTURE LIST*
%ADD10C,0.100000*%
%ADD11R,0.500000X0.900000*%
%ADD12R,0.750000X0.800000*%
%ADD13R,0.800000X0.750000*%
%ADD14R,0.900000X0.500000*%
%ADD15R,1.300000X0.700000*%
%ADD16R,1.500000X1.200000*%
%ADD17R,1.100000X2.400000*%
%ADD18R,1.200000X0.800000*%
%ADD19R,1.300000X1.550000*%
%ADD20R,0.450000X1.500000*%
%ADD21R,0.300000X0.850000*%
%ADD22R,0.850000X0.300000*%
%ADD23R,1.300000X1.300000*%
%ADD24R,0.398780X0.749300*%
%ADD25R,1.600000X0.800000*%
%ADD26R,3.000000X2.100000*%
%ADD27R,2.032000X2.032000*%
%ADD28O,2.032000X2.032000*%
%ADD29R,0.797560X0.797560*%
%ADD30R,1.150000X0.700000*%
%ADD31R,1.550000X4.700000*%
%ADD32R,3.300000X4.200000*%
%ADD33C,0.700000*%
%ADD34C,0.600000*%
%ADD35C,0.250000*%
%ADD36C,0.500000*%
%ADD37C,0.254000*%
G04 APERTURE END LIST*
D10*
D11*
X168950000Y-91400000D03*
X167450000Y-91400000D03*
X166150000Y-91150000D03*
X164650000Y-91150000D03*
D12*
X158900000Y-81050000D03*
X158900000Y-79550000D03*
D13*
X166950000Y-81200000D03*
X168450000Y-81200000D03*
X165500000Y-79600000D03*
X167000000Y-79600000D03*
X170350000Y-93100000D03*
X168850000Y-93100000D03*
D12*
X158450000Y-90900000D03*
X158450000Y-92400000D03*
X158532228Y-86600000D03*
X158532228Y-88100000D03*
X160182228Y-88150000D03*
X160182228Y-86650000D03*
X161932228Y-87400000D03*
X161932228Y-85900000D03*
D14*
X171450000Y-88400000D03*
X171450000Y-89900000D03*
D11*
X167900000Y-94800000D03*
X166400000Y-94800000D03*
D14*
X169650000Y-89900000D03*
X169650000Y-88400000D03*
D11*
X152800000Y-95900000D03*
X154300000Y-95900000D03*
X152840000Y-94150000D03*
X154340000Y-94150000D03*
X171750000Y-91400000D03*
X170250000Y-91400000D03*
X165550000Y-81200000D03*
X164050000Y-81200000D03*
D15*
X152700000Y-84900000D03*
X152700000Y-86800000D03*
D11*
X151300000Y-88300000D03*
X149800000Y-88300000D03*
X162532228Y-81200000D03*
X161032228Y-81200000D03*
D14*
X161932228Y-84150000D03*
X161932228Y-82650000D03*
D16*
X162770000Y-91830000D03*
X162770000Y-94370000D03*
D17*
X160230000Y-93100000D03*
D18*
X162770000Y-93100000D03*
D19*
X164150000Y-96800000D03*
X159650000Y-96800000D03*
X159650000Y-104750000D03*
X164150000Y-104750000D03*
D20*
X163592228Y-83040000D03*
X164242228Y-83040000D03*
X164892228Y-83040000D03*
X165542228Y-83040000D03*
X166192228Y-83040000D03*
X166842228Y-83040000D03*
X167492228Y-83040000D03*
X168142228Y-83040000D03*
X168142228Y-88940000D03*
X167492228Y-88940000D03*
X166842228Y-88940000D03*
X166192228Y-88940000D03*
X165542228Y-88940000D03*
X164892228Y-88940000D03*
X164242228Y-88940000D03*
X163592228Y-88940000D03*
D21*
X153550000Y-88450000D03*
X154050000Y-88450000D03*
X154550000Y-88450000D03*
X155050000Y-88450000D03*
X155550000Y-88450000D03*
X156050000Y-88450000D03*
D22*
X156750000Y-89150000D03*
X156750000Y-89650000D03*
X156750000Y-90150000D03*
X156750000Y-90650000D03*
X156750000Y-91150000D03*
X156750000Y-91650000D03*
D21*
X156050000Y-92350000D03*
X155550000Y-92350000D03*
X155050000Y-92350000D03*
X154550000Y-92350000D03*
X154050000Y-92350000D03*
X153550000Y-92350000D03*
D22*
X152850000Y-91650000D03*
X152850000Y-91150000D03*
X152850000Y-90650000D03*
X152850000Y-90150000D03*
X152850000Y-89650000D03*
X152850000Y-89150000D03*
D23*
X155450000Y-91050000D03*
X154150000Y-91050000D03*
X155450000Y-89750000D03*
X154150000Y-89750000D03*
D24*
X158649760Y-83150040D03*
X159300000Y-83150040D03*
X159950240Y-83150040D03*
X159950240Y-85049960D03*
X159300000Y-85049960D03*
X158649760Y-85049960D03*
D25*
X148600000Y-86925000D03*
X148600000Y-85675000D03*
X148600000Y-84425000D03*
X148600000Y-83175000D03*
D26*
X145700000Y-89475000D03*
X145700000Y-80625000D03*
D27*
X153800000Y-76500000D03*
D28*
X156340000Y-76500000D03*
D19*
X166650000Y-104750000D03*
X171150000Y-104750000D03*
X171150000Y-96800000D03*
X166650000Y-96800000D03*
D29*
X155751400Y-94100000D03*
X157250000Y-94100000D03*
X155751400Y-95750000D03*
X157250000Y-95750000D03*
D14*
X151250000Y-95350000D03*
X151250000Y-93850000D03*
D11*
X166850000Y-93100000D03*
X165350000Y-93100000D03*
D12*
X146800000Y-93550000D03*
X146800000Y-92050000D03*
D30*
X156700000Y-80560000D03*
X156700000Y-79290000D03*
X156700000Y-81830000D03*
D31*
X151225000Y-81195000D03*
D32*
X153425000Y-81195000D03*
D30*
X156700000Y-83100000D03*
D33*
X157900000Y-81000000D03*
X166500000Y-78700000D03*
X169800000Y-81400000D03*
X157500000Y-86800000D03*
X165991746Y-84352998D03*
X160900000Y-80050000D03*
X167900000Y-93100000D03*
X164200000Y-93694990D03*
D34*
X149900011Y-87099989D03*
D33*
X156600000Y-85100000D03*
X159200000Y-84074692D03*
X156000000Y-97600000D03*
X164600000Y-85900000D03*
X163950000Y-81600000D03*
X152500000Y-92675010D03*
X151700000Y-91824990D03*
X160350000Y-95200000D03*
X148400000Y-91400000D03*
X154700000Y-84699989D03*
D34*
X167750000Y-92200000D03*
D33*
X150200000Y-90700000D03*
X149800000Y-92300000D03*
X157825000Y-90600000D03*
X163850000Y-90690011D03*
D35*
X157900000Y-81000000D02*
X158850000Y-81000000D01*
X158850000Y-81000000D02*
X158900000Y-81050000D01*
X158000000Y-81600000D02*
X158000000Y-81100000D01*
X158000000Y-81100000D02*
X157900000Y-81000000D01*
X158000000Y-82700000D02*
X158000000Y-81600000D01*
X158649760Y-83150040D02*
X158199960Y-83150040D01*
X158000000Y-82700000D02*
X158000000Y-82949670D01*
X158000000Y-82949670D02*
X158200370Y-83150040D01*
X158200370Y-83150040D02*
X158649760Y-83150040D01*
X152850000Y-89650000D02*
X150378590Y-89650000D01*
X149800000Y-89071410D02*
X149800000Y-88300000D01*
X150378590Y-89650000D02*
X149800000Y-89071410D01*
D36*
X158450000Y-92400000D02*
X159530000Y-92400000D01*
X159530000Y-92400000D02*
X160230000Y-93100000D01*
X160200000Y-91525000D02*
X159325000Y-92400000D01*
X158450000Y-92400000D02*
X159325000Y-92400000D01*
X168850000Y-93100000D02*
X167900000Y-93100000D01*
X164200000Y-93430000D02*
X164200000Y-93694990D01*
X163870000Y-93100000D02*
X164200000Y-93430000D01*
X164650000Y-91150000D02*
X164650000Y-92320000D01*
X164650000Y-92320000D02*
X163870000Y-93100000D01*
X163870000Y-93100000D02*
X162770000Y-93100000D01*
D35*
X152850000Y-89150000D02*
X150691776Y-89150000D01*
X150691776Y-89150000D02*
X150550000Y-89008224D01*
D36*
X150550000Y-89008224D02*
X150616766Y-89074990D01*
X150550000Y-87325714D02*
X150550000Y-89008224D01*
X149900011Y-87099989D02*
X150324275Y-87099989D01*
X150324275Y-87099989D02*
X150550000Y-87325714D01*
D35*
X149900011Y-87099989D02*
X148774989Y-87099989D01*
X148774989Y-87099989D02*
X148600000Y-86925000D01*
D36*
X157400000Y-85100000D02*
X156600000Y-85100000D01*
D35*
X162550000Y-86650000D02*
X163592228Y-87692228D01*
X163592228Y-87692228D02*
X163592228Y-88940000D01*
X160182228Y-86650000D02*
X162550000Y-86650000D01*
D36*
X158532228Y-86600000D02*
X158532228Y-86232228D01*
X158532228Y-86232228D02*
X157400000Y-85100000D01*
X159300000Y-85049960D02*
X159300000Y-84174692D01*
X159300000Y-84174692D02*
X159200000Y-84074692D01*
X159300000Y-85049960D02*
X159300000Y-85767772D01*
X159300000Y-85767772D02*
X160182228Y-86650000D01*
X158532228Y-86600000D02*
X159300000Y-85832228D01*
X159300000Y-85832228D02*
X159300000Y-85049960D01*
X151250000Y-95350000D02*
X148575000Y-95350000D01*
X148575000Y-95350000D02*
X146800000Y-93575000D01*
X146800000Y-93575000D02*
X146800000Y-93550000D01*
X152800000Y-95900000D02*
X152800000Y-95000000D01*
X152800000Y-95000000D02*
X152800000Y-94190000D01*
X151250000Y-95350000D02*
X152450000Y-95350000D01*
X152450000Y-95350000D02*
X152800000Y-95000000D01*
X151250000Y-95350000D02*
X152250000Y-95350000D01*
X152250000Y-95350000D02*
X152800000Y-95900000D01*
X152800000Y-94190000D02*
X152840000Y-94150000D01*
X156000000Y-97600000D02*
X153550000Y-97600000D01*
X153550000Y-97600000D02*
X152800000Y-96850000D01*
X152800000Y-96850000D02*
X152800000Y-95900000D01*
D35*
X162800000Y-84075736D02*
X162800000Y-82272226D01*
X162800000Y-82272226D02*
X163282228Y-81789998D01*
X163282228Y-81789998D02*
X163649218Y-81789998D01*
X163649218Y-81789998D02*
X164073482Y-81789998D01*
X164600000Y-85875736D02*
X162800000Y-84075736D01*
X152175000Y-89150000D02*
X152850000Y-89150000D01*
X149650000Y-86925000D02*
X148600000Y-86925000D01*
X164073482Y-81789998D02*
X164073482Y-80958746D01*
X164073482Y-80958746D02*
X164082228Y-80950000D01*
X160182228Y-86675000D02*
X160182228Y-86650000D01*
X160132228Y-86600000D02*
X160182228Y-86650000D01*
D36*
X152700000Y-84900000D02*
X152700000Y-81920000D01*
X152700000Y-81920000D02*
X153425000Y-81195000D01*
X152700000Y-84900000D02*
X152400000Y-84900000D01*
D35*
X157250000Y-94100000D02*
X157250000Y-93451220D01*
X157250000Y-93451220D02*
X156750000Y-92951220D01*
X156750000Y-92951220D02*
X156750000Y-92050000D01*
X156750000Y-92050000D02*
X156750000Y-91650000D01*
X155751400Y-94100000D02*
X154390000Y-94100000D01*
X154390000Y-94100000D02*
X154340000Y-94150000D01*
X158050000Y-93517438D02*
X158050000Y-95598780D01*
X158050000Y-95598780D02*
X157898780Y-95750000D01*
X156750000Y-91150000D02*
X157410002Y-91150000D01*
X157410002Y-91150000D02*
X157700010Y-91440008D01*
X157700010Y-91440008D02*
X157700010Y-93167448D01*
X157700010Y-93167448D02*
X158050000Y-93517438D01*
X157250000Y-95750000D02*
X157898780Y-95750000D01*
X155751400Y-95750000D02*
X154450000Y-95750000D01*
X154450000Y-95750000D02*
X154300000Y-95900000D01*
X165542228Y-83040000D02*
X164892228Y-83040000D01*
X170650000Y-87100000D02*
X167302228Y-87100000D01*
X167302228Y-87100000D02*
X164242228Y-84040000D01*
X164242228Y-84040000D02*
X164242228Y-83040000D01*
X171450000Y-88400000D02*
X171450000Y-87900000D01*
X171450000Y-87900000D02*
X170650000Y-87100000D01*
X171750000Y-91400000D02*
X171750000Y-90200000D01*
X171750000Y-90200000D02*
X171450000Y-89900000D01*
X167900000Y-94800000D02*
X170010002Y-94800000D01*
X170010002Y-94800000D02*
X171750000Y-93060002D01*
X171750000Y-93060002D02*
X171750000Y-92100000D01*
X171750000Y-92100000D02*
X171750000Y-91400000D01*
X169650000Y-89900000D02*
X171450000Y-89900000D01*
X169700000Y-89950000D02*
X169650000Y-89900000D01*
X166400000Y-94800000D02*
X166400000Y-93935002D01*
X166400000Y-93935002D02*
X165925001Y-93460003D01*
X165925001Y-92125547D02*
X165542228Y-91742774D01*
X165925001Y-93460003D02*
X165925001Y-92125547D01*
X165542228Y-91742774D02*
X165542228Y-90057772D01*
X165542228Y-90057772D02*
X165542228Y-88940000D01*
X169350000Y-87600000D02*
X164582228Y-87600000D01*
X164582228Y-87600000D02*
X164242228Y-87940000D01*
X164242228Y-87940000D02*
X164242228Y-88940000D01*
X169650000Y-88400000D02*
X169650000Y-87900000D01*
X169650000Y-87900000D02*
X169350000Y-87600000D01*
X152500000Y-92675010D02*
X151551018Y-92675010D01*
X152400000Y-92575010D02*
X152500000Y-92675010D01*
X152174989Y-91149989D02*
X152175000Y-91150000D01*
X151375999Y-91149989D02*
X152174989Y-91149989D01*
X151000000Y-91525988D02*
X151375999Y-91149989D01*
X151000000Y-92123992D02*
X151000000Y-91525988D01*
X152175000Y-91150000D02*
X152850000Y-91150000D01*
X151551018Y-92675010D02*
X151000000Y-92123992D01*
X151700000Y-91824990D02*
X151874990Y-91650000D01*
X151874990Y-91650000D02*
X152850000Y-91650000D01*
X153099989Y-93350011D02*
X153350000Y-93100000D01*
X153350000Y-93100000D02*
X153550000Y-92900000D01*
X153325013Y-93350011D02*
X153325013Y-93124987D01*
X153325013Y-93124987D02*
X153350000Y-93100000D01*
X153550000Y-96435002D02*
X153550000Y-93900000D01*
X153550000Y-93900000D02*
X153550000Y-93250000D01*
X153099989Y-93350011D02*
X153325013Y-93350011D01*
X153325013Y-93350011D02*
X153550000Y-93574998D01*
X153550000Y-93574998D02*
X153550000Y-93900000D01*
X153550000Y-93025000D02*
X153550000Y-92900000D01*
X152449989Y-93350011D02*
X153099989Y-93350011D01*
X153550000Y-92900000D02*
X153550000Y-92350000D01*
X151250000Y-93850000D02*
X151950000Y-93850000D01*
X151950000Y-93850000D02*
X152449989Y-93350011D01*
X156731037Y-97250009D02*
X156156029Y-96675001D01*
X156156029Y-96675001D02*
X153789999Y-96675001D01*
X153789999Y-96675001D02*
X153550000Y-96435002D01*
X160850000Y-97900001D02*
X158739999Y-97900001D01*
X158739999Y-97900001D02*
X158090008Y-97250010D01*
X158090008Y-97250010D02*
X156731037Y-97250009D01*
X165674999Y-97900001D02*
X161150000Y-97900001D01*
X161000000Y-97750001D02*
X161150000Y-97900001D01*
X161150000Y-97900001D02*
X161000000Y-97900001D01*
X161000000Y-97700000D02*
X161000000Y-97750001D01*
X161000000Y-95850000D02*
X161000000Y-97700000D01*
X160850000Y-97900001D02*
X160850000Y-97850000D01*
X161000000Y-97700000D02*
X161000000Y-97900001D01*
X160850000Y-97850000D02*
X161000000Y-97700000D01*
X161000000Y-97900001D02*
X160850000Y-97900001D01*
X160350000Y-95200000D02*
X161000000Y-95850000D01*
X166650000Y-96800000D02*
X166650000Y-96925000D01*
X166650000Y-96925000D02*
X165674999Y-97900001D01*
X153550000Y-93250000D02*
X153550000Y-93025000D01*
X151250000Y-93850000D02*
X151450000Y-93850000D01*
X153550000Y-92650000D02*
X153550000Y-92350000D01*
X148589578Y-91589578D02*
X148400000Y-91400000D01*
X148810422Y-91589578D02*
X148589578Y-91589578D01*
X150300000Y-91589578D02*
X148810422Y-91589578D01*
X152850000Y-90650000D02*
X151239578Y-90650000D01*
X151239578Y-90650000D02*
X150300000Y-91589578D01*
X154700000Y-84699989D02*
X156299989Y-83100000D01*
X156299989Y-83100000D02*
X156700000Y-83100000D01*
X152700000Y-86800000D02*
X151800000Y-86800000D01*
X151800000Y-86800000D02*
X151300000Y-87300000D01*
X151300000Y-87300000D02*
X151300000Y-87800000D01*
X151300000Y-87800000D02*
X151300000Y-88500000D01*
X152700000Y-86800000D02*
X152971056Y-86800000D01*
X152971056Y-86800000D02*
X153550000Y-87378944D01*
X153550000Y-88450000D02*
X153550000Y-87378944D01*
X161032228Y-82517442D02*
X161032228Y-81800000D01*
X161032228Y-81800000D02*
X161032228Y-81200000D01*
X161250000Y-81967772D02*
X161200000Y-81967772D01*
X161200000Y-81967772D02*
X161032228Y-81800000D01*
X159950240Y-83150040D02*
X160399630Y-83150040D01*
X160399630Y-83150040D02*
X161032228Y-82517442D01*
X161250000Y-81967772D02*
X161932228Y-82650000D01*
X159650000Y-96800000D02*
X156917438Y-96800000D01*
X156917438Y-96800000D02*
X156475181Y-96357743D01*
X156475181Y-96357743D02*
X156475181Y-93450181D01*
X156475181Y-93450181D02*
X156050000Y-93025000D01*
X156050000Y-93025000D02*
X156050000Y-92350000D01*
X167750000Y-92200000D02*
X167750000Y-91700000D01*
X167750000Y-91700000D02*
X167450000Y-91400000D01*
X152850000Y-90150000D02*
X150750000Y-90150000D01*
X150750000Y-90150000D02*
X150200000Y-90700000D01*
X167450000Y-91400000D02*
X167450000Y-88982228D01*
X167450000Y-88982228D02*
X167492228Y-88940000D01*
X157825000Y-90600000D02*
X158150000Y-90600000D01*
X158150000Y-90600000D02*
X158450000Y-90900000D01*
X162532228Y-81200000D02*
X162532228Y-81000000D01*
X162532228Y-81000000D02*
X163232228Y-80300000D01*
X164775000Y-80300000D02*
X165475000Y-79600000D01*
X165475000Y-79600000D02*
X165500000Y-79600000D01*
X163232228Y-80300000D02*
X164775000Y-80300000D01*
X170250000Y-91400000D02*
X170250000Y-93000000D01*
X170250000Y-93000000D02*
X170350000Y-93100000D01*
X168142228Y-89940000D02*
X168677229Y-90475001D01*
X168677229Y-90475001D02*
X169525001Y-90475001D01*
X169525001Y-90475001D02*
X170250000Y-91200000D01*
X170250000Y-91200000D02*
X170250000Y-91400000D01*
X168200000Y-89997772D02*
X168142228Y-89940000D01*
X168142228Y-89940000D02*
X168142228Y-88940000D01*
X164892228Y-88940000D02*
X164892228Y-89850002D01*
X164892228Y-89850002D02*
X164727229Y-90015001D01*
X164727229Y-90015001D02*
X163025999Y-90015001D01*
X163025999Y-90015001D02*
X161932228Y-88921230D01*
X161932228Y-88921230D02*
X161932228Y-88050000D01*
X161932228Y-88050000D02*
X161932228Y-87400000D01*
X161700000Y-84882228D02*
X161932228Y-84650000D01*
X161532268Y-85049960D02*
X161700000Y-84882228D01*
X161700000Y-84882228D02*
X161700000Y-85200000D01*
X161700000Y-85200000D02*
X161932228Y-85432228D01*
X161932228Y-85432228D02*
X161932228Y-84650000D01*
X161532268Y-85049960D02*
X161549960Y-85049960D01*
X161549960Y-85049960D02*
X161932228Y-85432228D01*
X161932228Y-85432228D02*
X161932228Y-85900000D01*
X159950240Y-85049960D02*
X161532268Y-85049960D01*
X161932228Y-84650000D02*
X161932228Y-84150000D01*
X166842228Y-81040000D02*
X166842228Y-83040000D01*
X168450000Y-81200000D02*
X167492228Y-82157772D01*
X167492228Y-82157772D02*
X167492228Y-83040000D01*
X165582228Y-80950000D02*
X166192228Y-81560000D01*
X166192228Y-81560000D02*
X166192228Y-83040000D01*
X166850000Y-92900000D02*
X166850000Y-89947772D01*
X166850000Y-89947772D02*
X166842228Y-89940000D01*
X166842228Y-89940000D02*
X166842228Y-88940000D01*
X165350000Y-93100000D02*
X165350000Y-93800000D01*
X165350000Y-93800000D02*
X164780000Y-94370000D01*
X164780000Y-94370000D02*
X163770000Y-94370000D01*
X163770000Y-94370000D02*
X162770000Y-94370000D01*
X163380000Y-94370000D02*
X162770000Y-94370000D01*
X166150000Y-91150000D02*
X166150000Y-88982228D01*
X166150000Y-88982228D02*
X166192228Y-88940000D01*
X162064998Y-90600000D02*
X163759989Y-90600000D01*
X163759989Y-90600000D02*
X163850000Y-90690011D01*
X161232227Y-91432771D02*
X162064998Y-90600000D01*
X163250000Y-96800000D02*
X161450000Y-95000000D01*
X164150000Y-96800000D02*
X163250000Y-96800000D01*
X161232227Y-94782227D02*
X161232227Y-91432771D01*
X161450000Y-95000000D02*
X161232227Y-94782227D01*
X154550000Y-88450000D02*
X154550000Y-87064998D01*
X154550000Y-87064998D02*
X153510013Y-86025011D01*
X153510013Y-86025011D02*
X150000011Y-86025011D01*
X150000011Y-86025011D02*
X149650000Y-85675000D01*
X149650000Y-85675000D02*
X148600000Y-85675000D01*
X153821412Y-85700000D02*
X153696413Y-85575001D01*
X153696413Y-85575001D02*
X151425001Y-85575001D01*
X155050000Y-86900000D02*
X153850000Y-85700000D01*
X153850000Y-85700000D02*
X153821412Y-85700000D01*
X155050000Y-88450000D02*
X155050000Y-86900000D01*
X151425001Y-85575001D02*
X150275000Y-84425000D01*
X150275000Y-84425000D02*
X148600000Y-84425000D01*
X156349999Y-87699999D02*
X158824999Y-90174999D01*
X158824999Y-90174999D02*
X159474999Y-90174999D01*
X155050000Y-88450000D02*
X155050000Y-87789998D01*
X155050000Y-87789998D02*
X155139999Y-87699999D01*
X155139999Y-87699999D02*
X156349999Y-87699999D01*
D37*
G36*
X154723000Y-76296726D02*
X154689000Y-76467655D01*
X154689000Y-76532345D01*
X154723000Y-76703274D01*
X154723000Y-81873000D01*
X147927000Y-81873000D01*
X147927000Y-79100000D01*
X147916994Y-79050590D01*
X147888553Y-79008965D01*
X147846159Y-78981685D01*
X147800000Y-78973000D01*
X147424389Y-78973000D01*
X147200000Y-78927560D01*
X144710000Y-78927560D01*
X144710000Y-75710000D01*
X154723000Y-75710000D01*
X154723000Y-76296726D01*
X154723000Y-76296726D01*
G37*
X154723000Y-76296726D02*
X154689000Y-76467655D01*
X154689000Y-76532345D01*
X154723000Y-76703274D01*
X154723000Y-81873000D01*
X147927000Y-81873000D01*
X147927000Y-79100000D01*
X147916994Y-79050590D01*
X147888553Y-79008965D01*
X147846159Y-78981685D01*
X147800000Y-78973000D01*
X147424389Y-78973000D01*
X147200000Y-78927560D01*
X144710000Y-78927560D01*
X144710000Y-75710000D01*
X154723000Y-75710000D01*
X154723000Y-76296726D01*
G36*
X172544000Y-105544000D02*
X172435000Y-105544000D01*
X172435000Y-105035750D01*
X172276250Y-104877000D01*
X171277000Y-104877000D01*
X171277000Y-104897000D01*
X171023000Y-104897000D01*
X171023000Y-104877000D01*
X170023750Y-104877000D01*
X169865000Y-105035750D01*
X169865000Y-105544000D01*
X167684616Y-105544000D01*
X167688464Y-105525000D01*
X167688464Y-103975000D01*
X167664698Y-103848691D01*
X169865000Y-103848691D01*
X169865000Y-104464250D01*
X170023750Y-104623000D01*
X171023000Y-104623000D01*
X171023000Y-103498750D01*
X171277000Y-103498750D01*
X171277000Y-104623000D01*
X172276250Y-104623000D01*
X172435000Y-104464250D01*
X172435000Y-103848691D01*
X172338327Y-103615302D01*
X172159699Y-103436673D01*
X171926310Y-103340000D01*
X171435750Y-103340000D01*
X171277000Y-103498750D01*
X171023000Y-103498750D01*
X170864250Y-103340000D01*
X170373690Y-103340000D01*
X170140301Y-103436673D01*
X169961673Y-103615302D01*
X169865000Y-103848691D01*
X167664698Y-103848691D01*
X167661897Y-103833810D01*
X167578454Y-103704135D01*
X167451134Y-103617141D01*
X167300000Y-103586536D01*
X166000000Y-103586536D01*
X165858810Y-103613103D01*
X165729135Y-103696546D01*
X165642141Y-103823866D01*
X165611536Y-103975000D01*
X165611536Y-105525000D01*
X165615111Y-105544000D01*
X165184616Y-105544000D01*
X165188464Y-105525000D01*
X165188464Y-103975000D01*
X165161897Y-103833810D01*
X165078454Y-103704135D01*
X164951134Y-103617141D01*
X164800000Y-103586536D01*
X163500000Y-103586536D01*
X163358810Y-103613103D01*
X163229135Y-103696546D01*
X163142141Y-103823866D01*
X163111536Y-103975000D01*
X163111536Y-105525000D01*
X163115111Y-105544000D01*
X160684616Y-105544000D01*
X160688464Y-105525000D01*
X160688464Y-103975000D01*
X160661897Y-103833810D01*
X160578454Y-103704135D01*
X160451134Y-103617141D01*
X160300000Y-103586536D01*
X159000000Y-103586536D01*
X158858810Y-103613103D01*
X158729135Y-103696546D01*
X158642141Y-103823866D01*
X158611536Y-103975000D01*
X158611536Y-105525000D01*
X158615111Y-105544000D01*
X144456000Y-105544000D01*
X144456000Y-91160000D01*
X145414250Y-91160000D01*
X145573000Y-91001250D01*
X145573000Y-89602000D01*
X145553000Y-89602000D01*
X145553000Y-89348000D01*
X145573000Y-89348000D01*
X145573000Y-87948750D01*
X145827000Y-87948750D01*
X145827000Y-89348000D01*
X147676250Y-89348000D01*
X147835000Y-89189250D01*
X147835000Y-88585750D01*
X148915000Y-88585750D01*
X148915000Y-88876310D01*
X149011673Y-89109699D01*
X149190302Y-89288327D01*
X149423691Y-89385000D01*
X149516250Y-89385000D01*
X149675000Y-89226250D01*
X149675000Y-88427000D01*
X149073750Y-88427000D01*
X148915000Y-88585750D01*
X147835000Y-88585750D01*
X147835000Y-88298691D01*
X147738327Y-88065302D01*
X147559699Y-87886673D01*
X147326310Y-87790000D01*
X145985750Y-87790000D01*
X145827000Y-87948750D01*
X145573000Y-87948750D01*
X145414250Y-87790000D01*
X144456000Y-87790000D01*
X144456000Y-82310000D01*
X145414250Y-82310000D01*
X145573000Y-82151250D01*
X145573000Y-80752000D01*
X145553000Y-80752000D01*
X145553000Y-80498000D01*
X145573000Y-80498000D01*
X145573000Y-80478000D01*
X145827000Y-80478000D01*
X145827000Y-80498000D01*
X145847000Y-80498000D01*
X145847000Y-80752000D01*
X145827000Y-80752000D01*
X145827000Y-82151250D01*
X145985750Y-82310000D01*
X147173000Y-82310000D01*
X147173000Y-82600000D01*
X147176996Y-82619731D01*
X147165000Y-82648691D01*
X147165000Y-82889250D01*
X147323750Y-83048000D01*
X148473000Y-83048000D01*
X148473000Y-83028000D01*
X148727000Y-83028000D01*
X148727000Y-83048000D01*
X149876250Y-83048000D01*
X150035000Y-82889250D01*
X150035000Y-82727000D01*
X150061536Y-82727000D01*
X150061536Y-83545000D01*
X150088103Y-83686190D01*
X150171546Y-83815865D01*
X150298866Y-83902859D01*
X150450000Y-83933464D01*
X152000000Y-83933464D01*
X152069000Y-83920481D01*
X152069000Y-84161536D01*
X152050000Y-84161536D01*
X151908810Y-84188103D01*
X151779135Y-84271546D01*
X151692141Y-84398866D01*
X151661536Y-84550000D01*
X151661536Y-85069001D01*
X151634593Y-85069001D01*
X150632796Y-84067204D01*
X150468638Y-83957517D01*
X150275000Y-83919000D01*
X149944829Y-83919000D01*
X150035000Y-83701309D01*
X150035000Y-83460750D01*
X149876250Y-83302000D01*
X148727000Y-83302000D01*
X148727000Y-83322000D01*
X148473000Y-83322000D01*
X148473000Y-83302000D01*
X147323750Y-83302000D01*
X147165000Y-83460750D01*
X147165000Y-83701309D01*
X147261673Y-83934698D01*
X147411536Y-84084562D01*
X147411536Y-84825000D01*
X147438103Y-84966190D01*
X147492313Y-85050436D01*
X147442141Y-85123866D01*
X147411536Y-85275000D01*
X147411536Y-86075000D01*
X147438103Y-86216190D01*
X147492313Y-86300436D01*
X147442141Y-86373866D01*
X147411536Y-86525000D01*
X147411536Y-87325000D01*
X147438103Y-87466190D01*
X147521546Y-87595865D01*
X147648866Y-87682859D01*
X147800000Y-87713464D01*
X148919236Y-87713464D01*
X148915000Y-87723690D01*
X148915000Y-88014250D01*
X149073750Y-88173000D01*
X149675000Y-88173000D01*
X149675000Y-88153000D01*
X149919000Y-88153000D01*
X149919000Y-89008224D01*
X149925000Y-89038388D01*
X149925000Y-89226250D01*
X150004456Y-89305706D01*
X150103816Y-89454408D01*
X150170581Y-89521174D01*
X150375292Y-89657958D01*
X150543149Y-89691346D01*
X150392204Y-89792204D01*
X150215395Y-89969013D01*
X150055233Y-89968874D01*
X149786463Y-90079927D01*
X149580650Y-90285381D01*
X149469127Y-90553957D01*
X149468874Y-90844767D01*
X149567548Y-91083578D01*
X149060200Y-91083578D01*
X149020073Y-90986463D01*
X148814619Y-90780650D01*
X148546043Y-90669127D01*
X148255233Y-90668874D01*
X147986463Y-90779927D01*
X147780650Y-90985381D01*
X147671432Y-91248407D01*
X147534699Y-91111673D01*
X147488840Y-91092678D01*
X147559699Y-91063327D01*
X147738327Y-90884698D01*
X147835000Y-90651309D01*
X147835000Y-89760750D01*
X147676250Y-89602000D01*
X145827000Y-89602000D01*
X145827000Y-91001250D01*
X145985750Y-91160000D01*
X146016974Y-91160000D01*
X145886673Y-91290302D01*
X145790000Y-91523691D01*
X145790000Y-91764250D01*
X145948750Y-91923000D01*
X146673000Y-91923000D01*
X146673000Y-91903000D01*
X146927000Y-91903000D01*
X146927000Y-91923000D01*
X147651250Y-91923000D01*
X147774309Y-91799941D01*
X147779927Y-91813537D01*
X147985381Y-92019350D01*
X148253957Y-92130873D01*
X148544767Y-92131126D01*
X148630800Y-92095578D01*
X149093368Y-92095578D01*
X149069127Y-92153957D01*
X149068874Y-92444767D01*
X149179927Y-92713537D01*
X149385381Y-92919350D01*
X149653957Y-93030873D01*
X149944767Y-93031126D01*
X150213537Y-92920073D01*
X150419350Y-92714619D01*
X150530873Y-92446043D01*
X150530991Y-92309960D01*
X150532517Y-92317630D01*
X150642204Y-92481788D01*
X151193222Y-93032806D01*
X151357380Y-93142493D01*
X151551018Y-93181010D01*
X151903398Y-93181010D01*
X151843760Y-93240648D01*
X151700000Y-93211536D01*
X150800000Y-93211536D01*
X150658810Y-93238103D01*
X150529135Y-93321546D01*
X150442141Y-93448866D01*
X150411536Y-93600000D01*
X150411536Y-94100000D01*
X150438103Y-94241190D01*
X150521546Y-94370865D01*
X150648866Y-94457859D01*
X150800000Y-94488464D01*
X151700000Y-94488464D01*
X151841190Y-94461897D01*
X151970865Y-94378454D01*
X151991902Y-94347665D01*
X152143638Y-94317483D01*
X152169000Y-94300537D01*
X152169000Y-94719000D01*
X151736859Y-94719000D01*
X151700000Y-94711536D01*
X150800000Y-94711536D01*
X150760333Y-94719000D01*
X148836368Y-94719000D01*
X147563464Y-93446096D01*
X147563464Y-93150000D01*
X147536897Y-93008810D01*
X147526028Y-92991919D01*
X147534699Y-92988327D01*
X147713327Y-92809698D01*
X147810000Y-92576309D01*
X147810000Y-92335750D01*
X147651250Y-92177000D01*
X146927000Y-92177000D01*
X146927000Y-92197000D01*
X146673000Y-92197000D01*
X146673000Y-92177000D01*
X145948750Y-92177000D01*
X145790000Y-92335750D01*
X145790000Y-92576309D01*
X145886673Y-92809698D01*
X146065301Y-92988327D01*
X146072348Y-92991246D01*
X146067141Y-92998866D01*
X146036536Y-93150000D01*
X146036536Y-93950000D01*
X146063103Y-94091190D01*
X146146546Y-94220865D01*
X146273866Y-94307859D01*
X146425000Y-94338464D01*
X146671096Y-94338464D01*
X148128816Y-95796184D01*
X148333527Y-95932968D01*
X148575000Y-95981000D01*
X150763141Y-95981000D01*
X150800000Y-95988464D01*
X151700000Y-95988464D01*
X151739667Y-95981000D01*
X151988632Y-95981000D01*
X152161536Y-96153905D01*
X152161536Y-96350000D01*
X152169000Y-96389667D01*
X152169000Y-96850000D01*
X152202225Y-97017032D01*
X152217032Y-97091473D01*
X152353816Y-97296184D01*
X153103815Y-98046184D01*
X153308526Y-98182968D01*
X153348589Y-98190937D01*
X153550000Y-98231000D01*
X155613437Y-98231000D01*
X155853957Y-98330873D01*
X156144767Y-98331126D01*
X156413537Y-98220073D01*
X156619350Y-98014619D01*
X156727063Y-97755219D01*
X156731037Y-97756009D01*
X157880416Y-97756010D01*
X158382203Y-98257797D01*
X158546361Y-98367484D01*
X158739999Y-98406001D01*
X165674999Y-98406001D01*
X165868637Y-98367484D01*
X166032795Y-98257797D01*
X166327128Y-97963464D01*
X167300000Y-97963464D01*
X167441190Y-97936897D01*
X167570865Y-97853454D01*
X167657859Y-97726134D01*
X167688464Y-97575000D01*
X167688464Y-97085750D01*
X169865000Y-97085750D01*
X169865000Y-97701309D01*
X169961673Y-97934698D01*
X170140301Y-98113327D01*
X170373690Y-98210000D01*
X170864250Y-98210000D01*
X171023000Y-98051250D01*
X171023000Y-96927000D01*
X171277000Y-96927000D01*
X171277000Y-98051250D01*
X171435750Y-98210000D01*
X171926310Y-98210000D01*
X172159699Y-98113327D01*
X172338327Y-97934698D01*
X172435000Y-97701309D01*
X172435000Y-97085750D01*
X172276250Y-96927000D01*
X171277000Y-96927000D01*
X171023000Y-96927000D01*
X170023750Y-96927000D01*
X169865000Y-97085750D01*
X167688464Y-97085750D01*
X167688464Y-96025000D01*
X167664698Y-95898691D01*
X169865000Y-95898691D01*
X169865000Y-96514250D01*
X170023750Y-96673000D01*
X171023000Y-96673000D01*
X171023000Y-95548750D01*
X171277000Y-95548750D01*
X171277000Y-96673000D01*
X172276250Y-96673000D01*
X172435000Y-96514250D01*
X172435000Y-95898691D01*
X172338327Y-95665302D01*
X172159699Y-95486673D01*
X171926310Y-95390000D01*
X171435750Y-95390000D01*
X171277000Y-95548750D01*
X171023000Y-95548750D01*
X170864250Y-95390000D01*
X170373690Y-95390000D01*
X170140301Y-95486673D01*
X169961673Y-95665302D01*
X169865000Y-95898691D01*
X167664698Y-95898691D01*
X167661897Y-95883810D01*
X167578454Y-95754135D01*
X167451134Y-95667141D01*
X167300000Y-95636536D01*
X166660246Y-95636536D01*
X166791190Y-95611897D01*
X166920865Y-95528454D01*
X167007859Y-95401134D01*
X167038464Y-95250000D01*
X167038464Y-94350000D01*
X167011897Y-94208810D01*
X166928454Y-94079135D01*
X166906000Y-94063793D01*
X166906000Y-93938464D01*
X167100000Y-93938464D01*
X167241190Y-93911897D01*
X167370865Y-93828454D01*
X167457859Y-93701134D01*
X167488464Y-93550000D01*
X167488464Y-92828777D01*
X167613946Y-92880882D01*
X167881865Y-92881115D01*
X167973750Y-92973000D01*
X168723000Y-92973000D01*
X168723000Y-92428250D01*
X168825000Y-92326250D01*
X168825000Y-91527000D01*
X168803000Y-91527000D01*
X168803000Y-91273000D01*
X168825000Y-91273000D01*
X168825000Y-91253000D01*
X169075000Y-91253000D01*
X169075000Y-91273000D01*
X169097000Y-91273000D01*
X169097000Y-91527000D01*
X169075000Y-91527000D01*
X169075000Y-92150750D01*
X168977000Y-92248750D01*
X168977000Y-92973000D01*
X168997000Y-92973000D01*
X168997000Y-93227000D01*
X168977000Y-93227000D01*
X168977000Y-93951250D01*
X169135750Y-94110000D01*
X169376309Y-94110000D01*
X169609698Y-94013327D01*
X169788327Y-93834699D01*
X169791246Y-93827652D01*
X169798866Y-93832859D01*
X169950000Y-93863464D01*
X170230946Y-93863464D01*
X169800410Y-94294000D01*
X168527927Y-94294000D01*
X168511897Y-94208810D01*
X168448315Y-94110000D01*
X168564250Y-94110000D01*
X168723000Y-93951250D01*
X168723000Y-93227000D01*
X167973750Y-93227000D01*
X167815000Y-93385750D01*
X167815000Y-93601310D01*
X167911673Y-93834699D01*
X168038511Y-93961536D01*
X167650000Y-93961536D01*
X167508810Y-93988103D01*
X167379135Y-94071546D01*
X167292141Y-94198866D01*
X167261536Y-94350000D01*
X167261536Y-95250000D01*
X167288103Y-95391190D01*
X167371546Y-95520865D01*
X167498866Y-95607859D01*
X167650000Y-95638464D01*
X168150000Y-95638464D01*
X168291190Y-95611897D01*
X168420865Y-95528454D01*
X168507859Y-95401134D01*
X168527124Y-95306000D01*
X170010002Y-95306000D01*
X170203640Y-95267483D01*
X170367798Y-95157796D01*
X172107796Y-93417798D01*
X172129210Y-93385750D01*
X172217483Y-93253640D01*
X172256000Y-93060002D01*
X172256000Y-92138019D01*
X172270865Y-92128454D01*
X172357859Y-92001134D01*
X172388464Y-91850000D01*
X172388464Y-90950000D01*
X172361897Y-90808810D01*
X172278454Y-90679135D01*
X172256000Y-90663793D01*
X172256000Y-90303855D01*
X172257859Y-90301134D01*
X172288464Y-90150000D01*
X172288464Y-89650000D01*
X172261897Y-89508810D01*
X172178454Y-89379135D01*
X172051134Y-89292141D01*
X171900000Y-89261536D01*
X171000000Y-89261536D01*
X170858810Y-89288103D01*
X170729135Y-89371546D01*
X170713793Y-89394000D01*
X170388019Y-89394000D01*
X170378454Y-89379135D01*
X170251134Y-89292141D01*
X170100000Y-89261536D01*
X169200000Y-89261536D01*
X169058810Y-89288103D01*
X168929135Y-89371546D01*
X168842141Y-89498866D01*
X168811536Y-89650000D01*
X168811536Y-89893716D01*
X168730790Y-89812970D01*
X168755692Y-89690000D01*
X168755692Y-88190000D01*
X168739886Y-88106000D01*
X168820446Y-88106000D01*
X168811536Y-88150000D01*
X168811536Y-88650000D01*
X168838103Y-88791190D01*
X168921546Y-88920865D01*
X169048866Y-89007859D01*
X169200000Y-89038464D01*
X170100000Y-89038464D01*
X170241190Y-89011897D01*
X170370865Y-88928454D01*
X170457859Y-88801134D01*
X170488464Y-88650000D01*
X170488464Y-88150000D01*
X170461897Y-88008810D01*
X170378454Y-87879135D01*
X170251134Y-87792141D01*
X170129652Y-87767541D01*
X170117483Y-87706362D01*
X170050423Y-87606000D01*
X170440408Y-87606000D01*
X170719725Y-87885317D01*
X170642141Y-87998866D01*
X170611536Y-88150000D01*
X170611536Y-88650000D01*
X170638103Y-88791190D01*
X170721546Y-88920865D01*
X170848866Y-89007859D01*
X171000000Y-89038464D01*
X171900000Y-89038464D01*
X172041190Y-89011897D01*
X172170865Y-88928454D01*
X172257859Y-88801134D01*
X172288464Y-88650000D01*
X172288464Y-88150000D01*
X172261897Y-88008810D01*
X172178454Y-87879135D01*
X172051134Y-87792141D01*
X171929652Y-87767541D01*
X171917483Y-87706362D01*
X171807796Y-87542204D01*
X171007796Y-86742204D01*
X170843638Y-86632517D01*
X170650000Y-86594000D01*
X167511820Y-86594000D01*
X165096284Y-84178464D01*
X165117228Y-84178464D01*
X165220898Y-84158957D01*
X165317228Y-84178464D01*
X165767228Y-84178464D01*
X165870898Y-84158957D01*
X165967228Y-84178464D01*
X166417228Y-84178464D01*
X166520898Y-84158957D01*
X166617228Y-84178464D01*
X167067228Y-84178464D01*
X167170898Y-84158957D01*
X167267228Y-84178464D01*
X167407667Y-84178464D01*
X167557529Y-84328327D01*
X167790918Y-84425000D01*
X167870978Y-84425000D01*
X168029728Y-84266250D01*
X168029728Y-84007519D01*
X168075087Y-83941134D01*
X168105692Y-83790000D01*
X168105692Y-83167000D01*
X168254728Y-83167000D01*
X168254728Y-84266250D01*
X168413478Y-84425000D01*
X168493538Y-84425000D01*
X168726927Y-84328327D01*
X168905555Y-84149698D01*
X169002228Y-83916309D01*
X169002228Y-83325750D01*
X168843478Y-83167000D01*
X168254728Y-83167000D01*
X168105692Y-83167000D01*
X168105692Y-82893000D01*
X168254728Y-82893000D01*
X168254728Y-82913000D01*
X168843478Y-82913000D01*
X169002228Y-82754250D01*
X169002228Y-82163691D01*
X168914281Y-81951369D01*
X168991190Y-81936897D01*
X169120865Y-81853454D01*
X169207859Y-81726134D01*
X169238464Y-81575000D01*
X169238464Y-80825000D01*
X169211897Y-80683810D01*
X169128454Y-80554135D01*
X169001134Y-80467141D01*
X168850000Y-80436536D01*
X168050000Y-80436536D01*
X167908810Y-80463103D01*
X167779135Y-80546546D01*
X167699020Y-80663798D01*
X167635341Y-80564837D01*
X167759698Y-80513327D01*
X167938327Y-80334699D01*
X168035000Y-80101310D01*
X168035000Y-79885750D01*
X167876250Y-79727000D01*
X167127000Y-79727000D01*
X167127000Y-79747000D01*
X166873000Y-79747000D01*
X166873000Y-79727000D01*
X166853000Y-79727000D01*
X166853000Y-79473000D01*
X166873000Y-79473000D01*
X166873000Y-78748750D01*
X167127000Y-78748750D01*
X167127000Y-79473000D01*
X167876250Y-79473000D01*
X168035000Y-79314250D01*
X168035000Y-79098690D01*
X167938327Y-78865301D01*
X167759698Y-78686673D01*
X167526309Y-78590000D01*
X167285750Y-78590000D01*
X167127000Y-78748750D01*
X166873000Y-78748750D01*
X166714250Y-78590000D01*
X166473691Y-78590000D01*
X166240302Y-78686673D01*
X166061673Y-78865301D01*
X166058754Y-78872348D01*
X166051134Y-78867141D01*
X165900000Y-78836536D01*
X165100000Y-78836536D01*
X164958810Y-78863103D01*
X164829135Y-78946546D01*
X164742141Y-79073866D01*
X164711536Y-79225000D01*
X164711536Y-79647872D01*
X164565408Y-79794000D01*
X163232228Y-79794000D01*
X163038590Y-79832517D01*
X162874432Y-79942204D01*
X162455100Y-80361536D01*
X162282228Y-80361536D01*
X162141038Y-80388103D01*
X162011363Y-80471546D01*
X161924369Y-80598866D01*
X161893764Y-80750000D01*
X161893764Y-81650000D01*
X161920331Y-81791190D01*
X162003774Y-81920865D01*
X162131094Y-82007859D01*
X162149252Y-82011536D01*
X162009356Y-82011536D01*
X161666840Y-81669020D01*
X161670692Y-81650000D01*
X161670692Y-80750000D01*
X161644125Y-80608810D01*
X161560682Y-80479135D01*
X161433362Y-80392141D01*
X161282228Y-80361536D01*
X160782228Y-80361536D01*
X160641038Y-80388103D01*
X160511363Y-80471546D01*
X160424369Y-80598866D01*
X160393764Y-80750000D01*
X160393764Y-81650000D01*
X160420331Y-81791190D01*
X160503774Y-81920865D01*
X160526228Y-81936207D01*
X160526228Y-82307850D01*
X160369549Y-82464529D01*
X160300764Y-82417531D01*
X160149630Y-82386926D01*
X160008952Y-82386926D01*
X159859088Y-82237063D01*
X159625699Y-82140390D01*
X159558445Y-82140390D01*
X159399695Y-82299140D01*
X159399695Y-82614444D01*
X159392991Y-82624256D01*
X159362386Y-82775390D01*
X159362386Y-83297040D01*
X159237614Y-83297040D01*
X159237614Y-82775390D01*
X159211047Y-82634200D01*
X159200305Y-82617506D01*
X159200305Y-82299140D01*
X159041555Y-82140390D01*
X158974301Y-82140390D01*
X158740912Y-82237063D01*
X158591048Y-82386926D01*
X158506000Y-82386926D01*
X158506000Y-81834616D01*
X158525000Y-81838464D01*
X159275000Y-81838464D01*
X159416190Y-81811897D01*
X159545865Y-81728454D01*
X159632859Y-81601134D01*
X159663464Y-81450000D01*
X159663464Y-80650000D01*
X159636897Y-80508810D01*
X159626028Y-80491919D01*
X159634699Y-80488327D01*
X159813327Y-80309698D01*
X159910000Y-80076309D01*
X159910000Y-79835750D01*
X159751250Y-79677000D01*
X159027000Y-79677000D01*
X159027000Y-79697000D01*
X158773000Y-79697000D01*
X158773000Y-79677000D01*
X158048750Y-79677000D01*
X157890000Y-79835750D01*
X157890000Y-80035407D01*
X157844268Y-79925000D01*
X157910000Y-79766309D01*
X157910000Y-79575750D01*
X157751250Y-79417000D01*
X156827000Y-79417000D01*
X156827000Y-80433000D01*
X156847000Y-80433000D01*
X156847000Y-80687000D01*
X156827000Y-80687000D01*
X156827000Y-81703000D01*
X156847000Y-81703000D01*
X156847000Y-81957000D01*
X156827000Y-81957000D01*
X156827000Y-81977000D01*
X156573000Y-81977000D01*
X156573000Y-81957000D01*
X156553000Y-81957000D01*
X156553000Y-81703000D01*
X156573000Y-81703000D01*
X156573000Y-80687000D01*
X156553000Y-80687000D01*
X156553000Y-80433000D01*
X156573000Y-80433000D01*
X156573000Y-79417000D01*
X156553000Y-79417000D01*
X156553000Y-79163000D01*
X156573000Y-79163000D01*
X156573000Y-78463750D01*
X156827000Y-78463750D01*
X156827000Y-79163000D01*
X157751250Y-79163000D01*
X157890000Y-79024250D01*
X157890000Y-79264250D01*
X158048750Y-79423000D01*
X158773000Y-79423000D01*
X158773000Y-78673750D01*
X159027000Y-78673750D01*
X159027000Y-79423000D01*
X159751250Y-79423000D01*
X159910000Y-79264250D01*
X159910000Y-79023691D01*
X159813327Y-78790302D01*
X159634699Y-78611673D01*
X159401310Y-78515000D01*
X159185750Y-78515000D01*
X159027000Y-78673750D01*
X158773000Y-78673750D01*
X158614250Y-78515000D01*
X158398690Y-78515000D01*
X158165301Y-78611673D01*
X157986673Y-78790302D01*
X157910000Y-78975407D01*
X157910000Y-78813691D01*
X157813327Y-78580302D01*
X157634699Y-78401673D01*
X157401310Y-78305000D01*
X156985750Y-78305000D01*
X156827000Y-78463750D01*
X156573000Y-78463750D01*
X156414250Y-78305000D01*
X155998690Y-78305000D01*
X155765301Y-78401673D01*
X155586673Y-78580302D01*
X155577000Y-78603655D01*
X155577000Y-77948558D01*
X155957056Y-78105975D01*
X156213000Y-77986836D01*
X156213000Y-76627000D01*
X156467000Y-76627000D01*
X156467000Y-77986836D01*
X156722944Y-78105975D01*
X157204818Y-77906385D01*
X157677188Y-77468379D01*
X157945983Y-76882946D01*
X157827367Y-76627000D01*
X156467000Y-76627000D01*
X156213000Y-76627000D01*
X156193000Y-76627000D01*
X156193000Y-76373000D01*
X156213000Y-76373000D01*
X156213000Y-76353000D01*
X156467000Y-76353000D01*
X156467000Y-76373000D01*
X157827367Y-76373000D01*
X157945983Y-76117054D01*
X157677188Y-75531621D01*
X157595634Y-75456000D01*
X172544000Y-75456000D01*
X172544000Y-105544000D01*
X172544000Y-105544000D01*
G37*
X172544000Y-105544000D02*
X172435000Y-105544000D01*
X172435000Y-105035750D01*
X172276250Y-104877000D01*
X171277000Y-104877000D01*
X171277000Y-104897000D01*
X171023000Y-104897000D01*
X171023000Y-104877000D01*
X170023750Y-104877000D01*
X169865000Y-105035750D01*
X169865000Y-105544000D01*
X167684616Y-105544000D01*
X167688464Y-105525000D01*
X167688464Y-103975000D01*
X167664698Y-103848691D01*
X169865000Y-103848691D01*
X169865000Y-104464250D01*
X170023750Y-104623000D01*
X171023000Y-104623000D01*
X171023000Y-103498750D01*
X171277000Y-103498750D01*
X171277000Y-104623000D01*
X172276250Y-104623000D01*
X172435000Y-104464250D01*
X172435000Y-103848691D01*
X172338327Y-103615302D01*
X172159699Y-103436673D01*
X171926310Y-103340000D01*
X171435750Y-103340000D01*
X171277000Y-103498750D01*
X171023000Y-103498750D01*
X170864250Y-103340000D01*
X170373690Y-103340000D01*
X170140301Y-103436673D01*
X169961673Y-103615302D01*
X169865000Y-103848691D01*
X167664698Y-103848691D01*
X167661897Y-103833810D01*
X167578454Y-103704135D01*
X167451134Y-103617141D01*
X167300000Y-103586536D01*
X166000000Y-103586536D01*
X165858810Y-103613103D01*
X165729135Y-103696546D01*
X165642141Y-103823866D01*
X165611536Y-103975000D01*
X165611536Y-105525000D01*
X165615111Y-105544000D01*
X165184616Y-105544000D01*
X165188464Y-105525000D01*
X165188464Y-103975000D01*
X165161897Y-103833810D01*
X165078454Y-103704135D01*
X164951134Y-103617141D01*
X164800000Y-103586536D01*
X163500000Y-103586536D01*
X163358810Y-103613103D01*
X163229135Y-103696546D01*
X163142141Y-103823866D01*
X163111536Y-103975000D01*
X163111536Y-105525000D01*
X163115111Y-105544000D01*
X160684616Y-105544000D01*
X160688464Y-105525000D01*
X160688464Y-103975000D01*
X160661897Y-103833810D01*
X160578454Y-103704135D01*
X160451134Y-103617141D01*
X160300000Y-103586536D01*
X159000000Y-103586536D01*
X158858810Y-103613103D01*
X158729135Y-103696546D01*
X158642141Y-103823866D01*
X158611536Y-103975000D01*
X158611536Y-105525000D01*
X158615111Y-105544000D01*
X144456000Y-105544000D01*
X144456000Y-91160000D01*
X145414250Y-91160000D01*
X145573000Y-91001250D01*
X145573000Y-89602000D01*
X145553000Y-89602000D01*
X145553000Y-89348000D01*
X145573000Y-89348000D01*
X145573000Y-87948750D01*
X145827000Y-87948750D01*
X145827000Y-89348000D01*
X147676250Y-89348000D01*
X147835000Y-89189250D01*
X147835000Y-88585750D01*
X148915000Y-88585750D01*
X148915000Y-88876310D01*
X149011673Y-89109699D01*
X149190302Y-89288327D01*
X149423691Y-89385000D01*
X149516250Y-89385000D01*
X149675000Y-89226250D01*
X149675000Y-88427000D01*
X149073750Y-88427000D01*
X148915000Y-88585750D01*
X147835000Y-88585750D01*
X147835000Y-88298691D01*
X147738327Y-88065302D01*
X147559699Y-87886673D01*
X147326310Y-87790000D01*
X145985750Y-87790000D01*
X145827000Y-87948750D01*
X145573000Y-87948750D01*
X145414250Y-87790000D01*
X144456000Y-87790000D01*
X144456000Y-82310000D01*
X145414250Y-82310000D01*
X145573000Y-82151250D01*
X145573000Y-80752000D01*
X145553000Y-80752000D01*
X145553000Y-80498000D01*
X145573000Y-80498000D01*
X145573000Y-80478000D01*
X145827000Y-80478000D01*
X145827000Y-80498000D01*
X145847000Y-80498000D01*
X145847000Y-80752000D01*
X145827000Y-80752000D01*
X145827000Y-82151250D01*
X145985750Y-82310000D01*
X147173000Y-82310000D01*
X147173000Y-82600000D01*
X147176996Y-82619731D01*
X147165000Y-82648691D01*
X147165000Y-82889250D01*
X147323750Y-83048000D01*
X148473000Y-83048000D01*
X148473000Y-83028000D01*
X148727000Y-83028000D01*
X148727000Y-83048000D01*
X149876250Y-83048000D01*
X150035000Y-82889250D01*
X150035000Y-82727000D01*
X150061536Y-82727000D01*
X150061536Y-83545000D01*
X150088103Y-83686190D01*
X150171546Y-83815865D01*
X150298866Y-83902859D01*
X150450000Y-83933464D01*
X152000000Y-83933464D01*
X152069000Y-83920481D01*
X152069000Y-84161536D01*
X152050000Y-84161536D01*
X151908810Y-84188103D01*
X151779135Y-84271546D01*
X151692141Y-84398866D01*
X151661536Y-84550000D01*
X151661536Y-85069001D01*
X151634593Y-85069001D01*
X150632796Y-84067204D01*
X150468638Y-83957517D01*
X150275000Y-83919000D01*
X149944829Y-83919000D01*
X150035000Y-83701309D01*
X150035000Y-83460750D01*
X149876250Y-83302000D01*
X148727000Y-83302000D01*
X148727000Y-83322000D01*
X148473000Y-83322000D01*
X148473000Y-83302000D01*
X147323750Y-83302000D01*
X147165000Y-83460750D01*
X147165000Y-83701309D01*
X147261673Y-83934698D01*
X147411536Y-84084562D01*
X147411536Y-84825000D01*
X147438103Y-84966190D01*
X147492313Y-85050436D01*
X147442141Y-85123866D01*
X147411536Y-85275000D01*
X147411536Y-86075000D01*
X147438103Y-86216190D01*
X147492313Y-86300436D01*
X147442141Y-86373866D01*
X147411536Y-86525000D01*
X147411536Y-87325000D01*
X147438103Y-87466190D01*
X147521546Y-87595865D01*
X147648866Y-87682859D01*
X147800000Y-87713464D01*
X148919236Y-87713464D01*
X148915000Y-87723690D01*
X148915000Y-88014250D01*
X149073750Y-88173000D01*
X149675000Y-88173000D01*
X149675000Y-88153000D01*
X149919000Y-88153000D01*
X149919000Y-89008224D01*
X149925000Y-89038388D01*
X149925000Y-89226250D01*
X150004456Y-89305706D01*
X150103816Y-89454408D01*
X150170581Y-89521174D01*
X150375292Y-89657958D01*
X150543149Y-89691346D01*
X150392204Y-89792204D01*
X150215395Y-89969013D01*
X150055233Y-89968874D01*
X149786463Y-90079927D01*
X149580650Y-90285381D01*
X149469127Y-90553957D01*
X149468874Y-90844767D01*
X149567548Y-91083578D01*
X149060200Y-91083578D01*
X149020073Y-90986463D01*
X148814619Y-90780650D01*
X148546043Y-90669127D01*
X148255233Y-90668874D01*
X147986463Y-90779927D01*
X147780650Y-90985381D01*
X147671432Y-91248407D01*
X147534699Y-91111673D01*
X147488840Y-91092678D01*
X147559699Y-91063327D01*
X147738327Y-90884698D01*
X147835000Y-90651309D01*
X147835000Y-89760750D01*
X147676250Y-89602000D01*
X145827000Y-89602000D01*
X145827000Y-91001250D01*
X145985750Y-91160000D01*
X146016974Y-91160000D01*
X145886673Y-91290302D01*
X145790000Y-91523691D01*
X145790000Y-91764250D01*
X145948750Y-91923000D01*
X146673000Y-91923000D01*
X146673000Y-91903000D01*
X146927000Y-91903000D01*
X146927000Y-91923000D01*
X147651250Y-91923000D01*
X147774309Y-91799941D01*
X147779927Y-91813537D01*
X147985381Y-92019350D01*
X148253957Y-92130873D01*
X148544767Y-92131126D01*
X148630800Y-92095578D01*
X149093368Y-92095578D01*
X149069127Y-92153957D01*
X149068874Y-92444767D01*
X149179927Y-92713537D01*
X149385381Y-92919350D01*
X149653957Y-93030873D01*
X149944767Y-93031126D01*
X150213537Y-92920073D01*
X150419350Y-92714619D01*
X150530873Y-92446043D01*
X150530991Y-92309960D01*
X150532517Y-92317630D01*
X150642204Y-92481788D01*
X151193222Y-93032806D01*
X151357380Y-93142493D01*
X151551018Y-93181010D01*
X151903398Y-93181010D01*
X151843760Y-93240648D01*
X151700000Y-93211536D01*
X150800000Y-93211536D01*
X150658810Y-93238103D01*
X150529135Y-93321546D01*
X150442141Y-93448866D01*
X150411536Y-93600000D01*
X150411536Y-94100000D01*
X150438103Y-94241190D01*
X150521546Y-94370865D01*
X150648866Y-94457859D01*
X150800000Y-94488464D01*
X151700000Y-94488464D01*
X151841190Y-94461897D01*
X151970865Y-94378454D01*
X151991902Y-94347665D01*
X152143638Y-94317483D01*
X152169000Y-94300537D01*
X152169000Y-94719000D01*
X151736859Y-94719000D01*
X151700000Y-94711536D01*
X150800000Y-94711536D01*
X150760333Y-94719000D01*
X148836368Y-94719000D01*
X147563464Y-93446096D01*
X147563464Y-93150000D01*
X147536897Y-93008810D01*
X147526028Y-92991919D01*
X147534699Y-92988327D01*
X147713327Y-92809698D01*
X147810000Y-92576309D01*
X147810000Y-92335750D01*
X147651250Y-92177000D01*
X146927000Y-92177000D01*
X146927000Y-92197000D01*
X146673000Y-92197000D01*
X146673000Y-92177000D01*
X145948750Y-92177000D01*
X145790000Y-92335750D01*
X145790000Y-92576309D01*
X145886673Y-92809698D01*
X146065301Y-92988327D01*
X146072348Y-92991246D01*
X146067141Y-92998866D01*
X146036536Y-93150000D01*
X146036536Y-93950000D01*
X146063103Y-94091190D01*
X146146546Y-94220865D01*
X146273866Y-94307859D01*
X146425000Y-94338464D01*
X146671096Y-94338464D01*
X148128816Y-95796184D01*
X148333527Y-95932968D01*
X148575000Y-95981000D01*
X150763141Y-95981000D01*
X150800000Y-95988464D01*
X151700000Y-95988464D01*
X151739667Y-95981000D01*
X151988632Y-95981000D01*
X152161536Y-96153905D01*
X152161536Y-96350000D01*
X152169000Y-96389667D01*
X152169000Y-96850000D01*
X152202225Y-97017032D01*
X152217032Y-97091473D01*
X152353816Y-97296184D01*
X153103815Y-98046184D01*
X153308526Y-98182968D01*
X153348589Y-98190937D01*
X153550000Y-98231000D01*
X155613437Y-98231000D01*
X155853957Y-98330873D01*
X156144767Y-98331126D01*
X156413537Y-98220073D01*
X156619350Y-98014619D01*
X156727063Y-97755219D01*
X156731037Y-97756009D01*
X157880416Y-97756010D01*
X158382203Y-98257797D01*
X158546361Y-98367484D01*
X158739999Y-98406001D01*
X165674999Y-98406001D01*
X165868637Y-98367484D01*
X166032795Y-98257797D01*
X166327128Y-97963464D01*
X167300000Y-97963464D01*
X167441190Y-97936897D01*
X167570865Y-97853454D01*
X167657859Y-97726134D01*
X167688464Y-97575000D01*
X167688464Y-97085750D01*
X169865000Y-97085750D01*
X169865000Y-97701309D01*
X169961673Y-97934698D01*
X170140301Y-98113327D01*
X170373690Y-98210000D01*
X170864250Y-98210000D01*
X171023000Y-98051250D01*
X171023000Y-96927000D01*
X171277000Y-96927000D01*
X171277000Y-98051250D01*
X171435750Y-98210000D01*
X171926310Y-98210000D01*
X172159699Y-98113327D01*
X172338327Y-97934698D01*
X172435000Y-97701309D01*
X172435000Y-97085750D01*
X172276250Y-96927000D01*
X171277000Y-96927000D01*
X171023000Y-96927000D01*
X170023750Y-96927000D01*
X169865000Y-97085750D01*
X167688464Y-97085750D01*
X167688464Y-96025000D01*
X167664698Y-95898691D01*
X169865000Y-95898691D01*
X169865000Y-96514250D01*
X170023750Y-96673000D01*
X171023000Y-96673000D01*
X171023000Y-95548750D01*
X171277000Y-95548750D01*
X171277000Y-96673000D01*
X172276250Y-96673000D01*
X172435000Y-96514250D01*
X172435000Y-95898691D01*
X172338327Y-95665302D01*
X172159699Y-95486673D01*
X171926310Y-95390000D01*
X171435750Y-95390000D01*
X171277000Y-95548750D01*
X171023000Y-95548750D01*
X170864250Y-95390000D01*
X170373690Y-95390000D01*
X170140301Y-95486673D01*
X169961673Y-95665302D01*
X169865000Y-95898691D01*
X167664698Y-95898691D01*
X167661897Y-95883810D01*
X167578454Y-95754135D01*
X167451134Y-95667141D01*
X167300000Y-95636536D01*
X166660246Y-95636536D01*
X166791190Y-95611897D01*
X166920865Y-95528454D01*
X167007859Y-95401134D01*
X167038464Y-95250000D01*
X167038464Y-94350000D01*
X167011897Y-94208810D01*
X166928454Y-94079135D01*
X166906000Y-94063793D01*
X166906000Y-93938464D01*
X167100000Y-93938464D01*
X167241190Y-93911897D01*
X167370865Y-93828454D01*
X167457859Y-93701134D01*
X167488464Y-93550000D01*
X167488464Y-92828777D01*
X167613946Y-92880882D01*
X167881865Y-92881115D01*
X167973750Y-92973000D01*
X168723000Y-92973000D01*
X168723000Y-92428250D01*
X168825000Y-92326250D01*
X168825000Y-91527000D01*
X168803000Y-91527000D01*
X168803000Y-91273000D01*
X168825000Y-91273000D01*
X168825000Y-91253000D01*
X169075000Y-91253000D01*
X169075000Y-91273000D01*
X169097000Y-91273000D01*
X169097000Y-91527000D01*
X169075000Y-91527000D01*
X169075000Y-92150750D01*
X168977000Y-92248750D01*
X168977000Y-92973000D01*
X168997000Y-92973000D01*
X168997000Y-93227000D01*
X168977000Y-93227000D01*
X168977000Y-93951250D01*
X169135750Y-94110000D01*
X169376309Y-94110000D01*
X169609698Y-94013327D01*
X169788327Y-93834699D01*
X169791246Y-93827652D01*
X169798866Y-93832859D01*
X169950000Y-93863464D01*
X170230946Y-93863464D01*
X169800410Y-94294000D01*
X168527927Y-94294000D01*
X168511897Y-94208810D01*
X168448315Y-94110000D01*
X168564250Y-94110000D01*
X168723000Y-93951250D01*
X168723000Y-93227000D01*
X167973750Y-93227000D01*
X167815000Y-93385750D01*
X167815000Y-93601310D01*
X167911673Y-93834699D01*
X168038511Y-93961536D01*
X167650000Y-93961536D01*
X167508810Y-93988103D01*
X167379135Y-94071546D01*
X167292141Y-94198866D01*
X167261536Y-94350000D01*
X167261536Y-95250000D01*
X167288103Y-95391190D01*
X167371546Y-95520865D01*
X167498866Y-95607859D01*
X167650000Y-95638464D01*
X168150000Y-95638464D01*
X168291190Y-95611897D01*
X168420865Y-95528454D01*
X168507859Y-95401134D01*
X168527124Y-95306000D01*
X170010002Y-95306000D01*
X170203640Y-95267483D01*
X170367798Y-95157796D01*
X172107796Y-93417798D01*
X172129210Y-93385750D01*
X172217483Y-93253640D01*
X172256000Y-93060002D01*
X172256000Y-92138019D01*
X172270865Y-92128454D01*
X172357859Y-92001134D01*
X172388464Y-91850000D01*
X172388464Y-90950000D01*
X172361897Y-90808810D01*
X172278454Y-90679135D01*
X172256000Y-90663793D01*
X172256000Y-90303855D01*
X172257859Y-90301134D01*
X172288464Y-90150000D01*
X172288464Y-89650000D01*
X172261897Y-89508810D01*
X172178454Y-89379135D01*
X172051134Y-89292141D01*
X171900000Y-89261536D01*
X171000000Y-89261536D01*
X170858810Y-89288103D01*
X170729135Y-89371546D01*
X170713793Y-89394000D01*
X170388019Y-89394000D01*
X170378454Y-89379135D01*
X170251134Y-89292141D01*
X170100000Y-89261536D01*
X169200000Y-89261536D01*
X169058810Y-89288103D01*
X168929135Y-89371546D01*
X168842141Y-89498866D01*
X168811536Y-89650000D01*
X168811536Y-89893716D01*
X168730790Y-89812970D01*
X168755692Y-89690000D01*
X168755692Y-88190000D01*
X168739886Y-88106000D01*
X168820446Y-88106000D01*
X168811536Y-88150000D01*
X168811536Y-88650000D01*
X168838103Y-88791190D01*
X168921546Y-88920865D01*
X169048866Y-89007859D01*
X169200000Y-89038464D01*
X170100000Y-89038464D01*
X170241190Y-89011897D01*
X170370865Y-88928454D01*
X170457859Y-88801134D01*
X170488464Y-88650000D01*
X170488464Y-88150000D01*
X170461897Y-88008810D01*
X170378454Y-87879135D01*
X170251134Y-87792141D01*
X170129652Y-87767541D01*
X170117483Y-87706362D01*
X170050423Y-87606000D01*
X170440408Y-87606000D01*
X170719725Y-87885317D01*
X170642141Y-87998866D01*
X170611536Y-88150000D01*
X170611536Y-88650000D01*
X170638103Y-88791190D01*
X170721546Y-88920865D01*
X170848866Y-89007859D01*
X171000000Y-89038464D01*
X171900000Y-89038464D01*
X172041190Y-89011897D01*
X172170865Y-88928454D01*
X172257859Y-88801134D01*
X172288464Y-88650000D01*
X172288464Y-88150000D01*
X172261897Y-88008810D01*
X172178454Y-87879135D01*
X172051134Y-87792141D01*
X171929652Y-87767541D01*
X171917483Y-87706362D01*
X171807796Y-87542204D01*
X171007796Y-86742204D01*
X170843638Y-86632517D01*
X170650000Y-86594000D01*
X167511820Y-86594000D01*
X165096284Y-84178464D01*
X165117228Y-84178464D01*
X165220898Y-84158957D01*
X165317228Y-84178464D01*
X165767228Y-84178464D01*
X165870898Y-84158957D01*
X165967228Y-84178464D01*
X166417228Y-84178464D01*
X166520898Y-84158957D01*
X166617228Y-84178464D01*
X167067228Y-84178464D01*
X167170898Y-84158957D01*
X167267228Y-84178464D01*
X167407667Y-84178464D01*
X167557529Y-84328327D01*
X167790918Y-84425000D01*
X167870978Y-84425000D01*
X168029728Y-84266250D01*
X168029728Y-84007519D01*
X168075087Y-83941134D01*
X168105692Y-83790000D01*
X168105692Y-83167000D01*
X168254728Y-83167000D01*
X168254728Y-84266250D01*
X168413478Y-84425000D01*
X168493538Y-84425000D01*
X168726927Y-84328327D01*
X168905555Y-84149698D01*
X169002228Y-83916309D01*
X169002228Y-83325750D01*
X168843478Y-83167000D01*
X168254728Y-83167000D01*
X168105692Y-83167000D01*
X168105692Y-82893000D01*
X168254728Y-82893000D01*
X168254728Y-82913000D01*
X168843478Y-82913000D01*
X169002228Y-82754250D01*
X169002228Y-82163691D01*
X168914281Y-81951369D01*
X168991190Y-81936897D01*
X169120865Y-81853454D01*
X169207859Y-81726134D01*
X169238464Y-81575000D01*
X169238464Y-80825000D01*
X169211897Y-80683810D01*
X169128454Y-80554135D01*
X169001134Y-80467141D01*
X168850000Y-80436536D01*
X168050000Y-80436536D01*
X167908810Y-80463103D01*
X167779135Y-80546546D01*
X167699020Y-80663798D01*
X167635341Y-80564837D01*
X167759698Y-80513327D01*
X167938327Y-80334699D01*
X168035000Y-80101310D01*
X168035000Y-79885750D01*
X167876250Y-79727000D01*
X167127000Y-79727000D01*
X167127000Y-79747000D01*
X166873000Y-79747000D01*
X166873000Y-79727000D01*
X166853000Y-79727000D01*
X166853000Y-79473000D01*
X166873000Y-79473000D01*
X166873000Y-78748750D01*
X167127000Y-78748750D01*
X167127000Y-79473000D01*
X167876250Y-79473000D01*
X168035000Y-79314250D01*
X168035000Y-79098690D01*
X167938327Y-78865301D01*
X167759698Y-78686673D01*
X167526309Y-78590000D01*
X167285750Y-78590000D01*
X167127000Y-78748750D01*
X166873000Y-78748750D01*
X166714250Y-78590000D01*
X166473691Y-78590000D01*
X166240302Y-78686673D01*
X166061673Y-78865301D01*
X166058754Y-78872348D01*
X166051134Y-78867141D01*
X165900000Y-78836536D01*
X165100000Y-78836536D01*
X164958810Y-78863103D01*
X164829135Y-78946546D01*
X164742141Y-79073866D01*
X164711536Y-79225000D01*
X164711536Y-79647872D01*
X164565408Y-79794000D01*
X163232228Y-79794000D01*
X163038590Y-79832517D01*
X162874432Y-79942204D01*
X162455100Y-80361536D01*
X162282228Y-80361536D01*
X162141038Y-80388103D01*
X162011363Y-80471546D01*
X161924369Y-80598866D01*
X161893764Y-80750000D01*
X161893764Y-81650000D01*
X161920331Y-81791190D01*
X162003774Y-81920865D01*
X162131094Y-82007859D01*
X162149252Y-82011536D01*
X162009356Y-82011536D01*
X161666840Y-81669020D01*
X161670692Y-81650000D01*
X161670692Y-80750000D01*
X161644125Y-80608810D01*
X161560682Y-80479135D01*
X161433362Y-80392141D01*
X161282228Y-80361536D01*
X160782228Y-80361536D01*
X160641038Y-80388103D01*
X160511363Y-80471546D01*
X160424369Y-80598866D01*
X160393764Y-80750000D01*
X160393764Y-81650000D01*
X160420331Y-81791190D01*
X160503774Y-81920865D01*
X160526228Y-81936207D01*
X160526228Y-82307850D01*
X160369549Y-82464529D01*
X160300764Y-82417531D01*
X160149630Y-82386926D01*
X160008952Y-82386926D01*
X159859088Y-82237063D01*
X159625699Y-82140390D01*
X159558445Y-82140390D01*
X159399695Y-82299140D01*
X159399695Y-82614444D01*
X159392991Y-82624256D01*
X159362386Y-82775390D01*
X159362386Y-83297040D01*
X159237614Y-83297040D01*
X159237614Y-82775390D01*
X159211047Y-82634200D01*
X159200305Y-82617506D01*
X159200305Y-82299140D01*
X159041555Y-82140390D01*
X158974301Y-82140390D01*
X158740912Y-82237063D01*
X158591048Y-82386926D01*
X158506000Y-82386926D01*
X158506000Y-81834616D01*
X158525000Y-81838464D01*
X159275000Y-81838464D01*
X159416190Y-81811897D01*
X159545865Y-81728454D01*
X159632859Y-81601134D01*
X159663464Y-81450000D01*
X159663464Y-80650000D01*
X159636897Y-80508810D01*
X159626028Y-80491919D01*
X159634699Y-80488327D01*
X159813327Y-80309698D01*
X159910000Y-80076309D01*
X159910000Y-79835750D01*
X159751250Y-79677000D01*
X159027000Y-79677000D01*
X159027000Y-79697000D01*
X158773000Y-79697000D01*
X158773000Y-79677000D01*
X158048750Y-79677000D01*
X157890000Y-79835750D01*
X157890000Y-80035407D01*
X157844268Y-79925000D01*
X157910000Y-79766309D01*
X157910000Y-79575750D01*
X157751250Y-79417000D01*
X156827000Y-79417000D01*
X156827000Y-80433000D01*
X156847000Y-80433000D01*
X156847000Y-80687000D01*
X156827000Y-80687000D01*
X156827000Y-81703000D01*
X156847000Y-81703000D01*
X156847000Y-81957000D01*
X156827000Y-81957000D01*
X156827000Y-81977000D01*
X156573000Y-81977000D01*
X156573000Y-81957000D01*
X156553000Y-81957000D01*
X156553000Y-81703000D01*
X156573000Y-81703000D01*
X156573000Y-80687000D01*
X156553000Y-80687000D01*
X156553000Y-80433000D01*
X156573000Y-80433000D01*
X156573000Y-79417000D01*
X156553000Y-79417000D01*
X156553000Y-79163000D01*
X156573000Y-79163000D01*
X156573000Y-78463750D01*
X156827000Y-78463750D01*
X156827000Y-79163000D01*
X157751250Y-79163000D01*
X157890000Y-79024250D01*
X157890000Y-79264250D01*
X158048750Y-79423000D01*
X158773000Y-79423000D01*
X158773000Y-78673750D01*
X159027000Y-78673750D01*
X159027000Y-79423000D01*
X159751250Y-79423000D01*
X159910000Y-79264250D01*
X159910000Y-79023691D01*
X159813327Y-78790302D01*
X159634699Y-78611673D01*
X159401310Y-78515000D01*
X159185750Y-78515000D01*
X159027000Y-78673750D01*
X158773000Y-78673750D01*
X158614250Y-78515000D01*
X158398690Y-78515000D01*
X158165301Y-78611673D01*
X157986673Y-78790302D01*
X157910000Y-78975407D01*
X157910000Y-78813691D01*
X157813327Y-78580302D01*
X157634699Y-78401673D01*
X157401310Y-78305000D01*
X156985750Y-78305000D01*
X156827000Y-78463750D01*
X156573000Y-78463750D01*
X156414250Y-78305000D01*
X155998690Y-78305000D01*
X155765301Y-78401673D01*
X155586673Y-78580302D01*
X155577000Y-78603655D01*
X155577000Y-77948558D01*
X155957056Y-78105975D01*
X156213000Y-77986836D01*
X156213000Y-76627000D01*
X156467000Y-76627000D01*
X156467000Y-77986836D01*
X156722944Y-78105975D01*
X157204818Y-77906385D01*
X157677188Y-77468379D01*
X157945983Y-76882946D01*
X157827367Y-76627000D01*
X156467000Y-76627000D01*
X156213000Y-76627000D01*
X156193000Y-76627000D01*
X156193000Y-76373000D01*
X156213000Y-76373000D01*
X156213000Y-76353000D01*
X156467000Y-76353000D01*
X156467000Y-76373000D01*
X157827367Y-76373000D01*
X157945983Y-76117054D01*
X157677188Y-75531621D01*
X157595634Y-75456000D01*
X172544000Y-75456000D01*
X172544000Y-105544000D01*
G36*
X164775000Y-91023000D02*
X164797000Y-91023000D01*
X164797000Y-91277000D01*
X164775000Y-91277000D01*
X164775000Y-92076250D01*
X164933750Y-92235000D01*
X165026309Y-92235000D01*
X165233175Y-92149313D01*
X165345398Y-92261536D01*
X165100000Y-92261536D01*
X164958810Y-92288103D01*
X164829135Y-92371546D01*
X164742141Y-92498866D01*
X164711536Y-92650000D01*
X164711536Y-93550000D01*
X164738103Y-93691190D01*
X164740106Y-93694302D01*
X164570408Y-93864000D01*
X163908464Y-93864000D01*
X163908464Y-93859367D01*
X164005000Y-93626309D01*
X164005000Y-93385750D01*
X163846250Y-93227000D01*
X162897000Y-93227000D01*
X162897000Y-93247000D01*
X162643000Y-93247000D01*
X162643000Y-93227000D01*
X162623000Y-93227000D01*
X162623000Y-92973000D01*
X162643000Y-92973000D01*
X162643000Y-92953000D01*
X162897000Y-92953000D01*
X162897000Y-92973000D01*
X163846250Y-92973000D01*
X164005000Y-92814250D01*
X164005000Y-92573691D01*
X163908464Y-92340633D01*
X163908464Y-92006490D01*
X164040302Y-92138327D01*
X164273691Y-92235000D01*
X164366250Y-92235000D01*
X164525000Y-92076250D01*
X164525000Y-91277000D01*
X164503000Y-91277000D01*
X164503000Y-91023592D01*
X164503246Y-91023000D01*
X164525000Y-91023000D01*
X164525000Y-91003000D01*
X164775000Y-91003000D01*
X164775000Y-91023000D01*
X164775000Y-91023000D01*
G37*
X164775000Y-91023000D02*
X164797000Y-91023000D01*
X164797000Y-91277000D01*
X164775000Y-91277000D01*
X164775000Y-92076250D01*
X164933750Y-92235000D01*
X165026309Y-92235000D01*
X165233175Y-92149313D01*
X165345398Y-92261536D01*
X165100000Y-92261536D01*
X164958810Y-92288103D01*
X164829135Y-92371546D01*
X164742141Y-92498866D01*
X164711536Y-92650000D01*
X164711536Y-93550000D01*
X164738103Y-93691190D01*
X164740106Y-93694302D01*
X164570408Y-93864000D01*
X163908464Y-93864000D01*
X163908464Y-93859367D01*
X164005000Y-93626309D01*
X164005000Y-93385750D01*
X163846250Y-93227000D01*
X162897000Y-93227000D01*
X162897000Y-93247000D01*
X162643000Y-93247000D01*
X162643000Y-93227000D01*
X162623000Y-93227000D01*
X162623000Y-92973000D01*
X162643000Y-92973000D01*
X162643000Y-92953000D01*
X162897000Y-92953000D01*
X162897000Y-92973000D01*
X163846250Y-92973000D01*
X164005000Y-92814250D01*
X164005000Y-92573691D01*
X163908464Y-92340633D01*
X163908464Y-92006490D01*
X164040302Y-92138327D01*
X164273691Y-92235000D01*
X164366250Y-92235000D01*
X164525000Y-92076250D01*
X164525000Y-91277000D01*
X164503000Y-91277000D01*
X164503000Y-91023592D01*
X164503246Y-91023000D01*
X164525000Y-91023000D01*
X164525000Y-91003000D01*
X164775000Y-91003000D01*
X164775000Y-91023000D01*
G36*
X157841338Y-83506600D02*
X157842164Y-83507836D01*
X158006322Y-83617523D01*
X158082214Y-83632619D01*
X158088473Y-83665880D01*
X158171916Y-83795555D01*
X158299236Y-83882549D01*
X158450370Y-83913154D01*
X158475561Y-83913154D01*
X158469127Y-83928649D01*
X158468874Y-84219459D01*
X158496718Y-84286846D01*
X158450370Y-84286846D01*
X158309180Y-84313413D01*
X158179505Y-84396856D01*
X158092511Y-84524176D01*
X158061906Y-84675310D01*
X158061906Y-84869538D01*
X157846184Y-84653816D01*
X157641473Y-84517032D01*
X157400000Y-84469000D01*
X156986563Y-84469000D01*
X156746043Y-84369127D01*
X156455233Y-84368874D01*
X156186463Y-84479927D01*
X155980650Y-84685381D01*
X155869127Y-84953957D01*
X155868874Y-85244767D01*
X155979927Y-85513537D01*
X156185381Y-85719350D01*
X156453957Y-85830873D01*
X156744767Y-85831126D01*
X156987092Y-85731000D01*
X157138632Y-85731000D01*
X157768764Y-86361133D01*
X157768764Y-87000000D01*
X157795331Y-87141190D01*
X157806200Y-87158081D01*
X157797529Y-87161673D01*
X157618901Y-87340302D01*
X157522228Y-87573691D01*
X157522228Y-87814250D01*
X157680978Y-87973000D01*
X158405228Y-87973000D01*
X158405228Y-87953000D01*
X158659228Y-87953000D01*
X158659228Y-87973000D01*
X159280978Y-87973000D01*
X159330978Y-88023000D01*
X160055228Y-88023000D01*
X160055228Y-88003000D01*
X160309228Y-88003000D01*
X160309228Y-88023000D01*
X161033478Y-88023000D01*
X161182655Y-87873823D01*
X161195331Y-87941190D01*
X161278774Y-88070865D01*
X161406094Y-88157859D01*
X161426228Y-88161936D01*
X161426228Y-88921230D01*
X161464745Y-89114868D01*
X161574432Y-89279026D01*
X162389406Y-90094000D01*
X162064998Y-90094000D01*
X161871360Y-90132517D01*
X161707202Y-90242204D01*
X160874431Y-91074975D01*
X160764744Y-91239133D01*
X160759599Y-91265000D01*
X160515750Y-91265000D01*
X160357000Y-91423750D01*
X160357000Y-92973000D01*
X160377000Y-92973000D01*
X160377000Y-93227000D01*
X160357000Y-93227000D01*
X160357000Y-93247000D01*
X160103000Y-93247000D01*
X160103000Y-93227000D01*
X160083000Y-93227000D01*
X160083000Y-92973000D01*
X160103000Y-92973000D01*
X160103000Y-91423750D01*
X159944250Y-91265000D01*
X159553690Y-91265000D01*
X159320301Y-91361673D01*
X159202500Y-91479474D01*
X159184699Y-91461673D01*
X159177652Y-91458754D01*
X159182859Y-91451134D01*
X159213464Y-91300000D01*
X159213464Y-90680999D01*
X159474999Y-90680999D01*
X159668637Y-90642482D01*
X159832795Y-90532795D01*
X159942482Y-90368637D01*
X159980999Y-90174999D01*
X159942482Y-89981361D01*
X159832795Y-89817203D01*
X159668637Y-89707516D01*
X159474999Y-89668999D01*
X159034591Y-89668999D01*
X158373535Y-89007943D01*
X158405228Y-88976250D01*
X158405228Y-88227000D01*
X158659228Y-88227000D01*
X158659228Y-88976250D01*
X158817978Y-89135000D01*
X159033538Y-89135000D01*
X159266927Y-89038327D01*
X159332228Y-88973025D01*
X159447529Y-89088327D01*
X159680918Y-89185000D01*
X159896478Y-89185000D01*
X160055228Y-89026250D01*
X160055228Y-88277000D01*
X160309228Y-88277000D01*
X160309228Y-89026250D01*
X160467978Y-89185000D01*
X160683538Y-89185000D01*
X160916927Y-89088327D01*
X161095555Y-88909698D01*
X161192228Y-88676309D01*
X161192228Y-88435750D01*
X161033478Y-88277000D01*
X160309228Y-88277000D01*
X160055228Y-88277000D01*
X159433478Y-88277000D01*
X159383478Y-88227000D01*
X158659228Y-88227000D01*
X158405228Y-88227000D01*
X157680978Y-88227000D01*
X157636785Y-88271193D01*
X156707795Y-87342203D01*
X156543637Y-87232516D01*
X156349999Y-87193999D01*
X155556000Y-87193999D01*
X155556000Y-86900000D01*
X155517483Y-86706362D01*
X155407796Y-86542204D01*
X154207796Y-85342204D01*
X154121641Y-85284637D01*
X154054209Y-85217205D01*
X153890051Y-85107518D01*
X153738464Y-85077365D01*
X153738464Y-84550000D01*
X153711897Y-84408810D01*
X153628454Y-84279135D01*
X153501134Y-84192141D01*
X153350000Y-84161536D01*
X153331000Y-84161536D01*
X153331000Y-83683464D01*
X155000933Y-83683464D01*
X154715395Y-83969002D01*
X154555233Y-83968863D01*
X154286463Y-84079916D01*
X154080650Y-84285370D01*
X153969127Y-84553946D01*
X153968874Y-84844756D01*
X154079927Y-85113526D01*
X154285381Y-85319339D01*
X154553957Y-85430862D01*
X154844767Y-85431115D01*
X155113537Y-85320062D01*
X155319350Y-85114608D01*
X155430873Y-84846032D01*
X155431013Y-84684568D01*
X156277117Y-83838464D01*
X157275000Y-83838464D01*
X157416190Y-83811897D01*
X157545865Y-83728454D01*
X157632859Y-83601134D01*
X157663464Y-83450000D01*
X157663464Y-83328726D01*
X157841338Y-83506600D01*
X157841338Y-83506600D01*
G37*
X157841338Y-83506600D02*
X157842164Y-83507836D01*
X158006322Y-83617523D01*
X158082214Y-83632619D01*
X158088473Y-83665880D01*
X158171916Y-83795555D01*
X158299236Y-83882549D01*
X158450370Y-83913154D01*
X158475561Y-83913154D01*
X158469127Y-83928649D01*
X158468874Y-84219459D01*
X158496718Y-84286846D01*
X158450370Y-84286846D01*
X158309180Y-84313413D01*
X158179505Y-84396856D01*
X158092511Y-84524176D01*
X158061906Y-84675310D01*
X158061906Y-84869538D01*
X157846184Y-84653816D01*
X157641473Y-84517032D01*
X157400000Y-84469000D01*
X156986563Y-84469000D01*
X156746043Y-84369127D01*
X156455233Y-84368874D01*
X156186463Y-84479927D01*
X155980650Y-84685381D01*
X155869127Y-84953957D01*
X155868874Y-85244767D01*
X155979927Y-85513537D01*
X156185381Y-85719350D01*
X156453957Y-85830873D01*
X156744767Y-85831126D01*
X156987092Y-85731000D01*
X157138632Y-85731000D01*
X157768764Y-86361133D01*
X157768764Y-87000000D01*
X157795331Y-87141190D01*
X157806200Y-87158081D01*
X157797529Y-87161673D01*
X157618901Y-87340302D01*
X157522228Y-87573691D01*
X157522228Y-87814250D01*
X157680978Y-87973000D01*
X158405228Y-87973000D01*
X158405228Y-87953000D01*
X158659228Y-87953000D01*
X158659228Y-87973000D01*
X159280978Y-87973000D01*
X159330978Y-88023000D01*
X160055228Y-88023000D01*
X160055228Y-88003000D01*
X160309228Y-88003000D01*
X160309228Y-88023000D01*
X161033478Y-88023000D01*
X161182655Y-87873823D01*
X161195331Y-87941190D01*
X161278774Y-88070865D01*
X161406094Y-88157859D01*
X161426228Y-88161936D01*
X161426228Y-88921230D01*
X161464745Y-89114868D01*
X161574432Y-89279026D01*
X162389406Y-90094000D01*
X162064998Y-90094000D01*
X161871360Y-90132517D01*
X161707202Y-90242204D01*
X160874431Y-91074975D01*
X160764744Y-91239133D01*
X160759599Y-91265000D01*
X160515750Y-91265000D01*
X160357000Y-91423750D01*
X160357000Y-92973000D01*
X160377000Y-92973000D01*
X160377000Y-93227000D01*
X160357000Y-93227000D01*
X160357000Y-93247000D01*
X160103000Y-93247000D01*
X160103000Y-93227000D01*
X160083000Y-93227000D01*
X160083000Y-92973000D01*
X160103000Y-92973000D01*
X160103000Y-91423750D01*
X159944250Y-91265000D01*
X159553690Y-91265000D01*
X159320301Y-91361673D01*
X159202500Y-91479474D01*
X159184699Y-91461673D01*
X159177652Y-91458754D01*
X159182859Y-91451134D01*
X159213464Y-91300000D01*
X159213464Y-90680999D01*
X159474999Y-90680999D01*
X159668637Y-90642482D01*
X159832795Y-90532795D01*
X159942482Y-90368637D01*
X159980999Y-90174999D01*
X159942482Y-89981361D01*
X159832795Y-89817203D01*
X159668637Y-89707516D01*
X159474999Y-89668999D01*
X159034591Y-89668999D01*
X158373535Y-89007943D01*
X158405228Y-88976250D01*
X158405228Y-88227000D01*
X158659228Y-88227000D01*
X158659228Y-88976250D01*
X158817978Y-89135000D01*
X159033538Y-89135000D01*
X159266927Y-89038327D01*
X159332228Y-88973025D01*
X159447529Y-89088327D01*
X159680918Y-89185000D01*
X159896478Y-89185000D01*
X160055228Y-89026250D01*
X160055228Y-88277000D01*
X160309228Y-88277000D01*
X160309228Y-89026250D01*
X160467978Y-89185000D01*
X160683538Y-89185000D01*
X160916927Y-89088327D01*
X161095555Y-88909698D01*
X161192228Y-88676309D01*
X161192228Y-88435750D01*
X161033478Y-88277000D01*
X160309228Y-88277000D01*
X160055228Y-88277000D01*
X159433478Y-88277000D01*
X159383478Y-88227000D01*
X158659228Y-88227000D01*
X158405228Y-88227000D01*
X157680978Y-88227000D01*
X157636785Y-88271193D01*
X156707795Y-87342203D01*
X156543637Y-87232516D01*
X156349999Y-87193999D01*
X155556000Y-87193999D01*
X155556000Y-86900000D01*
X155517483Y-86706362D01*
X155407796Y-86542204D01*
X154207796Y-85342204D01*
X154121641Y-85284637D01*
X154054209Y-85217205D01*
X153890051Y-85107518D01*
X153738464Y-85077365D01*
X153738464Y-84550000D01*
X153711897Y-84408810D01*
X153628454Y-84279135D01*
X153501134Y-84192141D01*
X153350000Y-84161536D01*
X153331000Y-84161536D01*
X153331000Y-83683464D01*
X155000933Y-83683464D01*
X154715395Y-83969002D01*
X154555233Y-83968863D01*
X154286463Y-84079916D01*
X154080650Y-84285370D01*
X153969127Y-84553946D01*
X153968874Y-84844756D01*
X154079927Y-85113526D01*
X154285381Y-85319339D01*
X154553957Y-85430862D01*
X154844767Y-85431115D01*
X155113537Y-85320062D01*
X155319350Y-85114608D01*
X155430873Y-84846032D01*
X155431013Y-84684568D01*
X156277117Y-83838464D01*
X157275000Y-83838464D01*
X157416190Y-83811897D01*
X157545865Y-83728454D01*
X157632859Y-83601134D01*
X157663464Y-83450000D01*
X157663464Y-83328726D01*
X157841338Y-83506600D01*
G36*
X158577000Y-92273000D02*
X158597000Y-92273000D01*
X158597000Y-92527000D01*
X158577000Y-92527000D01*
X158577000Y-92547000D01*
X158323000Y-92547000D01*
X158323000Y-92527000D01*
X158303000Y-92527000D01*
X158303000Y-92273000D01*
X158323000Y-92273000D01*
X158323000Y-92253000D01*
X158577000Y-92253000D01*
X158577000Y-92273000D01*
X158577000Y-92273000D01*
G37*
X158577000Y-92273000D02*
X158597000Y-92273000D01*
X158597000Y-92527000D01*
X158577000Y-92527000D01*
X158577000Y-92547000D01*
X158323000Y-92547000D01*
X158323000Y-92527000D01*
X158303000Y-92527000D01*
X158303000Y-92273000D01*
X158323000Y-92273000D01*
X158323000Y-92253000D01*
X158577000Y-92253000D01*
X158577000Y-92273000D01*
G36*
X154277000Y-89623000D02*
X155323000Y-89623000D01*
X155323000Y-89603000D01*
X155577000Y-89603000D01*
X155577000Y-89623000D01*
X155597000Y-89623000D01*
X155597000Y-89877000D01*
X155577000Y-89877000D01*
X155577000Y-90923000D01*
X155597000Y-90923000D01*
X155597000Y-91177000D01*
X155577000Y-91177000D01*
X155577000Y-91197000D01*
X155323000Y-91197000D01*
X155323000Y-91177000D01*
X154277000Y-91177000D01*
X154277000Y-91197000D01*
X154023000Y-91197000D01*
X154023000Y-91177000D01*
X154003000Y-91177000D01*
X154003000Y-90923000D01*
X154023000Y-90923000D01*
X154023000Y-90035750D01*
X154165000Y-90035750D01*
X154165000Y-90764250D01*
X154277000Y-90876250D01*
X154277000Y-90923000D01*
X154323750Y-90923000D01*
X154435750Y-91035000D01*
X155164250Y-91035000D01*
X155276250Y-90923000D01*
X155323000Y-90923000D01*
X155323000Y-90876250D01*
X155435000Y-90764250D01*
X155435000Y-90035750D01*
X155323000Y-89923750D01*
X155323000Y-89877000D01*
X155276250Y-89877000D01*
X155164250Y-89765000D01*
X154435750Y-89765000D01*
X154323750Y-89877000D01*
X154277000Y-89877000D01*
X154277000Y-89923750D01*
X154165000Y-90035750D01*
X154023000Y-90035750D01*
X154023000Y-89877000D01*
X154003000Y-89877000D01*
X154003000Y-89623000D01*
X154023000Y-89623000D01*
X154023000Y-89603000D01*
X154277000Y-89603000D01*
X154277000Y-89623000D01*
X154277000Y-89623000D01*
G37*
X154277000Y-89623000D02*
X155323000Y-89623000D01*
X155323000Y-89603000D01*
X155577000Y-89603000D01*
X155577000Y-89623000D01*
X155597000Y-89623000D01*
X155597000Y-89877000D01*
X155577000Y-89877000D01*
X155577000Y-90923000D01*
X155597000Y-90923000D01*
X155597000Y-91177000D01*
X155577000Y-91177000D01*
X155577000Y-91197000D01*
X155323000Y-91197000D01*
X155323000Y-91177000D01*
X154277000Y-91177000D01*
X154277000Y-91197000D01*
X154023000Y-91197000D01*
X154023000Y-91177000D01*
X154003000Y-91177000D01*
X154003000Y-90923000D01*
X154023000Y-90923000D01*
X154023000Y-90035750D01*
X154165000Y-90035750D01*
X154165000Y-90764250D01*
X154277000Y-90876250D01*
X154277000Y-90923000D01*
X154323750Y-90923000D01*
X154435750Y-91035000D01*
X155164250Y-91035000D01*
X155276250Y-90923000D01*
X155323000Y-90923000D01*
X155323000Y-90876250D01*
X155435000Y-90764250D01*
X155435000Y-90035750D01*
X155323000Y-89923750D01*
X155323000Y-89877000D01*
X155276250Y-89877000D01*
X155164250Y-89765000D01*
X154435750Y-89765000D01*
X154323750Y-89877000D01*
X154277000Y-89877000D01*
X154277000Y-89923750D01*
X154165000Y-90035750D01*
X154023000Y-90035750D01*
X154023000Y-89877000D01*
X154003000Y-89877000D01*
X154003000Y-89623000D01*
X154023000Y-89623000D01*
X154023000Y-89603000D01*
X154277000Y-89603000D01*
X154277000Y-89623000D01*
G36*
X157873000Y-80268976D02*
X157755233Y-80268874D01*
X157486463Y-80379927D01*
X157280650Y-80585381D01*
X157169127Y-80853957D01*
X157168874Y-81144767D01*
X157279927Y-81413537D01*
X157485381Y-81619350D01*
X157494000Y-81622929D01*
X157494000Y-82438512D01*
X157426134Y-82392141D01*
X157275000Y-82361536D01*
X156125000Y-82361536D01*
X155983810Y-82388103D01*
X155854135Y-82471546D01*
X155853142Y-82473000D01*
X155577000Y-82473000D01*
X155577000Y-75456000D01*
X157873000Y-75456000D01*
X157873000Y-80268976D01*
X157873000Y-80268976D01*
G37*
X157873000Y-80268976D02*
X157755233Y-80268874D01*
X157486463Y-80379927D01*
X157280650Y-80585381D01*
X157169127Y-80853957D01*
X157168874Y-81144767D01*
X157279927Y-81413537D01*
X157485381Y-81619350D01*
X157494000Y-81622929D01*
X157494000Y-82438512D01*
X157426134Y-82392141D01*
X157275000Y-82361536D01*
X156125000Y-82361536D01*
X155983810Y-82388103D01*
X155854135Y-82471546D01*
X155853142Y-82473000D01*
X155577000Y-82473000D01*
X155577000Y-75456000D01*
X157873000Y-75456000D01*
X157873000Y-80268976D01*
M02*
