M48
;DRILL file {KiCad 4.0.1-2.fc23-product} date Wed 16 Mar 2016 04:27:19 PM CET
;FORMAT={-:-/ absolute / inch / decimal}
FMAT,2
INCH,TZ
T1C0.016
T2C0.040
%
G90
G05
M72
T1
X5.8425Y-3.5984
X5.8976Y-3.6339
X5.9016Y-3.4291
X5.9134Y-3.5709
X5.9724Y-3.6152
X6.0039Y-3.6486
X6.0906Y-3.3346
X6.1417Y-3.8425
X6.1654Y-3.3504
X6.2008Y-3.4173
X6.2136Y-3.5669
X6.2165Y-3.189
X6.2677Y-3.31
X6.313Y-3.748
X6.3346Y-3.1516
X6.4508Y-3.5705
X6.4547Y-3.2126
X6.4646Y-3.6888
X6.4803Y-3.3819
X6.5351Y-3.321
X6.5551Y-3.0984
X6.6043Y-3.6299
X6.6102Y-3.6654
X6.685Y-3.2047
T2
X6.0551Y-3.0118
X6.1551Y-3.0118
T0
M30
