M48
;DRILL file {KiCad 4.0.1-2.fc23-product} date Fri 01 Apr 2016 08:54:07 PM CEST
;FORMAT={-:-/ absolute / inch / decimal}
FMAT,2
INCH,TZ
T1C0.016
T2C0.040
%
G90
G05
M72
T1
X5.7776Y-3.3051
X5.7933Y-3.2382
X5.7933Y-3.3819
X5.8031Y-3.7087
X5.8179Y-3.4213
X5.9016Y-3.4291
X5.9063Y-3.5431
X5.9083Y-3.5801
X5.9094Y-3.6339
X5.9724Y-3.6152
X5.983Y-3.5049
X6.0039Y-3.6486
X6.0866Y-3.3091
X6.1164Y-3.3957
X6.1201Y-3.5335
X6.1417Y-3.8425
X6.1673Y-3.3504
X6.2239Y-3.4447
X6.2323Y-3.1909
X6.2579Y-3.752
X6.2913Y-3.311
X6.2963Y-3.002
X6.313Y-3.748
X6.3346Y-3.1516
X6.4094Y-3.0016
X6.4326Y-3.5685
X6.4646Y-3.6888
X6.4658Y-3.2154
X6.4803Y-3.3819
X6.4911Y-3.4596
X6.499Y-3.4104
X6.5351Y-3.321
X6.5551Y-3.0984
X6.6043Y-3.6299
X6.685Y-3.2047
T2
X6.0551Y-3.0118
X6.1551Y-3.0118
T0
M30
