G04 #@! TF.FileFunction,Soldermask,Bot*
%FSLAX46Y46*%
G04 Gerber Fmt 4.6, Leading zero omitted, Abs format (unit mm)*
G04 Created by KiCad (PCBNEW 4.0.1-2.fc23-product) date Fri 01 Apr 2016 08:54:00 PM CEST*
%MOMM*%
G01*
G04 APERTURE LIST*
%ADD10C,0.100000*%
%ADD11R,0.798780X1.149300*%
%ADD12R,1.200000X1.150000*%
%ADD13R,1.700000X1.100000*%
%ADD14R,0.900000X1.300000*%
%ADD15R,1.150000X1.200000*%
%ADD16R,1.300000X0.900000*%
%ADD17R,1.900000X1.600000*%
%ADD18R,1.500000X2.800000*%
%ADD19R,1.600000X1.200000*%
%ADD20R,1.700000X1.950000*%
%ADD21R,0.850000X1.900000*%
%ADD22R,0.700000X1.250000*%
%ADD23R,1.250000X0.700000*%
%ADD24R,1.700000X1.700000*%
%ADD25R,2.000000X1.200000*%
%ADD26R,3.400000X2.500000*%
%ADD27R,2.432000X2.432000*%
%ADD28O,2.432000X2.432000*%
%ADD29R,1.197560X1.197560*%
%ADD30R,1.300000X0.850000*%
%ADD31R,1.700000X4.850000*%
%ADD32R,3.450000X4.350000*%
G04 APERTURE END LIST*
D10*
D11*
X158649760Y-83150040D03*
X159300000Y-83150040D03*
X159950240Y-83150040D03*
X159950240Y-85049960D03*
X159300000Y-85049960D03*
X158649760Y-85049960D03*
D12*
X162200000Y-89725000D03*
X160700000Y-89725000D03*
D13*
X152700000Y-84900000D03*
X152700000Y-86800000D03*
D14*
X168950000Y-91400000D03*
X167450000Y-91400000D03*
X166150000Y-91150000D03*
X164650000Y-91150000D03*
D15*
X158900000Y-81050000D03*
X158900000Y-79550000D03*
D12*
X166950000Y-81200000D03*
X168450000Y-81200000D03*
X165500000Y-79600000D03*
X167000000Y-79600000D03*
X170350000Y-93100000D03*
X168850000Y-93100000D03*
D15*
X158450000Y-90900000D03*
X158450000Y-92400000D03*
X158532228Y-86600000D03*
X158532228Y-88100000D03*
X160182228Y-88150000D03*
X160182228Y-86650000D03*
X162225000Y-87350000D03*
X162225000Y-85850000D03*
D16*
X171450000Y-88400000D03*
X171450000Y-89900000D03*
D14*
X167900000Y-94800000D03*
X166400000Y-94800000D03*
D16*
X169650000Y-89900000D03*
X169650000Y-88400000D03*
D14*
X152800000Y-95900000D03*
X154300000Y-95900000D03*
X152840000Y-94150000D03*
X154340000Y-94150000D03*
X171750000Y-91400000D03*
X170250000Y-91400000D03*
X165550000Y-81200000D03*
X164050000Y-81200000D03*
X151300000Y-88300000D03*
X149800000Y-88300000D03*
X162532228Y-81200000D03*
X161032228Y-81200000D03*
D16*
X161932228Y-84150000D03*
X161932228Y-82650000D03*
D17*
X162770000Y-91830000D03*
X162770000Y-94370000D03*
D18*
X160230000Y-93100000D03*
D19*
X162770000Y-93100000D03*
D20*
X164150000Y-96800000D03*
X159650000Y-96800000D03*
X159650000Y-104750000D03*
X164150000Y-104750000D03*
D21*
X163592228Y-83040000D03*
X164242228Y-83040000D03*
X164892228Y-83040000D03*
X165542228Y-83040000D03*
X166192228Y-83040000D03*
X166842228Y-83040000D03*
X167492228Y-83040000D03*
X168142228Y-83040000D03*
X168142228Y-88940000D03*
X167492228Y-88940000D03*
X166842228Y-88940000D03*
X166192228Y-88940000D03*
X165542228Y-88940000D03*
X164892228Y-88940000D03*
X164242228Y-88940000D03*
X163592228Y-88940000D03*
D22*
X153550000Y-88450000D03*
X154050000Y-88450000D03*
X154550000Y-88450000D03*
X155050000Y-88450000D03*
X155550000Y-88450000D03*
X156050000Y-88450000D03*
D23*
X156750000Y-89150000D03*
X156750000Y-89650000D03*
X156750000Y-90150000D03*
X156750000Y-90650000D03*
X156750000Y-91150000D03*
X156750000Y-91650000D03*
D22*
X156050000Y-92350000D03*
X155550000Y-92350000D03*
X155050000Y-92350000D03*
X154550000Y-92350000D03*
X154050000Y-92350000D03*
X153550000Y-92350000D03*
D23*
X152850000Y-91650000D03*
X152850000Y-91150000D03*
X152850000Y-90650000D03*
X152850000Y-90150000D03*
X152850000Y-89650000D03*
X152850000Y-89150000D03*
D24*
X155450000Y-91050000D03*
X154150000Y-91050000D03*
X155450000Y-89750000D03*
X154150000Y-89750000D03*
D25*
X148600000Y-86925000D03*
X148600000Y-85675000D03*
X148600000Y-84425000D03*
X148600000Y-83175000D03*
D26*
X145700000Y-89475000D03*
X145700000Y-80625000D03*
D27*
X153800000Y-76500000D03*
D28*
X156340000Y-76500000D03*
D20*
X166650000Y-104750000D03*
X171150000Y-104750000D03*
X171150000Y-96800000D03*
X166650000Y-96800000D03*
D29*
X155751400Y-94100000D03*
X157250000Y-94100000D03*
X155751400Y-95750000D03*
X157250000Y-95750000D03*
D16*
X151250000Y-95350000D03*
X151250000Y-93850000D03*
D14*
X166850000Y-93100000D03*
X165350000Y-93100000D03*
D15*
X146800000Y-93550000D03*
X146800000Y-92050000D03*
D30*
X156700000Y-80560000D03*
X156700000Y-79290000D03*
X156700000Y-81830000D03*
D31*
X151225000Y-81195000D03*
D32*
X153425000Y-81195000D03*
D30*
X156700000Y-83100000D03*
M02*
