G04 #@! TF.FileFunction,Other,User*
%FSLAX46Y46*%
G04 Gerber Fmt 4.6, Leading zero omitted, Abs format (unit mm)*
G04 Created by KiCad (PCBNEW 4.0.1-2.fc23-product) date Fri 01 Apr 2016 08:54:00 PM CEST*
%MOMM*%
G01*
G04 APERTURE LIST*
%ADD10C,0.100000*%
%ADD11C,0.050000*%
G04 APERTURE END LIST*
D10*
D11*
X151925000Y-88025000D02*
X151925000Y-90925000D01*
X150425000Y-88025000D02*
X150425000Y-90925000D01*
X151925000Y-88025000D02*
X150425000Y-88025000D01*
X151925000Y-90925000D02*
X150425000Y-90925000D01*
X155150000Y-84650000D02*
X152550000Y-84650000D01*
X155150000Y-83050000D02*
X152550000Y-83050000D01*
X155150000Y-84650000D02*
X155150000Y-83050000D01*
X152550000Y-84650000D02*
X152550000Y-83050000D01*
X152550000Y-81350000D02*
X155150000Y-81350000D01*
X152550000Y-82950000D02*
X155150000Y-82950000D01*
X152550000Y-81350000D02*
X152550000Y-82950000D01*
X155150000Y-81350000D02*
X155150000Y-82950000D01*
X144250000Y-85050000D02*
X144250000Y-82450000D01*
X145850000Y-85050000D02*
X145850000Y-82450000D01*
X144250000Y-85050000D02*
X145850000Y-85050000D01*
X144250000Y-82450000D02*
X145850000Y-82450000D01*
X158400000Y-84550000D02*
X158400000Y-81950000D01*
X160000000Y-84550000D02*
X160000000Y-81950000D01*
X158400000Y-84550000D02*
X160000000Y-84550000D01*
X158400000Y-81950000D02*
X160000000Y-81950000D01*
X161400000Y-92000000D02*
X161400000Y-89100000D01*
X162900000Y-92000000D02*
X162900000Y-89100000D01*
X161400000Y-92000000D02*
X162900000Y-92000000D01*
X161400000Y-89100000D02*
X162900000Y-89100000D01*
X168950000Y-83150000D02*
X166050000Y-83150000D01*
X168950000Y-81650000D02*
X166050000Y-81650000D01*
X168950000Y-83150000D02*
X168950000Y-81650000D01*
X166050000Y-83150000D02*
X166050000Y-81650000D01*
X159525000Y-78250000D02*
X159525000Y-81850000D01*
X157525000Y-78250000D02*
X157525000Y-81850000D01*
X159525000Y-78250000D02*
X157525000Y-78250000D01*
X159525000Y-81850000D02*
X157525000Y-81850000D01*
X163725000Y-78325000D02*
X163725000Y-81925000D01*
X161725000Y-78325000D02*
X161725000Y-81925000D01*
X163725000Y-78325000D02*
X161725000Y-78325000D01*
X163725000Y-81925000D02*
X161725000Y-81925000D01*
X160150000Y-82250000D02*
X160150000Y-79350000D01*
X161650000Y-82250000D02*
X161650000Y-79350000D01*
X160150000Y-82250000D02*
X161650000Y-82250000D01*
X160150000Y-79350000D02*
X161650000Y-79350000D01*
X161150000Y-82350000D02*
X165650000Y-82350000D01*
X165650000Y-82350000D02*
X165650000Y-84450000D01*
X165650000Y-84450000D02*
X161150000Y-84450000D01*
X161150000Y-82350000D02*
X161150000Y-84450000D01*
X147875000Y-87575000D02*
X147875000Y-90175000D01*
X146275000Y-87575000D02*
X146275000Y-90175000D01*
X147875000Y-87575000D02*
X146275000Y-87575000D01*
X147875000Y-90175000D02*
X146275000Y-90175000D01*
X150075000Y-88250000D02*
X150075000Y-90850000D01*
X148475000Y-88250000D02*
X148475000Y-90850000D01*
X150075000Y-88250000D02*
X148475000Y-88250000D01*
X150075000Y-90850000D02*
X148475000Y-90850000D01*
X152725000Y-86675000D02*
X150125000Y-86675000D01*
X152725000Y-85075000D02*
X150125000Y-85075000D01*
X152725000Y-86675000D02*
X152725000Y-85075000D01*
X150125000Y-86675000D02*
X150125000Y-85075000D01*
X165550000Y-92100000D02*
X162950000Y-92100000D01*
X165550000Y-90500000D02*
X162950000Y-90500000D01*
X165550000Y-92100000D02*
X165550000Y-90500000D01*
X162950000Y-92100000D02*
X162950000Y-90500000D01*
X165800000Y-75500000D02*
X169000000Y-75500000D01*
X165800000Y-77500000D02*
X169000000Y-77500000D01*
X165800000Y-75500000D02*
X165800000Y-77500000D01*
X169000000Y-75500000D02*
X169000000Y-77500000D01*
X156850000Y-81250000D02*
X154250000Y-81250000D01*
X156850000Y-79650000D02*
X154250000Y-79650000D01*
X156850000Y-81250000D02*
X156850000Y-79650000D01*
X154250000Y-81250000D02*
X154250000Y-79650000D01*
X154150000Y-81250000D02*
X151550000Y-81250000D01*
X154150000Y-79650000D02*
X151550000Y-79650000D01*
X154150000Y-81250000D02*
X154150000Y-79650000D01*
X151550000Y-81250000D02*
X151550000Y-79650000D01*
X170500000Y-81150000D02*
X170500000Y-78550000D01*
X172100000Y-81150000D02*
X172100000Y-78550000D01*
X170500000Y-81150000D02*
X172100000Y-81150000D01*
X170500000Y-78550000D02*
X172100000Y-78550000D01*
X170300000Y-78100000D02*
X170300000Y-80700000D01*
X168700000Y-78100000D02*
X168700000Y-80700000D01*
X170300000Y-78100000D02*
X168700000Y-78100000D01*
X170300000Y-80700000D02*
X168700000Y-80700000D01*
X160850000Y-91290000D02*
X160850000Y-85690000D01*
X152950000Y-91290000D02*
X152950000Y-85690000D01*
X160850000Y-91290000D02*
X152950000Y-91290000D01*
X160850000Y-85690000D02*
X152950000Y-85690000D01*
X152050000Y-78000000D02*
X158100000Y-78000000D01*
X152050000Y-65850000D02*
X158100000Y-65850000D01*
X152050000Y-78000000D02*
X152050000Y-65850000D01*
X158100000Y-78000000D02*
X158100000Y-65850000D01*
X163225000Y-78145000D02*
X163225000Y-75145000D01*
X163225000Y-75145000D02*
X165125000Y-75145000D01*
X165125000Y-78145000D02*
X165125000Y-75145000D01*
X163225000Y-78145000D02*
X165125000Y-78145000D01*
X159525000Y-75425000D02*
X159525000Y-78025000D01*
X157925000Y-75425000D02*
X157925000Y-78025000D01*
X159525000Y-75425000D02*
X157925000Y-75425000D01*
X159525000Y-78025000D02*
X157925000Y-78025000D01*
X159575000Y-75025000D02*
X162875000Y-75025000D01*
X162875000Y-75025000D02*
X162875000Y-78225000D01*
X162875000Y-78225000D02*
X159575000Y-78225000D01*
X159575000Y-78225000D02*
X159575000Y-75025000D01*
M02*
