G04 #@! TF.FileFunction,Copper,L1,Top,Signal*
%FSLAX46Y46*%
G04 Gerber Fmt 4.6, Leading zero omitted, Abs format (unit mm)*
G04 Created by KiCad (PCBNEW 4.0.1-2.fc23-product) date Fri 01 Apr 2016 08:54:00 PM CEST*
%MOMM*%
G01*
G04 APERTURE LIST*
%ADD10C,0.100000*%
%ADD11R,0.750000X0.800000*%
%ADD12R,0.500000X0.900000*%
%ADD13R,0.900000X0.500000*%
%ADD14R,1.060000X0.650000*%
%ADD15R,0.800000X0.750000*%
%ADD16R,1.250000X1.000000*%
%ADD17R,0.910000X1.220000*%
%ADD18R,1.778000X2.794000*%
%ADD19R,0.700000X1.300000*%
%ADD20R,1.200000X1.500000*%
%ADD21R,2.400000X1.100000*%
%ADD22R,0.800000X1.200000*%
%ADD23R,1.000760X0.690880*%
%ADD24R,1.500000X0.450000*%
%ADD25R,2.032000X2.032000*%
%ADD26O,2.032000X2.032000*%
%ADD27R,0.800000X1.600000*%
%ADD28R,2.100000X3.000000*%
%ADD29R,0.450000X0.590000*%
%ADD30R,0.800100X0.800100*%
%ADD31C,0.600000*%
%ADD32C,0.700000*%
%ADD33C,0.500000*%
%ADD34C,0.250000*%
%ADD35C,0.254000*%
G04 APERTURE END LIST*
D10*
D11*
X151175000Y-88725000D03*
X151175000Y-90225000D03*
D12*
X154600000Y-83850000D03*
X153100000Y-83850000D03*
X153100000Y-82150000D03*
X154600000Y-82150000D03*
D13*
X145050000Y-84500000D03*
X145050000Y-83000000D03*
D14*
X149250000Y-82050000D03*
X149250000Y-83000000D03*
X149250000Y-83950000D03*
X151450000Y-83950000D03*
X151450000Y-82050000D03*
X151450000Y-83000000D03*
D13*
X159200000Y-84000000D03*
X159200000Y-82500000D03*
D11*
X162150000Y-91300000D03*
X162150000Y-89800000D03*
D15*
X168250000Y-82400000D03*
X166750000Y-82400000D03*
D16*
X158525000Y-79050000D03*
X158525000Y-81050000D03*
X162725000Y-79125000D03*
X162725000Y-81125000D03*
D11*
X160900000Y-81550000D03*
X160900000Y-80050000D03*
D17*
X161765000Y-83400000D03*
X165035000Y-83400000D03*
D18*
X163022000Y-86300000D03*
X166578000Y-86300000D03*
D13*
X147075000Y-88125000D03*
X147075000Y-89625000D03*
X149275000Y-88800000D03*
X149275000Y-90300000D03*
D12*
X152175000Y-85875000D03*
X150675000Y-85875000D03*
X165000000Y-91300000D03*
X163500000Y-91300000D03*
D19*
X166450000Y-76500000D03*
X168350000Y-76500000D03*
D12*
X156300000Y-80450000D03*
X154800000Y-80450000D03*
X153600000Y-80450000D03*
X152100000Y-80450000D03*
D20*
X151370000Y-93660000D03*
X148830000Y-93660000D03*
D21*
X150100000Y-96200000D03*
D22*
X150100000Y-93660000D03*
D13*
X171300000Y-80600000D03*
X171300000Y-79100000D03*
X169500000Y-78650000D03*
X169500000Y-80150000D03*
D23*
X167750480Y-80849960D03*
X167750480Y-79900000D03*
X167750480Y-78950040D03*
X165149520Y-78950040D03*
X165149520Y-79900000D03*
X165149520Y-80849960D03*
D24*
X159850000Y-90765000D03*
X159850000Y-90115000D03*
X159850000Y-89465000D03*
X159850000Y-88815000D03*
X159850000Y-88165000D03*
X159850000Y-87515000D03*
X159850000Y-86865000D03*
X159850000Y-86215000D03*
X153950000Y-86215000D03*
X153950000Y-86865000D03*
X153950000Y-87515000D03*
X153950000Y-88165000D03*
X153950000Y-88815000D03*
X153950000Y-89465000D03*
X153950000Y-90115000D03*
X153950000Y-90765000D03*
D25*
X153800000Y-76500000D03*
D26*
X156340000Y-76500000D03*
D27*
X156600000Y-93750000D03*
X157850000Y-93750000D03*
X159100000Y-93750000D03*
X160350000Y-93750000D03*
X161600000Y-93750000D03*
D28*
X154050000Y-96650000D03*
X164150000Y-96650000D03*
D29*
X164175000Y-77700000D03*
X164175000Y-75590000D03*
D13*
X158725000Y-75975000D03*
X158725000Y-77475000D03*
D30*
X160275000Y-77625760D03*
X162175000Y-77625760D03*
X161225000Y-75626780D03*
D31*
X158300000Y-81050000D03*
X150020551Y-89995551D03*
X158086414Y-87494962D03*
X150100000Y-92300000D03*
X147150000Y-82249990D03*
X146750000Y-83950000D03*
X155450000Y-89750000D03*
X158950000Y-95300000D03*
D32*
X166500000Y-78700000D03*
X169800000Y-81400000D03*
X165991746Y-84352998D03*
X160900000Y-80050000D03*
X164200000Y-93694990D03*
D31*
X147400000Y-94200000D03*
X147775010Y-86900000D03*
X164232293Y-81672291D03*
X151967588Y-89024994D03*
X156649991Y-85100000D03*
X159800000Y-84100000D03*
X149900011Y-87099989D03*
D32*
X156000000Y-97600000D03*
X164600000Y-85900000D03*
X152500000Y-92675010D03*
X151700000Y-91824990D03*
X160350000Y-95200000D03*
D31*
X147150000Y-85900000D03*
X150070557Y-90935125D03*
X167750000Y-92200000D03*
X155356438Y-86250009D03*
X165075000Y-86624989D03*
X164875000Y-87875000D03*
X163388403Y-90640011D03*
X154600000Y-84050000D03*
X159925000Y-76250000D03*
X162800000Y-76240000D03*
D33*
X155550000Y-79500000D02*
X156750000Y-79500000D01*
X156750000Y-79500000D02*
X158000001Y-80750001D01*
X158000001Y-80750001D02*
X158300000Y-81050000D01*
X157400000Y-81950000D02*
X158300000Y-81050000D01*
X157637812Y-88750000D02*
X156650000Y-87762188D01*
X157400000Y-81950000D02*
X157400001Y-85715997D01*
X157400001Y-85715997D02*
X156650000Y-86465998D01*
X156650000Y-86465998D02*
X156650000Y-87762188D01*
X158500000Y-88750000D02*
X157637812Y-88750000D01*
D34*
X158600000Y-88615010D02*
X158550000Y-88615010D01*
X158799990Y-88815000D02*
X158600000Y-88615010D01*
X159850000Y-88815000D02*
X158799990Y-88815000D01*
X158500000Y-88750000D02*
X158565000Y-88815000D01*
X158565000Y-88815000D02*
X159850000Y-88815000D01*
D33*
X154800000Y-80450000D02*
X153600000Y-80450000D01*
X154800000Y-80250000D02*
X154800000Y-80450000D01*
X155550000Y-79500000D02*
X154800000Y-80250000D01*
X160900000Y-80050000D02*
X161650000Y-80050000D01*
X161650000Y-80050000D02*
X162725000Y-81125000D01*
X158725000Y-77475000D02*
X157315000Y-77475000D01*
X157315000Y-77475000D02*
X156340000Y-76500000D01*
X150100000Y-90075000D02*
X150800000Y-90075000D01*
X149700000Y-90075000D02*
X150100000Y-90075000D01*
X150100000Y-90075000D02*
X150020551Y-89995551D01*
X149275000Y-90300000D02*
X149275000Y-91475000D01*
X149275000Y-91475000D02*
X150100000Y-92300000D01*
X150800000Y-90075000D02*
X150950000Y-90225000D01*
X149275000Y-90300000D02*
X149475000Y-90300000D01*
X149475000Y-90300000D02*
X149700000Y-90075000D01*
D34*
X149275000Y-91150000D02*
X149925000Y-91800000D01*
X149275000Y-90300000D02*
X149275000Y-91150000D01*
X158850000Y-86215000D02*
X158950000Y-86215000D01*
X158950000Y-86215000D02*
X159850000Y-86215000D01*
D33*
X158086414Y-87494962D02*
X158086414Y-86843584D01*
X158086414Y-86843584D02*
X158714998Y-86215000D01*
X158714998Y-86215000D02*
X158950000Y-86215000D01*
D34*
X158086414Y-87494962D02*
X158386413Y-87194963D01*
X158386413Y-87194963D02*
X158386413Y-86678587D01*
X158386413Y-86678587D02*
X158850000Y-86215000D01*
D33*
X150100000Y-92560000D02*
X150100000Y-92300000D01*
X150100000Y-93660000D02*
X150100000Y-92560000D01*
X147150000Y-82249990D02*
X148949990Y-80450000D01*
X148949990Y-80450000D02*
X152100000Y-80450000D01*
X149250000Y-83950000D02*
X146750000Y-83950000D01*
D34*
X154985000Y-89500000D02*
X155200000Y-89500000D01*
X155200000Y-89500000D02*
X155450000Y-89750000D01*
X153950000Y-89465000D02*
X154950000Y-89465000D01*
X154950000Y-89465000D02*
X154985000Y-89500000D01*
X158850000Y-86215000D02*
X158265000Y-86800000D01*
X158265000Y-86800000D02*
X157994974Y-86800000D01*
D33*
X166500000Y-79649900D02*
X166500000Y-78700000D01*
X167750480Y-79900000D02*
X166750100Y-79900000D01*
X166750100Y-79900000D02*
X166500000Y-79649900D01*
X169500000Y-81100000D02*
X169800000Y-81400000D01*
X169500000Y-80150000D02*
X169500000Y-81100000D01*
X165035000Y-83835000D02*
X165552998Y-84352998D01*
X165552998Y-84352998D02*
X165991746Y-84352998D01*
X165035000Y-83400000D02*
X165035000Y-83835000D01*
D34*
X169500000Y-80150000D02*
X168000480Y-80150000D01*
X168000480Y-80150000D02*
X167750480Y-79900000D01*
D33*
X145600000Y-92400000D02*
X147400000Y-94200000D01*
X145600000Y-87450000D02*
X145600000Y-92400000D01*
X147775010Y-86900000D02*
X146150000Y-86900000D01*
X146150000Y-86900000D02*
X145600000Y-87450000D01*
D34*
X151967588Y-89024994D02*
X151474994Y-89024994D01*
X151474994Y-89024994D02*
X151175000Y-88725000D01*
X164073482Y-81876518D02*
X164073482Y-81831102D01*
X164073482Y-81831102D02*
X164232293Y-81672291D01*
D33*
X151875000Y-89450000D02*
X152350000Y-89925000D01*
X151175000Y-88750000D02*
X151875000Y-89450000D01*
X151875000Y-89450000D02*
X151875000Y-89117582D01*
X151875000Y-89117582D02*
X151967588Y-89024994D01*
X152350000Y-89925000D02*
X152350000Y-90300002D01*
X152350000Y-90300002D02*
X152839999Y-90790001D01*
X152839999Y-90790001D02*
X153950000Y-90790001D01*
X151175000Y-88725000D02*
X151175000Y-88750000D01*
X149250000Y-82050000D02*
X149965002Y-82050000D01*
X151425000Y-85114998D02*
X151425000Y-86635002D01*
X149965002Y-82050000D02*
X150350000Y-82434998D01*
X150350000Y-84500000D02*
X150824999Y-84974999D01*
X150350000Y-82434998D02*
X150350000Y-84500000D01*
X151285001Y-84974999D02*
X151425000Y-85114998D01*
X150824999Y-84974999D02*
X151285001Y-84974999D01*
X151425000Y-86635002D02*
X151260012Y-86799990D01*
X151260012Y-86799990D02*
X150200010Y-86799990D01*
X150200010Y-86799990D02*
X149900011Y-87099989D01*
X168284001Y-93900001D02*
X168900000Y-93284002D01*
X155950000Y-84633991D02*
X155483991Y-85100000D01*
X155483991Y-85100000D02*
X155083992Y-85499999D01*
X156649991Y-85100000D02*
X155483991Y-85100000D01*
X156300000Y-84283991D02*
X156300000Y-84750009D01*
X156300000Y-84750009D02*
X156649991Y-85100000D01*
X156300000Y-84283991D02*
X155950000Y-84633991D01*
X156649991Y-85100000D02*
X156183982Y-84633991D01*
X156183982Y-84633991D02*
X155950000Y-84633991D01*
X156300000Y-80450000D02*
X156300000Y-84283991D01*
X155083992Y-85499999D02*
X153400000Y-85499999D01*
X153400000Y-85499999D02*
X153100000Y-85199999D01*
D34*
X153950000Y-90765000D02*
X153039998Y-90765000D01*
X159800000Y-84100000D02*
X159300000Y-84100000D01*
X159300000Y-84100000D02*
X159200000Y-84000000D01*
D33*
X160900000Y-81550000D02*
X160900000Y-82450000D01*
X159800000Y-83550000D02*
X159800000Y-83605026D01*
X160900000Y-82450000D02*
X159800000Y-83550000D01*
X159800000Y-83605026D02*
X159800000Y-84100000D01*
X161600000Y-95900000D02*
X159900000Y-97600000D01*
X159900000Y-97600000D02*
X156000000Y-97600000D01*
X161600000Y-93750000D02*
X161600000Y-95900000D01*
X165000000Y-91300000D02*
X166515998Y-91300000D01*
X166515998Y-91300000D02*
X167215999Y-90599999D01*
X167215999Y-90599999D02*
X168199999Y-90599999D01*
X166700001Y-93900001D02*
X165500000Y-92700000D01*
X168199999Y-90599999D02*
X168900000Y-91300000D01*
X165500000Y-92700000D02*
X163550000Y-92700000D01*
X162500000Y-93750000D02*
X161600000Y-93750000D01*
X168900000Y-91300000D02*
X168900000Y-93284002D01*
X163550000Y-92700000D02*
X162500000Y-93750000D01*
X168284001Y-93900001D02*
X166700001Y-93900001D01*
D34*
X171300000Y-80600000D02*
X171300000Y-81100000D01*
X171300000Y-81100000D02*
X169850000Y-82550000D01*
X169850000Y-82550000D02*
X169850000Y-82770000D01*
X164600000Y-85900000D02*
X166178000Y-85900000D01*
X166178000Y-85900000D02*
X166578000Y-86300000D01*
X165000000Y-91300000D02*
X165000000Y-91500000D01*
X166578000Y-86300000D02*
X166578000Y-86808000D01*
X165000000Y-90600000D02*
X166578000Y-89022000D01*
X166578000Y-89022000D02*
X166578000Y-86300000D01*
X165000000Y-90600000D02*
X165000000Y-91300000D01*
X167078000Y-86050000D02*
X167078000Y-86558000D01*
X169850000Y-82770000D02*
X167078000Y-85542000D01*
X167078000Y-85542000D02*
X167078000Y-86050000D01*
X163700000Y-82250000D02*
X164073482Y-81876518D01*
X164073482Y-81876518D02*
X164073482Y-81789998D01*
X161625000Y-82250000D02*
X163700000Y-82250000D01*
X160750000Y-81350000D02*
X160750000Y-81375000D01*
X160750000Y-81375000D02*
X161625000Y-82250000D01*
D33*
X158525000Y-79050000D02*
X160460862Y-79050000D01*
X160460862Y-79050000D02*
X161225000Y-78285862D01*
X161225000Y-78285862D02*
X161225000Y-76526830D01*
X161225000Y-76526830D02*
X161225000Y-75626780D01*
X158525000Y-79050000D02*
X157400000Y-79050000D01*
X157400000Y-79050000D02*
X156950000Y-78600000D01*
X156950000Y-78600000D02*
X154384000Y-78600000D01*
X154384000Y-78600000D02*
X153800000Y-78016000D01*
X153800000Y-78016000D02*
X153800000Y-76500000D01*
D34*
X159075000Y-78600000D02*
X158950000Y-78600000D01*
X152500000Y-92675010D02*
X152994974Y-92675010D01*
X157424999Y-92624999D02*
X157850000Y-93050000D01*
X152994974Y-92675010D02*
X153044985Y-92624999D01*
X153044985Y-92624999D02*
X157424999Y-92624999D01*
X157850000Y-93050000D02*
X157850000Y-93750000D01*
X157885002Y-92000000D02*
X151800000Y-92000000D01*
X159100000Y-93214998D02*
X157885002Y-92000000D01*
X151800000Y-92000000D02*
X151800000Y-91924990D01*
X151800000Y-91924990D02*
X151700000Y-91824990D01*
X159100000Y-93750000D02*
X159100000Y-93214998D01*
X159100000Y-93750000D02*
X159100000Y-94285002D01*
X160350000Y-94800000D02*
X160350000Y-95200000D01*
X160350000Y-93750000D02*
X160350000Y-94800000D01*
X147350000Y-86100000D02*
X147150000Y-85900000D01*
X147150000Y-85900000D02*
X145750000Y-84500000D01*
X150650000Y-86100000D02*
X147350000Y-86100000D01*
X145750000Y-84500000D02*
X145050000Y-84500000D01*
X145050000Y-84500000D02*
X145250000Y-84500000D01*
D33*
X165149520Y-78950040D02*
X165149520Y-78866478D01*
X165149520Y-78866478D02*
X166365998Y-77650000D01*
X166365998Y-77650000D02*
X167500000Y-77650000D01*
X167500000Y-77650000D02*
X168350000Y-76800000D01*
X168350000Y-76800000D02*
X168350000Y-76500000D01*
D34*
X171300000Y-79100000D02*
X169950000Y-79100000D01*
X169950000Y-79100000D02*
X169500000Y-78650000D01*
X169500000Y-78650000D02*
X168050520Y-78650000D01*
X168050520Y-78650000D02*
X167750480Y-78950040D01*
X152374012Y-91500000D02*
X152024001Y-91149989D01*
X152024001Y-91149989D02*
X150285421Y-91149989D01*
X150285421Y-91149989D02*
X150070557Y-90935125D01*
X167525001Y-92424999D02*
X167750000Y-92200000D01*
X166074990Y-92124990D02*
X166374999Y-92424999D01*
X166374999Y-92424999D02*
X167525001Y-92424999D01*
X158875001Y-92075001D02*
X158924990Y-92124990D01*
X158924990Y-92124990D02*
X166074990Y-92124990D01*
X158300000Y-91500000D02*
X158875001Y-92075001D01*
X152374012Y-91500000D02*
X158300000Y-91500000D01*
X155356438Y-86250009D02*
X153985009Y-86250009D01*
X153985009Y-86250009D02*
X153950000Y-86215000D01*
X153950000Y-86215000D02*
X152235000Y-86215000D01*
X152235000Y-86215000D02*
X152150000Y-86300000D01*
X168250000Y-82400000D02*
X168250000Y-81349480D01*
X168250000Y-81349480D02*
X167750480Y-80849960D01*
X163522000Y-86050000D02*
X163522000Y-83533518D01*
X163522000Y-83533518D02*
X163388482Y-83400000D01*
X166750000Y-82400000D02*
X165910558Y-82400000D01*
X165910558Y-82400000D02*
X165149520Y-81638962D01*
X165149520Y-80849960D02*
X165149520Y-81638962D01*
X161765000Y-83400000D02*
X163388482Y-83400000D01*
X163388482Y-83400000D02*
X165149520Y-81638962D01*
X164875000Y-86875000D02*
X164875000Y-86850000D01*
X164875000Y-86850000D02*
X165075000Y-86650000D01*
X165075000Y-86650000D02*
X165075000Y-86624989D01*
X164875000Y-87875000D02*
X164875000Y-86875000D01*
X159850000Y-87515000D02*
X160760002Y-87515000D01*
X160760002Y-87515000D02*
X160925001Y-87679999D01*
X160925001Y-87679999D02*
X160925001Y-90700001D01*
X160925001Y-90700001D02*
X161525000Y-91300000D01*
X161525000Y-91300000D02*
X162150000Y-91300000D01*
X161500000Y-87250000D02*
X161500000Y-88500000D01*
X161500000Y-88500000D02*
X162150000Y-89150000D01*
X162150000Y-89150000D02*
X162150000Y-89800000D01*
X161115000Y-86865000D02*
X161500000Y-87250000D01*
X160850000Y-86865000D02*
X161115000Y-86865000D01*
X160915000Y-86865000D02*
X160850000Y-86865000D01*
X160850000Y-86865000D02*
X159850000Y-86865000D01*
X159850000Y-88165000D02*
X157865998Y-88165000D01*
X157865998Y-88165000D02*
X157225010Y-87524012D01*
X157225010Y-87524012D02*
X157225010Y-86704174D01*
X158100000Y-82900000D02*
X158500000Y-82500000D01*
X157225010Y-86704174D02*
X158100000Y-85829184D01*
X158100000Y-85829184D02*
X158100000Y-82900000D01*
X158500000Y-82500000D02*
X159200000Y-82500000D01*
X153950000Y-87515000D02*
X150388587Y-87515001D01*
X150388587Y-87515001D02*
X149778588Y-88125000D01*
X149778588Y-88125000D02*
X147075000Y-88125000D01*
X147075000Y-91074002D02*
X148800998Y-92800000D01*
X148830000Y-92800000D02*
X148830000Y-93660000D01*
X147075000Y-89625000D02*
X147075000Y-91074002D01*
X148800998Y-92800000D02*
X148830000Y-92800000D01*
X153950000Y-88165000D02*
X152950000Y-88165000D01*
X152950000Y-88165000D02*
X152750010Y-87965010D01*
X150139998Y-88400000D02*
X150139998Y-88635002D01*
X152750010Y-87965010D02*
X150574988Y-87965010D01*
X150574988Y-87965010D02*
X150139998Y-88400000D01*
X150139998Y-88635002D02*
X149975000Y-88800000D01*
X149975000Y-88800000D02*
X149275000Y-88800000D01*
X149475000Y-88800000D02*
X149275000Y-88800000D01*
X163500000Y-91300000D02*
X163500000Y-90751608D01*
X163500000Y-90751608D02*
X163388403Y-90640011D01*
X163400000Y-91200000D02*
X163500000Y-91300000D01*
X163500000Y-91300000D02*
X163500000Y-91500000D01*
D33*
X154600000Y-84050000D02*
X154600000Y-83850000D01*
X154600000Y-82150000D02*
X154600000Y-83850000D01*
X149250000Y-83000000D02*
X145050000Y-83000000D01*
X151450000Y-83950000D02*
X153000000Y-83950000D01*
X153000000Y-83950000D02*
X153100000Y-83850000D01*
X151450000Y-82050000D02*
X153000000Y-82050000D01*
X153000000Y-82050000D02*
X153100000Y-82150000D01*
X166450000Y-76500000D02*
X165375000Y-76500000D01*
X165375000Y-76500000D02*
X164175000Y-77700000D01*
X162175000Y-77625760D02*
X162175000Y-78575000D01*
X162175000Y-78575000D02*
X162725000Y-79125000D01*
X164175000Y-77700000D02*
X164150000Y-77700000D01*
X164150000Y-77700000D02*
X162725000Y-79125000D01*
X165149520Y-79900000D02*
X163950000Y-79900000D01*
X163950000Y-79900000D02*
X163575000Y-79525000D01*
X163575000Y-79525000D02*
X163125000Y-79525000D01*
X163125000Y-79525000D02*
X162725000Y-79125000D01*
X159925000Y-76250000D02*
X159625001Y-75950001D01*
X159625001Y-75950001D02*
X159574999Y-75950001D01*
X159574999Y-75950001D02*
X159550000Y-75975000D01*
X164175000Y-75590000D02*
X163450000Y-75590000D01*
X163450000Y-75590000D02*
X162800000Y-76240000D01*
X158725000Y-75975000D02*
X159550000Y-75975000D01*
X159550000Y-75975000D02*
X160275000Y-76700000D01*
X160275000Y-76700000D02*
X160275000Y-77625760D01*
D35*
G36*
X172290000Y-105290000D02*
X144710000Y-105290000D01*
X144710000Y-96485750D01*
X148265000Y-96485750D01*
X148265000Y-96876310D01*
X148361673Y-97109699D01*
X148540302Y-97288327D01*
X148773691Y-97385000D01*
X149814250Y-97385000D01*
X149973000Y-97226250D01*
X149973000Y-96327000D01*
X150227000Y-96327000D01*
X150227000Y-97226250D01*
X150385750Y-97385000D01*
X151426309Y-97385000D01*
X151659698Y-97288327D01*
X151838327Y-97109699D01*
X151910379Y-96935750D01*
X152365000Y-96935750D01*
X152365000Y-98276310D01*
X152461673Y-98509699D01*
X152640302Y-98688327D01*
X152873691Y-98785000D01*
X153764250Y-98785000D01*
X153923000Y-98626250D01*
X153923000Y-96777000D01*
X152523750Y-96777000D01*
X152365000Y-96935750D01*
X151910379Y-96935750D01*
X151935000Y-96876310D01*
X151935000Y-96485750D01*
X151776250Y-96327000D01*
X150227000Y-96327000D01*
X149973000Y-96327000D01*
X148423750Y-96327000D01*
X148265000Y-96485750D01*
X144710000Y-96485750D01*
X144710000Y-85397440D01*
X145500000Y-85397440D01*
X145561135Y-85385937D01*
X146190198Y-86015000D01*
X146150000Y-86015000D01*
X145811325Y-86082367D01*
X145524210Y-86274210D01*
X145524208Y-86274213D01*
X144974210Y-86824210D01*
X144782367Y-87111325D01*
X144782367Y-87111326D01*
X144714999Y-87450000D01*
X144715000Y-87450005D01*
X144715000Y-92399995D01*
X144714999Y-92400000D01*
X144766362Y-92658213D01*
X144782367Y-92738675D01*
X144934159Y-92965849D01*
X144974210Y-93025790D01*
X146557255Y-94608834D01*
X146606883Y-94728943D01*
X146869673Y-94992192D01*
X147213201Y-95134838D01*
X147585167Y-95135162D01*
X147928943Y-94993117D01*
X147941004Y-94981077D01*
X147978110Y-95006431D01*
X148230000Y-95057440D01*
X148671232Y-95057440D01*
X148540302Y-95111673D01*
X148361673Y-95290301D01*
X148265000Y-95523690D01*
X148265000Y-95914250D01*
X148423750Y-96073000D01*
X149973000Y-96073000D01*
X149973000Y-95173750D01*
X149814250Y-95015000D01*
X149655549Y-95015000D01*
X149665317Y-95013162D01*
X149881441Y-94874090D01*
X150026431Y-94661890D01*
X150077440Y-94410000D01*
X150077440Y-92910000D01*
X150033162Y-92674683D01*
X149894090Y-92458559D01*
X149681890Y-92313569D01*
X149430000Y-92262560D01*
X149367343Y-92262560D01*
X149279999Y-92204199D01*
X147835000Y-90759200D01*
X147835000Y-90430105D01*
X147976441Y-90339090D01*
X148121431Y-90126890D01*
X148172440Y-89875000D01*
X148172440Y-89375000D01*
X148128162Y-89139683D01*
X147989090Y-88923559D01*
X147932657Y-88885000D01*
X148177560Y-88885000D01*
X148177560Y-89050000D01*
X148221838Y-89285317D01*
X148360910Y-89501441D01*
X148429006Y-89547969D01*
X148286673Y-89690302D01*
X148190000Y-89923691D01*
X148190000Y-90016250D01*
X148348750Y-90175000D01*
X149148000Y-90175000D01*
X149148000Y-90153000D01*
X149402000Y-90153000D01*
X149402000Y-90175000D01*
X149422000Y-90175000D01*
X149422000Y-90261413D01*
X149278365Y-90404798D01*
X149260841Y-90447000D01*
X149148000Y-90447000D01*
X149148000Y-90425000D01*
X148348750Y-90425000D01*
X148190000Y-90583750D01*
X148190000Y-90676309D01*
X148286673Y-90909698D01*
X148465301Y-91088327D01*
X148698690Y-91185000D01*
X148989250Y-91185000D01*
X149135466Y-91038784D01*
X149135395Y-91120292D01*
X149147998Y-91150794D01*
X149147998Y-91185000D01*
X149162132Y-91185000D01*
X149277440Y-91464068D01*
X149540230Y-91727317D01*
X149883758Y-91869963D01*
X150085080Y-91870138D01*
X150285421Y-91909989D01*
X150714926Y-91909989D01*
X150714830Y-92020059D01*
X150815029Y-92262560D01*
X150770000Y-92262560D01*
X150534683Y-92306838D01*
X150318559Y-92445910D01*
X150173569Y-92658110D01*
X150122560Y-92910000D01*
X150122560Y-94410000D01*
X150166838Y-94645317D01*
X150305910Y-94861441D01*
X150518110Y-95006431D01*
X150560425Y-95015000D01*
X150385750Y-95015000D01*
X150227000Y-95173750D01*
X150227000Y-96073000D01*
X151776250Y-96073000D01*
X151935000Y-95914250D01*
X151935000Y-95523690D01*
X151838327Y-95290301D01*
X151659698Y-95111673D01*
X151528768Y-95057440D01*
X151970000Y-95057440D01*
X152205317Y-95013162D01*
X152421441Y-94874090D01*
X152435473Y-94853554D01*
X152365000Y-95023690D01*
X152365000Y-96364250D01*
X152523750Y-96523000D01*
X153923000Y-96523000D01*
X153923000Y-94673750D01*
X153764250Y-94515000D01*
X152873691Y-94515000D01*
X152640302Y-94611673D01*
X152515404Y-94736570D01*
X152566431Y-94661890D01*
X152617440Y-94410000D01*
X152617440Y-93660112D01*
X152695069Y-93660180D01*
X153057229Y-93510539D01*
X153167210Y-93400750D01*
X153246394Y-93384999D01*
X155565000Y-93384999D01*
X155565000Y-93464250D01*
X155723750Y-93623000D01*
X156473000Y-93623000D01*
X156473000Y-93603000D01*
X156727000Y-93603000D01*
X156727000Y-93623000D01*
X156747000Y-93623000D01*
X156747000Y-93877000D01*
X156727000Y-93877000D01*
X156727000Y-95026250D01*
X156885750Y-95185000D01*
X157126309Y-95185000D01*
X157212424Y-95149330D01*
X157450000Y-95197440D01*
X158250000Y-95197440D01*
X158483260Y-95153549D01*
X158700000Y-95197440D01*
X159365002Y-95197440D01*
X159364830Y-95395069D01*
X159514471Y-95757229D01*
X159791314Y-96034555D01*
X160089887Y-96158533D01*
X159533420Y-96715000D01*
X156437201Y-96715000D01*
X156196788Y-96615172D01*
X155804931Y-96614830D01*
X155735000Y-96643725D01*
X155735000Y-96522998D01*
X155576252Y-96522998D01*
X155735000Y-96364250D01*
X155735000Y-95023690D01*
X155706246Y-94954272D01*
X155840302Y-95088327D01*
X156073691Y-95185000D01*
X156314250Y-95185000D01*
X156473000Y-95026250D01*
X156473000Y-93877000D01*
X155723750Y-93877000D01*
X155565000Y-94035750D01*
X155565000Y-94676310D01*
X155593754Y-94745728D01*
X155459698Y-94611673D01*
X155226309Y-94515000D01*
X154335750Y-94515000D01*
X154177000Y-94673750D01*
X154177000Y-96523000D01*
X154197000Y-96523000D01*
X154197000Y-96777000D01*
X154177000Y-96777000D01*
X154177000Y-98626250D01*
X154335750Y-98785000D01*
X155226309Y-98785000D01*
X155459698Y-98688327D01*
X155633619Y-98514407D01*
X155803212Y-98584828D01*
X156195069Y-98585170D01*
X156437500Y-98485000D01*
X159899995Y-98485000D01*
X159900000Y-98485001D01*
X160182484Y-98428810D01*
X160238675Y-98417633D01*
X160525790Y-98225790D01*
X162225787Y-96525792D01*
X162225790Y-96525790D01*
X162417633Y-96238675D01*
X162450588Y-96073000D01*
X162452560Y-96063088D01*
X162452560Y-98150000D01*
X162496838Y-98385317D01*
X162635910Y-98601441D01*
X162848110Y-98746431D01*
X163100000Y-98797440D01*
X165200000Y-98797440D01*
X165435317Y-98753162D01*
X165651441Y-98614090D01*
X165796431Y-98401890D01*
X165847440Y-98150000D01*
X165847440Y-95150000D01*
X165803162Y-94914683D01*
X165664090Y-94698559D01*
X165451890Y-94553569D01*
X165200000Y-94502560D01*
X163100000Y-94502560D01*
X162871802Y-94545499D01*
X163125790Y-94375790D01*
X163916579Y-93585000D01*
X165133420Y-93585000D01*
X166074209Y-94525788D01*
X166074211Y-94525791D01*
X166361326Y-94717634D01*
X166417517Y-94728811D01*
X166700001Y-94785002D01*
X166700006Y-94785001D01*
X168283996Y-94785001D01*
X168284001Y-94785002D01*
X168566485Y-94728811D01*
X168622676Y-94717634D01*
X168909791Y-94525791D01*
X169525787Y-93909794D01*
X169525790Y-93909792D01*
X169717633Y-93622677D01*
X169724650Y-93587401D01*
X169785001Y-93284002D01*
X169785000Y-93283997D01*
X169785000Y-91300005D01*
X169785001Y-91300000D01*
X169717633Y-90961326D01*
X169717633Y-90961325D01*
X169525790Y-90674210D01*
X169525787Y-90674208D01*
X168825789Y-89974209D01*
X168767430Y-89935215D01*
X168538674Y-89782366D01*
X168482483Y-89771189D01*
X168199999Y-89714998D01*
X168199994Y-89714999D01*
X167216004Y-89714999D01*
X167215999Y-89714998D01*
X166933515Y-89771189D01*
X166896188Y-89778614D01*
X167115401Y-89559401D01*
X167280148Y-89312839D01*
X167338000Y-89022000D01*
X167338000Y-88344440D01*
X167467000Y-88344440D01*
X167702317Y-88300162D01*
X167918441Y-88161090D01*
X168063431Y-87948890D01*
X168114440Y-87697000D01*
X168114440Y-85580362D01*
X170387401Y-83307401D01*
X170552148Y-83060839D01*
X170586460Y-82888342D01*
X171837401Y-81637401D01*
X171956937Y-81458502D01*
X171985317Y-81453162D01*
X172201441Y-81314090D01*
X172290000Y-81184480D01*
X172290000Y-105290000D01*
X172290000Y-105290000D01*
G37*
X172290000Y-105290000D02*
X144710000Y-105290000D01*
X144710000Y-96485750D01*
X148265000Y-96485750D01*
X148265000Y-96876310D01*
X148361673Y-97109699D01*
X148540302Y-97288327D01*
X148773691Y-97385000D01*
X149814250Y-97385000D01*
X149973000Y-97226250D01*
X149973000Y-96327000D01*
X150227000Y-96327000D01*
X150227000Y-97226250D01*
X150385750Y-97385000D01*
X151426309Y-97385000D01*
X151659698Y-97288327D01*
X151838327Y-97109699D01*
X151910379Y-96935750D01*
X152365000Y-96935750D01*
X152365000Y-98276310D01*
X152461673Y-98509699D01*
X152640302Y-98688327D01*
X152873691Y-98785000D01*
X153764250Y-98785000D01*
X153923000Y-98626250D01*
X153923000Y-96777000D01*
X152523750Y-96777000D01*
X152365000Y-96935750D01*
X151910379Y-96935750D01*
X151935000Y-96876310D01*
X151935000Y-96485750D01*
X151776250Y-96327000D01*
X150227000Y-96327000D01*
X149973000Y-96327000D01*
X148423750Y-96327000D01*
X148265000Y-96485750D01*
X144710000Y-96485750D01*
X144710000Y-85397440D01*
X145500000Y-85397440D01*
X145561135Y-85385937D01*
X146190198Y-86015000D01*
X146150000Y-86015000D01*
X145811325Y-86082367D01*
X145524210Y-86274210D01*
X145524208Y-86274213D01*
X144974210Y-86824210D01*
X144782367Y-87111325D01*
X144782367Y-87111326D01*
X144714999Y-87450000D01*
X144715000Y-87450005D01*
X144715000Y-92399995D01*
X144714999Y-92400000D01*
X144766362Y-92658213D01*
X144782367Y-92738675D01*
X144934159Y-92965849D01*
X144974210Y-93025790D01*
X146557255Y-94608834D01*
X146606883Y-94728943D01*
X146869673Y-94992192D01*
X147213201Y-95134838D01*
X147585167Y-95135162D01*
X147928943Y-94993117D01*
X147941004Y-94981077D01*
X147978110Y-95006431D01*
X148230000Y-95057440D01*
X148671232Y-95057440D01*
X148540302Y-95111673D01*
X148361673Y-95290301D01*
X148265000Y-95523690D01*
X148265000Y-95914250D01*
X148423750Y-96073000D01*
X149973000Y-96073000D01*
X149973000Y-95173750D01*
X149814250Y-95015000D01*
X149655549Y-95015000D01*
X149665317Y-95013162D01*
X149881441Y-94874090D01*
X150026431Y-94661890D01*
X150077440Y-94410000D01*
X150077440Y-92910000D01*
X150033162Y-92674683D01*
X149894090Y-92458559D01*
X149681890Y-92313569D01*
X149430000Y-92262560D01*
X149367343Y-92262560D01*
X149279999Y-92204199D01*
X147835000Y-90759200D01*
X147835000Y-90430105D01*
X147976441Y-90339090D01*
X148121431Y-90126890D01*
X148172440Y-89875000D01*
X148172440Y-89375000D01*
X148128162Y-89139683D01*
X147989090Y-88923559D01*
X147932657Y-88885000D01*
X148177560Y-88885000D01*
X148177560Y-89050000D01*
X148221838Y-89285317D01*
X148360910Y-89501441D01*
X148429006Y-89547969D01*
X148286673Y-89690302D01*
X148190000Y-89923691D01*
X148190000Y-90016250D01*
X148348750Y-90175000D01*
X149148000Y-90175000D01*
X149148000Y-90153000D01*
X149402000Y-90153000D01*
X149402000Y-90175000D01*
X149422000Y-90175000D01*
X149422000Y-90261413D01*
X149278365Y-90404798D01*
X149260841Y-90447000D01*
X149148000Y-90447000D01*
X149148000Y-90425000D01*
X148348750Y-90425000D01*
X148190000Y-90583750D01*
X148190000Y-90676309D01*
X148286673Y-90909698D01*
X148465301Y-91088327D01*
X148698690Y-91185000D01*
X148989250Y-91185000D01*
X149135466Y-91038784D01*
X149135395Y-91120292D01*
X149147998Y-91150794D01*
X149147998Y-91185000D01*
X149162132Y-91185000D01*
X149277440Y-91464068D01*
X149540230Y-91727317D01*
X149883758Y-91869963D01*
X150085080Y-91870138D01*
X150285421Y-91909989D01*
X150714926Y-91909989D01*
X150714830Y-92020059D01*
X150815029Y-92262560D01*
X150770000Y-92262560D01*
X150534683Y-92306838D01*
X150318559Y-92445910D01*
X150173569Y-92658110D01*
X150122560Y-92910000D01*
X150122560Y-94410000D01*
X150166838Y-94645317D01*
X150305910Y-94861441D01*
X150518110Y-95006431D01*
X150560425Y-95015000D01*
X150385750Y-95015000D01*
X150227000Y-95173750D01*
X150227000Y-96073000D01*
X151776250Y-96073000D01*
X151935000Y-95914250D01*
X151935000Y-95523690D01*
X151838327Y-95290301D01*
X151659698Y-95111673D01*
X151528768Y-95057440D01*
X151970000Y-95057440D01*
X152205317Y-95013162D01*
X152421441Y-94874090D01*
X152435473Y-94853554D01*
X152365000Y-95023690D01*
X152365000Y-96364250D01*
X152523750Y-96523000D01*
X153923000Y-96523000D01*
X153923000Y-94673750D01*
X153764250Y-94515000D01*
X152873691Y-94515000D01*
X152640302Y-94611673D01*
X152515404Y-94736570D01*
X152566431Y-94661890D01*
X152617440Y-94410000D01*
X152617440Y-93660112D01*
X152695069Y-93660180D01*
X153057229Y-93510539D01*
X153167210Y-93400750D01*
X153246394Y-93384999D01*
X155565000Y-93384999D01*
X155565000Y-93464250D01*
X155723750Y-93623000D01*
X156473000Y-93623000D01*
X156473000Y-93603000D01*
X156727000Y-93603000D01*
X156727000Y-93623000D01*
X156747000Y-93623000D01*
X156747000Y-93877000D01*
X156727000Y-93877000D01*
X156727000Y-95026250D01*
X156885750Y-95185000D01*
X157126309Y-95185000D01*
X157212424Y-95149330D01*
X157450000Y-95197440D01*
X158250000Y-95197440D01*
X158483260Y-95153549D01*
X158700000Y-95197440D01*
X159365002Y-95197440D01*
X159364830Y-95395069D01*
X159514471Y-95757229D01*
X159791314Y-96034555D01*
X160089887Y-96158533D01*
X159533420Y-96715000D01*
X156437201Y-96715000D01*
X156196788Y-96615172D01*
X155804931Y-96614830D01*
X155735000Y-96643725D01*
X155735000Y-96522998D01*
X155576252Y-96522998D01*
X155735000Y-96364250D01*
X155735000Y-95023690D01*
X155706246Y-94954272D01*
X155840302Y-95088327D01*
X156073691Y-95185000D01*
X156314250Y-95185000D01*
X156473000Y-95026250D01*
X156473000Y-93877000D01*
X155723750Y-93877000D01*
X155565000Y-94035750D01*
X155565000Y-94676310D01*
X155593754Y-94745728D01*
X155459698Y-94611673D01*
X155226309Y-94515000D01*
X154335750Y-94515000D01*
X154177000Y-94673750D01*
X154177000Y-96523000D01*
X154197000Y-96523000D01*
X154197000Y-96777000D01*
X154177000Y-96777000D01*
X154177000Y-98626250D01*
X154335750Y-98785000D01*
X155226309Y-98785000D01*
X155459698Y-98688327D01*
X155633619Y-98514407D01*
X155803212Y-98584828D01*
X156195069Y-98585170D01*
X156437500Y-98485000D01*
X159899995Y-98485000D01*
X159900000Y-98485001D01*
X160182484Y-98428810D01*
X160238675Y-98417633D01*
X160525790Y-98225790D01*
X162225787Y-96525792D01*
X162225790Y-96525790D01*
X162417633Y-96238675D01*
X162450588Y-96073000D01*
X162452560Y-96063088D01*
X162452560Y-98150000D01*
X162496838Y-98385317D01*
X162635910Y-98601441D01*
X162848110Y-98746431D01*
X163100000Y-98797440D01*
X165200000Y-98797440D01*
X165435317Y-98753162D01*
X165651441Y-98614090D01*
X165796431Y-98401890D01*
X165847440Y-98150000D01*
X165847440Y-95150000D01*
X165803162Y-94914683D01*
X165664090Y-94698559D01*
X165451890Y-94553569D01*
X165200000Y-94502560D01*
X163100000Y-94502560D01*
X162871802Y-94545499D01*
X163125790Y-94375790D01*
X163916579Y-93585000D01*
X165133420Y-93585000D01*
X166074209Y-94525788D01*
X166074211Y-94525791D01*
X166361326Y-94717634D01*
X166417517Y-94728811D01*
X166700001Y-94785002D01*
X166700006Y-94785001D01*
X168283996Y-94785001D01*
X168284001Y-94785002D01*
X168566485Y-94728811D01*
X168622676Y-94717634D01*
X168909791Y-94525791D01*
X169525787Y-93909794D01*
X169525790Y-93909792D01*
X169717633Y-93622677D01*
X169724650Y-93587401D01*
X169785001Y-93284002D01*
X169785000Y-93283997D01*
X169785000Y-91300005D01*
X169785001Y-91300000D01*
X169717633Y-90961326D01*
X169717633Y-90961325D01*
X169525790Y-90674210D01*
X169525787Y-90674208D01*
X168825789Y-89974209D01*
X168767430Y-89935215D01*
X168538674Y-89782366D01*
X168482483Y-89771189D01*
X168199999Y-89714998D01*
X168199994Y-89714999D01*
X167216004Y-89714999D01*
X167215999Y-89714998D01*
X166933515Y-89771189D01*
X166896188Y-89778614D01*
X167115401Y-89559401D01*
X167280148Y-89312839D01*
X167338000Y-89022000D01*
X167338000Y-88344440D01*
X167467000Y-88344440D01*
X167702317Y-88300162D01*
X167918441Y-88161090D01*
X168063431Y-87948890D01*
X168114440Y-87697000D01*
X168114440Y-85580362D01*
X170387401Y-83307401D01*
X170552148Y-83060839D01*
X170586460Y-82888342D01*
X171837401Y-81637401D01*
X171956937Y-81458502D01*
X171985317Y-81453162D01*
X172201441Y-81314090D01*
X172290000Y-81184480D01*
X172290000Y-105290000D01*
G36*
X155765000Y-87762183D02*
X155764999Y-87762188D01*
X155819232Y-88034827D01*
X155832367Y-88100863D01*
X155994265Y-88343162D01*
X156024210Y-88387978D01*
X157012020Y-89375787D01*
X157012022Y-89375790D01*
X157278639Y-89553937D01*
X157299137Y-89567633D01*
X157637812Y-89635001D01*
X157637817Y-89635000D01*
X158452560Y-89635000D01*
X158452560Y-89690000D01*
X158472067Y-89793671D01*
X158452560Y-89890000D01*
X158452560Y-90340000D01*
X158472067Y-90443671D01*
X158452560Y-90540000D01*
X158452560Y-90770346D01*
X158300000Y-90740000D01*
X155347440Y-90740000D01*
X155347440Y-90540000D01*
X155327933Y-90436329D01*
X155347440Y-90340000D01*
X155347440Y-89890000D01*
X155334020Y-89818677D01*
X155335000Y-89816310D01*
X155335000Y-89736250D01*
X155314688Y-89715938D01*
X155303162Y-89654683D01*
X155179671Y-89462773D01*
X155296431Y-89291890D01*
X155311558Y-89217192D01*
X155335000Y-89193750D01*
X155335000Y-89113690D01*
X155333333Y-89109665D01*
X155347440Y-89040000D01*
X155347440Y-88590000D01*
X155327933Y-88486329D01*
X155347440Y-88390000D01*
X155347440Y-87940000D01*
X155327933Y-87836329D01*
X155347440Y-87740000D01*
X155347440Y-87290000D01*
X155327933Y-87186329D01*
X155328205Y-87184985D01*
X155541605Y-87185171D01*
X155765000Y-87092866D01*
X155765000Y-87762183D01*
X155765000Y-87762183D01*
G37*
X155765000Y-87762183D02*
X155764999Y-87762188D01*
X155819232Y-88034827D01*
X155832367Y-88100863D01*
X155994265Y-88343162D01*
X156024210Y-88387978D01*
X157012020Y-89375787D01*
X157012022Y-89375790D01*
X157278639Y-89553937D01*
X157299137Y-89567633D01*
X157637812Y-89635001D01*
X157637817Y-89635000D01*
X158452560Y-89635000D01*
X158452560Y-89690000D01*
X158472067Y-89793671D01*
X158452560Y-89890000D01*
X158452560Y-90340000D01*
X158472067Y-90443671D01*
X158452560Y-90540000D01*
X158452560Y-90770346D01*
X158300000Y-90740000D01*
X155347440Y-90740000D01*
X155347440Y-90540000D01*
X155327933Y-90436329D01*
X155347440Y-90340000D01*
X155347440Y-89890000D01*
X155334020Y-89818677D01*
X155335000Y-89816310D01*
X155335000Y-89736250D01*
X155314688Y-89715938D01*
X155303162Y-89654683D01*
X155179671Y-89462773D01*
X155296431Y-89291890D01*
X155311558Y-89217192D01*
X155335000Y-89193750D01*
X155335000Y-89113690D01*
X155333333Y-89109665D01*
X155347440Y-89040000D01*
X155347440Y-88590000D01*
X155327933Y-88486329D01*
X155347440Y-88390000D01*
X155347440Y-87940000D01*
X155327933Y-87836329D01*
X155347440Y-87740000D01*
X155347440Y-87290000D01*
X155327933Y-87186329D01*
X155328205Y-87184985D01*
X155541605Y-87185171D01*
X155765000Y-87092866D01*
X155765000Y-87762183D01*
G36*
X151322000Y-90148580D02*
X151322000Y-90352000D01*
X151302000Y-90352000D01*
X151302000Y-90372000D01*
X151048000Y-90372000D01*
X151048000Y-90352000D01*
X151028000Y-90352000D01*
X151028000Y-90098000D01*
X151048000Y-90098000D01*
X151048000Y-90078000D01*
X151251420Y-90078000D01*
X151322000Y-90148580D01*
X151322000Y-90148580D01*
G37*
X151322000Y-90148580D02*
X151322000Y-90352000D01*
X151302000Y-90352000D01*
X151302000Y-90372000D01*
X151048000Y-90372000D01*
X151048000Y-90352000D01*
X151028000Y-90352000D01*
X151028000Y-90098000D01*
X151048000Y-90098000D01*
X151048000Y-90078000D01*
X151251420Y-90078000D01*
X151322000Y-90148580D01*
G36*
X158465000Y-86566310D02*
X158466667Y-86570335D01*
X158452560Y-86640000D01*
X158452560Y-87090000D01*
X158472067Y-87193671D01*
X158452560Y-87290000D01*
X158452560Y-87405000D01*
X158180800Y-87405000D01*
X157985010Y-87209210D01*
X157985010Y-87018976D01*
X158465000Y-86538986D01*
X158465000Y-86566310D01*
X158465000Y-86566310D01*
G37*
X158465000Y-86566310D02*
X158466667Y-86570335D01*
X158452560Y-86640000D01*
X158452560Y-87090000D01*
X158472067Y-87193671D01*
X158452560Y-87290000D01*
X158452560Y-87405000D01*
X158180800Y-87405000D01*
X157985010Y-87209210D01*
X157985010Y-87018976D01*
X158465000Y-86538986D01*
X158465000Y-86566310D01*
G36*
X148468110Y-83921431D02*
X148720000Y-83972440D01*
X149397000Y-83972440D01*
X149397000Y-84077000D01*
X149377000Y-84077000D01*
X149377000Y-84751250D01*
X149535750Y-84910000D01*
X149580025Y-84910000D01*
X149663438Y-85034838D01*
X149724210Y-85125790D01*
X149818964Y-85220543D01*
X149794773Y-85340000D01*
X147912114Y-85340000D01*
X147680327Y-85107808D01*
X147336799Y-84965162D01*
X147289923Y-84965121D01*
X146560552Y-84235750D01*
X148085000Y-84235750D01*
X148085000Y-84401310D01*
X148181673Y-84634699D01*
X148360302Y-84813327D01*
X148593691Y-84910000D01*
X148964250Y-84910000D01*
X149123000Y-84751250D01*
X149123000Y-84077000D01*
X148243750Y-84077000D01*
X148085000Y-84235750D01*
X146560552Y-84235750D01*
X146287401Y-83962599D01*
X146171266Y-83885000D01*
X148414791Y-83885000D01*
X148468110Y-83921431D01*
X148468110Y-83921431D01*
G37*
X148468110Y-83921431D02*
X148720000Y-83972440D01*
X149397000Y-83972440D01*
X149397000Y-84077000D01*
X149377000Y-84077000D01*
X149377000Y-84751250D01*
X149535750Y-84910000D01*
X149580025Y-84910000D01*
X149663438Y-85034838D01*
X149724210Y-85125790D01*
X149818964Y-85220543D01*
X149794773Y-85340000D01*
X147912114Y-85340000D01*
X147680327Y-85107808D01*
X147336799Y-84965162D01*
X147289923Y-84965121D01*
X146560552Y-84235750D01*
X148085000Y-84235750D01*
X148085000Y-84401310D01*
X148181673Y-84634699D01*
X148360302Y-84813327D01*
X148593691Y-84910000D01*
X148964250Y-84910000D01*
X149123000Y-84751250D01*
X149123000Y-84077000D01*
X148243750Y-84077000D01*
X148085000Y-84235750D01*
X146560552Y-84235750D01*
X146287401Y-83962599D01*
X146171266Y-83885000D01*
X148414791Y-83885000D01*
X148468110Y-83921431D01*
G36*
X165162000Y-83273000D02*
X165954051Y-83273000D01*
X166098110Y-83371431D01*
X166350000Y-83422440D01*
X167150000Y-83422440D01*
X167385317Y-83378162D01*
X167499978Y-83304380D01*
X167598110Y-83371431D01*
X167850000Y-83422440D01*
X168122758Y-83422440D01*
X167289638Y-84255560D01*
X166075605Y-84255560D01*
X166125000Y-84136310D01*
X166125000Y-83685750D01*
X165966250Y-83527000D01*
X165162000Y-83527000D01*
X165162000Y-84486250D01*
X165187672Y-84511922D01*
X165092569Y-84651110D01*
X165041560Y-84903000D01*
X165041560Y-85016810D01*
X164796788Y-84915172D01*
X164558440Y-84914964D01*
X164558440Y-84903000D01*
X164514162Y-84667683D01*
X164499566Y-84645000D01*
X164749250Y-84645000D01*
X164908000Y-84486250D01*
X164908000Y-83527000D01*
X164888000Y-83527000D01*
X164888000Y-83273000D01*
X164908000Y-83273000D01*
X164908000Y-83253000D01*
X165162000Y-83253000D01*
X165162000Y-83273000D01*
X165162000Y-83273000D01*
G37*
X165162000Y-83273000D02*
X165954051Y-83273000D01*
X166098110Y-83371431D01*
X166350000Y-83422440D01*
X167150000Y-83422440D01*
X167385317Y-83378162D01*
X167499978Y-83304380D01*
X167598110Y-83371431D01*
X167850000Y-83422440D01*
X168122758Y-83422440D01*
X167289638Y-84255560D01*
X166075605Y-84255560D01*
X166125000Y-84136310D01*
X166125000Y-83685750D01*
X165966250Y-83527000D01*
X165162000Y-83527000D01*
X165162000Y-84486250D01*
X165187672Y-84511922D01*
X165092569Y-84651110D01*
X165041560Y-84903000D01*
X165041560Y-85016810D01*
X164796788Y-84915172D01*
X164558440Y-84914964D01*
X164558440Y-84903000D01*
X164514162Y-84667683D01*
X164499566Y-84645000D01*
X164749250Y-84645000D01*
X164908000Y-84486250D01*
X164908000Y-83527000D01*
X164888000Y-83527000D01*
X164888000Y-83273000D01*
X164908000Y-83273000D01*
X164908000Y-83253000D01*
X165162000Y-83253000D01*
X165162000Y-83273000D01*
G36*
X169627000Y-80025000D02*
X169647000Y-80025000D01*
X169647000Y-80275000D01*
X169627000Y-80275000D01*
X169627000Y-80876250D01*
X169785750Y-81035000D01*
X170076310Y-81035000D01*
X170225725Y-80973110D01*
X170245736Y-81079462D01*
X169312599Y-82012599D01*
X169297440Y-82035286D01*
X169297440Y-82025000D01*
X169253162Y-81789683D01*
X169114090Y-81573559D01*
X169010000Y-81502437D01*
X169010000Y-81349480D01*
X168952148Y-81058641D01*
X168936352Y-81035000D01*
X169214250Y-81035000D01*
X169373000Y-80876250D01*
X169373000Y-80275000D01*
X169353000Y-80275000D01*
X169353000Y-80025000D01*
X169373000Y-80025000D01*
X169373000Y-80003000D01*
X169627000Y-80003000D01*
X169627000Y-80025000D01*
X169627000Y-80025000D01*
G37*
X169627000Y-80025000D02*
X169647000Y-80025000D01*
X169647000Y-80275000D01*
X169627000Y-80275000D01*
X169627000Y-80876250D01*
X169785750Y-81035000D01*
X170076310Y-81035000D01*
X170225725Y-80973110D01*
X170245736Y-81079462D01*
X169312599Y-82012599D01*
X169297440Y-82035286D01*
X169297440Y-82025000D01*
X169253162Y-81789683D01*
X169114090Y-81573559D01*
X169010000Y-81502437D01*
X169010000Y-81349480D01*
X168952148Y-81058641D01*
X168936352Y-81035000D01*
X169214250Y-81035000D01*
X169373000Y-80876250D01*
X169373000Y-80275000D01*
X169353000Y-80275000D01*
X169353000Y-80025000D01*
X169373000Y-80025000D01*
X169373000Y-80003000D01*
X169627000Y-80003000D01*
X169627000Y-80025000D01*
G36*
X161027000Y-79923000D02*
X161047000Y-79923000D01*
X161047000Y-80177000D01*
X161027000Y-80177000D01*
X161027000Y-80197000D01*
X160773000Y-80197000D01*
X160773000Y-80177000D01*
X160048750Y-80177000D01*
X159890000Y-80335750D01*
X159890000Y-80576309D01*
X159986673Y-80809698D01*
X159988043Y-80811068D01*
X159928569Y-80898110D01*
X159877560Y-81150000D01*
X159877560Y-81648642D01*
X159781408Y-81629171D01*
X159797440Y-81550000D01*
X159797440Y-80550000D01*
X159753162Y-80314683D01*
X159614090Y-80098559D01*
X159544289Y-80050866D01*
X159601441Y-80014090D01*
X159655481Y-79935000D01*
X160460857Y-79935000D01*
X160460862Y-79935001D01*
X160521194Y-79923000D01*
X160773000Y-79923000D01*
X160773000Y-79903000D01*
X161027000Y-79903000D01*
X161027000Y-79923000D01*
X161027000Y-79923000D01*
G37*
X161027000Y-79923000D02*
X161047000Y-79923000D01*
X161047000Y-80177000D01*
X161027000Y-80177000D01*
X161027000Y-80197000D01*
X160773000Y-80197000D01*
X160773000Y-80177000D01*
X160048750Y-80177000D01*
X159890000Y-80335750D01*
X159890000Y-80576309D01*
X159986673Y-80809698D01*
X159988043Y-80811068D01*
X159928569Y-80898110D01*
X159877560Y-81150000D01*
X159877560Y-81648642D01*
X159781408Y-81629171D01*
X159797440Y-81550000D01*
X159797440Y-80550000D01*
X159753162Y-80314683D01*
X159614090Y-80098559D01*
X159544289Y-80050866D01*
X159601441Y-80014090D01*
X159655481Y-79935000D01*
X160460857Y-79935000D01*
X160460862Y-79935001D01*
X160521194Y-79923000D01*
X160773000Y-79923000D01*
X160773000Y-79903000D01*
X161027000Y-79903000D01*
X161027000Y-79923000D01*
G36*
X166602660Y-79295480D02*
X166623725Y-79407429D01*
X166615100Y-79428251D01*
X166615100Y-79614250D01*
X166773850Y-79773000D01*
X166824178Y-79773000D01*
X166998210Y-79891911D01*
X167030374Y-79898424D01*
X167014783Y-79901358D01*
X166819530Y-80027000D01*
X166773850Y-80027000D01*
X166615100Y-80185750D01*
X166615100Y-80371749D01*
X166624803Y-80395174D01*
X166602660Y-80504520D01*
X166602660Y-81195400D01*
X166636936Y-81377560D01*
X166350000Y-81377560D01*
X166256904Y-81395077D01*
X166297340Y-81195400D01*
X166297340Y-80504520D01*
X166272071Y-80370224D01*
X166297340Y-80245440D01*
X166297340Y-79554560D01*
X166272071Y-79420264D01*
X166297340Y-79295480D01*
X166297340Y-78970238D01*
X166602660Y-78664917D01*
X166602660Y-79295480D01*
X166602660Y-79295480D01*
G37*
X166602660Y-79295480D02*
X166623725Y-79407429D01*
X166615100Y-79428251D01*
X166615100Y-79614250D01*
X166773850Y-79773000D01*
X166824178Y-79773000D01*
X166998210Y-79891911D01*
X167030374Y-79898424D01*
X167014783Y-79901358D01*
X166819530Y-80027000D01*
X166773850Y-80027000D01*
X166615100Y-80185750D01*
X166615100Y-80371749D01*
X166624803Y-80395174D01*
X166602660Y-80504520D01*
X166602660Y-81195400D01*
X166636936Y-81377560D01*
X166350000Y-81377560D01*
X166256904Y-81395077D01*
X166297340Y-81195400D01*
X166297340Y-80504520D01*
X166272071Y-80370224D01*
X166297340Y-80245440D01*
X166297340Y-79554560D01*
X166272071Y-79420264D01*
X166297340Y-79295480D01*
X166297340Y-78970238D01*
X166602660Y-78664917D01*
X166602660Y-79295480D01*
G36*
X162852000Y-80998000D02*
X162872000Y-80998000D01*
X162872000Y-81252000D01*
X162852000Y-81252000D01*
X162852000Y-81272000D01*
X162598000Y-81272000D01*
X162598000Y-81252000D01*
X162578000Y-81252000D01*
X162578000Y-80998000D01*
X162598000Y-80998000D01*
X162598000Y-80978000D01*
X162852000Y-80978000D01*
X162852000Y-80998000D01*
X162852000Y-80998000D01*
G37*
X162852000Y-80998000D02*
X162872000Y-80998000D01*
X162872000Y-81252000D01*
X162852000Y-81252000D01*
X162852000Y-81272000D01*
X162598000Y-81272000D01*
X162598000Y-81252000D01*
X162578000Y-81252000D01*
X162578000Y-80998000D01*
X162598000Y-80998000D01*
X162598000Y-80978000D01*
X162852000Y-80978000D01*
X162852000Y-80998000D01*
M02*
