G04 #@! TF.FileFunction,Legend,Bot*
%FSLAX46Y46*%
G04 Gerber Fmt 4.6, Leading zero omitted, Abs format (unit mm)*
G04 Created by KiCad (PCBNEW 4.0.1-2.fc23-product) date Fri 01 Apr 2016 08:54:00 PM CEST*
%MOMM*%
G01*
G04 APERTURE LIST*
%ADD10C,0.100000*%
%ADD11C,0.150000*%
G04 APERTURE END LIST*
D10*
D11*
X157969040Y-82939220D02*
X157969040Y-82329620D01*
X157969040Y-82329620D02*
X158400840Y-82319460D01*
X161800000Y-89125000D02*
X161100000Y-89125000D01*
X161100000Y-90325000D02*
X161800000Y-90325000D01*
X153575000Y-86450000D02*
X153575000Y-85250000D01*
X151825000Y-85250000D02*
X151825000Y-86450000D01*
X167700000Y-92075000D02*
X168700000Y-92075000D01*
X168700000Y-90725000D02*
X167700000Y-90725000D01*
X164900000Y-91825000D02*
X165900000Y-91825000D01*
X165900000Y-90475000D02*
X164900000Y-90475000D01*
X159500000Y-80650000D02*
X159500000Y-79950000D01*
X158300000Y-79950000D02*
X158300000Y-80650000D01*
X167350000Y-81800000D02*
X168050000Y-81800000D01*
X168050000Y-80600000D02*
X167350000Y-80600000D01*
X165900000Y-80200000D02*
X166600000Y-80200000D01*
X166600000Y-79000000D02*
X165900000Y-79000000D01*
X169950000Y-92500000D02*
X169250000Y-92500000D01*
X169250000Y-93700000D02*
X169950000Y-93700000D01*
X157850000Y-91300000D02*
X157850000Y-92000000D01*
X159050000Y-92000000D02*
X159050000Y-91300000D01*
X157932228Y-87000000D02*
X157932228Y-87700000D01*
X159132228Y-87700000D02*
X159132228Y-87000000D01*
X160782228Y-87750000D02*
X160782228Y-87050000D01*
X159582228Y-87050000D02*
X159582228Y-87750000D01*
X162825000Y-86950000D02*
X162825000Y-86250000D01*
X161625000Y-86250000D02*
X161625000Y-86950000D01*
X172125000Y-89650000D02*
X172125000Y-88650000D01*
X170775000Y-88650000D02*
X170775000Y-89650000D01*
X166650000Y-95475000D02*
X167650000Y-95475000D01*
X167650000Y-94125000D02*
X166650000Y-94125000D01*
X168975000Y-88650000D02*
X168975000Y-89650000D01*
X170325000Y-89650000D02*
X170325000Y-88650000D01*
X154050000Y-95225000D02*
X153050000Y-95225000D01*
X153050000Y-96575000D02*
X154050000Y-96575000D01*
X154090000Y-93475000D02*
X153090000Y-93475000D01*
X153090000Y-94825000D02*
X154090000Y-94825000D01*
X170500000Y-92075000D02*
X171500000Y-92075000D01*
X171500000Y-90725000D02*
X170500000Y-90725000D01*
X164300000Y-81875000D02*
X165300000Y-81875000D01*
X165300000Y-80525000D02*
X164300000Y-80525000D01*
X150050000Y-88975000D02*
X151050000Y-88975000D01*
X151050000Y-87625000D02*
X150050000Y-87625000D01*
X161282228Y-81875000D02*
X162282228Y-81875000D01*
X162282228Y-80525000D02*
X161282228Y-80525000D01*
X161257228Y-82900000D02*
X161257228Y-83900000D01*
X162607228Y-83900000D02*
X162607228Y-82900000D01*
X163650714Y-100775000D02*
G75*
G03X163650714Y-100775000I-1750714J0D01*
G01*
X158675000Y-104000000D02*
X158800000Y-104000000D01*
X165125000Y-104000000D02*
X165000000Y-104000000D01*
X165125000Y-97550000D02*
X165000000Y-97550000D01*
X158800000Y-97550000D02*
X158675000Y-97550000D01*
X160500000Y-104000000D02*
X163300000Y-104000000D01*
X158675000Y-97550000D02*
X158675000Y-104000000D01*
X160500000Y-97550000D02*
X163300000Y-97550000D01*
X165125000Y-97550000D02*
X165125000Y-104000000D01*
X168592228Y-83790000D02*
X168592228Y-88190000D01*
X163142228Y-82215000D02*
X163142228Y-88190000D01*
X152650000Y-92550000D02*
X153175000Y-92550000D01*
X156950000Y-88250000D02*
X156425000Y-88250000D01*
X156950000Y-92550000D02*
X156425000Y-92550000D01*
X152650000Y-88250000D02*
X152650000Y-88775000D01*
X156950000Y-88250000D02*
X156950000Y-88775000D01*
X156950000Y-92550000D02*
X156950000Y-92025000D01*
X152650000Y-92550000D02*
X152650000Y-92025000D01*
X149400000Y-87825000D02*
X147700000Y-87825000D01*
X147700000Y-87825000D02*
X147700000Y-91025000D01*
X147700000Y-91025000D02*
X143800000Y-91025000D01*
X143800000Y-91025000D02*
X143800000Y-79075000D01*
X143800000Y-79075000D02*
X147700000Y-79075000D01*
X147700000Y-79075000D02*
X147700000Y-80075000D01*
X149900000Y-86925000D02*
X150400000Y-87425000D01*
X150400000Y-87425000D02*
X150400000Y-86425000D01*
X150400000Y-86425000D02*
X149900000Y-86925000D01*
X170650714Y-100775000D02*
G75*
G03X170650714Y-100775000I-1750714J0D01*
G01*
X172125000Y-97550000D02*
X172000000Y-97550000D01*
X165675000Y-97550000D02*
X165800000Y-97550000D01*
X165675000Y-104000000D02*
X165800000Y-104000000D01*
X172000000Y-104000000D02*
X172125000Y-104000000D01*
X170300000Y-97550000D02*
X167500000Y-97550000D01*
X172125000Y-104000000D02*
X172125000Y-97550000D01*
X170300000Y-104000000D02*
X167500000Y-104000000D01*
X165675000Y-104000000D02*
X165675000Y-97550000D01*
X157600700Y-94650000D02*
X155700700Y-94650000D01*
X157600700Y-93550000D02*
X155700700Y-93550000D01*
X156700700Y-94100000D02*
X156250700Y-94100000D01*
X156750700Y-93850000D02*
X156750700Y-94350000D01*
X156750700Y-94100000D02*
X156500700Y-93850000D01*
X156500700Y-93850000D02*
X156500700Y-94350000D01*
X156500700Y-94350000D02*
X156750700Y-94100000D01*
X157600700Y-96300000D02*
X155700700Y-96300000D01*
X157600700Y-95200000D02*
X155700700Y-95200000D01*
X156700700Y-95750000D02*
X156250700Y-95750000D01*
X156750700Y-95500000D02*
X156750700Y-96000000D01*
X156750700Y-95750000D02*
X156500700Y-95500000D01*
X156500700Y-95500000D02*
X156500700Y-96000000D01*
X156500700Y-96000000D02*
X156750700Y-95750000D01*
X150575000Y-94100000D02*
X150575000Y-95100000D01*
X151925000Y-95100000D02*
X151925000Y-94100000D01*
X165600000Y-93775000D02*
X166600000Y-93775000D01*
X166600000Y-92425000D02*
X165600000Y-92425000D01*
X147400000Y-93150000D02*
X147400000Y-92450000D01*
X146200000Y-92450000D02*
X146200000Y-93150000D01*
X149975000Y-79195000D02*
X149775000Y-79195000D01*
X149775000Y-79195000D02*
X149775000Y-83195000D01*
X149775000Y-83195000D02*
X149975000Y-83195000D01*
X157775000Y-82795000D02*
X157975000Y-82795000D01*
X157975000Y-82795000D02*
X157975000Y-83395000D01*
X157975000Y-83395000D02*
X157775000Y-83395000D01*
X157775000Y-81495000D02*
X157975000Y-81495000D01*
X157975000Y-81495000D02*
X157975000Y-82095000D01*
X157975000Y-82095000D02*
X157775000Y-82095000D01*
X157775000Y-80295000D02*
X157975000Y-80295000D01*
X157975000Y-80295000D02*
X157975000Y-80895000D01*
X157975000Y-80895000D02*
X157775000Y-80895000D01*
X157775000Y-78995000D02*
X157975000Y-78995000D01*
X157975000Y-78995000D02*
X157975000Y-79595000D01*
X157975000Y-79595000D02*
X157775000Y-79595000D01*
X149975000Y-78395000D02*
X149975000Y-83995000D01*
X149975000Y-83995000D02*
X157775000Y-83995000D01*
X157775000Y-83995000D02*
X157775000Y-78395000D01*
X157775000Y-78395000D02*
X149975000Y-78395000D01*
X158211905Y-84402381D02*
X158211905Y-85211905D01*
X158164286Y-85307143D01*
X158116667Y-85354762D01*
X158021429Y-85402381D01*
X157830952Y-85402381D01*
X157735714Y-85354762D01*
X157688095Y-85307143D01*
X157640476Y-85211905D01*
X157640476Y-84402381D01*
X157211905Y-84497619D02*
X157164286Y-84450000D01*
X157069048Y-84402381D01*
X156830952Y-84402381D01*
X156735714Y-84450000D01*
X156688095Y-84497619D01*
X156640476Y-84592857D01*
X156640476Y-84688095D01*
X156688095Y-84830952D01*
X157259524Y-85402381D01*
X156640476Y-85402381D01*
X162092857Y-88182143D02*
X162140476Y-88229762D01*
X162283333Y-88277381D01*
X162378571Y-88277381D01*
X162521429Y-88229762D01*
X162616667Y-88134524D01*
X162664286Y-88039286D01*
X162711905Y-87848810D01*
X162711905Y-87705952D01*
X162664286Y-87515476D01*
X162616667Y-87420238D01*
X162521429Y-87325000D01*
X162378571Y-87277381D01*
X162283333Y-87277381D01*
X162140476Y-87325000D01*
X162092857Y-87372619D01*
X161140476Y-88277381D02*
X161711905Y-88277381D01*
X161426191Y-88277381D02*
X161426191Y-87277381D01*
X161521429Y-87420238D01*
X161616667Y-87515476D01*
X161711905Y-87563095D01*
X160283333Y-87277381D02*
X160473810Y-87277381D01*
X160569048Y-87325000D01*
X160616667Y-87372619D01*
X160711905Y-87515476D01*
X160759524Y-87705952D01*
X160759524Y-88086905D01*
X160711905Y-88182143D01*
X160664286Y-88229762D01*
X160569048Y-88277381D01*
X160378571Y-88277381D01*
X160283333Y-88229762D01*
X160235714Y-88182143D01*
X160188095Y-88086905D01*
X160188095Y-87848810D01*
X160235714Y-87753571D01*
X160283333Y-87705952D01*
X160378571Y-87658333D01*
X160569048Y-87658333D01*
X160664286Y-87705952D01*
X160711905Y-87753571D01*
X160759524Y-87848810D01*
X151402381Y-85107143D02*
X150926190Y-84773809D01*
X151402381Y-84535714D02*
X150402381Y-84535714D01*
X150402381Y-84916667D01*
X150450000Y-85011905D01*
X150497619Y-85059524D01*
X150592857Y-85107143D01*
X150735714Y-85107143D01*
X150830952Y-85059524D01*
X150878571Y-85011905D01*
X150926190Y-84916667D01*
X150926190Y-84535714D01*
X151402381Y-86059524D02*
X151402381Y-85488095D01*
X151402381Y-85773809D02*
X150402381Y-85773809D01*
X150545238Y-85678571D01*
X150640476Y-85583333D01*
X150688095Y-85488095D01*
X150402381Y-86916667D02*
X150402381Y-86726190D01*
X150450000Y-86630952D01*
X150497619Y-86583333D01*
X150640476Y-86488095D01*
X150830952Y-86440476D01*
X151211905Y-86440476D01*
X151307143Y-86488095D01*
X151354762Y-86535714D01*
X151402381Y-86630952D01*
X151402381Y-86821429D01*
X151354762Y-86916667D01*
X151307143Y-86964286D01*
X151211905Y-87011905D01*
X150973810Y-87011905D01*
X150878571Y-86964286D01*
X150830952Y-86916667D01*
X150783333Y-86821429D01*
X150783333Y-86630952D01*
X150830952Y-86535714D01*
X150878571Y-86488095D01*
X150973810Y-86440476D01*
X168842857Y-90852381D02*
X169176191Y-90376190D01*
X169414286Y-90852381D02*
X169414286Y-89852381D01*
X169033333Y-89852381D01*
X168938095Y-89900000D01*
X168890476Y-89947619D01*
X168842857Y-90042857D01*
X168842857Y-90185714D01*
X168890476Y-90280952D01*
X168938095Y-90328571D01*
X169033333Y-90376190D01*
X169414286Y-90376190D01*
X167890476Y-90852381D02*
X168461905Y-90852381D01*
X168176191Y-90852381D02*
X168176191Y-89852381D01*
X168271429Y-89995238D01*
X168366667Y-90090476D01*
X168461905Y-90138095D01*
X167033333Y-90185714D02*
X167033333Y-90852381D01*
X167271429Y-89804762D02*
X167509524Y-90519048D01*
X166890476Y-90519048D01*
X163342857Y-90852381D02*
X163676191Y-90376190D01*
X163914286Y-90852381D02*
X163914286Y-89852381D01*
X163533333Y-89852381D01*
X163438095Y-89900000D01*
X163390476Y-89947619D01*
X163342857Y-90042857D01*
X163342857Y-90185714D01*
X163390476Y-90280952D01*
X163438095Y-90328571D01*
X163533333Y-90376190D01*
X163914286Y-90376190D01*
X162390476Y-90852381D02*
X162961905Y-90852381D01*
X162676191Y-90852381D02*
X162676191Y-89852381D01*
X162771429Y-89995238D01*
X162866667Y-90090476D01*
X162961905Y-90138095D01*
X162057143Y-89852381D02*
X161438095Y-89852381D01*
X161771429Y-90233333D01*
X161628571Y-90233333D01*
X161533333Y-90280952D01*
X161485714Y-90328571D01*
X161438095Y-90423810D01*
X161438095Y-90661905D01*
X161485714Y-90757143D01*
X161533333Y-90804762D01*
X161628571Y-90852381D01*
X161914286Y-90852381D01*
X162009524Y-90804762D01*
X162057143Y-90757143D01*
X160707143Y-79083334D02*
X160754762Y-79035715D01*
X160802381Y-78892858D01*
X160802381Y-78797620D01*
X160754762Y-78654762D01*
X160659524Y-78559524D01*
X160564286Y-78511905D01*
X160373810Y-78464286D01*
X160230952Y-78464286D01*
X160040476Y-78511905D01*
X159945238Y-78559524D01*
X159850000Y-78654762D01*
X159802381Y-78797620D01*
X159802381Y-78892858D01*
X159850000Y-79035715D01*
X159897619Y-79083334D01*
X159897619Y-79464286D02*
X159850000Y-79511905D01*
X159802381Y-79607143D01*
X159802381Y-79845239D01*
X159850000Y-79940477D01*
X159897619Y-79988096D01*
X159992857Y-80035715D01*
X160088095Y-80035715D01*
X160230952Y-79988096D01*
X160802381Y-79416667D01*
X160802381Y-80035715D01*
X171442857Y-81407143D02*
X171490476Y-81454762D01*
X171633333Y-81502381D01*
X171728571Y-81502381D01*
X171871429Y-81454762D01*
X171966667Y-81359524D01*
X172014286Y-81264286D01*
X172061905Y-81073810D01*
X172061905Y-80930952D01*
X172014286Y-80740476D01*
X171966667Y-80645238D01*
X171871429Y-80550000D01*
X171728571Y-80502381D01*
X171633333Y-80502381D01*
X171490476Y-80550000D01*
X171442857Y-80597619D01*
X170490476Y-81502381D02*
X171061905Y-81502381D01*
X170776191Y-81502381D02*
X170776191Y-80502381D01*
X170871429Y-80645238D01*
X170966667Y-80740476D01*
X171061905Y-80788095D01*
X170157143Y-80502381D02*
X169538095Y-80502381D01*
X169871429Y-80883333D01*
X169728571Y-80883333D01*
X169633333Y-80930952D01*
X169585714Y-80978571D01*
X169538095Y-81073810D01*
X169538095Y-81311905D01*
X169585714Y-81407143D01*
X169633333Y-81454762D01*
X169728571Y-81502381D01*
X170014286Y-81502381D01*
X170109524Y-81454762D01*
X170157143Y-81407143D01*
X166366666Y-78607143D02*
X166414285Y-78654762D01*
X166557142Y-78702381D01*
X166652380Y-78702381D01*
X166795238Y-78654762D01*
X166890476Y-78559524D01*
X166938095Y-78464286D01*
X166985714Y-78273810D01*
X166985714Y-78130952D01*
X166938095Y-77940476D01*
X166890476Y-77845238D01*
X166795238Y-77750000D01*
X166652380Y-77702381D01*
X166557142Y-77702381D01*
X166414285Y-77750000D01*
X166366666Y-77797619D01*
X165509523Y-78035714D02*
X165509523Y-78702381D01*
X165747619Y-77654762D02*
X165985714Y-78369048D01*
X165366666Y-78369048D01*
X172216666Y-93557143D02*
X172264285Y-93604762D01*
X172407142Y-93652381D01*
X172502380Y-93652381D01*
X172645238Y-93604762D01*
X172740476Y-93509524D01*
X172788095Y-93414286D01*
X172835714Y-93223810D01*
X172835714Y-93080952D01*
X172788095Y-92890476D01*
X172740476Y-92795238D01*
X172645238Y-92700000D01*
X172502380Y-92652381D01*
X172407142Y-92652381D01*
X172264285Y-92700000D01*
X172216666Y-92747619D01*
X171883333Y-92652381D02*
X171216666Y-92652381D01*
X171645238Y-93652381D01*
X160266666Y-91357143D02*
X160314285Y-91404762D01*
X160457142Y-91452381D01*
X160552380Y-91452381D01*
X160695238Y-91404762D01*
X160790476Y-91309524D01*
X160838095Y-91214286D01*
X160885714Y-91023810D01*
X160885714Y-90880952D01*
X160838095Y-90690476D01*
X160790476Y-90595238D01*
X160695238Y-90500000D01*
X160552380Y-90452381D01*
X160457142Y-90452381D01*
X160314285Y-90500000D01*
X160266666Y-90547619D01*
X159933333Y-90452381D02*
X159314285Y-90452381D01*
X159647619Y-90833333D01*
X159504761Y-90833333D01*
X159409523Y-90880952D01*
X159361904Y-90928571D01*
X159314285Y-91023810D01*
X159314285Y-91261905D01*
X159361904Y-91357143D01*
X159409523Y-91404762D01*
X159504761Y-91452381D01*
X159790476Y-91452381D01*
X159885714Y-91404762D01*
X159933333Y-91357143D01*
X157357143Y-86483334D02*
X157404762Y-86435715D01*
X157452381Y-86292858D01*
X157452381Y-86197620D01*
X157404762Y-86054762D01*
X157309524Y-85959524D01*
X157214286Y-85911905D01*
X157023810Y-85864286D01*
X156880952Y-85864286D01*
X156690476Y-85911905D01*
X156595238Y-85959524D01*
X156500000Y-86054762D01*
X156452381Y-86197620D01*
X156452381Y-86292858D01*
X156500000Y-86435715D01*
X156547619Y-86483334D01*
X156452381Y-87388096D02*
X156452381Y-86911905D01*
X156928571Y-86864286D01*
X156880952Y-86911905D01*
X156833333Y-87007143D01*
X156833333Y-87245239D01*
X156880952Y-87340477D01*
X156928571Y-87388096D01*
X157023810Y-87435715D01*
X157261905Y-87435715D01*
X157357143Y-87388096D01*
X157404762Y-87340477D01*
X157452381Y-87245239D01*
X157452381Y-87007143D01*
X157404762Y-86911905D01*
X157357143Y-86864286D01*
X160666666Y-89857143D02*
X160714285Y-89904762D01*
X160857142Y-89952381D01*
X160952380Y-89952381D01*
X161095238Y-89904762D01*
X161190476Y-89809524D01*
X161238095Y-89714286D01*
X161285714Y-89523810D01*
X161285714Y-89380952D01*
X161238095Y-89190476D01*
X161190476Y-89095238D01*
X161095238Y-89000000D01*
X160952380Y-88952381D01*
X160857142Y-88952381D01*
X160714285Y-89000000D01*
X160666666Y-89047619D01*
X159809523Y-88952381D02*
X160000000Y-88952381D01*
X160095238Y-89000000D01*
X160142857Y-89047619D01*
X160238095Y-89190476D01*
X160285714Y-89380952D01*
X160285714Y-89761905D01*
X160238095Y-89857143D01*
X160190476Y-89904762D01*
X160095238Y-89952381D01*
X159904761Y-89952381D01*
X159809523Y-89904762D01*
X159761904Y-89857143D01*
X159714285Y-89761905D01*
X159714285Y-89523810D01*
X159761904Y-89428571D01*
X159809523Y-89380952D01*
X159904761Y-89333333D01*
X160095238Y-89333333D01*
X160190476Y-89380952D01*
X160238095Y-89428571D01*
X160285714Y-89523810D01*
X164482143Y-86433334D02*
X164529762Y-86385715D01*
X164577381Y-86242858D01*
X164577381Y-86147620D01*
X164529762Y-86004762D01*
X164434524Y-85909524D01*
X164339286Y-85861905D01*
X164148810Y-85814286D01*
X164005952Y-85814286D01*
X163815476Y-85861905D01*
X163720238Y-85909524D01*
X163625000Y-86004762D01*
X163577381Y-86147620D01*
X163577381Y-86242858D01*
X163625000Y-86385715D01*
X163672619Y-86433334D01*
X164577381Y-86909524D02*
X164577381Y-87100000D01*
X164529762Y-87195239D01*
X164482143Y-87242858D01*
X164339286Y-87338096D01*
X164148810Y-87385715D01*
X163767857Y-87385715D01*
X163672619Y-87338096D01*
X163625000Y-87290477D01*
X163577381Y-87195239D01*
X163577381Y-87004762D01*
X163625000Y-86909524D01*
X163672619Y-86861905D01*
X163767857Y-86814286D01*
X164005952Y-86814286D01*
X164101190Y-86861905D01*
X164148810Y-86909524D01*
X164196429Y-87004762D01*
X164196429Y-87195239D01*
X164148810Y-87290477D01*
X164101190Y-87338096D01*
X164005952Y-87385715D01*
X170802381Y-82902382D02*
X171516667Y-82902382D01*
X171659524Y-82854762D01*
X171754762Y-82759524D01*
X171802381Y-82616667D01*
X171802381Y-82521429D01*
X171802381Y-83378572D02*
X170802381Y-83378572D01*
X170802381Y-83759525D01*
X170850000Y-83854763D01*
X170897619Y-83902382D01*
X170992857Y-83950001D01*
X171135714Y-83950001D01*
X171230952Y-83902382D01*
X171278571Y-83854763D01*
X171326190Y-83759525D01*
X171326190Y-83378572D01*
X170802381Y-84283334D02*
X170802381Y-84902382D01*
X171183333Y-84569048D01*
X171183333Y-84711906D01*
X171230952Y-84807144D01*
X171278571Y-84854763D01*
X171373810Y-84902382D01*
X171611905Y-84902382D01*
X171707143Y-84854763D01*
X171754762Y-84807144D01*
X171802381Y-84711906D01*
X171802381Y-84426191D01*
X171754762Y-84330953D01*
X171707143Y-84283334D01*
X171707143Y-85330953D02*
X171754762Y-85378572D01*
X171802381Y-85330953D01*
X171754762Y-85283334D01*
X171707143Y-85330953D01*
X171802381Y-85330953D01*
X171802381Y-86330953D02*
X171802381Y-85759524D01*
X171802381Y-86045238D02*
X170802381Y-86045238D01*
X170945238Y-85950000D01*
X171040476Y-85854762D01*
X171088095Y-85759524D01*
X172297618Y-94352381D02*
X172297618Y-95066667D01*
X172345238Y-95209524D01*
X172440476Y-95304762D01*
X172583333Y-95352381D01*
X172678571Y-95352381D01*
X171821428Y-95352381D02*
X171821428Y-94352381D01*
X171440475Y-94352381D01*
X171345237Y-94400000D01*
X171297618Y-94447619D01*
X171249999Y-94542857D01*
X171249999Y-94685714D01*
X171297618Y-94780952D01*
X171345237Y-94828571D01*
X171440475Y-94876190D01*
X171821428Y-94876190D01*
X170916666Y-94352381D02*
X170297618Y-94352381D01*
X170630952Y-94733333D01*
X170488094Y-94733333D01*
X170392856Y-94780952D01*
X170345237Y-94828571D01*
X170297618Y-94923810D01*
X170297618Y-95161905D01*
X170345237Y-95257143D01*
X170392856Y-95304762D01*
X170488094Y-95352381D01*
X170773809Y-95352381D01*
X170869047Y-95304762D01*
X170916666Y-95257143D01*
X169869047Y-95257143D02*
X169821428Y-95304762D01*
X169869047Y-95352381D01*
X169916666Y-95304762D01*
X169869047Y-95257143D01*
X169869047Y-95352381D01*
X169440476Y-94447619D02*
X169392857Y-94400000D01*
X169297619Y-94352381D01*
X169059523Y-94352381D01*
X168964285Y-94400000D01*
X168916666Y-94447619D01*
X168869047Y-94542857D01*
X168869047Y-94638095D01*
X168916666Y-94780952D01*
X169488095Y-95352381D01*
X168869047Y-95352381D01*
X169302381Y-82852382D02*
X170016667Y-82852382D01*
X170159524Y-82804762D01*
X170254762Y-82709524D01*
X170302381Y-82566667D01*
X170302381Y-82471429D01*
X170302381Y-83328572D02*
X169302381Y-83328572D01*
X169302381Y-83709525D01*
X169350000Y-83804763D01*
X169397619Y-83852382D01*
X169492857Y-83900001D01*
X169635714Y-83900001D01*
X169730952Y-83852382D01*
X169778571Y-83804763D01*
X169826190Y-83709525D01*
X169826190Y-83328572D01*
X169302381Y-84233334D02*
X169302381Y-84852382D01*
X169683333Y-84519048D01*
X169683333Y-84661906D01*
X169730952Y-84757144D01*
X169778571Y-84804763D01*
X169873810Y-84852382D01*
X170111905Y-84852382D01*
X170207143Y-84804763D01*
X170254762Y-84757144D01*
X170302381Y-84661906D01*
X170302381Y-84376191D01*
X170254762Y-84280953D01*
X170207143Y-84233334D01*
X170207143Y-85280953D02*
X170254762Y-85328572D01*
X170302381Y-85280953D01*
X170254762Y-85233334D01*
X170207143Y-85280953D01*
X170302381Y-85280953D01*
X169302381Y-85661905D02*
X169302381Y-86280953D01*
X169683333Y-85947619D01*
X169683333Y-86090477D01*
X169730952Y-86185715D01*
X169778571Y-86233334D01*
X169873810Y-86280953D01*
X170111905Y-86280953D01*
X170207143Y-86233334D01*
X170254762Y-86185715D01*
X170302381Y-86090477D01*
X170302381Y-85804762D01*
X170254762Y-85709524D01*
X170207143Y-85661905D01*
X154192857Y-99252381D02*
X154526191Y-98776190D01*
X154764286Y-99252381D02*
X154764286Y-98252381D01*
X154383333Y-98252381D01*
X154288095Y-98300000D01*
X154240476Y-98347619D01*
X154192857Y-98442857D01*
X154192857Y-98585714D01*
X154240476Y-98680952D01*
X154288095Y-98728571D01*
X154383333Y-98776190D01*
X154764286Y-98776190D01*
X153240476Y-99252381D02*
X153811905Y-99252381D01*
X153526191Y-99252381D02*
X153526191Y-98252381D01*
X153621429Y-98395238D01*
X153716667Y-98490476D01*
X153811905Y-98538095D01*
X152669048Y-98680952D02*
X152764286Y-98633333D01*
X152811905Y-98585714D01*
X152859524Y-98490476D01*
X152859524Y-98442857D01*
X152811905Y-98347619D01*
X152764286Y-98300000D01*
X152669048Y-98252381D01*
X152478571Y-98252381D01*
X152383333Y-98300000D01*
X152335714Y-98347619D01*
X152288095Y-98442857D01*
X152288095Y-98490476D01*
X152335714Y-98585714D01*
X152383333Y-98633333D01*
X152478571Y-98680952D01*
X152669048Y-98680952D01*
X152764286Y-98728571D01*
X152811905Y-98776190D01*
X152859524Y-98871429D01*
X152859524Y-99061905D01*
X152811905Y-99157143D01*
X152764286Y-99204762D01*
X152669048Y-99252381D01*
X152478571Y-99252381D01*
X152383333Y-99204762D01*
X152335714Y-99157143D01*
X152288095Y-99061905D01*
X152288095Y-98871429D01*
X152335714Y-98776190D01*
X152383333Y-98728571D01*
X152478571Y-98680952D01*
X154142857Y-97852381D02*
X154476191Y-97376190D01*
X154714286Y-97852381D02*
X154714286Y-96852381D01*
X154333333Y-96852381D01*
X154238095Y-96900000D01*
X154190476Y-96947619D01*
X154142857Y-97042857D01*
X154142857Y-97185714D01*
X154190476Y-97280952D01*
X154238095Y-97328571D01*
X154333333Y-97376190D01*
X154714286Y-97376190D01*
X153190476Y-97852381D02*
X153761905Y-97852381D01*
X153476191Y-97852381D02*
X153476191Y-96852381D01*
X153571429Y-96995238D01*
X153666667Y-97090476D01*
X153761905Y-97138095D01*
X152714286Y-97852381D02*
X152523810Y-97852381D01*
X152428571Y-97804762D01*
X152380952Y-97757143D01*
X152285714Y-97614286D01*
X152238095Y-97423810D01*
X152238095Y-97042857D01*
X152285714Y-96947619D01*
X152333333Y-96900000D01*
X152428571Y-96852381D01*
X152619048Y-96852381D01*
X152714286Y-96900000D01*
X152761905Y-96947619D01*
X152809524Y-97042857D01*
X152809524Y-97280952D01*
X152761905Y-97376190D01*
X152714286Y-97423810D01*
X152619048Y-97471429D01*
X152428571Y-97471429D01*
X152333333Y-97423810D01*
X152285714Y-97376190D01*
X152238095Y-97280952D01*
X171266666Y-87752381D02*
X171600000Y-87276190D01*
X171838095Y-87752381D02*
X171838095Y-86752381D01*
X171457142Y-86752381D01*
X171361904Y-86800000D01*
X171314285Y-86847619D01*
X171266666Y-86942857D01*
X171266666Y-87085714D01*
X171314285Y-87180952D01*
X171361904Y-87228571D01*
X171457142Y-87276190D01*
X171838095Y-87276190D01*
X170790476Y-87752381D02*
X170600000Y-87752381D01*
X170504761Y-87704762D01*
X170457142Y-87657143D01*
X170361904Y-87514286D01*
X170314285Y-87323810D01*
X170314285Y-86942857D01*
X170361904Y-86847619D01*
X170409523Y-86800000D01*
X170504761Y-86752381D01*
X170695238Y-86752381D01*
X170790476Y-86800000D01*
X170838095Y-86847619D01*
X170885714Y-86942857D01*
X170885714Y-87180952D01*
X170838095Y-87276190D01*
X170790476Y-87323810D01*
X170695238Y-87371429D01*
X170504761Y-87371429D01*
X170409523Y-87323810D01*
X170361904Y-87276190D01*
X170314285Y-87180952D01*
X164502381Y-78257143D02*
X164026190Y-77923809D01*
X164502381Y-77685714D02*
X163502381Y-77685714D01*
X163502381Y-78066667D01*
X163550000Y-78161905D01*
X163597619Y-78209524D01*
X163692857Y-78257143D01*
X163835714Y-78257143D01*
X163930952Y-78209524D01*
X163978571Y-78161905D01*
X164026190Y-78066667D01*
X164026190Y-77685714D01*
X164502381Y-79209524D02*
X164502381Y-78638095D01*
X164502381Y-78923809D02*
X163502381Y-78923809D01*
X163645238Y-78828571D01*
X163740476Y-78733333D01*
X163788095Y-78638095D01*
X164502381Y-80161905D02*
X164502381Y-79590476D01*
X164502381Y-79876190D02*
X163502381Y-79876190D01*
X163645238Y-79780952D01*
X163740476Y-79685714D01*
X163788095Y-79590476D01*
X151242857Y-90502381D02*
X151576191Y-90026190D01*
X151814286Y-90502381D02*
X151814286Y-89502381D01*
X151433333Y-89502381D01*
X151338095Y-89550000D01*
X151290476Y-89597619D01*
X151242857Y-89692857D01*
X151242857Y-89835714D01*
X151290476Y-89930952D01*
X151338095Y-89978571D01*
X151433333Y-90026190D01*
X151814286Y-90026190D01*
X150290476Y-90502381D02*
X150861905Y-90502381D01*
X150576191Y-90502381D02*
X150576191Y-89502381D01*
X150671429Y-89645238D01*
X150766667Y-89740476D01*
X150861905Y-89788095D01*
X149957143Y-89502381D02*
X149290476Y-89502381D01*
X149719048Y-90502381D01*
X162166666Y-80202381D02*
X162500000Y-79726190D01*
X162738095Y-80202381D02*
X162738095Y-79202381D01*
X162357142Y-79202381D01*
X162261904Y-79250000D01*
X162214285Y-79297619D01*
X162166666Y-79392857D01*
X162166666Y-79535714D01*
X162214285Y-79630952D01*
X162261904Y-79678571D01*
X162357142Y-79726190D01*
X162738095Y-79726190D01*
X161261904Y-79202381D02*
X161738095Y-79202381D01*
X161785714Y-79678571D01*
X161738095Y-79630952D01*
X161642857Y-79583333D01*
X161404761Y-79583333D01*
X161309523Y-79630952D01*
X161261904Y-79678571D01*
X161214285Y-79773810D01*
X161214285Y-80011905D01*
X161261904Y-80107143D01*
X161309523Y-80154762D01*
X161404761Y-80202381D01*
X161642857Y-80202381D01*
X161738095Y-80154762D01*
X161785714Y-80107143D01*
X161102381Y-82757143D02*
X160626190Y-82423809D01*
X161102381Y-82185714D02*
X160102381Y-82185714D01*
X160102381Y-82566667D01*
X160150000Y-82661905D01*
X160197619Y-82709524D01*
X160292857Y-82757143D01*
X160435714Y-82757143D01*
X160530952Y-82709524D01*
X160578571Y-82661905D01*
X160626190Y-82566667D01*
X160626190Y-82185714D01*
X161102381Y-83709524D02*
X161102381Y-83138095D01*
X161102381Y-83423809D02*
X160102381Y-83423809D01*
X160245238Y-83328571D01*
X160340476Y-83233333D01*
X160388095Y-83138095D01*
X160102381Y-84328571D02*
X160102381Y-84423810D01*
X160150000Y-84519048D01*
X160197619Y-84566667D01*
X160292857Y-84614286D01*
X160483333Y-84661905D01*
X160721429Y-84661905D01*
X160911905Y-84614286D01*
X161007143Y-84566667D01*
X161054762Y-84519048D01*
X161102381Y-84423810D01*
X161102381Y-84328571D01*
X161054762Y-84233333D01*
X161007143Y-84185714D01*
X160911905Y-84138095D01*
X160721429Y-84090476D01*
X160483333Y-84090476D01*
X160292857Y-84138095D01*
X160197619Y-84185714D01*
X160150000Y-84233333D01*
X160102381Y-84328571D01*
X161145238Y-95552381D02*
X161478572Y-95076190D01*
X161716667Y-95552381D02*
X161716667Y-94552381D01*
X161335714Y-94552381D01*
X161240476Y-94600000D01*
X161192857Y-94647619D01*
X161145238Y-94742857D01*
X161145238Y-94885714D01*
X161192857Y-94980952D01*
X161240476Y-95028571D01*
X161335714Y-95076190D01*
X161716667Y-95076190D01*
X160859524Y-94552381D02*
X160526191Y-95552381D01*
X160192857Y-94552381D01*
X159907143Y-94647619D02*
X159859524Y-94600000D01*
X159764286Y-94552381D01*
X159526190Y-94552381D01*
X159430952Y-94600000D01*
X159383333Y-94647619D01*
X159335714Y-94742857D01*
X159335714Y-94838095D01*
X159383333Y-94980952D01*
X159954762Y-95552381D01*
X159335714Y-95552381D01*
X158154762Y-97157143D02*
X158202381Y-97300000D01*
X158202381Y-97538096D01*
X158154762Y-97633334D01*
X158107143Y-97680953D01*
X158011905Y-97728572D01*
X157916667Y-97728572D01*
X157821429Y-97680953D01*
X157773810Y-97633334D01*
X157726190Y-97538096D01*
X157678571Y-97347619D01*
X157630952Y-97252381D01*
X157583333Y-97204762D01*
X157488095Y-97157143D01*
X157392857Y-97157143D01*
X157297619Y-97204762D01*
X157250000Y-97252381D01*
X157202381Y-97347619D01*
X157202381Y-97585715D01*
X157250000Y-97728572D01*
X157202381Y-98061905D02*
X158202381Y-98300000D01*
X157488095Y-98490477D01*
X158202381Y-98680953D01*
X157202381Y-98919048D01*
X158297619Y-99061905D02*
X158297619Y-99823810D01*
X158107143Y-100633334D02*
X158154762Y-100585715D01*
X158202381Y-100442858D01*
X158202381Y-100347620D01*
X158154762Y-100204762D01*
X158059524Y-100109524D01*
X157964286Y-100061905D01*
X157773810Y-100014286D01*
X157630952Y-100014286D01*
X157440476Y-100061905D01*
X157345238Y-100109524D01*
X157250000Y-100204762D01*
X157202381Y-100347620D01*
X157202381Y-100442858D01*
X157250000Y-100585715D01*
X157297619Y-100633334D01*
X158154762Y-101014286D02*
X158202381Y-101157143D01*
X158202381Y-101395239D01*
X158154762Y-101490477D01*
X158107143Y-101538096D01*
X158011905Y-101585715D01*
X157916667Y-101585715D01*
X157821429Y-101538096D01*
X157773810Y-101490477D01*
X157726190Y-101395239D01*
X157678571Y-101204762D01*
X157630952Y-101109524D01*
X157583333Y-101061905D01*
X157488095Y-101014286D01*
X157392857Y-101014286D01*
X157297619Y-101061905D01*
X157250000Y-101109524D01*
X157202381Y-101204762D01*
X157202381Y-101442858D01*
X157250000Y-101585715D01*
X157202381Y-101871429D02*
X157202381Y-102442858D01*
X158202381Y-102157143D02*
X157202381Y-102157143D01*
X158202381Y-102776191D02*
X157202381Y-102776191D01*
X157916667Y-103109525D01*
X157202381Y-103442858D01*
X158202381Y-103442858D01*
X158202381Y-104442858D02*
X158202381Y-103871429D01*
X158202381Y-104157143D02*
X157202381Y-104157143D01*
X157345238Y-104061905D01*
X157440476Y-103966667D01*
X157488095Y-103871429D01*
X168902381Y-86538095D02*
X169711905Y-86538095D01*
X169807143Y-86585714D01*
X169854762Y-86633333D01*
X169902381Y-86728571D01*
X169902381Y-86919048D01*
X169854762Y-87014286D01*
X169807143Y-87061905D01*
X169711905Y-87109524D01*
X168902381Y-87109524D01*
X169235714Y-88014286D02*
X169902381Y-88014286D01*
X168854762Y-87776190D02*
X169569048Y-87538095D01*
X169569048Y-88157143D01*
X150877381Y-91038095D02*
X151686905Y-91038095D01*
X151782143Y-91085714D01*
X151829762Y-91133333D01*
X151877381Y-91228571D01*
X151877381Y-91419048D01*
X151829762Y-91514286D01*
X151782143Y-91561905D01*
X151686905Y-91609524D01*
X150877381Y-91609524D01*
X150877381Y-92561905D02*
X150877381Y-92085714D01*
X151353571Y-92038095D01*
X151305952Y-92085714D01*
X151258333Y-92180952D01*
X151258333Y-92419048D01*
X151305952Y-92514286D01*
X151353571Y-92561905D01*
X151448810Y-92609524D01*
X151686905Y-92609524D01*
X151782143Y-92561905D01*
X151829762Y-92514286D01*
X151877381Y-92419048D01*
X151877381Y-92180952D01*
X151829762Y-92085714D01*
X151782143Y-92038095D01*
X148452381Y-79265476D02*
X149452381Y-79932143D01*
X148452381Y-79932143D02*
X149452381Y-79265476D01*
X148547619Y-80265476D02*
X148500000Y-80313095D01*
X148452381Y-80408333D01*
X148452381Y-80646429D01*
X148500000Y-80741667D01*
X148547619Y-80789286D01*
X148642857Y-80836905D01*
X148738095Y-80836905D01*
X148880952Y-80789286D01*
X149452381Y-80217857D01*
X149452381Y-80836905D01*
X170283333Y-97154762D02*
X170140476Y-97202381D01*
X169902380Y-97202381D01*
X169807142Y-97154762D01*
X169759523Y-97107143D01*
X169711904Y-97011905D01*
X169711904Y-96916667D01*
X169759523Y-96821429D01*
X169807142Y-96773810D01*
X169902380Y-96726190D01*
X170092857Y-96678571D01*
X170188095Y-96630952D01*
X170235714Y-96583333D01*
X170283333Y-96488095D01*
X170283333Y-96392857D01*
X170235714Y-96297619D01*
X170188095Y-96250000D01*
X170092857Y-96202381D01*
X169854761Y-96202381D01*
X169711904Y-96250000D01*
X169378571Y-96202381D02*
X169140476Y-97202381D01*
X168949999Y-96488095D01*
X168759523Y-97202381D01*
X168521428Y-96202381D01*
X167616666Y-97202381D02*
X168188095Y-97202381D01*
X167902381Y-97202381D02*
X167902381Y-96202381D01*
X167997619Y-96345238D01*
X168092857Y-96440476D01*
X168188095Y-96488095D01*
X159202381Y-93550000D02*
X158202381Y-93550000D01*
X158202381Y-93788095D01*
X158250000Y-93930953D01*
X158345238Y-94026191D01*
X158440476Y-94073810D01*
X158630952Y-94121429D01*
X158773810Y-94121429D01*
X158964286Y-94073810D01*
X159059524Y-94026191D01*
X159154762Y-93930953D01*
X159202381Y-93788095D01*
X159202381Y-93550000D01*
X159297619Y-94311905D02*
X159297619Y-95073810D01*
X158678571Y-95645239D02*
X158726190Y-95788096D01*
X158773810Y-95835715D01*
X158869048Y-95883334D01*
X159011905Y-95883334D01*
X159107143Y-95835715D01*
X159154762Y-95788096D01*
X159202381Y-95692858D01*
X159202381Y-95311905D01*
X158202381Y-95311905D01*
X158202381Y-95645239D01*
X158250000Y-95740477D01*
X158297619Y-95788096D01*
X158392857Y-95835715D01*
X158488095Y-95835715D01*
X158583333Y-95788096D01*
X158630952Y-95740477D01*
X158678571Y-95645239D01*
X158678571Y-95311905D01*
X159202381Y-96788096D02*
X159202381Y-96311905D01*
X158202381Y-96311905D01*
X158202381Y-97121429D02*
X159011905Y-97121429D01*
X159107143Y-97169048D01*
X159154762Y-97216667D01*
X159202381Y-97311905D01*
X159202381Y-97502382D01*
X159154762Y-97597620D01*
X159107143Y-97645239D01*
X159011905Y-97692858D01*
X158202381Y-97692858D01*
X158678571Y-98169048D02*
X158678571Y-98502382D01*
X159202381Y-98645239D02*
X159202381Y-98169048D01*
X158202381Y-98169048D01*
X158202381Y-98645239D01*
X159202381Y-99597620D02*
X159202381Y-99026191D01*
X159202381Y-99311905D02*
X158202381Y-99311905D01*
X158345238Y-99216667D01*
X158440476Y-99121429D01*
X158488095Y-99026191D01*
X156452381Y-96728571D02*
X155452381Y-96728571D01*
X155452381Y-96966666D01*
X155500000Y-97109524D01*
X155595238Y-97204762D01*
X155690476Y-97252381D01*
X155880952Y-97300000D01*
X156023810Y-97300000D01*
X156214286Y-97252381D01*
X156309524Y-97204762D01*
X156404762Y-97109524D01*
X156452381Y-96966666D01*
X156452381Y-96728571D01*
X156547619Y-97490476D02*
X156547619Y-98252381D01*
X156452381Y-99061905D02*
X155976190Y-98728571D01*
X156452381Y-98490476D02*
X155452381Y-98490476D01*
X155452381Y-98871429D01*
X155500000Y-98966667D01*
X155547619Y-99014286D01*
X155642857Y-99061905D01*
X155785714Y-99061905D01*
X155880952Y-99014286D01*
X155928571Y-98966667D01*
X155976190Y-98871429D01*
X155976190Y-98490476D01*
X155928571Y-99490476D02*
X155928571Y-99823810D01*
X156452381Y-99966667D02*
X156452381Y-99490476D01*
X155452381Y-99490476D01*
X155452381Y-99966667D01*
X156452381Y-100395238D02*
X155452381Y-100395238D01*
X155452381Y-100633333D01*
X155500000Y-100776191D01*
X155595238Y-100871429D01*
X155690476Y-100919048D01*
X155880952Y-100966667D01*
X156023810Y-100966667D01*
X156214286Y-100919048D01*
X156309524Y-100871429D01*
X156404762Y-100776191D01*
X156452381Y-100633333D01*
X156452381Y-100395238D01*
X156452381Y-101919048D02*
X156452381Y-101347619D01*
X156452381Y-101633333D02*
X155452381Y-101633333D01*
X155595238Y-101538095D01*
X155690476Y-101442857D01*
X155738095Y-101347619D01*
X150102381Y-93957143D02*
X149626190Y-93623809D01*
X150102381Y-93385714D02*
X149102381Y-93385714D01*
X149102381Y-93766667D01*
X149150000Y-93861905D01*
X149197619Y-93909524D01*
X149292857Y-93957143D01*
X149435714Y-93957143D01*
X149530952Y-93909524D01*
X149578571Y-93861905D01*
X149626190Y-93766667D01*
X149626190Y-93385714D01*
X150102381Y-94909524D02*
X150102381Y-94338095D01*
X150102381Y-94623809D02*
X149102381Y-94623809D01*
X149245238Y-94528571D01*
X149340476Y-94433333D01*
X149388095Y-94338095D01*
X149102381Y-95814286D02*
X149102381Y-95338095D01*
X149578571Y-95290476D01*
X149530952Y-95338095D01*
X149483333Y-95433333D01*
X149483333Y-95671429D01*
X149530952Y-95766667D01*
X149578571Y-95814286D01*
X149673810Y-95861905D01*
X149911905Y-95861905D01*
X150007143Y-95814286D01*
X150054762Y-95766667D01*
X150102381Y-95671429D01*
X150102381Y-95433333D01*
X150054762Y-95338095D01*
X150007143Y-95290476D01*
X164652381Y-92907143D02*
X164176190Y-92573809D01*
X164652381Y-92335714D02*
X163652381Y-92335714D01*
X163652381Y-92716667D01*
X163700000Y-92811905D01*
X163747619Y-92859524D01*
X163842857Y-92907143D01*
X163985714Y-92907143D01*
X164080952Y-92859524D01*
X164128571Y-92811905D01*
X164176190Y-92716667D01*
X164176190Y-92335714D01*
X164652381Y-93859524D02*
X164652381Y-93288095D01*
X164652381Y-93573809D02*
X163652381Y-93573809D01*
X163795238Y-93478571D01*
X163890476Y-93383333D01*
X163938095Y-93288095D01*
X163747619Y-94240476D02*
X163700000Y-94288095D01*
X163652381Y-94383333D01*
X163652381Y-94621429D01*
X163700000Y-94716667D01*
X163747619Y-94764286D01*
X163842857Y-94811905D01*
X163938095Y-94811905D01*
X164080952Y-94764286D01*
X164652381Y-94192857D01*
X164652381Y-94811905D01*
X145757143Y-92107143D02*
X145804762Y-92059524D01*
X145852381Y-91916667D01*
X145852381Y-91821429D01*
X145804762Y-91678571D01*
X145709524Y-91583333D01*
X145614286Y-91535714D01*
X145423810Y-91488095D01*
X145280952Y-91488095D01*
X145090476Y-91535714D01*
X144995238Y-91583333D01*
X144900000Y-91678571D01*
X144852381Y-91821429D01*
X144852381Y-91916667D01*
X144900000Y-92059524D01*
X144947619Y-92107143D01*
X145852381Y-93059524D02*
X145852381Y-92488095D01*
X145852381Y-92773809D02*
X144852381Y-92773809D01*
X144995238Y-92678571D01*
X145090476Y-92583333D01*
X145138095Y-92488095D01*
X145185714Y-93916667D02*
X145852381Y-93916667D01*
X144804762Y-93678571D02*
X145519048Y-93440476D01*
X145519048Y-94059524D01*
X148402381Y-80433095D02*
X148402381Y-81004524D01*
X149402381Y-80718809D02*
X148402381Y-80718809D01*
X149402381Y-81861667D02*
X149402381Y-81290238D01*
X149402381Y-81575952D02*
X148402381Y-81575952D01*
X148545238Y-81480714D01*
X148640476Y-81385476D01*
X148688095Y-81290238D01*
M02*
