G04 #@! TF.FileFunction,Soldermask,Top*
%FSLAX46Y46*%
G04 Gerber Fmt 4.6, Leading zero omitted, Abs format (unit mm)*
G04 Created by KiCad (PCBNEW 4.0.1-2.fc23-product) date Fri 01 Apr 2016 08:54:00 PM CEST*
%MOMM*%
G01*
G04 APERTURE LIST*
%ADD10C,0.100000*%
%ADD11R,1.150000X1.200000*%
%ADD12R,0.900000X1.300000*%
%ADD13R,1.300000X0.900000*%
%ADD14R,1.460000X1.050000*%
%ADD15R,1.200000X1.150000*%
%ADD16R,1.650000X1.400000*%
%ADD17R,1.310000X1.620000*%
%ADD18R,2.178000X3.194000*%
%ADD19R,1.100000X1.700000*%
%ADD20R,1.600000X1.900000*%
%ADD21R,2.800000X1.500000*%
%ADD22R,1.200000X1.600000*%
%ADD23R,1.400760X1.090880*%
%ADD24R,1.900000X0.850000*%
%ADD25R,2.432000X2.432000*%
%ADD26O,2.432000X2.432000*%
%ADD27R,1.200000X2.000000*%
%ADD28R,2.500000X3.400000*%
%ADD29R,0.850000X0.990000*%
%ADD30R,1.200100X1.200100*%
G04 APERTURE END LIST*
D10*
D11*
X151175000Y-88725000D03*
X151175000Y-90225000D03*
D12*
X154600000Y-83850000D03*
X153100000Y-83850000D03*
X153100000Y-82150000D03*
X154600000Y-82150000D03*
D13*
X145050000Y-84500000D03*
X145050000Y-83000000D03*
D14*
X149250000Y-82050000D03*
X149250000Y-83000000D03*
X149250000Y-83950000D03*
X151450000Y-83950000D03*
X151450000Y-82050000D03*
X151450000Y-83000000D03*
D13*
X159200000Y-84000000D03*
X159200000Y-82500000D03*
D11*
X162150000Y-91300000D03*
X162150000Y-89800000D03*
D15*
X168250000Y-82400000D03*
X166750000Y-82400000D03*
D16*
X158525000Y-79050000D03*
X158525000Y-81050000D03*
X162725000Y-79125000D03*
X162725000Y-81125000D03*
D11*
X160900000Y-81550000D03*
X160900000Y-80050000D03*
D17*
X161765000Y-83400000D03*
X165035000Y-83400000D03*
D18*
X163022000Y-86300000D03*
X166578000Y-86300000D03*
D13*
X147075000Y-88125000D03*
X147075000Y-89625000D03*
X149275000Y-88800000D03*
X149275000Y-90300000D03*
D12*
X152175000Y-85875000D03*
X150675000Y-85875000D03*
X165000000Y-91300000D03*
X163500000Y-91300000D03*
D19*
X166450000Y-76500000D03*
X168350000Y-76500000D03*
D12*
X156300000Y-80450000D03*
X154800000Y-80450000D03*
X153600000Y-80450000D03*
X152100000Y-80450000D03*
D20*
X151370000Y-93660000D03*
X148830000Y-93660000D03*
D21*
X150100000Y-96200000D03*
D22*
X150100000Y-93660000D03*
D13*
X171300000Y-80600000D03*
X171300000Y-79100000D03*
X169500000Y-78650000D03*
X169500000Y-80150000D03*
D23*
X167750480Y-80849960D03*
X167750480Y-79900000D03*
X167750480Y-78950040D03*
X165149520Y-78950040D03*
X165149520Y-79900000D03*
X165149520Y-80849960D03*
D24*
X159850000Y-90765000D03*
X159850000Y-90115000D03*
X159850000Y-89465000D03*
X159850000Y-88815000D03*
X159850000Y-88165000D03*
X159850000Y-87515000D03*
X159850000Y-86865000D03*
X159850000Y-86215000D03*
X153950000Y-86215000D03*
X153950000Y-86865000D03*
X153950000Y-87515000D03*
X153950000Y-88165000D03*
X153950000Y-88815000D03*
X153950000Y-89465000D03*
X153950000Y-90115000D03*
X153950000Y-90765000D03*
D25*
X153800000Y-76500000D03*
D26*
X156340000Y-76500000D03*
D27*
X156600000Y-93750000D03*
X157850000Y-93750000D03*
X159100000Y-93750000D03*
X160350000Y-93750000D03*
X161600000Y-93750000D03*
D28*
X154050000Y-96650000D03*
X164150000Y-96650000D03*
D29*
X164175000Y-77700000D03*
X164175000Y-75590000D03*
D13*
X158725000Y-75975000D03*
X158725000Y-77475000D03*
D30*
X160275000Y-77625760D03*
X162175000Y-77625760D03*
X161225000Y-75626780D03*
M02*
