G04 #@! TF.FileFunction,Copper,L2,Bot,Signal*
%FSLAX46Y46*%
G04 Gerber Fmt 4.6, Leading zero omitted, Abs format (unit mm)*
G04 Created by KiCad (PCBNEW 4.0.2-stable) date 26.05.2016 15:15:09*
%MOMM*%
G01*
G04 APERTURE LIST*
%ADD10C,0.100000*%
%ADD11R,0.500000X0.900000*%
%ADD12R,0.800000X0.750000*%
%ADD13R,1.000000X1.250000*%
%ADD14R,1.250000X1.000000*%
%ADD15R,1.220000X0.910000*%
%ADD16R,0.700000X1.300000*%
%ADD17R,0.900000X0.500000*%
%ADD18R,0.749300X0.398780*%
%ADD19R,0.850000X0.300000*%
%ADD20R,0.300000X0.850000*%
%ADD21R,1.300000X1.300000*%
%ADD22R,2.032000X2.032000*%
%ADD23O,2.032000X2.032000*%
%ADD24R,1.600000X0.800000*%
%ADD25R,3.000000X2.100000*%
%ADD26R,0.797560X0.797560*%
%ADD27R,1.000000X1.600000*%
%ADD28R,0.750000X0.800000*%
%ADD29R,0.910000X1.220000*%
%ADD30R,1.000000X1.000000*%
%ADD31R,1.400000X1.000000*%
%ADD32R,4.700000X1.550000*%
%ADD33R,4.200000X3.300000*%
%ADD34R,0.600000X3.300000*%
%ADD35C,0.600000*%
%ADD36C,1.300000*%
%ADD37C,2.000000*%
%ADD38C,0.250000*%
%ADD39C,0.400000*%
%ADD40C,0.300000*%
%ADD41C,0.254000*%
G04 APERTURE END LIST*
D10*
D11*
X134759000Y-92456000D03*
X136259000Y-92456000D03*
D12*
X137565000Y-93853000D03*
X139065000Y-93853000D03*
X137934000Y-87630000D03*
X139434000Y-87630000D03*
D13*
X132080000Y-58928000D03*
X134080000Y-58928000D03*
D12*
X137692000Y-81026000D03*
X139192000Y-81026000D03*
D14*
X145288000Y-74914000D03*
X145288000Y-72914000D03*
D15*
X128524000Y-61468000D03*
X128524000Y-58198000D03*
D11*
X137692000Y-92456000D03*
X139192000Y-92456000D03*
X139180000Y-89154000D03*
X137680000Y-89154000D03*
X136271000Y-93980000D03*
X134771000Y-93980000D03*
D16*
X134178000Y-78994000D03*
X136078000Y-78994000D03*
D17*
X137414000Y-78510000D03*
X137414000Y-80010000D03*
D11*
X137414000Y-73660000D03*
X138914000Y-73660000D03*
X137438000Y-72136000D03*
X138938000Y-72136000D03*
D18*
X136392920Y-87630000D03*
X136392920Y-88280240D03*
X136392920Y-88930480D03*
X134493000Y-88930480D03*
X134493000Y-88280240D03*
X134493000Y-87630000D03*
D19*
X138766000Y-78466000D03*
X138766000Y-77966000D03*
X138766000Y-77466000D03*
X138766000Y-76966000D03*
X138766000Y-76466000D03*
X138766000Y-75966000D03*
D20*
X139466000Y-75266000D03*
X139966000Y-75266000D03*
X140466000Y-75266000D03*
X140966000Y-75266000D03*
X141466000Y-75266000D03*
X141966000Y-75266000D03*
D19*
X142666000Y-75966000D03*
X142666000Y-76466000D03*
X142666000Y-76966000D03*
X142666000Y-77466000D03*
X142666000Y-77966000D03*
X142666000Y-78466000D03*
D20*
X141966000Y-79166000D03*
X141466000Y-79166000D03*
X140966000Y-79166000D03*
X140466000Y-79166000D03*
X139966000Y-79166000D03*
X139466000Y-79166000D03*
D21*
X141366000Y-76566000D03*
X141366000Y-77866000D03*
X140066000Y-76566000D03*
X140066000Y-77866000D03*
D22*
X132080000Y-56515000D03*
D23*
X129540000Y-56515000D03*
D24*
X131932000Y-79238000D03*
X131932000Y-77988000D03*
X131932000Y-76738000D03*
X131932000Y-75488000D03*
D25*
X129032000Y-81788000D03*
X129032000Y-72938000D03*
D26*
X139954000Y-72136000D03*
X141452600Y-72136000D03*
X139954000Y-73660000D03*
X141452600Y-73660000D03*
D27*
X132588000Y-70231000D03*
X135588000Y-70231000D03*
D28*
X134620000Y-81038000D03*
X134620000Y-82538000D03*
D29*
X139462000Y-90805000D03*
X142732000Y-90805000D03*
D30*
X146390000Y-98568000D03*
D31*
X147440000Y-98568000D03*
D30*
X150290000Y-98568000D03*
X148490000Y-98568000D03*
X145490000Y-98568000D03*
X149390000Y-98568000D03*
X144690000Y-98568000D03*
X151190000Y-98568000D03*
X151190000Y-97668000D03*
X151190000Y-95868000D03*
X151190000Y-96768000D03*
X151190000Y-94068000D03*
X151190000Y-93168000D03*
X151190000Y-94968000D03*
X143690000Y-98568000D03*
X143690000Y-96768000D03*
X143690000Y-93168000D03*
X143690000Y-94968000D03*
X143690000Y-95868000D03*
X143690000Y-94068000D03*
X143690000Y-97668000D03*
X146390000Y-97768000D03*
X148490000Y-97768000D03*
D31*
X147440000Y-97768000D03*
D30*
X149390000Y-97768000D03*
X150290000Y-95868000D03*
X150290000Y-94968000D03*
X150290000Y-94068000D03*
X150290000Y-97668000D03*
X144590000Y-93168000D03*
X144590000Y-94068000D03*
X144590000Y-94968000D03*
X144590000Y-95868000D03*
X144590000Y-96768000D03*
X144590000Y-97668000D03*
X145490000Y-97768000D03*
X150290000Y-93168000D03*
X150290000Y-96768000D03*
D32*
X147440000Y-96518000D03*
D33*
X147440000Y-94318000D03*
D34*
X149640000Y-94318000D03*
X145240000Y-94318000D03*
D35*
X135255000Y-60198000D03*
X133350000Y-60198000D03*
X133985000Y-60198000D03*
X134736426Y-60198000D03*
X144145000Y-56388000D03*
X144780000Y-56388000D03*
X145415000Y-56388000D03*
X146050000Y-56388000D03*
X146685000Y-56388000D03*
X146685000Y-57023000D03*
X146685000Y-57658000D03*
D36*
X134366000Y-74676000D03*
X133604000Y-83312000D03*
X141732000Y-88138000D03*
X130161105Y-96776036D03*
X141097000Y-61722000D03*
X138557000Y-66929000D03*
X145796000Y-66548000D03*
X147574000Y-71247000D03*
X130429000Y-84963000D03*
X128778000Y-88392000D03*
X137847863Y-57086563D03*
D37*
X135696725Y-56611311D03*
D35*
X133096000Y-95250000D03*
D36*
X138714000Y-79804585D03*
X132588000Y-73152000D03*
X137848692Y-60382392D03*
X128524000Y-62992000D03*
X146858742Y-78956366D03*
X132334000Y-81534000D03*
X145216283Y-76357621D03*
X150528775Y-62502114D03*
X145542000Y-88646000D03*
X144956876Y-81083671D03*
X143051642Y-82308440D03*
X141240266Y-82618962D03*
X143901291Y-70879382D03*
D38*
X134736426Y-60198000D02*
X135255000Y-60198000D01*
X133985000Y-60198000D02*
X133350000Y-60198000D01*
D39*
X134736426Y-60198000D02*
X137397864Y-57536562D01*
X134254483Y-60679943D02*
X134736426Y-60198000D01*
D38*
X139700000Y-93853000D02*
X140335000Y-93218000D01*
X139090000Y-93853000D02*
X139700000Y-93853000D01*
X139065000Y-93853000D02*
X139090000Y-93853000D01*
X139065000Y-93853000D02*
X139065000Y-92583000D01*
X139065000Y-92583000D02*
X139192000Y-92456000D01*
X144780000Y-56388000D02*
X144145000Y-56388000D01*
X146050000Y-56388000D02*
X145415000Y-56388000D01*
X146685000Y-56388000D02*
X146050000Y-56388000D01*
X146685000Y-57658000D02*
X146685000Y-57023000D01*
D39*
X131944000Y-74676000D02*
X133350000Y-74676000D01*
X131932000Y-74688000D02*
X131944000Y-74676000D01*
X131932000Y-75488000D02*
X131932000Y-74688000D01*
X131932000Y-75488000D02*
X132538000Y-75488000D01*
X131932000Y-75488000D02*
X133554000Y-75488000D01*
X133554000Y-75488000D02*
X134366000Y-74676000D01*
X139167000Y-81026000D02*
X139167000Y-81237011D01*
X139167000Y-81237011D02*
X138196224Y-82207787D01*
X138196224Y-82207787D02*
X138196224Y-82453620D01*
D38*
X139192000Y-81026000D02*
X139192000Y-81282249D01*
X139192000Y-81282249D02*
X138176000Y-82298249D01*
X138176000Y-82298249D02*
X138176000Y-82667000D01*
D39*
X134620000Y-82538000D02*
X134378000Y-82538000D01*
X134378000Y-82538000D02*
X133604000Y-83312000D01*
X128524000Y-57912000D02*
X127762000Y-57150000D01*
X128524000Y-58198000D02*
X128524000Y-57912000D01*
X128524000Y-58198000D02*
X129259483Y-58933483D01*
X129259483Y-58933483D02*
X131005943Y-60679943D01*
X129540000Y-56515000D02*
X129540000Y-58652966D01*
X129540000Y-58652966D02*
X129259483Y-58933483D01*
D38*
X139434000Y-87630000D02*
X141224000Y-87630000D01*
X141224000Y-87630000D02*
X141732000Y-88138000D01*
X135489995Y-88001965D02*
X135489995Y-86721995D01*
D39*
X129511106Y-96126037D02*
X130161105Y-96776036D01*
X128778000Y-95392931D02*
X129511106Y-96126037D01*
X128778000Y-88392000D02*
X128778000Y-95392931D01*
D38*
X136392920Y-88280240D02*
X135768270Y-88280240D01*
X135768270Y-88280240D02*
X135489995Y-88001965D01*
X135489995Y-86721995D02*
X135382000Y-86614000D01*
D39*
X147447000Y-70200762D02*
X147447000Y-68199000D01*
X147447000Y-68199000D02*
X145796000Y-66548000D01*
X147574000Y-71247000D02*
X147574000Y-70327762D01*
X147574000Y-70327762D02*
X147447000Y-70200762D01*
X129540000Y-56515000D02*
X130555999Y-57530999D01*
X130555999Y-57530999D02*
X130555999Y-58927999D01*
X128524000Y-58198000D02*
X128524000Y-57531000D01*
X128524000Y-57531000D02*
X129540000Y-56515000D01*
D38*
X139192000Y-81026000D02*
X139167000Y-81026000D01*
X137414000Y-80010000D02*
X137123000Y-80010000D01*
X134620000Y-82513000D02*
X134620000Y-82538000D01*
X137123000Y-80010000D02*
X134620000Y-82513000D01*
X139966000Y-79166000D02*
X139966000Y-80252000D01*
X139966000Y-80252000D02*
X139192000Y-81026000D01*
X139966000Y-79166000D02*
X139966000Y-77966000D01*
X139966000Y-77966000D02*
X140066000Y-77866000D01*
D39*
X128778000Y-88392000D02*
X130429000Y-86741000D01*
X130429000Y-86741000D02*
X130429000Y-84963000D01*
X131005943Y-60679943D02*
X134254483Y-60679943D01*
X137397864Y-57536562D02*
X137847863Y-57086563D01*
X142732000Y-90805000D02*
X142732000Y-92210000D01*
X142732000Y-92210000D02*
X143690000Y-93168000D01*
X134080000Y-58928000D02*
X134080000Y-58228036D01*
X134080000Y-58228036D02*
X135696725Y-56611311D01*
D38*
X137692000Y-81026000D02*
X137692000Y-81651000D01*
X137692000Y-81651000D02*
X134514710Y-84828290D01*
X134514710Y-84828290D02*
X133718486Y-84828290D01*
X133718486Y-84828290D02*
X132609525Y-83719329D01*
D39*
X133096000Y-95250000D02*
X133096000Y-88902590D01*
X133096000Y-88902590D02*
X133718350Y-88280240D01*
X134493000Y-88280240D02*
X133718350Y-88280240D01*
X133718350Y-88280240D02*
X132609525Y-87171415D01*
X132609525Y-87171415D02*
X132609525Y-83719329D01*
D38*
X132609525Y-83719329D02*
X132596909Y-83731945D01*
X132596909Y-83731945D02*
X131089084Y-82224120D01*
X131932000Y-79888000D02*
X131932000Y-79238000D01*
X131089084Y-82224120D02*
X131089084Y-80730916D01*
X131089084Y-80730916D02*
X131932000Y-79888000D01*
X139466000Y-79166000D02*
X139352585Y-79166000D01*
X139352585Y-79166000D02*
X138714000Y-79804585D01*
D39*
X132207000Y-71120000D02*
X132207000Y-72771000D01*
X132207000Y-72771000D02*
X132588000Y-73152000D01*
X132588000Y-70739000D02*
X132207000Y-71120000D01*
X132588000Y-70231000D02*
X132588000Y-70739000D01*
D38*
X139466000Y-79166000D02*
X139466000Y-79441000D01*
X139466000Y-79441000D02*
X137881000Y-81026000D01*
X137881000Y-81026000D02*
X137692000Y-81026000D01*
D39*
X132588000Y-73152000D02*
X132588000Y-65643084D01*
X132588000Y-65643084D02*
X137398693Y-60832391D01*
X137398693Y-60832391D02*
X137848692Y-60382392D01*
X137252930Y-73152000D02*
X132588000Y-73152000D01*
X137438000Y-72966930D02*
X137252930Y-73152000D01*
X137438000Y-72966930D02*
X137438000Y-73636000D01*
X137438000Y-72136000D02*
X137438000Y-72966930D01*
X137438000Y-73636000D02*
X137414000Y-73660000D01*
X128524000Y-62992000D02*
X128524000Y-61468000D01*
X132080000Y-56515000D02*
X133496000Y-56515000D01*
X133496000Y-56515000D02*
X135401000Y-54610000D01*
X135401000Y-54610000D02*
X147482723Y-54610000D01*
X147508741Y-78306367D02*
X146858742Y-78956366D01*
X147482723Y-54610000D02*
X149478755Y-56606032D01*
X149478755Y-56606032D02*
X149478755Y-76336353D01*
X149478755Y-76336353D02*
X147508741Y-78306367D01*
X134178000Y-79690000D02*
X132334000Y-81534000D01*
X134178000Y-78994000D02*
X134178000Y-79690000D01*
X132080000Y-56515000D02*
X132080000Y-58928000D01*
D38*
X145216283Y-76357621D02*
X144297045Y-76357621D01*
X144297045Y-76357621D02*
X143905424Y-75966000D01*
X143905424Y-75966000D02*
X143341000Y-75966000D01*
X143341000Y-75966000D02*
X142666000Y-75966000D01*
X145216283Y-76357621D02*
X145216283Y-74985717D01*
X145216283Y-74985717D02*
X145288000Y-74914000D01*
X140966000Y-79166000D02*
X140966000Y-81339312D01*
X140099479Y-83250624D02*
X141006852Y-84157997D01*
X140966000Y-81339312D02*
X140099479Y-82205833D01*
X140099479Y-82205833D02*
X140099479Y-83250624D01*
X141006852Y-84157997D02*
X143593997Y-84157997D01*
D40*
X143523001Y-84157997D02*
X147006931Y-80674067D01*
X147006931Y-80674067D02*
X150528775Y-77152223D01*
X150528775Y-77152223D02*
X150528775Y-63421352D01*
X150528775Y-63421352D02*
X150528775Y-62502114D01*
D39*
X143593997Y-84157997D02*
X145542000Y-86106000D01*
X145542000Y-86106000D02*
X145542000Y-88646000D01*
X134771000Y-93980000D02*
X134771000Y-92468000D01*
X134771000Y-92468000D02*
X134759000Y-92456000D01*
X134493000Y-91313000D02*
X134759000Y-91579000D01*
X134759000Y-91579000D02*
X134759000Y-92456000D01*
X134493000Y-88930480D02*
X134493000Y-91313000D01*
D38*
X140466000Y-79166000D02*
X140466000Y-81101811D01*
X140466000Y-81101811D02*
X139460312Y-82107499D01*
X139460312Y-82107499D02*
X139460312Y-83705825D01*
X138733000Y-94996000D02*
X137590000Y-93853000D01*
X139460312Y-83705825D02*
X142521474Y-86766987D01*
X142521474Y-86767088D02*
X143224212Y-87469826D01*
X143224212Y-88662786D02*
X141951999Y-89934999D01*
X141951999Y-92779428D02*
X139735427Y-94996000D01*
X142521474Y-86766987D02*
X142521474Y-86767088D01*
X137590000Y-93853000D02*
X137565000Y-93853000D01*
X143224212Y-87469826D02*
X143224212Y-88662786D01*
X141951999Y-89934999D02*
X141951999Y-92779428D01*
X139735427Y-94996000D02*
X138733000Y-94996000D01*
D39*
X136271000Y-93980000D02*
X137438000Y-93980000D01*
X137438000Y-93980000D02*
X137565000Y-93853000D01*
X144956876Y-80164433D02*
X144956876Y-81083671D01*
X143308444Y-78516001D02*
X144956876Y-80164433D01*
X142666000Y-78516001D02*
X143308444Y-78516001D01*
X136078000Y-78994000D02*
X136078000Y-79580000D01*
X136078000Y-79580000D02*
X134620000Y-81038000D01*
X137414000Y-78510000D02*
X136562000Y-78510000D01*
X136562000Y-78510000D02*
X136078000Y-78994000D01*
D38*
X138766000Y-78466000D02*
X137458000Y-78466000D01*
X137458000Y-78466000D02*
X137414000Y-78510000D01*
D39*
X139954000Y-73660000D02*
X138914000Y-73660000D01*
X138938000Y-72136000D02*
X139954000Y-72136000D01*
D38*
X131932000Y-77988000D02*
X132982000Y-77988000D01*
X132982000Y-77988000D02*
X133504000Y-77466000D01*
X133504000Y-77466000D02*
X138091000Y-77466000D01*
X138091000Y-77466000D02*
X138766000Y-77466000D01*
X131932000Y-76738000D02*
X132982000Y-76738000D01*
X133210000Y-76966000D02*
X138091000Y-76966000D01*
X132982000Y-76738000D02*
X133210000Y-76966000D01*
X138091000Y-76966000D02*
X138766000Y-76966000D01*
X141466000Y-75266000D02*
X141466000Y-73673400D01*
X141466000Y-73673400D02*
X141452600Y-73660000D01*
X142494000Y-74422000D02*
X142494000Y-72528620D01*
X142494000Y-72528620D02*
X142101380Y-72136000D01*
X142101380Y-72136000D02*
X141452600Y-72136000D01*
X141966000Y-74950000D02*
X142494000Y-74422000D01*
X141966000Y-75266000D02*
X141966000Y-74950000D01*
X141966000Y-75266000D02*
X141966000Y-74991000D01*
D39*
X142401643Y-81658441D02*
X143051642Y-82308440D01*
X142016001Y-79166000D02*
X142016001Y-81272799D01*
X142016001Y-81272799D02*
X142401643Y-81658441D01*
D38*
X141466000Y-82393228D02*
X141240266Y-82618962D01*
X141466000Y-79166000D02*
X141466000Y-82393228D01*
D39*
X137680000Y-90031000D02*
X138454000Y-90805000D01*
X138454000Y-90805000D02*
X139462000Y-90805000D01*
X137680000Y-89154000D02*
X137680000Y-90031000D01*
X137934000Y-87630000D02*
X136525000Y-87630000D01*
X137680000Y-89154000D02*
X137680000Y-87884000D01*
X137680000Y-87884000D02*
X137934000Y-87630000D01*
X137795000Y-89269000D02*
X137680000Y-89154000D01*
X136259000Y-92456000D02*
X137692000Y-92456000D01*
X136392920Y-88930480D02*
X136392920Y-92322080D01*
X136392920Y-92322080D02*
X136259000Y-92456000D01*
D38*
X147828000Y-73856241D02*
X144851141Y-70879382D01*
X144820529Y-70879382D02*
X143901291Y-70879382D01*
X147828000Y-75819000D02*
X147828000Y-73856241D01*
X146052828Y-77594172D02*
X147828000Y-75819000D01*
X144469172Y-77594172D02*
X146052828Y-77594172D01*
X143341000Y-76466000D02*
X144469172Y-77594172D01*
X142666000Y-76466000D02*
X143341000Y-76466000D01*
X144851141Y-70879382D02*
X144820529Y-70879382D01*
D41*
G36*
X131774525Y-83984363D02*
X131774525Y-87171415D01*
X131838086Y-87490956D01*
X131991898Y-87721152D01*
X132019091Y-87761849D01*
X132537482Y-88280240D01*
X132505566Y-88312156D01*
X132324561Y-88583049D01*
X132261000Y-88902590D01*
X132261000Y-94822766D01*
X132161162Y-95063201D01*
X132160838Y-95435167D01*
X132302883Y-95778943D01*
X132565673Y-96042192D01*
X132909201Y-96184838D01*
X133281167Y-96185162D01*
X133624943Y-96043117D01*
X133888192Y-95780327D01*
X134030838Y-95436799D01*
X134031162Y-95064833D01*
X133931000Y-94822422D01*
X133931000Y-94685771D01*
X134056910Y-94881441D01*
X134269110Y-95026431D01*
X134521000Y-95077440D01*
X135021000Y-95077440D01*
X135256317Y-95033162D01*
X135472441Y-94894090D01*
X135520134Y-94824289D01*
X135556910Y-94881441D01*
X135769110Y-95026431D01*
X136021000Y-95077440D01*
X136521000Y-95077440D01*
X136756317Y-95033162D01*
X136972441Y-94894090D01*
X137007040Y-94843452D01*
X137165000Y-94875440D01*
X137537638Y-94875440D01*
X138195599Y-95533401D01*
X138442161Y-95698148D01*
X138733000Y-95756000D01*
X139735427Y-95756000D01*
X140026266Y-95698148D01*
X140272828Y-95533401D01*
X142489400Y-93316829D01*
X142542560Y-93237270D01*
X142542560Y-98883000D01*
X127685000Y-98883000D01*
X127685000Y-83485440D01*
X130532000Y-83485440D01*
X130767317Y-83441162D01*
X130983441Y-83302090D01*
X131027609Y-83237447D01*
X131774525Y-83984363D01*
X131774525Y-83984363D01*
G37*
X131774525Y-83984363D02*
X131774525Y-87171415D01*
X131838086Y-87490956D01*
X131991898Y-87721152D01*
X132019091Y-87761849D01*
X132537482Y-88280240D01*
X132505566Y-88312156D01*
X132324561Y-88583049D01*
X132261000Y-88902590D01*
X132261000Y-94822766D01*
X132161162Y-95063201D01*
X132160838Y-95435167D01*
X132302883Y-95778943D01*
X132565673Y-96042192D01*
X132909201Y-96184838D01*
X133281167Y-96185162D01*
X133624943Y-96043117D01*
X133888192Y-95780327D01*
X134030838Y-95436799D01*
X134031162Y-95064833D01*
X133931000Y-94822422D01*
X133931000Y-94685771D01*
X134056910Y-94881441D01*
X134269110Y-95026431D01*
X134521000Y-95077440D01*
X135021000Y-95077440D01*
X135256317Y-95033162D01*
X135472441Y-94894090D01*
X135520134Y-94824289D01*
X135556910Y-94881441D01*
X135769110Y-95026431D01*
X136021000Y-95077440D01*
X136521000Y-95077440D01*
X136756317Y-95033162D01*
X136972441Y-94894090D01*
X137007040Y-94843452D01*
X137165000Y-94875440D01*
X137537638Y-94875440D01*
X138195599Y-95533401D01*
X138442161Y-95698148D01*
X138733000Y-95756000D01*
X139735427Y-95756000D01*
X140026266Y-95698148D01*
X140272828Y-95533401D01*
X142489400Y-93316829D01*
X142542560Y-93237270D01*
X142542560Y-98883000D01*
X127685000Y-98883000D01*
X127685000Y-83485440D01*
X130532000Y-83485440D01*
X130767317Y-83441162D01*
X130983441Y-83302090D01*
X131027609Y-83237447D01*
X131774525Y-83984363D01*
G36*
X139192000Y-93726000D02*
X139212000Y-93726000D01*
X139212000Y-93980000D01*
X139192000Y-93980000D01*
X139192000Y-94000000D01*
X138938000Y-94000000D01*
X138938000Y-93980000D01*
X138918000Y-93980000D01*
X138918000Y-93726000D01*
X138938000Y-93726000D01*
X138938000Y-93706000D01*
X139192000Y-93706000D01*
X139192000Y-93726000D01*
X139192000Y-93726000D01*
G37*
X139192000Y-93726000D02*
X139212000Y-93726000D01*
X139212000Y-93980000D01*
X139192000Y-93980000D01*
X139192000Y-94000000D01*
X138938000Y-94000000D01*
X138938000Y-93980000D01*
X138918000Y-93980000D01*
X138918000Y-93726000D01*
X138938000Y-93726000D01*
X138938000Y-93706000D01*
X139192000Y-93706000D01*
X139192000Y-93726000D01*
G36*
X138432302Y-81939327D02*
X138665691Y-82036000D01*
X138714534Y-82036000D01*
X138700312Y-82107499D01*
X138700312Y-83705825D01*
X138758164Y-83996664D01*
X138922911Y-84243226D01*
X141983870Y-87304185D01*
X141984073Y-87304489D01*
X142464212Y-87784628D01*
X142464212Y-88347984D01*
X141414598Y-89397598D01*
X141249851Y-89644160D01*
X141191999Y-89934999D01*
X141191999Y-92464626D01*
X140100000Y-93556625D01*
X140100000Y-93351690D01*
X140022354Y-93164237D01*
X140077000Y-93032310D01*
X140077000Y-92741750D01*
X139918250Y-92583000D01*
X139317000Y-92583000D01*
X139317000Y-92876750D01*
X139192002Y-93001748D01*
X139192002Y-92843000D01*
X139067000Y-92843000D01*
X139067000Y-92583000D01*
X139045000Y-92583000D01*
X139045000Y-92329000D01*
X139067000Y-92329000D01*
X139067000Y-92309000D01*
X139317000Y-92309000D01*
X139317000Y-92329000D01*
X139918250Y-92329000D01*
X140077000Y-92170250D01*
X140077000Y-92032334D01*
X140152317Y-92018162D01*
X140368441Y-91879090D01*
X140513431Y-91666890D01*
X140564440Y-91415000D01*
X140564440Y-90195000D01*
X140520162Y-89959683D01*
X140381090Y-89743559D01*
X140168890Y-89598569D01*
X140065000Y-89577531D01*
X140065000Y-89439750D01*
X139906250Y-89281000D01*
X139305000Y-89281000D01*
X139305000Y-89301000D01*
X139055000Y-89301000D01*
X139055000Y-89281000D01*
X139033000Y-89281000D01*
X139033000Y-89027000D01*
X139055000Y-89027000D01*
X139055000Y-89007000D01*
X139305000Y-89007000D01*
X139305000Y-89027000D01*
X139906250Y-89027000D01*
X140065000Y-88868250D01*
X140065000Y-88596636D01*
X140193698Y-88543327D01*
X140372327Y-88364699D01*
X140469000Y-88131310D01*
X140469000Y-87915750D01*
X140310250Y-87757000D01*
X139561000Y-87757000D01*
X139561000Y-87777000D01*
X139307000Y-87777000D01*
X139307000Y-87757000D01*
X139287000Y-87757000D01*
X139287000Y-87503000D01*
X139307000Y-87503000D01*
X139307000Y-86778750D01*
X139561000Y-86778750D01*
X139561000Y-87503000D01*
X140310250Y-87503000D01*
X140469000Y-87344250D01*
X140469000Y-87128690D01*
X140372327Y-86895301D01*
X140193698Y-86716673D01*
X139960309Y-86620000D01*
X139719750Y-86620000D01*
X139561000Y-86778750D01*
X139307000Y-86778750D01*
X139148250Y-86620000D01*
X138907691Y-86620000D01*
X138674302Y-86716673D01*
X138672932Y-86718043D01*
X138585890Y-86658569D01*
X138334000Y-86607560D01*
X137534000Y-86607560D01*
X137298683Y-86651838D01*
X137082559Y-86790910D01*
X137079764Y-86795000D01*
X136825988Y-86795000D01*
X136767570Y-86783170D01*
X136018270Y-86783170D01*
X135782953Y-86827448D01*
X135566829Y-86966520D01*
X135441568Y-87149846D01*
X135331740Y-86979169D01*
X135119540Y-86834179D01*
X134867650Y-86783170D01*
X134118350Y-86783170D01*
X133883033Y-86827448D01*
X133666909Y-86966520D01*
X133633863Y-87014885D01*
X133444525Y-86825547D01*
X133444525Y-85533795D01*
X133718486Y-85588290D01*
X134514710Y-85588290D01*
X134805549Y-85530438D01*
X135052111Y-85365691D01*
X138229401Y-82188401D01*
X138371504Y-81975729D01*
X138430646Y-81937671D01*
X138432302Y-81939327D01*
X138432302Y-81939327D01*
G37*
X138432302Y-81939327D02*
X138665691Y-82036000D01*
X138714534Y-82036000D01*
X138700312Y-82107499D01*
X138700312Y-83705825D01*
X138758164Y-83996664D01*
X138922911Y-84243226D01*
X141983870Y-87304185D01*
X141984073Y-87304489D01*
X142464212Y-87784628D01*
X142464212Y-88347984D01*
X141414598Y-89397598D01*
X141249851Y-89644160D01*
X141191999Y-89934999D01*
X141191999Y-92464626D01*
X140100000Y-93556625D01*
X140100000Y-93351690D01*
X140022354Y-93164237D01*
X140077000Y-93032310D01*
X140077000Y-92741750D01*
X139918250Y-92583000D01*
X139317000Y-92583000D01*
X139317000Y-92876750D01*
X139192002Y-93001748D01*
X139192002Y-92843000D01*
X139067000Y-92843000D01*
X139067000Y-92583000D01*
X139045000Y-92583000D01*
X139045000Y-92329000D01*
X139067000Y-92329000D01*
X139067000Y-92309000D01*
X139317000Y-92309000D01*
X139317000Y-92329000D01*
X139918250Y-92329000D01*
X140077000Y-92170250D01*
X140077000Y-92032334D01*
X140152317Y-92018162D01*
X140368441Y-91879090D01*
X140513431Y-91666890D01*
X140564440Y-91415000D01*
X140564440Y-90195000D01*
X140520162Y-89959683D01*
X140381090Y-89743559D01*
X140168890Y-89598569D01*
X140065000Y-89577531D01*
X140065000Y-89439750D01*
X139906250Y-89281000D01*
X139305000Y-89281000D01*
X139305000Y-89301000D01*
X139055000Y-89301000D01*
X139055000Y-89281000D01*
X139033000Y-89281000D01*
X139033000Y-89027000D01*
X139055000Y-89027000D01*
X139055000Y-89007000D01*
X139305000Y-89007000D01*
X139305000Y-89027000D01*
X139906250Y-89027000D01*
X140065000Y-88868250D01*
X140065000Y-88596636D01*
X140193698Y-88543327D01*
X140372327Y-88364699D01*
X140469000Y-88131310D01*
X140469000Y-87915750D01*
X140310250Y-87757000D01*
X139561000Y-87757000D01*
X139561000Y-87777000D01*
X139307000Y-87777000D01*
X139307000Y-87757000D01*
X139287000Y-87757000D01*
X139287000Y-87503000D01*
X139307000Y-87503000D01*
X139307000Y-86778750D01*
X139561000Y-86778750D01*
X139561000Y-87503000D01*
X140310250Y-87503000D01*
X140469000Y-87344250D01*
X140469000Y-87128690D01*
X140372327Y-86895301D01*
X140193698Y-86716673D01*
X139960309Y-86620000D01*
X139719750Y-86620000D01*
X139561000Y-86778750D01*
X139307000Y-86778750D01*
X139148250Y-86620000D01*
X138907691Y-86620000D01*
X138674302Y-86716673D01*
X138672932Y-86718043D01*
X138585890Y-86658569D01*
X138334000Y-86607560D01*
X137534000Y-86607560D01*
X137298683Y-86651838D01*
X137082559Y-86790910D01*
X137079764Y-86795000D01*
X136825988Y-86795000D01*
X136767570Y-86783170D01*
X136018270Y-86783170D01*
X135782953Y-86827448D01*
X135566829Y-86966520D01*
X135441568Y-87149846D01*
X135331740Y-86979169D01*
X135119540Y-86834179D01*
X134867650Y-86783170D01*
X134118350Y-86783170D01*
X133883033Y-86827448D01*
X133666909Y-86966520D01*
X133633863Y-87014885D01*
X133444525Y-86825547D01*
X133444525Y-85533795D01*
X133718486Y-85588290D01*
X134514710Y-85588290D01*
X134805549Y-85530438D01*
X135052111Y-85365691D01*
X138229401Y-82188401D01*
X138371504Y-81975729D01*
X138430646Y-81937671D01*
X138432302Y-81939327D01*
G36*
X136425673Y-80619698D02*
X136604301Y-80798327D01*
X136644560Y-80815003D01*
X136644560Y-81401000D01*
X136679818Y-81588380D01*
X135537224Y-82730974D01*
X135471250Y-82665000D01*
X134747000Y-82665000D01*
X134747000Y-83414250D01*
X134800474Y-83467724D01*
X134199908Y-84068290D01*
X134033288Y-84068290D01*
X133384981Y-83419983D01*
X133380964Y-83399788D01*
X133199959Y-83128895D01*
X132929066Y-82947890D01*
X132877374Y-82937608D01*
X132763516Y-82823750D01*
X133610000Y-82823750D01*
X133610000Y-83064309D01*
X133706673Y-83297698D01*
X133885301Y-83476327D01*
X134118690Y-83573000D01*
X134334250Y-83573000D01*
X134493000Y-83414250D01*
X134493000Y-82665000D01*
X133768750Y-82665000D01*
X133610000Y-82823750D01*
X132763516Y-82823750D01*
X132709135Y-82769369D01*
X133060943Y-82624005D01*
X133422735Y-82262845D01*
X133618777Y-81790724D01*
X133618985Y-81551866D01*
X133641838Y-81673317D01*
X133708329Y-81776646D01*
X133706673Y-81778302D01*
X133610000Y-82011691D01*
X133610000Y-82252250D01*
X133768750Y-82411000D01*
X134493000Y-82411000D01*
X134493000Y-82391000D01*
X134747000Y-82391000D01*
X134747000Y-82411000D01*
X135471250Y-82411000D01*
X135630000Y-82252250D01*
X135630000Y-82011691D01*
X135533327Y-81778302D01*
X135531957Y-81776932D01*
X135591431Y-81689890D01*
X135642440Y-81438000D01*
X135642440Y-81196428D01*
X136365190Y-80473678D01*
X136425673Y-80619698D01*
X136425673Y-80619698D01*
G37*
X136425673Y-80619698D02*
X136604301Y-80798327D01*
X136644560Y-80815003D01*
X136644560Y-81401000D01*
X136679818Y-81588380D01*
X135537224Y-82730974D01*
X135471250Y-82665000D01*
X134747000Y-82665000D01*
X134747000Y-83414250D01*
X134800474Y-83467724D01*
X134199908Y-84068290D01*
X134033288Y-84068290D01*
X133384981Y-83419983D01*
X133380964Y-83399788D01*
X133199959Y-83128895D01*
X132929066Y-82947890D01*
X132877374Y-82937608D01*
X132763516Y-82823750D01*
X133610000Y-82823750D01*
X133610000Y-83064309D01*
X133706673Y-83297698D01*
X133885301Y-83476327D01*
X134118690Y-83573000D01*
X134334250Y-83573000D01*
X134493000Y-83414250D01*
X134493000Y-82665000D01*
X133768750Y-82665000D01*
X133610000Y-82823750D01*
X132763516Y-82823750D01*
X132709135Y-82769369D01*
X133060943Y-82624005D01*
X133422735Y-82262845D01*
X133618777Y-81790724D01*
X133618985Y-81551866D01*
X133641838Y-81673317D01*
X133708329Y-81776646D01*
X133706673Y-81778302D01*
X133610000Y-82011691D01*
X133610000Y-82252250D01*
X133768750Y-82411000D01*
X134493000Y-82411000D01*
X134493000Y-82391000D01*
X134747000Y-82391000D01*
X134747000Y-82411000D01*
X135471250Y-82411000D01*
X135630000Y-82252250D01*
X135630000Y-82011691D01*
X135533327Y-81778302D01*
X135531957Y-81776932D01*
X135591431Y-81689890D01*
X135642440Y-81438000D01*
X135642440Y-81196428D01*
X136365190Y-80473678D01*
X136425673Y-80619698D01*
G36*
X139339000Y-81153000D02*
X139319000Y-81153000D01*
X139319000Y-81173000D01*
X139065000Y-81173000D01*
X139065000Y-81153000D01*
X139045000Y-81153000D01*
X139045000Y-81058191D01*
X139339000Y-80936712D01*
X139339000Y-81153000D01*
X139339000Y-81153000D01*
G37*
X139339000Y-81153000D02*
X139319000Y-81153000D01*
X139319000Y-81173000D01*
X139065000Y-81173000D01*
X139065000Y-81153000D01*
X139045000Y-81153000D01*
X139045000Y-81058191D01*
X139339000Y-80936712D01*
X139339000Y-81153000D01*
G36*
X140193000Y-76439000D02*
X141239000Y-76439000D01*
X141239000Y-76419000D01*
X141493000Y-76419000D01*
X141493000Y-76439000D01*
X141513000Y-76439000D01*
X141513000Y-76693000D01*
X141493000Y-76693000D01*
X141493000Y-77739000D01*
X141513000Y-77739000D01*
X141513000Y-77993000D01*
X141493000Y-77993000D01*
X141493000Y-78013000D01*
X141239000Y-78013000D01*
X141239000Y-77993000D01*
X140193000Y-77993000D01*
X140193000Y-78013000D01*
X139939000Y-78013000D01*
X139939000Y-77993000D01*
X139919000Y-77993000D01*
X139919000Y-77739000D01*
X139939000Y-77739000D01*
X139939000Y-76851750D01*
X140081000Y-76851750D01*
X140081000Y-77580250D01*
X140193000Y-77692250D01*
X140193000Y-77739000D01*
X140239750Y-77739000D01*
X140351750Y-77851000D01*
X141080250Y-77851000D01*
X141192250Y-77739000D01*
X141239000Y-77739000D01*
X141239000Y-77692250D01*
X141351000Y-77580250D01*
X141351000Y-76851750D01*
X141239000Y-76739750D01*
X141239000Y-76693000D01*
X141192250Y-76693000D01*
X141080250Y-76581000D01*
X140351750Y-76581000D01*
X140239750Y-76693000D01*
X140193000Y-76693000D01*
X140193000Y-76739750D01*
X140081000Y-76851750D01*
X139939000Y-76851750D01*
X139939000Y-76693000D01*
X139919000Y-76693000D01*
X139919000Y-76439000D01*
X139939000Y-76439000D01*
X139939000Y-76419000D01*
X140193000Y-76419000D01*
X140193000Y-76439000D01*
X140193000Y-76439000D01*
G37*
X140193000Y-76439000D02*
X141239000Y-76439000D01*
X141239000Y-76419000D01*
X141493000Y-76419000D01*
X141493000Y-76439000D01*
X141513000Y-76439000D01*
X141513000Y-76693000D01*
X141493000Y-76693000D01*
X141493000Y-77739000D01*
X141513000Y-77739000D01*
X141513000Y-77993000D01*
X141493000Y-77993000D01*
X141493000Y-78013000D01*
X141239000Y-78013000D01*
X141239000Y-77993000D01*
X140193000Y-77993000D01*
X140193000Y-78013000D01*
X139939000Y-78013000D01*
X139939000Y-77993000D01*
X139919000Y-77993000D01*
X139919000Y-77739000D01*
X139939000Y-77739000D01*
X139939000Y-76851750D01*
X140081000Y-76851750D01*
X140081000Y-77580250D01*
X140193000Y-77692250D01*
X140193000Y-77739000D01*
X140239750Y-77739000D01*
X140351750Y-77851000D01*
X141080250Y-77851000D01*
X141192250Y-77739000D01*
X141239000Y-77739000D01*
X141239000Y-77692250D01*
X141351000Y-77580250D01*
X141351000Y-76851750D01*
X141239000Y-76739750D01*
X141239000Y-76693000D01*
X141192250Y-76693000D01*
X141080250Y-76581000D01*
X140351750Y-76581000D01*
X140239750Y-76693000D01*
X140193000Y-76693000D01*
X140193000Y-76739750D01*
X140081000Y-76851750D01*
X139939000Y-76851750D01*
X139939000Y-76693000D01*
X139919000Y-76693000D01*
X139919000Y-76439000D01*
X139939000Y-76439000D01*
X139939000Y-76419000D01*
X140193000Y-76419000D01*
X140193000Y-76439000D01*
G36*
X148643755Y-56951900D02*
X148643755Y-75990484D01*
X148531575Y-76102664D01*
X148588000Y-75819000D01*
X148588000Y-73856241D01*
X148530148Y-73565402D01*
X148530148Y-73565401D01*
X148365401Y-73318840D01*
X145388542Y-70341981D01*
X145141980Y-70177234D01*
X144984846Y-70145978D01*
X144630136Y-69790647D01*
X144158015Y-69594605D01*
X143646810Y-69594159D01*
X143174348Y-69789377D01*
X142812556Y-70150537D01*
X142616514Y-70622658D01*
X142616068Y-71133863D01*
X142811286Y-71606325D01*
X143172446Y-71968117D01*
X143644567Y-72164159D01*
X144079012Y-72164538D01*
X144028000Y-72287691D01*
X144028000Y-72628250D01*
X144186750Y-72787000D01*
X145161000Y-72787000D01*
X145161000Y-72767000D01*
X145415000Y-72767000D01*
X145415000Y-72787000D01*
X145435000Y-72787000D01*
X145435000Y-73041000D01*
X145415000Y-73041000D01*
X145415000Y-73061000D01*
X145161000Y-73061000D01*
X145161000Y-73041000D01*
X144186750Y-73041000D01*
X144028000Y-73199750D01*
X144028000Y-73540309D01*
X144124673Y-73773698D01*
X144265910Y-73914936D01*
X144211559Y-73949910D01*
X144066569Y-74162110D01*
X144015560Y-74414000D01*
X144015560Y-75227908D01*
X143905424Y-75206000D01*
X143275884Y-75206000D01*
X143091000Y-75168560D01*
X142822242Y-75168560D01*
X143031401Y-74959401D01*
X143196148Y-74712839D01*
X143254000Y-74422000D01*
X143254000Y-72528620D01*
X143196148Y-72237781D01*
X143031401Y-71991219D01*
X142638781Y-71598599D01*
X142424731Y-71455576D01*
X142315470Y-71285779D01*
X142103270Y-71140789D01*
X141851380Y-71089780D01*
X141053820Y-71089780D01*
X140818503Y-71134058D01*
X140703307Y-71208185D01*
X140604670Y-71140789D01*
X140352780Y-71089780D01*
X139555220Y-71089780D01*
X139465035Y-71106750D01*
X139439890Y-71089569D01*
X139188000Y-71038560D01*
X138688000Y-71038560D01*
X138452683Y-71082838D01*
X138236559Y-71221910D01*
X138188866Y-71291711D01*
X138152090Y-71234559D01*
X137939890Y-71089569D01*
X137688000Y-71038560D01*
X137188000Y-71038560D01*
X136952683Y-71082838D01*
X136736559Y-71221910D01*
X136634173Y-71371757D01*
X136723000Y-71157310D01*
X136723000Y-70516750D01*
X136564250Y-70358000D01*
X135715000Y-70358000D01*
X135715000Y-71507250D01*
X135873750Y-71666000D01*
X136214309Y-71666000D01*
X136447698Y-71569327D01*
X136610236Y-71406790D01*
X136591569Y-71434110D01*
X136540560Y-71686000D01*
X136540560Y-72317000D01*
X133570137Y-72317000D01*
X133423000Y-72169606D01*
X133423000Y-71570018D01*
X133539441Y-71495090D01*
X133684431Y-71282890D01*
X133735440Y-71031000D01*
X133735440Y-70516750D01*
X134453000Y-70516750D01*
X134453000Y-71157310D01*
X134549673Y-71390699D01*
X134728302Y-71569327D01*
X134961691Y-71666000D01*
X135302250Y-71666000D01*
X135461000Y-71507250D01*
X135461000Y-70358000D01*
X134611750Y-70358000D01*
X134453000Y-70516750D01*
X133735440Y-70516750D01*
X133735440Y-69431000D01*
X133711674Y-69304690D01*
X134453000Y-69304690D01*
X134453000Y-69945250D01*
X134611750Y-70104000D01*
X135461000Y-70104000D01*
X135461000Y-68954750D01*
X135715000Y-68954750D01*
X135715000Y-70104000D01*
X136564250Y-70104000D01*
X136723000Y-69945250D01*
X136723000Y-69304690D01*
X136626327Y-69071301D01*
X136447698Y-68892673D01*
X136214309Y-68796000D01*
X135873750Y-68796000D01*
X135715000Y-68954750D01*
X135461000Y-68954750D01*
X135302250Y-68796000D01*
X134961691Y-68796000D01*
X134728302Y-68892673D01*
X134549673Y-69071301D01*
X134453000Y-69304690D01*
X133711674Y-69304690D01*
X133691162Y-69195683D01*
X133552090Y-68979559D01*
X133423000Y-68891356D01*
X133423000Y-65988952D01*
X137744650Y-61667302D01*
X138103173Y-61667615D01*
X138575635Y-61472397D01*
X138937427Y-61111237D01*
X139133469Y-60639116D01*
X139133915Y-60127911D01*
X138938697Y-59655449D01*
X138577537Y-59293657D01*
X138105416Y-59097615D01*
X137594211Y-59097169D01*
X137121749Y-59292387D01*
X136759957Y-59653547D01*
X136563915Y-60125668D01*
X136563600Y-60486616D01*
X131997566Y-65052650D01*
X131816561Y-65323543D01*
X131753000Y-65643084D01*
X131753000Y-68891982D01*
X131636559Y-68966910D01*
X131491569Y-69179110D01*
X131440560Y-69431000D01*
X131440560Y-70792977D01*
X131435561Y-70800459D01*
X131372000Y-71120000D01*
X131372000Y-72729643D01*
X131303223Y-72895276D01*
X131302777Y-73406481D01*
X131497995Y-73878943D01*
X131859155Y-74240735D01*
X132331276Y-74436777D01*
X132842481Y-74437223D01*
X133314943Y-74242005D01*
X133570394Y-73987000D01*
X136516560Y-73987000D01*
X136516560Y-74110000D01*
X136560838Y-74345317D01*
X136699910Y-74561441D01*
X136912110Y-74706431D01*
X137164000Y-74757440D01*
X137664000Y-74757440D01*
X137899317Y-74713162D01*
X138115441Y-74574090D01*
X138163134Y-74504289D01*
X138199910Y-74561441D01*
X138412110Y-74706431D01*
X138664000Y-74757440D01*
X138685481Y-74757440D01*
X138668560Y-74841000D01*
X138668560Y-75168560D01*
X138341000Y-75168560D01*
X138105683Y-75212838D01*
X137889559Y-75351910D01*
X137744569Y-75564110D01*
X137693560Y-75816000D01*
X137693560Y-76116000D01*
X137710495Y-76206000D01*
X133524802Y-76206000D01*
X133519401Y-76200599D01*
X133339599Y-76080460D01*
X133367000Y-76014309D01*
X133367000Y-75773750D01*
X133208250Y-75615000D01*
X132059000Y-75615000D01*
X132059000Y-75635000D01*
X131805000Y-75635000D01*
X131805000Y-75615000D01*
X131785000Y-75615000D01*
X131785000Y-75361000D01*
X131805000Y-75361000D01*
X131805000Y-74611750D01*
X132059000Y-74611750D01*
X132059000Y-75361000D01*
X133208250Y-75361000D01*
X133367000Y-75202250D01*
X133367000Y-74961691D01*
X133270327Y-74728302D01*
X133091699Y-74549673D01*
X132858310Y-74453000D01*
X132217750Y-74453000D01*
X132059000Y-74611750D01*
X131805000Y-74611750D01*
X131646250Y-74453000D01*
X131064000Y-74453000D01*
X131064000Y-74354025D01*
X131070327Y-74347698D01*
X131167000Y-74114309D01*
X131167000Y-73223750D01*
X131008250Y-73065000D01*
X129159000Y-73065000D01*
X129159000Y-73085000D01*
X128905000Y-73085000D01*
X128905000Y-73065000D01*
X128885000Y-73065000D01*
X128885000Y-72811000D01*
X128905000Y-72811000D01*
X128905000Y-71411750D01*
X129159000Y-71411750D01*
X129159000Y-72811000D01*
X131008250Y-72811000D01*
X131167000Y-72652250D01*
X131167000Y-71761691D01*
X131070327Y-71528302D01*
X130891699Y-71349673D01*
X130658310Y-71253000D01*
X129317750Y-71253000D01*
X129159000Y-71411750D01*
X128905000Y-71411750D01*
X128746250Y-71253000D01*
X127685000Y-71253000D01*
X127685000Y-63970387D01*
X127795155Y-64080735D01*
X128267276Y-64276777D01*
X128778481Y-64277223D01*
X129250943Y-64082005D01*
X129612735Y-63720845D01*
X129808777Y-63248724D01*
X129809223Y-62737519D01*
X129634663Y-62315052D01*
X129730431Y-62174890D01*
X129781440Y-61923000D01*
X129781440Y-61013000D01*
X129737162Y-60777683D01*
X129598090Y-60561559D01*
X129385890Y-60416569D01*
X129134000Y-60365560D01*
X127914000Y-60365560D01*
X127685000Y-60408649D01*
X127685000Y-59245464D01*
X127787690Y-59288000D01*
X128238250Y-59288000D01*
X128397000Y-59129250D01*
X128397000Y-58325000D01*
X128651000Y-58325000D01*
X128651000Y-59129250D01*
X128809750Y-59288000D01*
X129260310Y-59288000D01*
X129493699Y-59191327D01*
X129672327Y-59012698D01*
X129769000Y-58779309D01*
X129769000Y-58483750D01*
X129610250Y-58325000D01*
X128651000Y-58325000D01*
X128397000Y-58325000D01*
X128377000Y-58325000D01*
X128377000Y-58071000D01*
X128397000Y-58071000D01*
X128397000Y-58051000D01*
X128651000Y-58051000D01*
X128651000Y-58071000D01*
X129036400Y-58071000D01*
X129157056Y-58120975D01*
X129264416Y-58071000D01*
X129610250Y-58071000D01*
X129675471Y-58005779D01*
X129922944Y-58120975D01*
X130404818Y-57921385D01*
X130502398Y-57830903D01*
X130599910Y-57982441D01*
X130812110Y-58127431D01*
X130961968Y-58157778D01*
X130932560Y-58303000D01*
X130932560Y-59553000D01*
X130976838Y-59788317D01*
X131115910Y-60004441D01*
X131328110Y-60149431D01*
X131580000Y-60200440D01*
X132580000Y-60200440D01*
X132815317Y-60156162D01*
X133031441Y-60017090D01*
X133079134Y-59947289D01*
X133115910Y-60004441D01*
X133328110Y-60149431D01*
X133580000Y-60200440D01*
X134580000Y-60200440D01*
X134815317Y-60156162D01*
X135031441Y-60017090D01*
X135176431Y-59804890D01*
X135227440Y-59553000D01*
X135227440Y-58303000D01*
X135220862Y-58268042D01*
X135280198Y-58208706D01*
X135370077Y-58246027D01*
X136020520Y-58246595D01*
X136621668Y-57998205D01*
X136638106Y-57981795D01*
X139334716Y-57981795D01*
X139583106Y-58582943D01*
X140042637Y-59043278D01*
X140643352Y-59292716D01*
X141293795Y-59293284D01*
X141894943Y-59044894D01*
X142355278Y-58585363D01*
X142604716Y-57984648D01*
X142605284Y-57334205D01*
X142356894Y-56733057D01*
X141897363Y-56272722D01*
X141296648Y-56023284D01*
X140646205Y-56022716D01*
X140045057Y-56271106D01*
X139584722Y-56730637D01*
X139335284Y-57331352D01*
X139334716Y-57981795D01*
X136638106Y-57981795D01*
X137082003Y-57538674D01*
X137331441Y-56937959D01*
X137332009Y-56287516D01*
X137083619Y-55686368D01*
X136842673Y-55445000D01*
X147136855Y-55445000D01*
X148643755Y-56951900D01*
X148643755Y-56951900D01*
G37*
X148643755Y-56951900D02*
X148643755Y-75990484D01*
X148531575Y-76102664D01*
X148588000Y-75819000D01*
X148588000Y-73856241D01*
X148530148Y-73565402D01*
X148530148Y-73565401D01*
X148365401Y-73318840D01*
X145388542Y-70341981D01*
X145141980Y-70177234D01*
X144984846Y-70145978D01*
X144630136Y-69790647D01*
X144158015Y-69594605D01*
X143646810Y-69594159D01*
X143174348Y-69789377D01*
X142812556Y-70150537D01*
X142616514Y-70622658D01*
X142616068Y-71133863D01*
X142811286Y-71606325D01*
X143172446Y-71968117D01*
X143644567Y-72164159D01*
X144079012Y-72164538D01*
X144028000Y-72287691D01*
X144028000Y-72628250D01*
X144186750Y-72787000D01*
X145161000Y-72787000D01*
X145161000Y-72767000D01*
X145415000Y-72767000D01*
X145415000Y-72787000D01*
X145435000Y-72787000D01*
X145435000Y-73041000D01*
X145415000Y-73041000D01*
X145415000Y-73061000D01*
X145161000Y-73061000D01*
X145161000Y-73041000D01*
X144186750Y-73041000D01*
X144028000Y-73199750D01*
X144028000Y-73540309D01*
X144124673Y-73773698D01*
X144265910Y-73914936D01*
X144211559Y-73949910D01*
X144066569Y-74162110D01*
X144015560Y-74414000D01*
X144015560Y-75227908D01*
X143905424Y-75206000D01*
X143275884Y-75206000D01*
X143091000Y-75168560D01*
X142822242Y-75168560D01*
X143031401Y-74959401D01*
X143196148Y-74712839D01*
X143254000Y-74422000D01*
X143254000Y-72528620D01*
X143196148Y-72237781D01*
X143031401Y-71991219D01*
X142638781Y-71598599D01*
X142424731Y-71455576D01*
X142315470Y-71285779D01*
X142103270Y-71140789D01*
X141851380Y-71089780D01*
X141053820Y-71089780D01*
X140818503Y-71134058D01*
X140703307Y-71208185D01*
X140604670Y-71140789D01*
X140352780Y-71089780D01*
X139555220Y-71089780D01*
X139465035Y-71106750D01*
X139439890Y-71089569D01*
X139188000Y-71038560D01*
X138688000Y-71038560D01*
X138452683Y-71082838D01*
X138236559Y-71221910D01*
X138188866Y-71291711D01*
X138152090Y-71234559D01*
X137939890Y-71089569D01*
X137688000Y-71038560D01*
X137188000Y-71038560D01*
X136952683Y-71082838D01*
X136736559Y-71221910D01*
X136634173Y-71371757D01*
X136723000Y-71157310D01*
X136723000Y-70516750D01*
X136564250Y-70358000D01*
X135715000Y-70358000D01*
X135715000Y-71507250D01*
X135873750Y-71666000D01*
X136214309Y-71666000D01*
X136447698Y-71569327D01*
X136610236Y-71406790D01*
X136591569Y-71434110D01*
X136540560Y-71686000D01*
X136540560Y-72317000D01*
X133570137Y-72317000D01*
X133423000Y-72169606D01*
X133423000Y-71570018D01*
X133539441Y-71495090D01*
X133684431Y-71282890D01*
X133735440Y-71031000D01*
X133735440Y-70516750D01*
X134453000Y-70516750D01*
X134453000Y-71157310D01*
X134549673Y-71390699D01*
X134728302Y-71569327D01*
X134961691Y-71666000D01*
X135302250Y-71666000D01*
X135461000Y-71507250D01*
X135461000Y-70358000D01*
X134611750Y-70358000D01*
X134453000Y-70516750D01*
X133735440Y-70516750D01*
X133735440Y-69431000D01*
X133711674Y-69304690D01*
X134453000Y-69304690D01*
X134453000Y-69945250D01*
X134611750Y-70104000D01*
X135461000Y-70104000D01*
X135461000Y-68954750D01*
X135715000Y-68954750D01*
X135715000Y-70104000D01*
X136564250Y-70104000D01*
X136723000Y-69945250D01*
X136723000Y-69304690D01*
X136626327Y-69071301D01*
X136447698Y-68892673D01*
X136214309Y-68796000D01*
X135873750Y-68796000D01*
X135715000Y-68954750D01*
X135461000Y-68954750D01*
X135302250Y-68796000D01*
X134961691Y-68796000D01*
X134728302Y-68892673D01*
X134549673Y-69071301D01*
X134453000Y-69304690D01*
X133711674Y-69304690D01*
X133691162Y-69195683D01*
X133552090Y-68979559D01*
X133423000Y-68891356D01*
X133423000Y-65988952D01*
X137744650Y-61667302D01*
X138103173Y-61667615D01*
X138575635Y-61472397D01*
X138937427Y-61111237D01*
X139133469Y-60639116D01*
X139133915Y-60127911D01*
X138938697Y-59655449D01*
X138577537Y-59293657D01*
X138105416Y-59097615D01*
X137594211Y-59097169D01*
X137121749Y-59292387D01*
X136759957Y-59653547D01*
X136563915Y-60125668D01*
X136563600Y-60486616D01*
X131997566Y-65052650D01*
X131816561Y-65323543D01*
X131753000Y-65643084D01*
X131753000Y-68891982D01*
X131636559Y-68966910D01*
X131491569Y-69179110D01*
X131440560Y-69431000D01*
X131440560Y-70792977D01*
X131435561Y-70800459D01*
X131372000Y-71120000D01*
X131372000Y-72729643D01*
X131303223Y-72895276D01*
X131302777Y-73406481D01*
X131497995Y-73878943D01*
X131859155Y-74240735D01*
X132331276Y-74436777D01*
X132842481Y-74437223D01*
X133314943Y-74242005D01*
X133570394Y-73987000D01*
X136516560Y-73987000D01*
X136516560Y-74110000D01*
X136560838Y-74345317D01*
X136699910Y-74561441D01*
X136912110Y-74706431D01*
X137164000Y-74757440D01*
X137664000Y-74757440D01*
X137899317Y-74713162D01*
X138115441Y-74574090D01*
X138163134Y-74504289D01*
X138199910Y-74561441D01*
X138412110Y-74706431D01*
X138664000Y-74757440D01*
X138685481Y-74757440D01*
X138668560Y-74841000D01*
X138668560Y-75168560D01*
X138341000Y-75168560D01*
X138105683Y-75212838D01*
X137889559Y-75351910D01*
X137744569Y-75564110D01*
X137693560Y-75816000D01*
X137693560Y-76116000D01*
X137710495Y-76206000D01*
X133524802Y-76206000D01*
X133519401Y-76200599D01*
X133339599Y-76080460D01*
X133367000Y-76014309D01*
X133367000Y-75773750D01*
X133208250Y-75615000D01*
X132059000Y-75615000D01*
X132059000Y-75635000D01*
X131805000Y-75635000D01*
X131805000Y-75615000D01*
X131785000Y-75615000D01*
X131785000Y-75361000D01*
X131805000Y-75361000D01*
X131805000Y-74611750D01*
X132059000Y-74611750D01*
X132059000Y-75361000D01*
X133208250Y-75361000D01*
X133367000Y-75202250D01*
X133367000Y-74961691D01*
X133270327Y-74728302D01*
X133091699Y-74549673D01*
X132858310Y-74453000D01*
X132217750Y-74453000D01*
X132059000Y-74611750D01*
X131805000Y-74611750D01*
X131646250Y-74453000D01*
X131064000Y-74453000D01*
X131064000Y-74354025D01*
X131070327Y-74347698D01*
X131167000Y-74114309D01*
X131167000Y-73223750D01*
X131008250Y-73065000D01*
X129159000Y-73065000D01*
X129159000Y-73085000D01*
X128905000Y-73085000D01*
X128905000Y-73065000D01*
X128885000Y-73065000D01*
X128885000Y-72811000D01*
X128905000Y-72811000D01*
X128905000Y-71411750D01*
X129159000Y-71411750D01*
X129159000Y-72811000D01*
X131008250Y-72811000D01*
X131167000Y-72652250D01*
X131167000Y-71761691D01*
X131070327Y-71528302D01*
X130891699Y-71349673D01*
X130658310Y-71253000D01*
X129317750Y-71253000D01*
X129159000Y-71411750D01*
X128905000Y-71411750D01*
X128746250Y-71253000D01*
X127685000Y-71253000D01*
X127685000Y-63970387D01*
X127795155Y-64080735D01*
X128267276Y-64276777D01*
X128778481Y-64277223D01*
X129250943Y-64082005D01*
X129612735Y-63720845D01*
X129808777Y-63248724D01*
X129809223Y-62737519D01*
X129634663Y-62315052D01*
X129730431Y-62174890D01*
X129781440Y-61923000D01*
X129781440Y-61013000D01*
X129737162Y-60777683D01*
X129598090Y-60561559D01*
X129385890Y-60416569D01*
X129134000Y-60365560D01*
X127914000Y-60365560D01*
X127685000Y-60408649D01*
X127685000Y-59245464D01*
X127787690Y-59288000D01*
X128238250Y-59288000D01*
X128397000Y-59129250D01*
X128397000Y-58325000D01*
X128651000Y-58325000D01*
X128651000Y-59129250D01*
X128809750Y-59288000D01*
X129260310Y-59288000D01*
X129493699Y-59191327D01*
X129672327Y-59012698D01*
X129769000Y-58779309D01*
X129769000Y-58483750D01*
X129610250Y-58325000D01*
X128651000Y-58325000D01*
X128397000Y-58325000D01*
X128377000Y-58325000D01*
X128377000Y-58071000D01*
X128397000Y-58071000D01*
X128397000Y-58051000D01*
X128651000Y-58051000D01*
X128651000Y-58071000D01*
X129036400Y-58071000D01*
X129157056Y-58120975D01*
X129264416Y-58071000D01*
X129610250Y-58071000D01*
X129675471Y-58005779D01*
X129922944Y-58120975D01*
X130404818Y-57921385D01*
X130502398Y-57830903D01*
X130599910Y-57982441D01*
X130812110Y-58127431D01*
X130961968Y-58157778D01*
X130932560Y-58303000D01*
X130932560Y-59553000D01*
X130976838Y-59788317D01*
X131115910Y-60004441D01*
X131328110Y-60149431D01*
X131580000Y-60200440D01*
X132580000Y-60200440D01*
X132815317Y-60156162D01*
X133031441Y-60017090D01*
X133079134Y-59947289D01*
X133115910Y-60004441D01*
X133328110Y-60149431D01*
X133580000Y-60200440D01*
X134580000Y-60200440D01*
X134815317Y-60156162D01*
X135031441Y-60017090D01*
X135176431Y-59804890D01*
X135227440Y-59553000D01*
X135227440Y-58303000D01*
X135220862Y-58268042D01*
X135280198Y-58208706D01*
X135370077Y-58246027D01*
X136020520Y-58246595D01*
X136621668Y-57998205D01*
X136638106Y-57981795D01*
X139334716Y-57981795D01*
X139583106Y-58582943D01*
X140042637Y-59043278D01*
X140643352Y-59292716D01*
X141293795Y-59293284D01*
X141894943Y-59044894D01*
X142355278Y-58585363D01*
X142604716Y-57984648D01*
X142605284Y-57334205D01*
X142356894Y-56733057D01*
X141897363Y-56272722D01*
X141296648Y-56023284D01*
X140646205Y-56022716D01*
X140045057Y-56271106D01*
X139584722Y-56730637D01*
X139335284Y-57331352D01*
X139334716Y-57981795D01*
X136638106Y-57981795D01*
X137082003Y-57538674D01*
X137331441Y-56937959D01*
X137332009Y-56287516D01*
X137083619Y-55686368D01*
X136842673Y-55445000D01*
X147136855Y-55445000D01*
X148643755Y-56951900D01*
G36*
X133647200Y-55182932D02*
X133560090Y-55047559D01*
X133347890Y-54902569D01*
X133096000Y-54851560D01*
X131064000Y-54851560D01*
X130828683Y-54895838D01*
X130612559Y-55034910D01*
X130501160Y-55197948D01*
X130404818Y-55108615D01*
X129922944Y-54909025D01*
X129667000Y-55028164D01*
X129667000Y-56388000D01*
X129687000Y-56388000D01*
X129687000Y-56642000D01*
X129667000Y-56642000D01*
X129667000Y-57377975D01*
X129493699Y-57204673D01*
X129413000Y-57171246D01*
X129413000Y-56642000D01*
X128052633Y-56642000D01*
X127934017Y-56897946D01*
X128030461Y-57108000D01*
X127787690Y-57108000D01*
X127685000Y-57150536D01*
X127685000Y-56132054D01*
X127934017Y-56132054D01*
X128052633Y-56388000D01*
X129413000Y-56388000D01*
X129413000Y-55028164D01*
X129157056Y-54909025D01*
X128675182Y-55108615D01*
X128202812Y-55546621D01*
X127934017Y-56132054D01*
X127685000Y-56132054D01*
X127685000Y-54787000D01*
X134043132Y-54787000D01*
X133647200Y-55182932D01*
X133647200Y-55182932D01*
G37*
X133647200Y-55182932D02*
X133560090Y-55047559D01*
X133347890Y-54902569D01*
X133096000Y-54851560D01*
X131064000Y-54851560D01*
X130828683Y-54895838D01*
X130612559Y-55034910D01*
X130501160Y-55197948D01*
X130404818Y-55108615D01*
X129922944Y-54909025D01*
X129667000Y-55028164D01*
X129667000Y-56388000D01*
X129687000Y-56388000D01*
X129687000Y-56642000D01*
X129667000Y-56642000D01*
X129667000Y-57377975D01*
X129493699Y-57204673D01*
X129413000Y-57171246D01*
X129413000Y-56642000D01*
X128052633Y-56642000D01*
X127934017Y-56897946D01*
X128030461Y-57108000D01*
X127787690Y-57108000D01*
X127685000Y-57150536D01*
X127685000Y-56132054D01*
X127934017Y-56132054D01*
X128052633Y-56388000D01*
X129413000Y-56388000D01*
X129413000Y-55028164D01*
X129157056Y-54909025D01*
X128675182Y-55108615D01*
X128202812Y-55546621D01*
X127934017Y-56132054D01*
X127685000Y-56132054D01*
X127685000Y-54787000D01*
X134043132Y-54787000D01*
X133647200Y-55182932D01*
M02*
