M48
;DRILL file {KiCad 4.0.2-stable} date 26.05.2016 15:15:27
;FORMAT={-:-/ absolute / inch / decimal}
FMAT,2
INCH,TZ
T1C0.016
T2C0.035
T3C0.039
T4C0.040
%
G90
G05
M72
T1
X5.24Y-3.75
X5.25Y-2.37
X5.275Y-2.37
X5.3046Y-2.37
X5.325Y-2.37
X5.6571Y-3.668
X5.6571Y-3.7035
X5.6571Y-3.7389
X5.6571Y-3.7743
X5.6571Y-3.8098
X5.6571Y-3.8452
X5.6571Y-3.8806
X5.675Y-2.22
X5.6925Y-3.668
X5.6925Y-3.7035
X5.6925Y-3.7389
X5.6925Y-3.7743
X5.6925Y-3.8098
X5.6925Y-3.8452
X5.6965Y-3.8806
X5.7Y-2.22
X5.725Y-2.22
X5.728Y-3.8491
X5.728Y-3.8806
X5.75Y-2.22
X5.7634Y-3.8491
X5.7634Y-3.8806
X5.775Y-2.22
X5.775Y-2.245
X5.775Y-2.27
X5.8047Y-3.8491
X5.8047Y-3.8806
X5.8461Y-3.8491
X5.8461Y-3.8806
X5.8815Y-3.8491
X5.8815Y-3.8806
X5.9169Y-3.668
X5.9169Y-3.7035
X5.9169Y-3.7389
X5.9169Y-3.7743
X5.9169Y-3.8098
X5.9169Y-3.8452
X5.9169Y-3.8806
X5.9524Y-3.668
X5.9524Y-3.7035
X5.9524Y-3.7389
X5.9524Y-3.7743
X5.9524Y-3.8098
X5.9524Y-3.8452
X5.9524Y-3.8806
T2
X5.06Y-2.48
X5.07Y-3.48
X5.1245Y-3.8101
X5.135Y-3.345
X5.21Y-3.21
X5.22Y-2.88
X5.26Y-3.28
X5.29Y-2.94
X5.4271Y-2.2475
X5.4271Y-2.3773
X5.455Y-2.635
X5.4612Y-3.1419
X5.555Y-2.43
X5.5606Y-3.2527
X5.58Y-3.47
X5.632Y-3.2405
X5.6654Y-2.7905
X5.707Y-3.1923
X5.7172Y-3.0062
X5.73Y-3.49
X5.74Y-2.62
X5.7818Y-3.1085
X5.81Y-2.805
X5.9263Y-2.4607
T3
X5.3424Y-2.2288
T4
X5.1Y-2.225
X5.2Y-2.225
T0
M30
