G04 #@! TF.FileFunction,Soldermask,Top*
%FSLAX46Y46*%
G04 Gerber Fmt 4.6, Leading zero omitted, Abs format (unit mm)*
G04 Created by KiCad (PCBNEW 4.0.2-stable) date 3/16/2016 8:44:58 PM*
%MOMM*%
G01*
G04 APERTURE LIST*
%ADD10C,0.100000*%
%ADD11R,1.300000X0.900000*%
%ADD12R,1.150000X1.200000*%
%ADD13R,1.200000X1.150000*%
%ADD14R,1.650000X1.400000*%
%ADD15R,1.310000X1.620000*%
%ADD16R,2.178000X3.194000*%
%ADD17R,0.900000X1.300000*%
%ADD18R,1.100000X1.700000*%
%ADD19R,1.600000X1.900000*%
%ADD20R,2.800000X1.500000*%
%ADD21R,1.200000X1.600000*%
%ADD22R,1.400760X1.090880*%
%ADD23R,1.900000X0.850000*%
%ADD24R,2.432000X2.432000*%
%ADD25O,2.432000X2.432000*%
%ADD26R,1.200000X2.000000*%
%ADD27R,2.500000X3.400000*%
G04 APERTURE END LIST*
D10*
D11*
X159200000Y-84000000D03*
X159200000Y-82500000D03*
D12*
X162150000Y-91300000D03*
X162150000Y-89800000D03*
D13*
X168250000Y-82400000D03*
X166750000Y-82400000D03*
D14*
X158950000Y-78600000D03*
X158950000Y-80600000D03*
X162750000Y-78500000D03*
X162750000Y-80500000D03*
D12*
X160900000Y-81550000D03*
X160900000Y-80050000D03*
D15*
X161765000Y-83400000D03*
X165035000Y-83400000D03*
D16*
X163022000Y-86300000D03*
X166578000Y-86300000D03*
D11*
X149550000Y-88250000D03*
X149550000Y-89750000D03*
X151250000Y-88250000D03*
X151250000Y-89750000D03*
D17*
X152150000Y-86100000D03*
X150650000Y-86100000D03*
X165000000Y-91300000D03*
X163500000Y-91300000D03*
D18*
X164950000Y-77000000D03*
X166850000Y-77000000D03*
D17*
X156650000Y-83250000D03*
X155150000Y-83250000D03*
X153750000Y-83250000D03*
X152250000Y-83250000D03*
D19*
X151370000Y-93660000D03*
X148830000Y-93660000D03*
D20*
X150100000Y-96200000D03*
D21*
X150100000Y-93660000D03*
D11*
X171300000Y-80600000D03*
X171300000Y-79100000D03*
X169500000Y-78650000D03*
X169500000Y-80150000D03*
D22*
X167750480Y-80849960D03*
X167750480Y-79900000D03*
X167750480Y-78950040D03*
X165149520Y-78950040D03*
X165149520Y-79900000D03*
X165149520Y-80849960D03*
D23*
X159850000Y-90765000D03*
X159850000Y-90115000D03*
X159850000Y-89465000D03*
X159850000Y-88815000D03*
X159850000Y-88165000D03*
X159850000Y-87515000D03*
X159850000Y-86865000D03*
X159850000Y-86215000D03*
X153950000Y-86215000D03*
X153950000Y-86865000D03*
X153950000Y-87515000D03*
X153950000Y-88165000D03*
X153950000Y-88815000D03*
X153950000Y-89465000D03*
X153950000Y-90115000D03*
X153950000Y-90765000D03*
D24*
X153800000Y-76500000D03*
D25*
X156340000Y-76500000D03*
D26*
X156600000Y-93750000D03*
X157850000Y-93750000D03*
X159100000Y-93750000D03*
X160350000Y-93750000D03*
X161600000Y-93750000D03*
D27*
X154050000Y-96650000D03*
X164150000Y-96650000D03*
M02*
