G04 #@! TF.FileFunction,Copper,L2,Bot,Signal*
%FSLAX46Y46*%
G04 Gerber Fmt 4.6, Leading zero omitted, Abs format (unit mm)*
G04 Created by KiCad (PCBNEW (2015-09-15 BZR 6201)-product) date Donnerstag, 12. Mai 2016 'u44' 18:44:27*
%MOMM*%
G01*
G04 APERTURE LIST*
%ADD10C,0.100000*%
%ADD11R,0.750000X0.800000*%
%ADD12R,0.800000X0.750000*%
%ADD13R,1.000000X1.250000*%
%ADD14R,1.250000X1.000000*%
%ADD15R,1.220000X0.910000*%
%ADD16R,0.500000X0.900000*%
%ADD17R,0.900000X0.500000*%
%ADD18R,0.700000X1.300000*%
%ADD19R,0.749300X0.398780*%
%ADD20R,0.850000X0.300000*%
%ADD21R,0.300000X0.850000*%
%ADD22R,1.300000X1.300000*%
%ADD23R,2.032000X2.032000*%
%ADD24O,2.032000X2.032000*%
%ADD25R,1.600000X0.800000*%
%ADD26R,3.000000X2.100000*%
%ADD27R,0.797560X0.797560*%
%ADD28R,1.000000X1.600000*%
%ADD29R,1.500000X1.200000*%
%ADD30R,1.100000X2.400000*%
%ADD31R,1.200000X0.800000*%
%ADD32R,1.500000X0.600000*%
%ADD33C,1.300000*%
%ADD34C,2.000000*%
%ADD35C,0.600000*%
%ADD36C,0.250000*%
%ADD37C,0.400000*%
%ADD38C,0.300000*%
%ADD39C,0.254000*%
G04 APERTURE END LIST*
D10*
D11*
X148336000Y-91464000D03*
X148336000Y-92964000D03*
D12*
X151130000Y-92964000D03*
X149630000Y-92964000D03*
X146316000Y-90170000D03*
X147816000Y-90170000D03*
X146546000Y-91440000D03*
X145046000Y-91440000D03*
X142748000Y-85598000D03*
X144248000Y-85598000D03*
X144042000Y-95250000D03*
X145542000Y-95250000D03*
D13*
X132080000Y-58928000D03*
X134080000Y-58928000D03*
D11*
X130556000Y-89650000D03*
X130556000Y-88150000D03*
D12*
X137692000Y-81026000D03*
X139192000Y-81026000D03*
X140450000Y-97790000D03*
X138950000Y-97790000D03*
D14*
X145796000Y-76184000D03*
X145796000Y-74184000D03*
D15*
X128524000Y-61468000D03*
X128524000Y-58198000D03*
D16*
X130556000Y-94488000D03*
X129056000Y-94488000D03*
D17*
X136271000Y-98655000D03*
X136271000Y-97155000D03*
X143764000Y-98032000D03*
X143764000Y-96532000D03*
D16*
X151384000Y-91440000D03*
X149884000Y-91440000D03*
X149872000Y-89916000D03*
X151372000Y-89916000D03*
X150610000Y-95250000D03*
X149110000Y-95250000D03*
X139712000Y-85471000D03*
X141212000Y-85471000D03*
X146570000Y-95250000D03*
X148070000Y-95250000D03*
X128790000Y-90932000D03*
X130290000Y-90932000D03*
D17*
X144780000Y-88380000D03*
X144780000Y-86880000D03*
X146558000Y-88380000D03*
X146558000Y-86880000D03*
X143256000Y-86868000D03*
X143256000Y-88368000D03*
D18*
X134178000Y-78994000D03*
X136078000Y-78994000D03*
D17*
X137414000Y-78510000D03*
X137414000Y-80010000D03*
D16*
X137414000Y-73660000D03*
X138914000Y-73660000D03*
X137438000Y-72136000D03*
X138938000Y-72136000D03*
D19*
X146745960Y-92567760D03*
X146745960Y-93218000D03*
X146745960Y-93868240D03*
X144846040Y-93868240D03*
X144846040Y-93218000D03*
X144846040Y-92567760D03*
D20*
X138766000Y-78466000D03*
X138766000Y-77966000D03*
X138766000Y-77466000D03*
X138766000Y-76966000D03*
X138766000Y-76466000D03*
X138766000Y-75966000D03*
D21*
X139466000Y-75266000D03*
X139966000Y-75266000D03*
X140466000Y-75266000D03*
X140966000Y-75266000D03*
X141466000Y-75266000D03*
X141966000Y-75266000D03*
D20*
X142666000Y-75966000D03*
X142666000Y-76466000D03*
X142666000Y-76966000D03*
X142666000Y-77466000D03*
X142666000Y-77966000D03*
X142666000Y-78466000D03*
D21*
X141966000Y-79166000D03*
X141466000Y-79166000D03*
X140966000Y-79166000D03*
X140466000Y-79166000D03*
X139966000Y-79166000D03*
X139466000Y-79166000D03*
D22*
X141366000Y-76566000D03*
X141366000Y-77866000D03*
X140066000Y-76566000D03*
X140066000Y-77866000D03*
D23*
X132080000Y-56515000D03*
D24*
X129540000Y-56515000D03*
D25*
X131932000Y-79238000D03*
X131932000Y-77988000D03*
X131932000Y-76738000D03*
X131932000Y-75488000D03*
D26*
X129032000Y-81788000D03*
X129032000Y-72938000D03*
D27*
X139954000Y-72136000D03*
X141452600Y-72136000D03*
X139954000Y-73660000D03*
X141452600Y-73660000D03*
D17*
X129540000Y-91972000D03*
X129540000Y-93472000D03*
D28*
X132588000Y-70231000D03*
X135588000Y-70231000D03*
D11*
X134620000Y-81038000D03*
X134620000Y-82538000D03*
D29*
X148590000Y-85598000D03*
X148590000Y-83058000D03*
D30*
X151130000Y-84328000D03*
D31*
X148590000Y-84328000D03*
D32*
X133952000Y-95885000D03*
X133952000Y-94615000D03*
X133952000Y-93345000D03*
X133952000Y-92075000D03*
X133952000Y-90805000D03*
X133952000Y-89535000D03*
X133952000Y-88265000D03*
X133952000Y-86995000D03*
X139352000Y-86995000D03*
X139352000Y-88265000D03*
X139352000Y-89535000D03*
X139352000Y-90805000D03*
X139352000Y-92075000D03*
X139352000Y-93345000D03*
X139352000Y-94615000D03*
X139352000Y-95885000D03*
D33*
X148336000Y-88392000D03*
X149698817Y-94020445D03*
X141097000Y-61722000D03*
X137414000Y-95250000D03*
X138557000Y-66929000D03*
X145796000Y-66548000D03*
X147574000Y-71247000D03*
X146177000Y-84201000D03*
X151130000Y-88265000D03*
X128270000Y-97028000D03*
X130429000Y-84963000D03*
X128778000Y-88392000D03*
X137847863Y-57086563D03*
X150888269Y-86626802D03*
D34*
X135696725Y-56611311D03*
D33*
X138714000Y-79804585D03*
D35*
X137110243Y-89027396D03*
D33*
X147867074Y-81432959D03*
D35*
X132461000Y-84836000D03*
D33*
X143190499Y-92128613D03*
X132588000Y-73152000D03*
X141986000Y-97282000D03*
X137848692Y-60382392D03*
X128524000Y-62992000D03*
X146858742Y-78956366D03*
X132334000Y-81534000D03*
X147293477Y-76317115D03*
X150393651Y-62538607D03*
X144956876Y-81083671D03*
X143051642Y-82308440D03*
X141240266Y-82618962D03*
D36*
X147816000Y-90170000D02*
X147816000Y-88912000D01*
X147816000Y-88912000D02*
X148336000Y-88392000D01*
X149630000Y-92964000D02*
X149630000Y-93951628D01*
X149630000Y-93951628D02*
X149698817Y-94020445D01*
D37*
X138950000Y-97790000D02*
X137414000Y-96254000D01*
X137414000Y-96254000D02*
X137414000Y-95250000D01*
X147447000Y-70200762D02*
X147447000Y-68199000D01*
X147447000Y-68199000D02*
X145796000Y-66548000D01*
X147574000Y-71247000D02*
X147574000Y-70327762D01*
X147574000Y-70327762D02*
X147447000Y-70200762D01*
D38*
X149630000Y-92964000D02*
X149731374Y-92964000D01*
X149731374Y-92964000D02*
X150109148Y-92586226D01*
X150109148Y-92586226D02*
X150110774Y-92586226D01*
X150110774Y-92586226D02*
X150641425Y-92055575D01*
X150641425Y-92055575D02*
X150641425Y-90846575D01*
X150641425Y-90846575D02*
X151372000Y-90116000D01*
D37*
X129540000Y-56515000D02*
X130555999Y-57530999D01*
X130555999Y-57530999D02*
X130555999Y-58927999D01*
X128524000Y-58198000D02*
X128524000Y-57531000D01*
X128524000Y-57531000D02*
X129540000Y-56515000D01*
D36*
X151372000Y-90116000D02*
X151372000Y-89916000D01*
D37*
X145288000Y-85598000D02*
X146177000Y-84709000D01*
X146177000Y-84709000D02*
X146177000Y-84201000D01*
X144273000Y-85598000D02*
X145288000Y-85598000D01*
X144248000Y-85598000D02*
X144273000Y-85598000D01*
X151372000Y-89916000D02*
X151372000Y-88507000D01*
X151372000Y-88507000D02*
X151130000Y-88265000D01*
X149740001Y-84478001D02*
X149740001Y-86518001D01*
X147816000Y-89395000D02*
X147816000Y-90170000D01*
X148590000Y-84328000D02*
X149590000Y-84328000D01*
X149590000Y-84328000D02*
X149740001Y-84478001D01*
X149740001Y-86518001D02*
X147816000Y-88442002D01*
X147816000Y-88442002D02*
X147816000Y-89395000D01*
X144248000Y-85598000D02*
X144248000Y-86348000D01*
X144248000Y-86348000D02*
X144780000Y-86880000D01*
D36*
X133002000Y-86995000D02*
X132002000Y-86995000D01*
X139167000Y-81026000D02*
X133198000Y-86995000D01*
X133198000Y-86995000D02*
X133002000Y-86995000D01*
X139192000Y-81026000D02*
X139167000Y-81026000D01*
D37*
X146745960Y-93218000D02*
X148082000Y-93218000D01*
X148082000Y-93218000D02*
X148336000Y-92964000D01*
D36*
X137414000Y-80010000D02*
X137123000Y-80010000D01*
X134620000Y-82513000D02*
X134620000Y-82538000D01*
X137123000Y-80010000D02*
X134620000Y-82513000D01*
X139966000Y-79166000D02*
X139966000Y-80252000D01*
X139966000Y-80252000D02*
X139192000Y-81026000D01*
X139966000Y-79166000D02*
X139966000Y-77966000D01*
X139966000Y-77966000D02*
X140066000Y-77866000D01*
D37*
X128778000Y-88392000D02*
X127786013Y-89383987D01*
X127786013Y-89383987D02*
X127786013Y-96544013D01*
X127786013Y-96544013D02*
X128270000Y-97028000D01*
X128778000Y-88392000D02*
X130429000Y-86741000D01*
X130429000Y-86741000D02*
X130429000Y-84963000D01*
X146546000Y-91440000D02*
X147816000Y-90170000D01*
X128524000Y-58198000D02*
X131005943Y-60679943D01*
X131005943Y-60679943D02*
X134254483Y-60679943D01*
X134254483Y-60679943D02*
X137397864Y-57536562D01*
X137397864Y-57536562D02*
X137847863Y-57086563D01*
X149872000Y-89916000D02*
X149872000Y-87643071D01*
X150238270Y-87276801D02*
X150888269Y-86626802D01*
X149872000Y-87643071D02*
X150238270Y-87276801D01*
D36*
X148336000Y-91464000D02*
X149860000Y-91464000D01*
X149860000Y-91464000D02*
X149884000Y-91440000D01*
X149884000Y-91440000D02*
X149884000Y-89928000D01*
X149884000Y-89928000D02*
X149872000Y-89916000D01*
D37*
X146745960Y-92567760D02*
X147208240Y-92567760D01*
X147208240Y-92567760D02*
X148336000Y-91440000D01*
D36*
X148336000Y-91440000D02*
X148193760Y-91297760D01*
D37*
X134080000Y-58928000D02*
X134080000Y-58228036D01*
X134080000Y-58228036D02*
X135696725Y-56611311D01*
X151130000Y-92964000D02*
X151130000Y-94730000D01*
X151130000Y-94730000D02*
X150610000Y-95250000D01*
D36*
X150717963Y-95089795D02*
X150603857Y-95203901D01*
X139466000Y-79166000D02*
X139352585Y-79166000D01*
X139352585Y-79166000D02*
X138714000Y-79804585D01*
D37*
X141302000Y-95885000D02*
X139352000Y-95885000D01*
X132207000Y-71120000D02*
X132207000Y-72771000D01*
X132207000Y-72771000D02*
X132588000Y-73152000D01*
X132588000Y-70739000D02*
X132207000Y-71120000D01*
X132588000Y-70231000D02*
X132588000Y-70739000D01*
D36*
X148786312Y-81432959D02*
X147867074Y-81432959D01*
X150569961Y-81432959D02*
X148786312Y-81432959D01*
X152146000Y-83008998D02*
X150569961Y-81432959D01*
X152146000Y-92402000D02*
X152146000Y-83008998D01*
X131976927Y-84351927D02*
X130882000Y-83257000D01*
X131976927Y-84351927D02*
X132461000Y-84836000D01*
X134507000Y-84836000D02*
X132461000Y-84836000D01*
X130882000Y-83257000D02*
X130882000Y-80938000D01*
X130882000Y-80938000D02*
X131932000Y-79888000D01*
X131932000Y-79888000D02*
X131932000Y-79238000D01*
X137692000Y-81026000D02*
X137692000Y-81651000D01*
X137692000Y-81651000D02*
X134507000Y-84836000D01*
X139466000Y-79166000D02*
X139466000Y-79441000D01*
X139466000Y-79441000D02*
X137881000Y-81026000D01*
X137881000Y-81026000D02*
X137692000Y-81026000D01*
D37*
X152146000Y-95134002D02*
X152146000Y-92402000D01*
X152146000Y-92402000D02*
X151384000Y-91640000D01*
X151384000Y-91640000D02*
X151384000Y-91440000D01*
X141986000Y-97282000D02*
X149998002Y-97282000D01*
X149998002Y-97282000D02*
X152146000Y-95134002D01*
X140450000Y-97790000D02*
X141478000Y-97790000D01*
X141478000Y-97790000D02*
X141986000Y-97282000D01*
X145046000Y-91440000D02*
X146316000Y-90170000D01*
X143190499Y-92128613D02*
X143665175Y-91653937D01*
X143665175Y-91653937D02*
X144832063Y-91653937D01*
X144832063Y-91653937D02*
X145046000Y-91440000D01*
X144846040Y-93218000D02*
X144279886Y-93218000D01*
X144279886Y-93218000D02*
X143190499Y-92128613D01*
X132588000Y-73152000D02*
X132588000Y-65643084D01*
X132588000Y-65643084D02*
X137398693Y-60832391D01*
X137398693Y-60832391D02*
X137848692Y-60382392D01*
X137252930Y-73152000D02*
X132588000Y-73152000D01*
X137438000Y-72966930D02*
X137252930Y-73152000D01*
X137438000Y-72966930D02*
X137438000Y-73636000D01*
X137438000Y-72136000D02*
X137438000Y-72966930D01*
X137438000Y-73636000D02*
X137414000Y-73660000D01*
X141986000Y-97282000D02*
X141986000Y-96569000D01*
X141986000Y-96569000D02*
X141302000Y-95885000D01*
D36*
X141212000Y-85471000D02*
X142621000Y-85471000D01*
X142621000Y-85471000D02*
X142748000Y-85598000D01*
X140843000Y-86995000D02*
X141212000Y-86626000D01*
X141212000Y-86626000D02*
X141212000Y-85471000D01*
X139352000Y-86995000D02*
X140843000Y-86995000D01*
D37*
X128524000Y-62992000D02*
X128524000Y-61468000D01*
X141302000Y-93345000D02*
X139352000Y-93345000D01*
X141302000Y-93345000D02*
X142124935Y-93345000D01*
X142124935Y-93345000D02*
X144013158Y-95233223D01*
X145542000Y-95250000D02*
X146570000Y-95250000D01*
X145542000Y-95250000D02*
X145542000Y-94564200D01*
X145542000Y-94564200D02*
X144846040Y-93868240D01*
X149478755Y-64094753D02*
X149478755Y-76336353D01*
X149478755Y-76336353D02*
X147508741Y-78306367D01*
X133496000Y-56515000D02*
X135401000Y-54610000D01*
X139994002Y-54610000D02*
X149478755Y-64094753D01*
X147508741Y-78306367D02*
X146858742Y-78956366D01*
X132080000Y-56515000D02*
X133496000Y-56515000D01*
X135401000Y-54610000D02*
X139994002Y-54610000D01*
X134178000Y-79690000D02*
X132334000Y-81534000D01*
X134178000Y-78994000D02*
X134178000Y-79690000D01*
X132080000Y-56515000D02*
X132080000Y-58928000D01*
X130556000Y-89650000D02*
X133837000Y-89650000D01*
X133837000Y-89650000D02*
X133952000Y-89535000D01*
D36*
X130671000Y-89535000D02*
X130556000Y-89650000D01*
D37*
X130556000Y-88150000D02*
X133837000Y-88150000D01*
X133837000Y-88150000D02*
X133952000Y-88265000D01*
X130690622Y-88284622D02*
X130671000Y-88265000D01*
D36*
X130671000Y-88265000D02*
X130556000Y-88150000D01*
D37*
X147160362Y-76184000D02*
X147293477Y-76317115D01*
X145796000Y-76184000D02*
X147160362Y-76184000D01*
D36*
X142666000Y-75966000D02*
X145578000Y-75966000D01*
X145578000Y-75966000D02*
X145796000Y-76184000D01*
D37*
X130556000Y-94488000D02*
X133825000Y-94488000D01*
X133825000Y-94488000D02*
X133952000Y-94615000D01*
X132002000Y-94615000D02*
X130683000Y-94615000D01*
D36*
X130683000Y-94615000D02*
X130556000Y-94488000D01*
X136271000Y-98655000D02*
X135571000Y-98655000D01*
X135571000Y-98655000D02*
X135562827Y-98663173D01*
X135562827Y-98663173D02*
X135271287Y-98663173D01*
D37*
X135271287Y-98663173D02*
X135293645Y-98640815D01*
X135293645Y-98640815D02*
X135293645Y-87518266D01*
X135293645Y-87518266D02*
X136957750Y-85854161D01*
X136957750Y-85854161D02*
X137422223Y-85854161D01*
X137422223Y-85854161D02*
X137853520Y-85422864D01*
X137853520Y-85422864D02*
X139667177Y-85422864D01*
X139667177Y-85422864D02*
X139722472Y-85478159D01*
X139722472Y-85478159D02*
X139678908Y-85521723D01*
X135995244Y-98794000D02*
X137160000Y-98794000D01*
X138237656Y-98794000D02*
X137160000Y-98794000D01*
X139700000Y-98794000D02*
X143072056Y-98794000D01*
X143072056Y-98794000D02*
X143757860Y-98108196D01*
X138237656Y-98794000D02*
X132512000Y-98794000D01*
X139700000Y-98794000D02*
X138237656Y-98794000D01*
X132512000Y-98794000D02*
X129056000Y-95338000D01*
X129056000Y-95338000D02*
X129056000Y-94488000D01*
X136271000Y-94006000D02*
X138202000Y-92075000D01*
X136271000Y-97155000D02*
X136271000Y-94006000D01*
X138202000Y-92075000D02*
X139352000Y-92075000D01*
X141302000Y-94615000D02*
X139352000Y-94615000D01*
X143790906Y-96422841D02*
X141983065Y-94615000D01*
X141983065Y-94615000D02*
X141302000Y-94615000D01*
D38*
X140966000Y-79166000D02*
X140966000Y-81418762D01*
X140966000Y-81418762D02*
X139765291Y-82619471D01*
X139765291Y-82619471D02*
X141303817Y-84157997D01*
X141303817Y-84157997D02*
X143523001Y-84157997D01*
X143523001Y-84157997D02*
X150393651Y-77287347D01*
X150393651Y-77287347D02*
X150393651Y-62538607D01*
D37*
X146745960Y-93868240D02*
X146745960Y-93925960D01*
X146745960Y-93925960D02*
X148070000Y-95250000D01*
X148070000Y-95250000D02*
X149110000Y-95250000D01*
X130290000Y-90932000D02*
X133825000Y-90932000D01*
X133825000Y-90932000D02*
X133952000Y-90805000D01*
X130417000Y-90805000D02*
X130290000Y-90932000D01*
X141302000Y-89535000D02*
X139352000Y-89535000D01*
X141302000Y-89535000D02*
X143654730Y-89535000D01*
X143654730Y-89535000D02*
X144780000Y-88409730D01*
X144780000Y-88409730D02*
X144780000Y-88380000D01*
X141302000Y-90805000D02*
X139352000Y-90805000D01*
X141302000Y-90805000D02*
X143933000Y-90805000D01*
X143933000Y-90805000D02*
X146358000Y-88380000D01*
X146358000Y-88380000D02*
X146558000Y-88380000D01*
X146558000Y-86880000D02*
X147308000Y-86880000D01*
X147308000Y-86880000D02*
X148590000Y-85598000D01*
D36*
X140466000Y-79166000D02*
X140466000Y-81006128D01*
X139115917Y-83716915D02*
X140095001Y-84695999D01*
X140466000Y-81006128D02*
X139115917Y-82356211D01*
X139115917Y-82356211D02*
X139115917Y-83716915D01*
X140095001Y-84695999D02*
X140222001Y-84695999D01*
X140287001Y-84760999D02*
X140287001Y-84887999D01*
X140190735Y-86277267D02*
X138220267Y-86277267D01*
X140222001Y-84695999D02*
X140287001Y-84760999D01*
X140496595Y-85971407D02*
X140190735Y-86277267D01*
X140287001Y-84887999D02*
X140496595Y-85097593D01*
X140496595Y-85097593D02*
X140496595Y-85971407D01*
X138220267Y-86277267D02*
X137795000Y-86702534D01*
X137795000Y-86702534D02*
X137795000Y-87597659D01*
X137795000Y-87597659D02*
X138462341Y-88265000D01*
X138462341Y-88265000D02*
X139352000Y-88265000D01*
D37*
X139352000Y-88265000D02*
X143153000Y-88265000D01*
X143153000Y-88265000D02*
X143256000Y-88368000D01*
D36*
X140852000Y-88265000D02*
X141302000Y-88265000D01*
D37*
X141302000Y-88265000D02*
X143153000Y-88265000D01*
X144956876Y-80164433D02*
X144956876Y-81083671D01*
X143308444Y-78516001D02*
X144956876Y-80164433D01*
X142666000Y-78516001D02*
X143308444Y-78516001D01*
X136078000Y-78994000D02*
X136078000Y-79580000D01*
X136078000Y-79580000D02*
X134620000Y-81038000D01*
X137414000Y-78510000D02*
X136562000Y-78510000D01*
X136562000Y-78510000D02*
X136078000Y-78994000D01*
D36*
X138766000Y-78466000D02*
X137458000Y-78466000D01*
X137458000Y-78466000D02*
X137414000Y-78510000D01*
D37*
X139954000Y-73660000D02*
X138914000Y-73660000D01*
X138938000Y-72136000D02*
X139954000Y-72136000D01*
X129540000Y-93472000D02*
X133825000Y-93472000D01*
X133825000Y-93472000D02*
X133952000Y-93345000D01*
D36*
X130683000Y-93345000D02*
X130556000Y-93472000D01*
X130556000Y-93472000D02*
X129540000Y-93472000D01*
X132002000Y-93345000D02*
X130683000Y-93345000D01*
X131932000Y-77988000D02*
X132982000Y-77988000D01*
X132982000Y-77988000D02*
X133504000Y-77466000D01*
X133504000Y-77466000D02*
X138091000Y-77466000D01*
X138091000Y-77466000D02*
X138766000Y-77466000D01*
X131932000Y-76738000D02*
X132982000Y-76738000D01*
X133210000Y-76966000D02*
X138091000Y-76966000D01*
X132982000Y-76738000D02*
X133210000Y-76966000D01*
X138091000Y-76966000D02*
X138766000Y-76966000D01*
X141466000Y-75266000D02*
X141466000Y-73673400D01*
X141466000Y-73673400D02*
X141452600Y-73660000D01*
X142494000Y-74422000D02*
X142494000Y-72528620D01*
X142494000Y-72528620D02*
X142101380Y-72136000D01*
X142101380Y-72136000D02*
X141452600Y-72136000D01*
X141966000Y-74950000D02*
X142494000Y-74422000D01*
X141966000Y-75266000D02*
X141966000Y-74950000D01*
X141966000Y-75266000D02*
X141966000Y-74991000D01*
D37*
X142401643Y-81658441D02*
X143051642Y-82308440D01*
X142016001Y-79166000D02*
X142016001Y-81272799D01*
X142016001Y-81272799D02*
X142401643Y-81658441D01*
D36*
X141466000Y-82393228D02*
X141240266Y-82618962D01*
X141466000Y-79166000D02*
X141466000Y-82393228D01*
D37*
X133952000Y-92075000D02*
X129643000Y-92075000D01*
X129643000Y-92075000D02*
X129540000Y-91972000D01*
X132002000Y-92075000D02*
X133952000Y-92075000D01*
D36*
X132002000Y-92075000D02*
X129643000Y-92075000D01*
D39*
G36*
X138432302Y-81939327D02*
X138483750Y-81960638D01*
X138413769Y-82065372D01*
X138355917Y-82356211D01*
X138355917Y-83716915D01*
X138413769Y-84007754D01*
X138578516Y-84254316D01*
X138912064Y-84587864D01*
X137853520Y-84587864D01*
X137533979Y-84651425D01*
X137357851Y-84769110D01*
X137263086Y-84832430D01*
X137076355Y-85019161D01*
X136957750Y-85019161D01*
X136638209Y-85082722D01*
X136428268Y-85223000D01*
X136367316Y-85263727D01*
X135256558Y-86374485D01*
X135240327Y-86335301D01*
X135061698Y-86156673D01*
X134828309Y-86060000D01*
X134237750Y-86060000D01*
X134079000Y-86218750D01*
X134079000Y-86868000D01*
X134099000Y-86868000D01*
X134099000Y-87122000D01*
X134079000Y-87122000D01*
X134079000Y-87142000D01*
X133825000Y-87142000D01*
X133825000Y-87122000D01*
X132725750Y-87122000D01*
X132567000Y-87280750D01*
X132567000Y-87315000D01*
X131405669Y-87315000D01*
X131395090Y-87298559D01*
X131182890Y-87153569D01*
X130931000Y-87102560D01*
X130181000Y-87102560D01*
X129945683Y-87146838D01*
X129729559Y-87285910D01*
X129584569Y-87498110D01*
X129533560Y-87750000D01*
X129533560Y-88550000D01*
X129577838Y-88785317D01*
X129651620Y-88899978D01*
X129584569Y-88998110D01*
X129533560Y-89250000D01*
X129533560Y-90050000D01*
X129539942Y-90083916D01*
X129399698Y-89943673D01*
X129166309Y-89847000D01*
X129073750Y-89847000D01*
X128915000Y-90005750D01*
X128915000Y-90805000D01*
X128937000Y-90805000D01*
X128937000Y-91059000D01*
X128915000Y-91059000D01*
X128915000Y-91079000D01*
X128665000Y-91079000D01*
X128665000Y-91059000D01*
X128063750Y-91059000D01*
X127905000Y-91217750D01*
X127905000Y-91508310D01*
X128001673Y-91741699D01*
X128180302Y-91920327D01*
X128413691Y-92017000D01*
X128442560Y-92017000D01*
X128442560Y-92222000D01*
X128486838Y-92457317D01*
X128625910Y-92673441D01*
X128695711Y-92721134D01*
X128638559Y-92757910D01*
X128493569Y-92970110D01*
X128442560Y-93222000D01*
X128442560Y-93517283D01*
X128354559Y-93573910D01*
X128209569Y-93786110D01*
X128158560Y-94038000D01*
X128158560Y-94938000D01*
X128202838Y-95173317D01*
X128221000Y-95201542D01*
X128221000Y-95338000D01*
X128284561Y-95657541D01*
X128436544Y-95885000D01*
X128465566Y-95928434D01*
X131420132Y-98883000D01*
X127685000Y-98883000D01*
X127685000Y-90355690D01*
X127905000Y-90355690D01*
X127905000Y-90646250D01*
X128063750Y-90805000D01*
X128665000Y-90805000D01*
X128665000Y-90005750D01*
X128506250Y-89847000D01*
X128413691Y-89847000D01*
X128180302Y-89943673D01*
X128001673Y-90122301D01*
X127905000Y-90355690D01*
X127685000Y-90355690D01*
X127685000Y-86568690D01*
X132567000Y-86568690D01*
X132567000Y-86709250D01*
X132725750Y-86868000D01*
X133825000Y-86868000D01*
X133825000Y-86218750D01*
X133666250Y-86060000D01*
X133075691Y-86060000D01*
X132842302Y-86156673D01*
X132663673Y-86335301D01*
X132567000Y-86568690D01*
X127685000Y-86568690D01*
X127685000Y-83485440D01*
X130167440Y-83485440D01*
X130179852Y-83547839D01*
X130344599Y-83794401D01*
X131525878Y-84975680D01*
X131525838Y-85021167D01*
X131667883Y-85364943D01*
X131930673Y-85628192D01*
X132274201Y-85770838D01*
X132646167Y-85771162D01*
X132989943Y-85629117D01*
X133023118Y-85596000D01*
X134507000Y-85596000D01*
X134797839Y-85538148D01*
X135044401Y-85373401D01*
X138229401Y-82188401D01*
X138371505Y-81975728D01*
X138430646Y-81937671D01*
X138432302Y-81939327D01*
X138432302Y-81939327D01*
G37*
X138432302Y-81939327D02*
X138483750Y-81960638D01*
X138413769Y-82065372D01*
X138355917Y-82356211D01*
X138355917Y-83716915D01*
X138413769Y-84007754D01*
X138578516Y-84254316D01*
X138912064Y-84587864D01*
X137853520Y-84587864D01*
X137533979Y-84651425D01*
X137357851Y-84769110D01*
X137263086Y-84832430D01*
X137076355Y-85019161D01*
X136957750Y-85019161D01*
X136638209Y-85082722D01*
X136428268Y-85223000D01*
X136367316Y-85263727D01*
X135256558Y-86374485D01*
X135240327Y-86335301D01*
X135061698Y-86156673D01*
X134828309Y-86060000D01*
X134237750Y-86060000D01*
X134079000Y-86218750D01*
X134079000Y-86868000D01*
X134099000Y-86868000D01*
X134099000Y-87122000D01*
X134079000Y-87122000D01*
X134079000Y-87142000D01*
X133825000Y-87142000D01*
X133825000Y-87122000D01*
X132725750Y-87122000D01*
X132567000Y-87280750D01*
X132567000Y-87315000D01*
X131405669Y-87315000D01*
X131395090Y-87298559D01*
X131182890Y-87153569D01*
X130931000Y-87102560D01*
X130181000Y-87102560D01*
X129945683Y-87146838D01*
X129729559Y-87285910D01*
X129584569Y-87498110D01*
X129533560Y-87750000D01*
X129533560Y-88550000D01*
X129577838Y-88785317D01*
X129651620Y-88899978D01*
X129584569Y-88998110D01*
X129533560Y-89250000D01*
X129533560Y-90050000D01*
X129539942Y-90083916D01*
X129399698Y-89943673D01*
X129166309Y-89847000D01*
X129073750Y-89847000D01*
X128915000Y-90005750D01*
X128915000Y-90805000D01*
X128937000Y-90805000D01*
X128937000Y-91059000D01*
X128915000Y-91059000D01*
X128915000Y-91079000D01*
X128665000Y-91079000D01*
X128665000Y-91059000D01*
X128063750Y-91059000D01*
X127905000Y-91217750D01*
X127905000Y-91508310D01*
X128001673Y-91741699D01*
X128180302Y-91920327D01*
X128413691Y-92017000D01*
X128442560Y-92017000D01*
X128442560Y-92222000D01*
X128486838Y-92457317D01*
X128625910Y-92673441D01*
X128695711Y-92721134D01*
X128638559Y-92757910D01*
X128493569Y-92970110D01*
X128442560Y-93222000D01*
X128442560Y-93517283D01*
X128354559Y-93573910D01*
X128209569Y-93786110D01*
X128158560Y-94038000D01*
X128158560Y-94938000D01*
X128202838Y-95173317D01*
X128221000Y-95201542D01*
X128221000Y-95338000D01*
X128284561Y-95657541D01*
X128436544Y-95885000D01*
X128465566Y-95928434D01*
X131420132Y-98883000D01*
X127685000Y-98883000D01*
X127685000Y-90355690D01*
X127905000Y-90355690D01*
X127905000Y-90646250D01*
X128063750Y-90805000D01*
X128665000Y-90805000D01*
X128665000Y-90005750D01*
X128506250Y-89847000D01*
X128413691Y-89847000D01*
X128180302Y-89943673D01*
X128001673Y-90122301D01*
X127905000Y-90355690D01*
X127685000Y-90355690D01*
X127685000Y-86568690D01*
X132567000Y-86568690D01*
X132567000Y-86709250D01*
X132725750Y-86868000D01*
X133825000Y-86868000D01*
X133825000Y-86218750D01*
X133666250Y-86060000D01*
X133075691Y-86060000D01*
X132842302Y-86156673D01*
X132663673Y-86335301D01*
X132567000Y-86568690D01*
X127685000Y-86568690D01*
X127685000Y-83485440D01*
X130167440Y-83485440D01*
X130179852Y-83547839D01*
X130344599Y-83794401D01*
X131525878Y-84975680D01*
X131525838Y-85021167D01*
X131667883Y-85364943D01*
X131930673Y-85628192D01*
X132274201Y-85770838D01*
X132646167Y-85771162D01*
X132989943Y-85629117D01*
X133023118Y-85596000D01*
X134507000Y-85596000D01*
X134797839Y-85538148D01*
X135044401Y-85373401D01*
X138229401Y-82188401D01*
X138371505Y-81975728D01*
X138430646Y-81937671D01*
X138432302Y-81939327D01*
G36*
X137954560Y-93645000D02*
X137998838Y-93880317D01*
X138062678Y-93979528D01*
X138005569Y-94063110D01*
X137954560Y-94315000D01*
X137954560Y-94915000D01*
X137998838Y-95150317D01*
X138062678Y-95249528D01*
X138005569Y-95333110D01*
X137954560Y-95585000D01*
X137954560Y-96185000D01*
X137998838Y-96420317D01*
X138137910Y-96636441D01*
X138350110Y-96781431D01*
X138397210Y-96790969D01*
X138190302Y-96876673D01*
X138011673Y-97055301D01*
X137915000Y-97288690D01*
X137915000Y-97504250D01*
X138073750Y-97663000D01*
X138823000Y-97663000D01*
X138823000Y-97643000D01*
X139077000Y-97643000D01*
X139077000Y-97663000D01*
X139097000Y-97663000D01*
X139097000Y-97917000D01*
X139077000Y-97917000D01*
X139077000Y-97937000D01*
X138823000Y-97937000D01*
X138823000Y-97917000D01*
X138073750Y-97917000D01*
X138031750Y-97959000D01*
X137188591Y-97959000D01*
X137185090Y-97953559D01*
X137115289Y-97905866D01*
X137172441Y-97869090D01*
X137317431Y-97656890D01*
X137368440Y-97405000D01*
X137368440Y-96905000D01*
X137324162Y-96669683D01*
X137185090Y-96453559D01*
X137106000Y-96399519D01*
X137106000Y-94351868D01*
X137954560Y-93503308D01*
X137954560Y-93645000D01*
X137954560Y-93645000D01*
G37*
X137954560Y-93645000D02*
X137998838Y-93880317D01*
X138062678Y-93979528D01*
X138005569Y-94063110D01*
X137954560Y-94315000D01*
X137954560Y-94915000D01*
X137998838Y-95150317D01*
X138062678Y-95249528D01*
X138005569Y-95333110D01*
X137954560Y-95585000D01*
X137954560Y-96185000D01*
X137998838Y-96420317D01*
X138137910Y-96636441D01*
X138350110Y-96781431D01*
X138397210Y-96790969D01*
X138190302Y-96876673D01*
X138011673Y-97055301D01*
X137915000Y-97288690D01*
X137915000Y-97504250D01*
X138073750Y-97663000D01*
X138823000Y-97663000D01*
X138823000Y-97643000D01*
X139077000Y-97643000D01*
X139077000Y-97663000D01*
X139097000Y-97663000D01*
X139097000Y-97917000D01*
X139077000Y-97917000D01*
X139077000Y-97937000D01*
X138823000Y-97937000D01*
X138823000Y-97917000D01*
X138073750Y-97917000D01*
X138031750Y-97959000D01*
X137188591Y-97959000D01*
X137185090Y-97953559D01*
X137115289Y-97905866D01*
X137172441Y-97869090D01*
X137317431Y-97656890D01*
X137368440Y-97405000D01*
X137368440Y-96905000D01*
X137324162Y-96669683D01*
X137185090Y-96453559D01*
X137106000Y-96399519D01*
X137106000Y-94351868D01*
X137954560Y-93503308D01*
X137954560Y-93645000D01*
G36*
X148463000Y-92837000D02*
X149503000Y-92837000D01*
X149503000Y-92817000D01*
X149757000Y-92817000D01*
X149757000Y-92837000D01*
X149777000Y-92837000D01*
X149777000Y-93091000D01*
X149757000Y-93091000D01*
X149757000Y-93815250D01*
X149915750Y-93974000D01*
X150156309Y-93974000D01*
X150295000Y-93916552D01*
X150295000Y-94164791D01*
X150124683Y-94196838D01*
X149908559Y-94335910D01*
X149860866Y-94405711D01*
X149824090Y-94348559D01*
X149611890Y-94203569D01*
X149360000Y-94152560D01*
X148860000Y-94152560D01*
X148624683Y-94196838D01*
X148592422Y-94217598D01*
X148571890Y-94203569D01*
X148320000Y-94152560D01*
X148153428Y-94152560D01*
X147999868Y-93999000D01*
X148050250Y-93999000D01*
X148209000Y-93840250D01*
X148209000Y-93091000D01*
X148463000Y-93091000D01*
X148463000Y-93840250D01*
X148621750Y-93999000D01*
X148837310Y-93999000D01*
X149000678Y-93931331D01*
X149103691Y-93974000D01*
X149344250Y-93974000D01*
X149503000Y-93815250D01*
X149503000Y-93091000D01*
X148463000Y-93091000D01*
X148209000Y-93091000D01*
X148189000Y-93091000D01*
X148189000Y-92837000D01*
X148209000Y-92837000D01*
X148209000Y-92817000D01*
X148463000Y-92817000D01*
X148463000Y-92837000D01*
X148463000Y-92837000D01*
G37*
X148463000Y-92837000D02*
X149503000Y-92837000D01*
X149503000Y-92817000D01*
X149757000Y-92817000D01*
X149757000Y-92837000D01*
X149777000Y-92837000D01*
X149777000Y-93091000D01*
X149757000Y-93091000D01*
X149757000Y-93815250D01*
X149915750Y-93974000D01*
X150156309Y-93974000D01*
X150295000Y-93916552D01*
X150295000Y-94164791D01*
X150124683Y-94196838D01*
X149908559Y-94335910D01*
X149860866Y-94405711D01*
X149824090Y-94348559D01*
X149611890Y-94203569D01*
X149360000Y-94152560D01*
X148860000Y-94152560D01*
X148624683Y-94196838D01*
X148592422Y-94217598D01*
X148571890Y-94203569D01*
X148320000Y-94152560D01*
X148153428Y-94152560D01*
X147999868Y-93999000D01*
X148050250Y-93999000D01*
X148209000Y-93840250D01*
X148209000Y-93091000D01*
X148463000Y-93091000D01*
X148463000Y-93840250D01*
X148621750Y-93999000D01*
X148837310Y-93999000D01*
X149000678Y-93931331D01*
X149103691Y-93974000D01*
X149344250Y-93974000D01*
X149503000Y-93815250D01*
X149503000Y-93091000D01*
X148463000Y-93091000D01*
X148209000Y-93091000D01*
X148189000Y-93091000D01*
X148189000Y-92837000D01*
X148209000Y-92837000D01*
X148209000Y-92817000D01*
X148463000Y-92817000D01*
X148463000Y-92837000D01*
G36*
X146673000Y-91313000D02*
X146693000Y-91313000D01*
X146693000Y-91567000D01*
X146673000Y-91567000D01*
X146673000Y-91587000D01*
X146419000Y-91587000D01*
X146419000Y-91567000D01*
X146399000Y-91567000D01*
X146399000Y-91313000D01*
X146419000Y-91313000D01*
X146419000Y-91293000D01*
X146673000Y-91293000D01*
X146673000Y-91313000D01*
X146673000Y-91313000D01*
G37*
X146673000Y-91313000D02*
X146693000Y-91313000D01*
X146693000Y-91567000D01*
X146673000Y-91567000D01*
X146673000Y-91587000D01*
X146419000Y-91587000D01*
X146419000Y-91567000D01*
X146399000Y-91567000D01*
X146399000Y-91313000D01*
X146419000Y-91313000D01*
X146419000Y-91293000D01*
X146673000Y-91293000D01*
X146673000Y-91313000D01*
G36*
X149281566Y-87052637D02*
X149100561Y-87323530D01*
X149037000Y-87643071D01*
X149037000Y-89197380D01*
X149025569Y-89214110D01*
X148974560Y-89466000D01*
X148974560Y-90366000D01*
X148998213Y-90491704D01*
X148962890Y-90467569D01*
X148837408Y-90442158D01*
X148692250Y-90297000D01*
X147943000Y-90297000D01*
X147943000Y-90317000D01*
X147689000Y-90317000D01*
X147689000Y-90297000D01*
X147669000Y-90297000D01*
X147669000Y-90043000D01*
X147689000Y-90043000D01*
X147689000Y-89318750D01*
X147943000Y-89318750D01*
X147943000Y-90043000D01*
X148692250Y-90043000D01*
X148851000Y-89884250D01*
X148851000Y-89668690D01*
X148754327Y-89435301D01*
X148575698Y-89256673D01*
X148342309Y-89160000D01*
X148101750Y-89160000D01*
X147943000Y-89318750D01*
X147689000Y-89318750D01*
X147530250Y-89160000D01*
X147357014Y-89160000D01*
X147459441Y-89094090D01*
X147604431Y-88881890D01*
X147655440Y-88630000D01*
X147655440Y-88130000D01*
X147611162Y-87894683D01*
X147474259Y-87681929D01*
X147627541Y-87651439D01*
X147898434Y-87470434D01*
X148523428Y-86845440D01*
X149340000Y-86845440D01*
X149523242Y-86810961D01*
X149281566Y-87052637D01*
X149281566Y-87052637D01*
G37*
X149281566Y-87052637D02*
X149100561Y-87323530D01*
X149037000Y-87643071D01*
X149037000Y-89197380D01*
X149025569Y-89214110D01*
X148974560Y-89466000D01*
X148974560Y-90366000D01*
X148998213Y-90491704D01*
X148962890Y-90467569D01*
X148837408Y-90442158D01*
X148692250Y-90297000D01*
X147943000Y-90297000D01*
X147943000Y-90317000D01*
X147689000Y-90317000D01*
X147689000Y-90297000D01*
X147669000Y-90297000D01*
X147669000Y-90043000D01*
X147689000Y-90043000D01*
X147689000Y-89318750D01*
X147943000Y-89318750D01*
X147943000Y-90043000D01*
X148692250Y-90043000D01*
X148851000Y-89884250D01*
X148851000Y-89668690D01*
X148754327Y-89435301D01*
X148575698Y-89256673D01*
X148342309Y-89160000D01*
X148101750Y-89160000D01*
X147943000Y-89318750D01*
X147689000Y-89318750D01*
X147530250Y-89160000D01*
X147357014Y-89160000D01*
X147459441Y-89094090D01*
X147604431Y-88881890D01*
X147655440Y-88630000D01*
X147655440Y-88130000D01*
X147611162Y-87894683D01*
X147474259Y-87681929D01*
X147627541Y-87651439D01*
X147898434Y-87470434D01*
X148523428Y-86845440D01*
X149340000Y-86845440D01*
X149523242Y-86810961D01*
X149281566Y-87052637D01*
G36*
X151386000Y-90063000D02*
X151247000Y-90063000D01*
X151247000Y-90043000D01*
X151225000Y-90043000D01*
X151225000Y-89789000D01*
X151247000Y-89789000D01*
X151247000Y-88989750D01*
X151088250Y-88831000D01*
X150995691Y-88831000D01*
X150762302Y-88927673D01*
X150707000Y-88982975D01*
X150707000Y-87988939D01*
X150784227Y-87911712D01*
X151142750Y-87912025D01*
X151386000Y-87811516D01*
X151386000Y-90063000D01*
X151386000Y-90063000D01*
G37*
X151386000Y-90063000D02*
X151247000Y-90063000D01*
X151247000Y-90043000D01*
X151225000Y-90043000D01*
X151225000Y-89789000D01*
X151247000Y-89789000D01*
X151247000Y-88989750D01*
X151088250Y-88831000D01*
X150995691Y-88831000D01*
X150762302Y-88927673D01*
X150707000Y-88982975D01*
X150707000Y-87988939D01*
X150784227Y-87911712D01*
X151142750Y-87912025D01*
X151386000Y-87811516D01*
X151386000Y-90063000D01*
G36*
X142096110Y-86569431D02*
X142171435Y-86584685D01*
X142329750Y-86743000D01*
X143129000Y-86743000D01*
X143129000Y-86721000D01*
X143383000Y-86721000D01*
X143383000Y-86743000D01*
X143841750Y-86743000D01*
X143853750Y-86755000D01*
X144653000Y-86755000D01*
X144653000Y-86733000D01*
X144907000Y-86733000D01*
X144907000Y-86755000D01*
X144927000Y-86755000D01*
X144927000Y-87005000D01*
X144907000Y-87005000D01*
X144907000Y-87027000D01*
X144653000Y-87027000D01*
X144653000Y-87005000D01*
X144194250Y-87005000D01*
X144182250Y-86993000D01*
X143383000Y-86993000D01*
X143383000Y-87015000D01*
X143129000Y-87015000D01*
X143129000Y-86993000D01*
X142329750Y-86993000D01*
X142171000Y-87151750D01*
X142171000Y-87244309D01*
X142247916Y-87430000D01*
X141482802Y-87430000D01*
X141749401Y-87163401D01*
X141914148Y-86916839D01*
X141972000Y-86626000D01*
X141972000Y-86484630D01*
X142096110Y-86569431D01*
X142096110Y-86569431D01*
G37*
X142096110Y-86569431D02*
X142171435Y-86584685D01*
X142329750Y-86743000D01*
X143129000Y-86743000D01*
X143129000Y-86721000D01*
X143383000Y-86721000D01*
X143383000Y-86743000D01*
X143841750Y-86743000D01*
X143853750Y-86755000D01*
X144653000Y-86755000D01*
X144653000Y-86733000D01*
X144907000Y-86733000D01*
X144907000Y-86755000D01*
X144927000Y-86755000D01*
X144927000Y-87005000D01*
X144907000Y-87005000D01*
X144907000Y-87027000D01*
X144653000Y-87027000D01*
X144653000Y-87005000D01*
X144194250Y-87005000D01*
X144182250Y-86993000D01*
X143383000Y-86993000D01*
X143383000Y-87015000D01*
X143129000Y-87015000D01*
X143129000Y-86993000D01*
X142329750Y-86993000D01*
X142171000Y-87151750D01*
X142171000Y-87244309D01*
X142247916Y-87430000D01*
X141482802Y-87430000D01*
X141749401Y-87163401D01*
X141914148Y-86916839D01*
X141972000Y-86626000D01*
X141972000Y-86484630D01*
X142096110Y-86569431D01*
G36*
X146777069Y-82159902D02*
X147138229Y-82521694D01*
X147192560Y-82544254D01*
X147192560Y-83658000D01*
X147236838Y-83893317D01*
X147375910Y-84109441D01*
X147588110Y-84254431D01*
X147840000Y-84305440D01*
X148225018Y-84305440D01*
X148224979Y-84350560D01*
X147840000Y-84350560D01*
X147604683Y-84394838D01*
X147388559Y-84533910D01*
X147243569Y-84746110D01*
X147192560Y-84998000D01*
X147192560Y-85814572D01*
X147021781Y-85985351D01*
X147008000Y-85982560D01*
X146108000Y-85982560D01*
X145872683Y-86026838D01*
X145661047Y-86163022D01*
X145589699Y-86091673D01*
X145356310Y-85995000D01*
X145283000Y-85995000D01*
X145283000Y-85883750D01*
X145124250Y-85725000D01*
X144375000Y-85725000D01*
X144375000Y-85745000D01*
X144121000Y-85745000D01*
X144121000Y-85725000D01*
X144101000Y-85725000D01*
X144101000Y-85471000D01*
X144121000Y-85471000D01*
X144121000Y-84746750D01*
X144375000Y-84746750D01*
X144375000Y-85471000D01*
X145124250Y-85471000D01*
X145283000Y-85312250D01*
X145283000Y-85096690D01*
X145186327Y-84863301D01*
X145007698Y-84684673D01*
X144774309Y-84588000D01*
X144533750Y-84588000D01*
X144375000Y-84746750D01*
X144121000Y-84746750D01*
X144082703Y-84708453D01*
X146734435Y-82056721D01*
X146777069Y-82159902D01*
X146777069Y-82159902D01*
G37*
X146777069Y-82159902D02*
X147138229Y-82521694D01*
X147192560Y-82544254D01*
X147192560Y-83658000D01*
X147236838Y-83893317D01*
X147375910Y-84109441D01*
X147588110Y-84254431D01*
X147840000Y-84305440D01*
X148225018Y-84305440D01*
X148224979Y-84350560D01*
X147840000Y-84350560D01*
X147604683Y-84394838D01*
X147388559Y-84533910D01*
X147243569Y-84746110D01*
X147192560Y-84998000D01*
X147192560Y-85814572D01*
X147021781Y-85985351D01*
X147008000Y-85982560D01*
X146108000Y-85982560D01*
X145872683Y-86026838D01*
X145661047Y-86163022D01*
X145589699Y-86091673D01*
X145356310Y-85995000D01*
X145283000Y-85995000D01*
X145283000Y-85883750D01*
X145124250Y-85725000D01*
X144375000Y-85725000D01*
X144375000Y-85745000D01*
X144121000Y-85745000D01*
X144121000Y-85725000D01*
X144101000Y-85725000D01*
X144101000Y-85471000D01*
X144121000Y-85471000D01*
X144121000Y-84746750D01*
X144375000Y-84746750D01*
X144375000Y-85471000D01*
X145124250Y-85471000D01*
X145283000Y-85312250D01*
X145283000Y-85096690D01*
X145186327Y-84863301D01*
X145007698Y-84684673D01*
X144774309Y-84588000D01*
X144533750Y-84588000D01*
X144375000Y-84746750D01*
X144121000Y-84746750D01*
X144082703Y-84708453D01*
X146734435Y-82056721D01*
X146777069Y-82159902D01*
G36*
X136425673Y-80619698D02*
X136604301Y-80798327D01*
X136644560Y-80815003D01*
X136644560Y-81401000D01*
X136679818Y-81588380D01*
X135537224Y-82730974D01*
X135471250Y-82665000D01*
X134747000Y-82665000D01*
X134747000Y-83414250D01*
X134800474Y-83467724D01*
X134192198Y-84076000D01*
X133023463Y-84076000D01*
X132991327Y-84043808D01*
X132647799Y-83901162D01*
X132600923Y-83901121D01*
X131642000Y-82942198D01*
X131642000Y-82823750D01*
X133610000Y-82823750D01*
X133610000Y-83064309D01*
X133706673Y-83297698D01*
X133885301Y-83476327D01*
X134118690Y-83573000D01*
X134334250Y-83573000D01*
X134493000Y-83414250D01*
X134493000Y-82665000D01*
X133768750Y-82665000D01*
X133610000Y-82823750D01*
X131642000Y-82823750D01*
X131642000Y-82638034D01*
X132077276Y-82818777D01*
X132588481Y-82819223D01*
X133060943Y-82624005D01*
X133422735Y-82262845D01*
X133618777Y-81790724D01*
X133618985Y-81551866D01*
X133641838Y-81673317D01*
X133708329Y-81776646D01*
X133706673Y-81778302D01*
X133610000Y-82011691D01*
X133610000Y-82252250D01*
X133768750Y-82411000D01*
X134493000Y-82411000D01*
X134493000Y-82391000D01*
X134747000Y-82391000D01*
X134747000Y-82411000D01*
X135471250Y-82411000D01*
X135630000Y-82252250D01*
X135630000Y-82011691D01*
X135533327Y-81778302D01*
X135531957Y-81776932D01*
X135591431Y-81689890D01*
X135642440Y-81438000D01*
X135642440Y-81196428D01*
X136365190Y-80473678D01*
X136425673Y-80619698D01*
X136425673Y-80619698D01*
G37*
X136425673Y-80619698D02*
X136604301Y-80798327D01*
X136644560Y-80815003D01*
X136644560Y-81401000D01*
X136679818Y-81588380D01*
X135537224Y-82730974D01*
X135471250Y-82665000D01*
X134747000Y-82665000D01*
X134747000Y-83414250D01*
X134800474Y-83467724D01*
X134192198Y-84076000D01*
X133023463Y-84076000D01*
X132991327Y-84043808D01*
X132647799Y-83901162D01*
X132600923Y-83901121D01*
X131642000Y-82942198D01*
X131642000Y-82823750D01*
X133610000Y-82823750D01*
X133610000Y-83064309D01*
X133706673Y-83297698D01*
X133885301Y-83476327D01*
X134118690Y-83573000D01*
X134334250Y-83573000D01*
X134493000Y-83414250D01*
X134493000Y-82665000D01*
X133768750Y-82665000D01*
X133610000Y-82823750D01*
X131642000Y-82823750D01*
X131642000Y-82638034D01*
X132077276Y-82818777D01*
X132588481Y-82819223D01*
X133060943Y-82624005D01*
X133422735Y-82262845D01*
X133618777Y-81790724D01*
X133618985Y-81551866D01*
X133641838Y-81673317D01*
X133708329Y-81776646D01*
X133706673Y-81778302D01*
X133610000Y-82011691D01*
X133610000Y-82252250D01*
X133768750Y-82411000D01*
X134493000Y-82411000D01*
X134493000Y-82391000D01*
X134747000Y-82391000D01*
X134747000Y-82411000D01*
X135471250Y-82411000D01*
X135630000Y-82252250D01*
X135630000Y-82011691D01*
X135533327Y-81778302D01*
X135531957Y-81776932D01*
X135591431Y-81689890D01*
X135642440Y-81438000D01*
X135642440Y-81196428D01*
X136365190Y-80473678D01*
X136425673Y-80619698D01*
G36*
X139339000Y-81058326D02*
X139224326Y-81173000D01*
X139065000Y-81173000D01*
X139065000Y-81153000D01*
X139045000Y-81153000D01*
X139045000Y-81058191D01*
X139339000Y-80936712D01*
X139339000Y-81058326D01*
X139339000Y-81058326D01*
G37*
X139339000Y-81058326D02*
X139224326Y-81173000D01*
X139065000Y-81173000D01*
X139065000Y-81153000D01*
X139045000Y-81153000D01*
X139045000Y-81058191D01*
X139339000Y-80936712D01*
X139339000Y-81058326D01*
G36*
X140193000Y-76439000D02*
X141239000Y-76439000D01*
X141239000Y-76419000D01*
X141493000Y-76419000D01*
X141493000Y-76439000D01*
X141513000Y-76439000D01*
X141513000Y-76693000D01*
X141493000Y-76693000D01*
X141493000Y-77739000D01*
X141513000Y-77739000D01*
X141513000Y-77993000D01*
X141493000Y-77993000D01*
X141493000Y-78013000D01*
X141239000Y-78013000D01*
X141239000Y-77993000D01*
X140193000Y-77993000D01*
X140193000Y-78013000D01*
X139939000Y-78013000D01*
X139939000Y-77993000D01*
X139919000Y-77993000D01*
X139919000Y-77739000D01*
X139939000Y-77739000D01*
X139939000Y-76851750D01*
X140081000Y-76851750D01*
X140081000Y-77580250D01*
X140193000Y-77692250D01*
X140193000Y-77739000D01*
X140239750Y-77739000D01*
X140351750Y-77851000D01*
X141080250Y-77851000D01*
X141192250Y-77739000D01*
X141239000Y-77739000D01*
X141239000Y-77692250D01*
X141351000Y-77580250D01*
X141351000Y-76851750D01*
X141239000Y-76739750D01*
X141239000Y-76693000D01*
X141192250Y-76693000D01*
X141080250Y-76581000D01*
X140351750Y-76581000D01*
X140239750Y-76693000D01*
X140193000Y-76693000D01*
X140193000Y-76739750D01*
X140081000Y-76851750D01*
X139939000Y-76851750D01*
X139939000Y-76693000D01*
X139919000Y-76693000D01*
X139919000Y-76439000D01*
X139939000Y-76439000D01*
X139939000Y-76419000D01*
X140193000Y-76419000D01*
X140193000Y-76439000D01*
X140193000Y-76439000D01*
G37*
X140193000Y-76439000D02*
X141239000Y-76439000D01*
X141239000Y-76419000D01*
X141493000Y-76419000D01*
X141493000Y-76439000D01*
X141513000Y-76439000D01*
X141513000Y-76693000D01*
X141493000Y-76693000D01*
X141493000Y-77739000D01*
X141513000Y-77739000D01*
X141513000Y-77993000D01*
X141493000Y-77993000D01*
X141493000Y-78013000D01*
X141239000Y-78013000D01*
X141239000Y-77993000D01*
X140193000Y-77993000D01*
X140193000Y-78013000D01*
X139939000Y-78013000D01*
X139939000Y-77993000D01*
X139919000Y-77993000D01*
X139919000Y-77739000D01*
X139939000Y-77739000D01*
X139939000Y-76851750D01*
X140081000Y-76851750D01*
X140081000Y-77580250D01*
X140193000Y-77692250D01*
X140193000Y-77739000D01*
X140239750Y-77739000D01*
X140351750Y-77851000D01*
X141080250Y-77851000D01*
X141192250Y-77739000D01*
X141239000Y-77739000D01*
X141239000Y-77692250D01*
X141351000Y-77580250D01*
X141351000Y-76851750D01*
X141239000Y-76739750D01*
X141239000Y-76693000D01*
X141192250Y-76693000D01*
X141080250Y-76581000D01*
X140351750Y-76581000D01*
X140239750Y-76693000D01*
X140193000Y-76693000D01*
X140193000Y-76739750D01*
X140081000Y-76851750D01*
X139939000Y-76851750D01*
X139939000Y-76693000D01*
X139919000Y-76693000D01*
X139919000Y-76439000D01*
X139939000Y-76439000D01*
X139939000Y-76419000D01*
X140193000Y-76419000D01*
X140193000Y-76439000D01*
G36*
X140348754Y-56145620D02*
X140045057Y-56271106D01*
X139584722Y-56730637D01*
X139335284Y-57331352D01*
X139334716Y-57981795D01*
X139583106Y-58582943D01*
X140042637Y-59043278D01*
X140643352Y-59292716D01*
X141293795Y-59293284D01*
X141894943Y-59044894D01*
X142355278Y-58585363D01*
X142482386Y-58279252D01*
X148643755Y-64440621D01*
X148643755Y-75990484D01*
X148576626Y-76057614D01*
X148383482Y-75590172D01*
X148022322Y-75228380D01*
X147550201Y-75032338D01*
X147038996Y-75031892D01*
X146923348Y-75079677D01*
X146959327Y-75043698D01*
X147056000Y-74810309D01*
X147056000Y-74469750D01*
X146897250Y-74311000D01*
X145923000Y-74311000D01*
X145923000Y-74331000D01*
X145669000Y-74331000D01*
X145669000Y-74311000D01*
X144694750Y-74311000D01*
X144536000Y-74469750D01*
X144536000Y-74810309D01*
X144632673Y-75043698D01*
X144773910Y-75184936D01*
X144741176Y-75206000D01*
X143275884Y-75206000D01*
X143091000Y-75168560D01*
X142822242Y-75168560D01*
X143031401Y-74959401D01*
X143196148Y-74712839D01*
X143254000Y-74422000D01*
X143254000Y-73557691D01*
X144536000Y-73557691D01*
X144536000Y-73898250D01*
X144694750Y-74057000D01*
X145669000Y-74057000D01*
X145669000Y-73207750D01*
X145923000Y-73207750D01*
X145923000Y-74057000D01*
X146897250Y-74057000D01*
X147056000Y-73898250D01*
X147056000Y-73557691D01*
X146959327Y-73324302D01*
X146780699Y-73145673D01*
X146547310Y-73049000D01*
X146081750Y-73049000D01*
X145923000Y-73207750D01*
X145669000Y-73207750D01*
X145510250Y-73049000D01*
X145044690Y-73049000D01*
X144811301Y-73145673D01*
X144632673Y-73324302D01*
X144536000Y-73557691D01*
X143254000Y-73557691D01*
X143254000Y-72528620D01*
X143196148Y-72237781D01*
X143031401Y-71991219D01*
X142638781Y-71598599D01*
X142424731Y-71455576D01*
X142315470Y-71285779D01*
X142103270Y-71140789D01*
X141851380Y-71089780D01*
X141053820Y-71089780D01*
X140818503Y-71134058D01*
X140703307Y-71208185D01*
X140604670Y-71140789D01*
X140352780Y-71089780D01*
X139555220Y-71089780D01*
X139465035Y-71106750D01*
X139439890Y-71089569D01*
X139188000Y-71038560D01*
X138688000Y-71038560D01*
X138452683Y-71082838D01*
X138236559Y-71221910D01*
X138188866Y-71291711D01*
X138152090Y-71234559D01*
X137939890Y-71089569D01*
X137688000Y-71038560D01*
X137188000Y-71038560D01*
X136952683Y-71082838D01*
X136736559Y-71221910D01*
X136634173Y-71371757D01*
X136723000Y-71157310D01*
X136723000Y-70516750D01*
X136564250Y-70358000D01*
X135715000Y-70358000D01*
X135715000Y-71507250D01*
X135873750Y-71666000D01*
X136214309Y-71666000D01*
X136447698Y-71569327D01*
X136610236Y-71406790D01*
X136591569Y-71434110D01*
X136540560Y-71686000D01*
X136540560Y-72317000D01*
X133570137Y-72317000D01*
X133423000Y-72169606D01*
X133423000Y-71570018D01*
X133539441Y-71495090D01*
X133684431Y-71282890D01*
X133735440Y-71031000D01*
X133735440Y-70516750D01*
X134453000Y-70516750D01*
X134453000Y-71157310D01*
X134549673Y-71390699D01*
X134728302Y-71569327D01*
X134961691Y-71666000D01*
X135302250Y-71666000D01*
X135461000Y-71507250D01*
X135461000Y-70358000D01*
X134611750Y-70358000D01*
X134453000Y-70516750D01*
X133735440Y-70516750D01*
X133735440Y-69431000D01*
X133711674Y-69304690D01*
X134453000Y-69304690D01*
X134453000Y-69945250D01*
X134611750Y-70104000D01*
X135461000Y-70104000D01*
X135461000Y-68954750D01*
X135715000Y-68954750D01*
X135715000Y-70104000D01*
X136564250Y-70104000D01*
X136723000Y-69945250D01*
X136723000Y-69304690D01*
X136626327Y-69071301D01*
X136447698Y-68892673D01*
X136214309Y-68796000D01*
X135873750Y-68796000D01*
X135715000Y-68954750D01*
X135461000Y-68954750D01*
X135302250Y-68796000D01*
X134961691Y-68796000D01*
X134728302Y-68892673D01*
X134549673Y-69071301D01*
X134453000Y-69304690D01*
X133711674Y-69304690D01*
X133691162Y-69195683D01*
X133552090Y-68979559D01*
X133423000Y-68891356D01*
X133423000Y-65988952D01*
X137744650Y-61667302D01*
X138103173Y-61667615D01*
X138575635Y-61472397D01*
X138937427Y-61111237D01*
X139133469Y-60639116D01*
X139133915Y-60127911D01*
X138938697Y-59655449D01*
X138577537Y-59293657D01*
X138105416Y-59097615D01*
X137594211Y-59097169D01*
X137121749Y-59292387D01*
X136759957Y-59653547D01*
X136563915Y-60125668D01*
X136563600Y-60486616D01*
X131997566Y-65052650D01*
X131816561Y-65323543D01*
X131753000Y-65643084D01*
X131753000Y-68891982D01*
X131636559Y-68966910D01*
X131491569Y-69179110D01*
X131440560Y-69431000D01*
X131440560Y-70792977D01*
X131435561Y-70800459D01*
X131372000Y-71120000D01*
X131372000Y-72729643D01*
X131303223Y-72895276D01*
X131302777Y-73406481D01*
X131497995Y-73878943D01*
X131859155Y-74240735D01*
X132331276Y-74436777D01*
X132842481Y-74437223D01*
X133314943Y-74242005D01*
X133570394Y-73987000D01*
X136516560Y-73987000D01*
X136516560Y-74110000D01*
X136560838Y-74345317D01*
X136699910Y-74561441D01*
X136912110Y-74706431D01*
X137164000Y-74757440D01*
X137664000Y-74757440D01*
X137899317Y-74713162D01*
X138115441Y-74574090D01*
X138163134Y-74504289D01*
X138199910Y-74561441D01*
X138412110Y-74706431D01*
X138664000Y-74757440D01*
X138685481Y-74757440D01*
X138668560Y-74841000D01*
X138668560Y-75168560D01*
X138341000Y-75168560D01*
X138105683Y-75212838D01*
X137889559Y-75351910D01*
X137744569Y-75564110D01*
X137693560Y-75816000D01*
X137693560Y-76116000D01*
X137710495Y-76206000D01*
X133524802Y-76206000D01*
X133519401Y-76200599D01*
X133339599Y-76080460D01*
X133367000Y-76014309D01*
X133367000Y-75773750D01*
X133208250Y-75615000D01*
X132059000Y-75615000D01*
X132059000Y-75635000D01*
X131805000Y-75635000D01*
X131805000Y-75615000D01*
X131785000Y-75615000D01*
X131785000Y-75361000D01*
X131805000Y-75361000D01*
X131805000Y-74611750D01*
X132059000Y-74611750D01*
X132059000Y-75361000D01*
X133208250Y-75361000D01*
X133367000Y-75202250D01*
X133367000Y-74961691D01*
X133270327Y-74728302D01*
X133091699Y-74549673D01*
X132858310Y-74453000D01*
X132217750Y-74453000D01*
X132059000Y-74611750D01*
X131805000Y-74611750D01*
X131646250Y-74453000D01*
X131005690Y-74453000D01*
X130939275Y-74480510D01*
X130983441Y-74452090D01*
X131128431Y-74239890D01*
X131179440Y-73988000D01*
X131179440Y-71888000D01*
X131135162Y-71652683D01*
X130996090Y-71436559D01*
X130783890Y-71291569D01*
X130532000Y-71240560D01*
X127685000Y-71240560D01*
X127685000Y-63970387D01*
X127795155Y-64080735D01*
X128267276Y-64276777D01*
X128778481Y-64277223D01*
X129250943Y-64082005D01*
X129612735Y-63720845D01*
X129808777Y-63248724D01*
X129809223Y-62737519D01*
X129634663Y-62315052D01*
X129730431Y-62174890D01*
X129781440Y-61923000D01*
X129781440Y-61013000D01*
X129737162Y-60777683D01*
X129598090Y-60561559D01*
X129385890Y-60416569D01*
X129134000Y-60365560D01*
X127914000Y-60365560D01*
X127685000Y-60408649D01*
X127685000Y-59245464D01*
X127787690Y-59288000D01*
X128238250Y-59288000D01*
X128397000Y-59129250D01*
X128397000Y-58325000D01*
X128651000Y-58325000D01*
X128651000Y-59129250D01*
X128809750Y-59288000D01*
X129260310Y-59288000D01*
X129493699Y-59191327D01*
X129672327Y-59012698D01*
X129769000Y-58779309D01*
X129769000Y-58483750D01*
X129610250Y-58325000D01*
X128651000Y-58325000D01*
X128397000Y-58325000D01*
X128377000Y-58325000D01*
X128377000Y-58071000D01*
X128397000Y-58071000D01*
X128397000Y-58051000D01*
X128651000Y-58051000D01*
X128651000Y-58071000D01*
X129036400Y-58071000D01*
X129157056Y-58120975D01*
X129264416Y-58071000D01*
X129610250Y-58071000D01*
X129675471Y-58005779D01*
X129922944Y-58120975D01*
X130404818Y-57921385D01*
X130502398Y-57830903D01*
X130599910Y-57982441D01*
X130812110Y-58127431D01*
X130961968Y-58157778D01*
X130932560Y-58303000D01*
X130932560Y-59553000D01*
X130976838Y-59788317D01*
X131115910Y-60004441D01*
X131328110Y-60149431D01*
X131580000Y-60200440D01*
X132580000Y-60200440D01*
X132815317Y-60156162D01*
X133031441Y-60017090D01*
X133079134Y-59947289D01*
X133115910Y-60004441D01*
X133328110Y-60149431D01*
X133580000Y-60200440D01*
X134580000Y-60200440D01*
X134815317Y-60156162D01*
X135031441Y-60017090D01*
X135176431Y-59804890D01*
X135227440Y-59553000D01*
X135227440Y-58303000D01*
X135220862Y-58268042D01*
X135280198Y-58208706D01*
X135370077Y-58246027D01*
X136020520Y-58246595D01*
X136621668Y-57998205D01*
X137082003Y-57538674D01*
X137331441Y-56937959D01*
X137332009Y-56287516D01*
X137083619Y-55686368D01*
X136842673Y-55445000D01*
X139648134Y-55445000D01*
X140348754Y-56145620D01*
X140348754Y-56145620D01*
G37*
X140348754Y-56145620D02*
X140045057Y-56271106D01*
X139584722Y-56730637D01*
X139335284Y-57331352D01*
X139334716Y-57981795D01*
X139583106Y-58582943D01*
X140042637Y-59043278D01*
X140643352Y-59292716D01*
X141293795Y-59293284D01*
X141894943Y-59044894D01*
X142355278Y-58585363D01*
X142482386Y-58279252D01*
X148643755Y-64440621D01*
X148643755Y-75990484D01*
X148576626Y-76057614D01*
X148383482Y-75590172D01*
X148022322Y-75228380D01*
X147550201Y-75032338D01*
X147038996Y-75031892D01*
X146923348Y-75079677D01*
X146959327Y-75043698D01*
X147056000Y-74810309D01*
X147056000Y-74469750D01*
X146897250Y-74311000D01*
X145923000Y-74311000D01*
X145923000Y-74331000D01*
X145669000Y-74331000D01*
X145669000Y-74311000D01*
X144694750Y-74311000D01*
X144536000Y-74469750D01*
X144536000Y-74810309D01*
X144632673Y-75043698D01*
X144773910Y-75184936D01*
X144741176Y-75206000D01*
X143275884Y-75206000D01*
X143091000Y-75168560D01*
X142822242Y-75168560D01*
X143031401Y-74959401D01*
X143196148Y-74712839D01*
X143254000Y-74422000D01*
X143254000Y-73557691D01*
X144536000Y-73557691D01*
X144536000Y-73898250D01*
X144694750Y-74057000D01*
X145669000Y-74057000D01*
X145669000Y-73207750D01*
X145923000Y-73207750D01*
X145923000Y-74057000D01*
X146897250Y-74057000D01*
X147056000Y-73898250D01*
X147056000Y-73557691D01*
X146959327Y-73324302D01*
X146780699Y-73145673D01*
X146547310Y-73049000D01*
X146081750Y-73049000D01*
X145923000Y-73207750D01*
X145669000Y-73207750D01*
X145510250Y-73049000D01*
X145044690Y-73049000D01*
X144811301Y-73145673D01*
X144632673Y-73324302D01*
X144536000Y-73557691D01*
X143254000Y-73557691D01*
X143254000Y-72528620D01*
X143196148Y-72237781D01*
X143031401Y-71991219D01*
X142638781Y-71598599D01*
X142424731Y-71455576D01*
X142315470Y-71285779D01*
X142103270Y-71140789D01*
X141851380Y-71089780D01*
X141053820Y-71089780D01*
X140818503Y-71134058D01*
X140703307Y-71208185D01*
X140604670Y-71140789D01*
X140352780Y-71089780D01*
X139555220Y-71089780D01*
X139465035Y-71106750D01*
X139439890Y-71089569D01*
X139188000Y-71038560D01*
X138688000Y-71038560D01*
X138452683Y-71082838D01*
X138236559Y-71221910D01*
X138188866Y-71291711D01*
X138152090Y-71234559D01*
X137939890Y-71089569D01*
X137688000Y-71038560D01*
X137188000Y-71038560D01*
X136952683Y-71082838D01*
X136736559Y-71221910D01*
X136634173Y-71371757D01*
X136723000Y-71157310D01*
X136723000Y-70516750D01*
X136564250Y-70358000D01*
X135715000Y-70358000D01*
X135715000Y-71507250D01*
X135873750Y-71666000D01*
X136214309Y-71666000D01*
X136447698Y-71569327D01*
X136610236Y-71406790D01*
X136591569Y-71434110D01*
X136540560Y-71686000D01*
X136540560Y-72317000D01*
X133570137Y-72317000D01*
X133423000Y-72169606D01*
X133423000Y-71570018D01*
X133539441Y-71495090D01*
X133684431Y-71282890D01*
X133735440Y-71031000D01*
X133735440Y-70516750D01*
X134453000Y-70516750D01*
X134453000Y-71157310D01*
X134549673Y-71390699D01*
X134728302Y-71569327D01*
X134961691Y-71666000D01*
X135302250Y-71666000D01*
X135461000Y-71507250D01*
X135461000Y-70358000D01*
X134611750Y-70358000D01*
X134453000Y-70516750D01*
X133735440Y-70516750D01*
X133735440Y-69431000D01*
X133711674Y-69304690D01*
X134453000Y-69304690D01*
X134453000Y-69945250D01*
X134611750Y-70104000D01*
X135461000Y-70104000D01*
X135461000Y-68954750D01*
X135715000Y-68954750D01*
X135715000Y-70104000D01*
X136564250Y-70104000D01*
X136723000Y-69945250D01*
X136723000Y-69304690D01*
X136626327Y-69071301D01*
X136447698Y-68892673D01*
X136214309Y-68796000D01*
X135873750Y-68796000D01*
X135715000Y-68954750D01*
X135461000Y-68954750D01*
X135302250Y-68796000D01*
X134961691Y-68796000D01*
X134728302Y-68892673D01*
X134549673Y-69071301D01*
X134453000Y-69304690D01*
X133711674Y-69304690D01*
X133691162Y-69195683D01*
X133552090Y-68979559D01*
X133423000Y-68891356D01*
X133423000Y-65988952D01*
X137744650Y-61667302D01*
X138103173Y-61667615D01*
X138575635Y-61472397D01*
X138937427Y-61111237D01*
X139133469Y-60639116D01*
X139133915Y-60127911D01*
X138938697Y-59655449D01*
X138577537Y-59293657D01*
X138105416Y-59097615D01*
X137594211Y-59097169D01*
X137121749Y-59292387D01*
X136759957Y-59653547D01*
X136563915Y-60125668D01*
X136563600Y-60486616D01*
X131997566Y-65052650D01*
X131816561Y-65323543D01*
X131753000Y-65643084D01*
X131753000Y-68891982D01*
X131636559Y-68966910D01*
X131491569Y-69179110D01*
X131440560Y-69431000D01*
X131440560Y-70792977D01*
X131435561Y-70800459D01*
X131372000Y-71120000D01*
X131372000Y-72729643D01*
X131303223Y-72895276D01*
X131302777Y-73406481D01*
X131497995Y-73878943D01*
X131859155Y-74240735D01*
X132331276Y-74436777D01*
X132842481Y-74437223D01*
X133314943Y-74242005D01*
X133570394Y-73987000D01*
X136516560Y-73987000D01*
X136516560Y-74110000D01*
X136560838Y-74345317D01*
X136699910Y-74561441D01*
X136912110Y-74706431D01*
X137164000Y-74757440D01*
X137664000Y-74757440D01*
X137899317Y-74713162D01*
X138115441Y-74574090D01*
X138163134Y-74504289D01*
X138199910Y-74561441D01*
X138412110Y-74706431D01*
X138664000Y-74757440D01*
X138685481Y-74757440D01*
X138668560Y-74841000D01*
X138668560Y-75168560D01*
X138341000Y-75168560D01*
X138105683Y-75212838D01*
X137889559Y-75351910D01*
X137744569Y-75564110D01*
X137693560Y-75816000D01*
X137693560Y-76116000D01*
X137710495Y-76206000D01*
X133524802Y-76206000D01*
X133519401Y-76200599D01*
X133339599Y-76080460D01*
X133367000Y-76014309D01*
X133367000Y-75773750D01*
X133208250Y-75615000D01*
X132059000Y-75615000D01*
X132059000Y-75635000D01*
X131805000Y-75635000D01*
X131805000Y-75615000D01*
X131785000Y-75615000D01*
X131785000Y-75361000D01*
X131805000Y-75361000D01*
X131805000Y-74611750D01*
X132059000Y-74611750D01*
X132059000Y-75361000D01*
X133208250Y-75361000D01*
X133367000Y-75202250D01*
X133367000Y-74961691D01*
X133270327Y-74728302D01*
X133091699Y-74549673D01*
X132858310Y-74453000D01*
X132217750Y-74453000D01*
X132059000Y-74611750D01*
X131805000Y-74611750D01*
X131646250Y-74453000D01*
X131005690Y-74453000D01*
X130939275Y-74480510D01*
X130983441Y-74452090D01*
X131128431Y-74239890D01*
X131179440Y-73988000D01*
X131179440Y-71888000D01*
X131135162Y-71652683D01*
X130996090Y-71436559D01*
X130783890Y-71291569D01*
X130532000Y-71240560D01*
X127685000Y-71240560D01*
X127685000Y-63970387D01*
X127795155Y-64080735D01*
X128267276Y-64276777D01*
X128778481Y-64277223D01*
X129250943Y-64082005D01*
X129612735Y-63720845D01*
X129808777Y-63248724D01*
X129809223Y-62737519D01*
X129634663Y-62315052D01*
X129730431Y-62174890D01*
X129781440Y-61923000D01*
X129781440Y-61013000D01*
X129737162Y-60777683D01*
X129598090Y-60561559D01*
X129385890Y-60416569D01*
X129134000Y-60365560D01*
X127914000Y-60365560D01*
X127685000Y-60408649D01*
X127685000Y-59245464D01*
X127787690Y-59288000D01*
X128238250Y-59288000D01*
X128397000Y-59129250D01*
X128397000Y-58325000D01*
X128651000Y-58325000D01*
X128651000Y-59129250D01*
X128809750Y-59288000D01*
X129260310Y-59288000D01*
X129493699Y-59191327D01*
X129672327Y-59012698D01*
X129769000Y-58779309D01*
X129769000Y-58483750D01*
X129610250Y-58325000D01*
X128651000Y-58325000D01*
X128397000Y-58325000D01*
X128377000Y-58325000D01*
X128377000Y-58071000D01*
X128397000Y-58071000D01*
X128397000Y-58051000D01*
X128651000Y-58051000D01*
X128651000Y-58071000D01*
X129036400Y-58071000D01*
X129157056Y-58120975D01*
X129264416Y-58071000D01*
X129610250Y-58071000D01*
X129675471Y-58005779D01*
X129922944Y-58120975D01*
X130404818Y-57921385D01*
X130502398Y-57830903D01*
X130599910Y-57982441D01*
X130812110Y-58127431D01*
X130961968Y-58157778D01*
X130932560Y-58303000D01*
X130932560Y-59553000D01*
X130976838Y-59788317D01*
X131115910Y-60004441D01*
X131328110Y-60149431D01*
X131580000Y-60200440D01*
X132580000Y-60200440D01*
X132815317Y-60156162D01*
X133031441Y-60017090D01*
X133079134Y-59947289D01*
X133115910Y-60004441D01*
X133328110Y-60149431D01*
X133580000Y-60200440D01*
X134580000Y-60200440D01*
X134815317Y-60156162D01*
X135031441Y-60017090D01*
X135176431Y-59804890D01*
X135227440Y-59553000D01*
X135227440Y-58303000D01*
X135220862Y-58268042D01*
X135280198Y-58208706D01*
X135370077Y-58246027D01*
X136020520Y-58246595D01*
X136621668Y-57998205D01*
X137082003Y-57538674D01*
X137331441Y-56937959D01*
X137332009Y-56287516D01*
X137083619Y-55686368D01*
X136842673Y-55445000D01*
X139648134Y-55445000D01*
X140348754Y-56145620D01*
G36*
X133647200Y-55182932D02*
X133560090Y-55047559D01*
X133347890Y-54902569D01*
X133096000Y-54851560D01*
X131064000Y-54851560D01*
X130828683Y-54895838D01*
X130612559Y-55034910D01*
X130501160Y-55197948D01*
X130404818Y-55108615D01*
X129922944Y-54909025D01*
X129667000Y-55028164D01*
X129667000Y-56388000D01*
X129687000Y-56388000D01*
X129687000Y-56642000D01*
X129667000Y-56642000D01*
X129667000Y-57377975D01*
X129493699Y-57204673D01*
X129413000Y-57171246D01*
X129413000Y-56642000D01*
X128052633Y-56642000D01*
X127934017Y-56897946D01*
X128030461Y-57108000D01*
X127787690Y-57108000D01*
X127685000Y-57150536D01*
X127685000Y-56132054D01*
X127934017Y-56132054D01*
X128052633Y-56388000D01*
X129413000Y-56388000D01*
X129413000Y-55028164D01*
X129157056Y-54909025D01*
X128675182Y-55108615D01*
X128202812Y-55546621D01*
X127934017Y-56132054D01*
X127685000Y-56132054D01*
X127685000Y-54787000D01*
X134043132Y-54787000D01*
X133647200Y-55182932D01*
X133647200Y-55182932D01*
G37*
X133647200Y-55182932D02*
X133560090Y-55047559D01*
X133347890Y-54902569D01*
X133096000Y-54851560D01*
X131064000Y-54851560D01*
X130828683Y-54895838D01*
X130612559Y-55034910D01*
X130501160Y-55197948D01*
X130404818Y-55108615D01*
X129922944Y-54909025D01*
X129667000Y-55028164D01*
X129667000Y-56388000D01*
X129687000Y-56388000D01*
X129687000Y-56642000D01*
X129667000Y-56642000D01*
X129667000Y-57377975D01*
X129493699Y-57204673D01*
X129413000Y-57171246D01*
X129413000Y-56642000D01*
X128052633Y-56642000D01*
X127934017Y-56897946D01*
X128030461Y-57108000D01*
X127787690Y-57108000D01*
X127685000Y-57150536D01*
X127685000Y-56132054D01*
X127934017Y-56132054D01*
X128052633Y-56388000D01*
X129413000Y-56388000D01*
X129413000Y-55028164D01*
X129157056Y-54909025D01*
X128675182Y-55108615D01*
X128202812Y-55546621D01*
X127934017Y-56132054D01*
X127685000Y-56132054D01*
X127685000Y-54787000D01*
X134043132Y-54787000D01*
X133647200Y-55182932D01*
M02*
