G04 #@! TF.FileFunction,Soldermask,Top*
%FSLAX46Y46*%
G04 Gerber Fmt 4.6, Leading zero omitted, Abs format (unit mm)*
G04 Created by KiCad (PCBNEW 4.0.2-stable) date 26.05.2016 15:15:09*
%MOMM*%
G01*
G04 APERTURE LIST*
%ADD10C,0.100000*%
%ADD11R,1.300000X0.700000*%
%ADD12R,0.800000X0.750000*%
%ADD13R,0.750000X0.800000*%
%ADD14R,0.590000X0.450000*%
%ADD15R,2.794000X1.778000*%
%ADD16R,0.500000X0.900000*%
%ADD17R,0.900000X0.500000*%
%ADD18R,1.550000X1.300000*%
%ADD19R,0.800100X0.800100*%
%ADD20R,0.690880X1.000760*%
%ADD21R,2.032000X2.032000*%
%ADD22O,2.032000X2.032000*%
%ADD23R,0.800000X1.600000*%
%ADD24R,2.100000X3.000000*%
%ADD25R,2.500000X1.000000*%
%ADD26R,1.200000X1.500000*%
%ADD27R,2.400000X1.100000*%
%ADD28R,0.800000X1.200000*%
%ADD29C,2.000000*%
%ADD30R,0.600000X1.500000*%
%ADD31R,0.850000X1.300000*%
%ADD32R,4.850000X1.700000*%
%ADD33R,4.350000X3.450000*%
%ADD34R,4.700000X1.550000*%
%ADD35R,4.200000X3.300000*%
G04 APERTURE END LIST*
D10*
D11*
X136144000Y-62616000D03*
X136144000Y-64516000D03*
D12*
X148082000Y-58674000D03*
X146582000Y-58674000D03*
D13*
X131572000Y-67032000D03*
X131572000Y-65532000D03*
D12*
X145312000Y-72644000D03*
X146812000Y-72644000D03*
X139216000Y-60452000D03*
X140716000Y-60452000D03*
D14*
X133643000Y-63500000D03*
X131533000Y-63500000D03*
D15*
X129032000Y-65532000D03*
X129032000Y-69088000D03*
D16*
X147586000Y-57404000D03*
X149086000Y-57404000D03*
X147689000Y-61849000D03*
X146189000Y-61849000D03*
D17*
X145288000Y-59412000D03*
X145288000Y-57912000D03*
X143764000Y-59412000D03*
X143764000Y-57912000D03*
X138303000Y-75069000D03*
X138303000Y-76569000D03*
D16*
X139516000Y-78466000D03*
X138016000Y-78466000D03*
X129540000Y-59944000D03*
X128040000Y-59944000D03*
X131572000Y-69088000D03*
X133072000Y-69088000D03*
X135394000Y-67564000D03*
X136894000Y-67564000D03*
D18*
X128524000Y-76128000D03*
X128524000Y-71628000D03*
X136474000Y-71628000D03*
X136474000Y-76128000D03*
X128613000Y-83022000D03*
X128613000Y-78522000D03*
X136563000Y-78522000D03*
X136563000Y-83022000D03*
D19*
X130175000Y-61595000D03*
X132075000Y-61595000D03*
X131125000Y-59596020D03*
D20*
X132720080Y-67624960D03*
X133670040Y-67624960D03*
X134620000Y-67624960D03*
X134620000Y-65024000D03*
X133670040Y-65024000D03*
X132720080Y-65024000D03*
D21*
X132080000Y-56515000D03*
D22*
X129540000Y-56515000D03*
D23*
X131104000Y-89048000D03*
X132354000Y-89048000D03*
X133604000Y-89048000D03*
X134854000Y-89048000D03*
X136104000Y-89048000D03*
D24*
X128554000Y-91948000D03*
X138654000Y-91948000D03*
D16*
X149086000Y-59944000D03*
X147586000Y-59944000D03*
D25*
X134620000Y-61595000D03*
X134620000Y-58595000D03*
D26*
X139700000Y-58928000D03*
X142240000Y-58928000D03*
D27*
X140970000Y-56388000D03*
D28*
X140970000Y-58928000D03*
D29*
X140970000Y-57658000D03*
D30*
X138811000Y-69248000D03*
X140081000Y-69248000D03*
X141351000Y-69248000D03*
X142621000Y-69248000D03*
X143891000Y-69248000D03*
X145161000Y-69248000D03*
X146431000Y-69248000D03*
X147701000Y-69248000D03*
X147701000Y-63848000D03*
X146431000Y-63848000D03*
X145161000Y-63848000D03*
X143891000Y-63848000D03*
X142621000Y-63848000D03*
X141351000Y-63848000D03*
X140081000Y-63848000D03*
X138811000Y-63848000D03*
D31*
X148075000Y-91043000D03*
X149345000Y-91043000D03*
X146805000Y-91043000D03*
D32*
X147440000Y-96518000D03*
D33*
X147440000Y-94318000D03*
D31*
X145535000Y-91043000D03*
D34*
X147440000Y-96518000D03*
D35*
X147440000Y-94318000D03*
M02*
