G04 #@! TF.FileFunction,Legend,Top*
%FSLAX46Y46*%
G04 Gerber Fmt 4.6, Leading zero omitted, Abs format (unit mm)*
G04 Created by KiCad (PCBNEW 4.0.2-stable) date 26.05.2016 15:15:09*
%MOMM*%
G01*
G04 APERTURE LIST*
%ADD10C,0.100000*%
%ADD11C,0.150000*%
G04 APERTURE END LIST*
D10*
D11*
X135269000Y-64166000D02*
X135269000Y-62966000D01*
X137019000Y-62966000D02*
X137019000Y-64166000D01*
X147682000Y-59274000D02*
X146982000Y-59274000D01*
X146982000Y-58074000D02*
X147682000Y-58074000D01*
X130972000Y-66632000D02*
X130972000Y-65932000D01*
X132172000Y-65932000D02*
X132172000Y-66632000D01*
X145712000Y-72044000D02*
X146412000Y-72044000D01*
X146412000Y-73244000D02*
X145712000Y-73244000D01*
X139616000Y-59852000D02*
X140316000Y-59852000D01*
X140316000Y-61052000D02*
X139616000Y-61052000D01*
X132338000Y-63500000D02*
X132088000Y-63500000D01*
X132838000Y-63500000D02*
X133088000Y-63500000D01*
X132838000Y-63500000D02*
X132338000Y-63850000D01*
X132338000Y-63850000D02*
X132338000Y-63150000D01*
X132338000Y-63150000D02*
X132838000Y-63500000D01*
X132838000Y-63850000D02*
X132838000Y-63150000D01*
X133888000Y-62700000D02*
X131488000Y-62700000D01*
X133888000Y-64300000D02*
X131488000Y-64300000D01*
X130556000Y-64516000D02*
X127508000Y-64516000D01*
X127508000Y-68199000D02*
X127508000Y-70104000D01*
X127508000Y-70104000D02*
X130556000Y-70104000D01*
X130556000Y-70104000D02*
X130556000Y-68199000D01*
X130556000Y-66548000D02*
X130556000Y-64516000D01*
X130556000Y-64716000D02*
X127508000Y-64716000D01*
X127508000Y-64516000D02*
X127508000Y-66548000D01*
X148836000Y-58079000D02*
X147836000Y-58079000D01*
X147836000Y-56729000D02*
X148836000Y-56729000D01*
X146439000Y-61174000D02*
X147439000Y-61174000D01*
X147439000Y-62524000D02*
X146439000Y-62524000D01*
X145963000Y-58162000D02*
X145963000Y-59162000D01*
X144613000Y-59162000D02*
X144613000Y-58162000D01*
X144439000Y-58162000D02*
X144439000Y-59162000D01*
X143089000Y-59162000D02*
X143089000Y-58162000D01*
X137628000Y-76319000D02*
X137628000Y-75319000D01*
X138978000Y-75319000D02*
X138978000Y-76319000D01*
X138266000Y-77791000D02*
X139266000Y-77791000D01*
X139266000Y-79141000D02*
X138266000Y-79141000D01*
X128290000Y-59269000D02*
X129290000Y-59269000D01*
X129290000Y-60619000D02*
X128290000Y-60619000D01*
X132822000Y-69763000D02*
X131822000Y-69763000D01*
X131822000Y-68413000D02*
X132822000Y-68413000D01*
X136644000Y-68239000D02*
X135644000Y-68239000D01*
X135644000Y-66889000D02*
X136644000Y-66889000D01*
X134249714Y-73878000D02*
G75*
G03X134249714Y-73878000I-1750714J0D01*
G01*
X135724000Y-70653000D02*
X135724000Y-70678000D01*
X135724000Y-77103000D02*
X135724000Y-77078000D01*
X129274000Y-77103000D02*
X129274000Y-77078000D01*
X129274000Y-70678000D02*
X129274000Y-70653000D01*
X135724000Y-72578000D02*
X135724000Y-75178000D01*
X129274000Y-70653000D02*
X135724000Y-70653000D01*
X129274000Y-72578000D02*
X129274000Y-75178000D01*
X129274000Y-77103000D02*
X135724000Y-77103000D01*
X134338714Y-80772000D02*
G75*
G03X134338714Y-80772000I-1750714J0D01*
G01*
X135813000Y-77547000D02*
X135813000Y-77572000D01*
X135813000Y-83997000D02*
X135813000Y-83972000D01*
X129363000Y-83997000D02*
X129363000Y-83972000D01*
X129363000Y-77572000D02*
X129363000Y-77547000D01*
X135813000Y-79472000D02*
X135813000Y-82072000D01*
X129363000Y-77547000D02*
X135813000Y-77547000D01*
X129363000Y-79472000D02*
X129363000Y-82072000D01*
X129363000Y-83997000D02*
X135813000Y-83997000D01*
X132424160Y-59944000D02*
X132375900Y-59944000D01*
X129625180Y-60645040D02*
X129625180Y-59944000D01*
X129625180Y-59944000D02*
X129874100Y-59944000D01*
X132424160Y-59944000D02*
X132624820Y-59944000D01*
X132624820Y-59944000D02*
X132624820Y-60645040D01*
X132069840Y-66675000D02*
X132560060Y-66675000D01*
X132069840Y-65973960D02*
X132069840Y-66675000D01*
X135270240Y-65973960D02*
X135270240Y-66675000D01*
X130204000Y-88248000D02*
X130204000Y-89948000D01*
X130204000Y-89948000D02*
X127004000Y-89948000D01*
X127004000Y-89948000D02*
X127004000Y-93848000D01*
X127004000Y-93848000D02*
X140204000Y-93848000D01*
X140204000Y-93848000D02*
X140204000Y-89948000D01*
X140204000Y-89948000D02*
X139204000Y-89948000D01*
X131104000Y-87748000D02*
X130604000Y-87248000D01*
X130604000Y-87248000D02*
X131604000Y-87248000D01*
X131604000Y-87248000D02*
X131104000Y-87748000D01*
X147836000Y-59269000D02*
X148836000Y-59269000D01*
X148836000Y-60619000D02*
X147836000Y-60619000D01*
X133145000Y-59095000D02*
X133145000Y-61095000D01*
X136095000Y-61095000D02*
X136095000Y-59095000D01*
X138181000Y-68623000D02*
X138286000Y-68623000D01*
X138181000Y-64473000D02*
X138286000Y-64473000D01*
X148331000Y-64473000D02*
X148226000Y-64473000D01*
X148331000Y-68623000D02*
X148226000Y-68623000D01*
X138181000Y-68623000D02*
X138181000Y-64473000D01*
X148331000Y-68623000D02*
X148331000Y-64473000D01*
X138286000Y-68623000D02*
X138286000Y-69998000D01*
X150240000Y-92868000D02*
X150240000Y-89968000D01*
X150240000Y-93768000D02*
X150240000Y-93518000D01*
X150240000Y-94668000D02*
X150240000Y-94418000D01*
X150240000Y-95568000D02*
X150240000Y-95318000D01*
X150240000Y-96418000D02*
X150240000Y-96218000D01*
X150240000Y-97368000D02*
X150240000Y-97118000D01*
X149690000Y-97768000D02*
X149940000Y-97768000D01*
X148790000Y-97768000D02*
X149040000Y-97768000D01*
X148690000Y-97968000D02*
X149090000Y-97968000D01*
X147740000Y-97768000D02*
X148140000Y-97768000D01*
X147690000Y-97968000D02*
X148190000Y-97968000D01*
X146690000Y-97768000D02*
X147090000Y-97768000D01*
X146640000Y-97968000D02*
X147140000Y-97968000D01*
X145740000Y-97968000D02*
X146090000Y-97968000D01*
X145790000Y-97768000D02*
X146090000Y-97768000D01*
X144890000Y-97768000D02*
X145140000Y-97768000D01*
X144640000Y-97068000D02*
X144640000Y-97318000D01*
X144640000Y-96168000D02*
X144640000Y-96418000D01*
X144640000Y-95268000D02*
X144640000Y-95518000D01*
X144640000Y-94368000D02*
X144640000Y-94618000D01*
X144640000Y-93468000D02*
X144640000Y-93768000D01*
X144640000Y-89968000D02*
X144640000Y-92868000D01*
X145840000Y-89968000D02*
X145840000Y-89768000D01*
X145840000Y-89768000D02*
X145240000Y-89768000D01*
X145240000Y-89768000D02*
X145240000Y-89968000D01*
X147140000Y-89968000D02*
X147140000Y-89768000D01*
X147140000Y-89768000D02*
X146540000Y-89768000D01*
X146540000Y-89768000D02*
X146540000Y-89968000D01*
X148340000Y-89968000D02*
X148340000Y-89768000D01*
X148340000Y-89768000D02*
X147740000Y-89768000D01*
X147740000Y-89768000D02*
X147740000Y-89968000D01*
X149640000Y-89968000D02*
X149640000Y-89768000D01*
X149640000Y-89768000D02*
X149040000Y-89768000D01*
X149040000Y-89768000D02*
X149040000Y-89968000D01*
X144640000Y-89968000D02*
X150240000Y-89968000D01*
X138696381Y-63732666D02*
X138220190Y-64066000D01*
X138696381Y-64304095D02*
X137696381Y-64304095D01*
X137696381Y-63923142D01*
X137744000Y-63827904D01*
X137791619Y-63780285D01*
X137886857Y-63732666D01*
X138029714Y-63732666D01*
X138124952Y-63780285D01*
X138172571Y-63827904D01*
X138220190Y-63923142D01*
X138220190Y-64304095D01*
X138029714Y-62875523D02*
X138696381Y-62875523D01*
X137648762Y-63113619D02*
X138363048Y-63351714D01*
X138363048Y-62732666D01*
X149947334Y-59158143D02*
X149899715Y-59205762D01*
X149756858Y-59253381D01*
X149661620Y-59253381D01*
X149518762Y-59205762D01*
X149423524Y-59110524D01*
X149375905Y-59015286D01*
X149328286Y-58824810D01*
X149328286Y-58681952D01*
X149375905Y-58491476D01*
X149423524Y-58396238D01*
X149518762Y-58301000D01*
X149661620Y-58253381D01*
X149756858Y-58253381D01*
X149899715Y-58301000D01*
X149947334Y-58348619D01*
X150280667Y-58253381D02*
X150899715Y-58253381D01*
X150566381Y-58634333D01*
X150709239Y-58634333D01*
X150804477Y-58681952D01*
X150852096Y-58729571D01*
X150899715Y-58824810D01*
X150899715Y-59062905D01*
X150852096Y-59158143D01*
X150804477Y-59205762D01*
X150709239Y-59253381D01*
X150423524Y-59253381D01*
X150328286Y-59205762D01*
X150280667Y-59158143D01*
X131421143Y-66333666D02*
X131468762Y-66381285D01*
X131516381Y-66524142D01*
X131516381Y-66619380D01*
X131468762Y-66762238D01*
X131373524Y-66857476D01*
X131278286Y-66905095D01*
X131087810Y-66952714D01*
X130944952Y-66952714D01*
X130754476Y-66905095D01*
X130659238Y-66857476D01*
X130564000Y-66762238D01*
X130516381Y-66619380D01*
X130516381Y-66524142D01*
X130564000Y-66381285D01*
X130611619Y-66333666D01*
X130944952Y-65762238D02*
X130897333Y-65857476D01*
X130849714Y-65905095D01*
X130754476Y-65952714D01*
X130706857Y-65952714D01*
X130611619Y-65905095D01*
X130564000Y-65857476D01*
X130516381Y-65762238D01*
X130516381Y-65571761D01*
X130564000Y-65476523D01*
X130611619Y-65428904D01*
X130706857Y-65381285D01*
X130754476Y-65381285D01*
X130849714Y-65428904D01*
X130897333Y-65476523D01*
X130944952Y-65571761D01*
X130944952Y-65762238D01*
X130992571Y-65857476D01*
X131040190Y-65905095D01*
X131135429Y-65952714D01*
X131325905Y-65952714D01*
X131421143Y-65905095D01*
X131468762Y-65857476D01*
X131516381Y-65762238D01*
X131516381Y-65571761D01*
X131468762Y-65476523D01*
X131421143Y-65428904D01*
X131325905Y-65381285D01*
X131135429Y-65381285D01*
X131040190Y-65428904D01*
X130992571Y-65476523D01*
X130944952Y-65571761D01*
X148074143Y-73128143D02*
X148026524Y-73175762D01*
X147883667Y-73223381D01*
X147788429Y-73223381D01*
X147645571Y-73175762D01*
X147550333Y-73080524D01*
X147502714Y-72985286D01*
X147455095Y-72794810D01*
X147455095Y-72651952D01*
X147502714Y-72461476D01*
X147550333Y-72366238D01*
X147645571Y-72271000D01*
X147788429Y-72223381D01*
X147883667Y-72223381D01*
X148026524Y-72271000D01*
X148074143Y-72318619D01*
X149026524Y-73223381D02*
X148455095Y-73223381D01*
X148740809Y-73223381D02*
X148740809Y-72223381D01*
X148645571Y-72366238D01*
X148550333Y-72461476D01*
X148455095Y-72509095D01*
X149645571Y-72223381D02*
X149740810Y-72223381D01*
X149836048Y-72271000D01*
X149883667Y-72318619D01*
X149931286Y-72413857D01*
X149978905Y-72604333D01*
X149978905Y-72842429D01*
X149931286Y-73032905D01*
X149883667Y-73128143D01*
X149836048Y-73175762D01*
X149740810Y-73223381D01*
X149645571Y-73223381D01*
X149550333Y-73175762D01*
X149502714Y-73128143D01*
X149455095Y-73032905D01*
X149407476Y-72842429D01*
X149407476Y-72604333D01*
X149455095Y-72413857D01*
X149502714Y-72318619D01*
X149550333Y-72271000D01*
X149645571Y-72223381D01*
X141978143Y-60809143D02*
X141930524Y-60856762D01*
X141787667Y-60904381D01*
X141692429Y-60904381D01*
X141549571Y-60856762D01*
X141454333Y-60761524D01*
X141406714Y-60666286D01*
X141359095Y-60475810D01*
X141359095Y-60332952D01*
X141406714Y-60142476D01*
X141454333Y-60047238D01*
X141549571Y-59952000D01*
X141692429Y-59904381D01*
X141787667Y-59904381D01*
X141930524Y-59952000D01*
X141978143Y-59999619D01*
X142930524Y-60904381D02*
X142359095Y-60904381D01*
X142644809Y-60904381D02*
X142644809Y-59904381D01*
X142549571Y-60047238D01*
X142454333Y-60142476D01*
X142359095Y-60190095D01*
X143835286Y-59904381D02*
X143359095Y-59904381D01*
X143311476Y-60380571D01*
X143359095Y-60332952D01*
X143454333Y-60285333D01*
X143692429Y-60285333D01*
X143787667Y-60332952D01*
X143835286Y-60380571D01*
X143882905Y-60475810D01*
X143882905Y-60713905D01*
X143835286Y-60809143D01*
X143787667Y-60856762D01*
X143692429Y-60904381D01*
X143454333Y-60904381D01*
X143359095Y-60856762D01*
X143311476Y-60809143D01*
X129944905Y-63952381D02*
X129944905Y-62952381D01*
X130183000Y-62952381D01*
X130325858Y-63000000D01*
X130421096Y-63095238D01*
X130468715Y-63190476D01*
X130516334Y-63380952D01*
X130516334Y-63523810D01*
X130468715Y-63714286D01*
X130421096Y-63809524D01*
X130325858Y-63904762D01*
X130183000Y-63952381D01*
X129944905Y-63952381D01*
X130897286Y-63047619D02*
X130944905Y-63000000D01*
X131040143Y-62952381D01*
X131278239Y-62952381D01*
X131373477Y-63000000D01*
X131421096Y-63047619D01*
X131468715Y-63142857D01*
X131468715Y-63238095D01*
X131421096Y-63380952D01*
X130849667Y-63952381D01*
X131468715Y-63952381D01*
X127976334Y-67889381D02*
X127500143Y-67889381D01*
X127500143Y-66889381D01*
X128833477Y-67889381D02*
X128262048Y-67889381D01*
X128547762Y-67889381D02*
X128547762Y-66889381D01*
X128452524Y-67032238D01*
X128357286Y-67127476D01*
X128262048Y-67175095D01*
X150328334Y-57983381D02*
X149995000Y-57507190D01*
X149756905Y-57983381D02*
X149756905Y-56983381D01*
X150137858Y-56983381D01*
X150233096Y-57031000D01*
X150280715Y-57078619D01*
X150328334Y-57173857D01*
X150328334Y-57316714D01*
X150280715Y-57411952D01*
X150233096Y-57459571D01*
X150137858Y-57507190D01*
X149756905Y-57507190D01*
X151280715Y-57983381D02*
X150709286Y-57983381D01*
X150995000Y-57983381D02*
X150995000Y-56983381D01*
X150899762Y-57126238D01*
X150804524Y-57221476D01*
X150709286Y-57269095D01*
X146772334Y-64201381D02*
X146439000Y-63725190D01*
X146200905Y-64201381D02*
X146200905Y-63201381D01*
X146581858Y-63201381D01*
X146677096Y-63249000D01*
X146724715Y-63296619D01*
X146772334Y-63391857D01*
X146772334Y-63534714D01*
X146724715Y-63629952D01*
X146677096Y-63677571D01*
X146581858Y-63725190D01*
X146200905Y-63725190D01*
X147629477Y-63201381D02*
X147439000Y-63201381D01*
X147343762Y-63249000D01*
X147296143Y-63296619D01*
X147200905Y-63439476D01*
X147153286Y-63629952D01*
X147153286Y-64010905D01*
X147200905Y-64106143D01*
X147248524Y-64153762D01*
X147343762Y-64201381D01*
X147534239Y-64201381D01*
X147629477Y-64153762D01*
X147677096Y-64106143D01*
X147724715Y-64010905D01*
X147724715Y-63772810D01*
X147677096Y-63677571D01*
X147629477Y-63629952D01*
X147534239Y-63582333D01*
X147343762Y-63582333D01*
X147248524Y-63629952D01*
X147200905Y-63677571D01*
X147153286Y-63772810D01*
X145867381Y-56808666D02*
X145391190Y-57142000D01*
X145867381Y-57380095D02*
X144867381Y-57380095D01*
X144867381Y-56999142D01*
X144915000Y-56903904D01*
X144962619Y-56856285D01*
X145057857Y-56808666D01*
X145200714Y-56808666D01*
X145295952Y-56856285D01*
X145343571Y-56903904D01*
X145391190Y-56999142D01*
X145391190Y-57380095D01*
X144867381Y-56475333D02*
X144867381Y-55808666D01*
X145867381Y-56237238D01*
X144343381Y-56808666D02*
X143867190Y-57142000D01*
X144343381Y-57380095D02*
X143343381Y-57380095D01*
X143343381Y-56999142D01*
X143391000Y-56903904D01*
X143438619Y-56856285D01*
X143533857Y-56808666D01*
X143676714Y-56808666D01*
X143771952Y-56856285D01*
X143819571Y-56903904D01*
X143867190Y-56999142D01*
X143867190Y-57380095D01*
X143771952Y-56237238D02*
X143724333Y-56332476D01*
X143676714Y-56380095D01*
X143581476Y-56427714D01*
X143533857Y-56427714D01*
X143438619Y-56380095D01*
X143391000Y-56332476D01*
X143343381Y-56237238D01*
X143343381Y-56046761D01*
X143391000Y-55951523D01*
X143438619Y-55903904D01*
X143533857Y-55856285D01*
X143581476Y-55856285D01*
X143676714Y-55903904D01*
X143724333Y-55951523D01*
X143771952Y-56046761D01*
X143771952Y-56237238D01*
X143819571Y-56332476D01*
X143867190Y-56380095D01*
X143962429Y-56427714D01*
X144152905Y-56427714D01*
X144248143Y-56380095D01*
X144295762Y-56332476D01*
X144343381Y-56237238D01*
X144343381Y-56046761D01*
X144295762Y-55951523D01*
X144248143Y-55903904D01*
X144152905Y-55856285D01*
X143962429Y-55856285D01*
X143867190Y-55903904D01*
X143819571Y-55951523D01*
X143771952Y-56046761D01*
X140655381Y-76461857D02*
X140179190Y-76795191D01*
X140655381Y-77033286D02*
X139655381Y-77033286D01*
X139655381Y-76652333D01*
X139703000Y-76557095D01*
X139750619Y-76509476D01*
X139845857Y-76461857D01*
X139988714Y-76461857D01*
X140083952Y-76509476D01*
X140131571Y-76557095D01*
X140179190Y-76652333D01*
X140179190Y-77033286D01*
X140655381Y-75509476D02*
X140655381Y-76080905D01*
X140655381Y-75795191D02*
X139655381Y-75795191D01*
X139798238Y-75890429D01*
X139893476Y-75985667D01*
X139941095Y-76080905D01*
X139655381Y-74604714D02*
X139655381Y-75080905D01*
X140131571Y-75128524D01*
X140083952Y-75080905D01*
X140036333Y-74985667D01*
X140036333Y-74747571D01*
X140083952Y-74652333D01*
X140131571Y-74604714D01*
X140226810Y-74557095D01*
X140464905Y-74557095D01*
X140560143Y-74604714D01*
X140607762Y-74652333D01*
X140655381Y-74747571D01*
X140655381Y-74985667D01*
X140607762Y-75080905D01*
X140560143Y-75128524D01*
X138123143Y-80818381D02*
X137789809Y-80342190D01*
X137551714Y-80818381D02*
X137551714Y-79818381D01*
X137932667Y-79818381D01*
X138027905Y-79866000D01*
X138075524Y-79913619D01*
X138123143Y-80008857D01*
X138123143Y-80151714D01*
X138075524Y-80246952D01*
X138027905Y-80294571D01*
X137932667Y-80342190D01*
X137551714Y-80342190D01*
X138504095Y-79913619D02*
X138551714Y-79866000D01*
X138646952Y-79818381D01*
X138885048Y-79818381D01*
X138980286Y-79866000D01*
X139027905Y-79913619D01*
X139075524Y-80008857D01*
X139075524Y-80104095D01*
X139027905Y-80246952D01*
X138456476Y-80818381D01*
X139075524Y-80818381D01*
X139694571Y-79818381D02*
X139789810Y-79818381D01*
X139885048Y-79866000D01*
X139932667Y-79913619D01*
X139980286Y-80008857D01*
X140027905Y-80199333D01*
X140027905Y-80437429D01*
X139980286Y-80627905D01*
X139932667Y-80723143D01*
X139885048Y-80770762D01*
X139789810Y-80818381D01*
X139694571Y-80818381D01*
X139599333Y-80770762D01*
X139551714Y-80723143D01*
X139504095Y-80627905D01*
X139456476Y-80437429D01*
X139456476Y-80199333D01*
X139504095Y-80008857D01*
X139551714Y-79913619D01*
X139599333Y-79866000D01*
X139694571Y-79818381D01*
X127754143Y-61539381D02*
X127420809Y-61063190D01*
X127182714Y-61539381D02*
X127182714Y-60539381D01*
X127563667Y-60539381D01*
X127658905Y-60587000D01*
X127706524Y-60634619D01*
X127754143Y-60729857D01*
X127754143Y-60872714D01*
X127706524Y-60967952D01*
X127658905Y-61015571D01*
X127563667Y-61063190D01*
X127182714Y-61063190D01*
X128135095Y-60634619D02*
X128182714Y-60587000D01*
X128277952Y-60539381D01*
X128516048Y-60539381D01*
X128611286Y-60587000D01*
X128658905Y-60634619D01*
X128706524Y-60729857D01*
X128706524Y-60825095D01*
X128658905Y-60967952D01*
X128087476Y-61539381D01*
X128706524Y-61539381D01*
X129563667Y-60872714D02*
X129563667Y-61539381D01*
X129325571Y-60491762D02*
X129087476Y-61206048D01*
X129706524Y-61206048D01*
X123237810Y-67254381D02*
X122904476Y-66778190D01*
X122666381Y-67254381D02*
X122666381Y-66254381D01*
X123047334Y-66254381D01*
X123142572Y-66302000D01*
X123190191Y-66349619D01*
X123237810Y-66444857D01*
X123237810Y-66587714D01*
X123190191Y-66682952D01*
X123142572Y-66730571D01*
X123047334Y-66778190D01*
X122666381Y-66778190D01*
X123428286Y-67349619D02*
X124190191Y-67349619D01*
X124761620Y-66730571D02*
X124428286Y-66730571D01*
X124428286Y-67254381D02*
X124428286Y-66254381D01*
X124904477Y-66254381D01*
X125618763Y-66730571D02*
X125761620Y-66778190D01*
X125809239Y-66825810D01*
X125856858Y-66921048D01*
X125856858Y-67063905D01*
X125809239Y-67159143D01*
X125761620Y-67206762D01*
X125666382Y-67254381D01*
X125285429Y-67254381D01*
X125285429Y-66254381D01*
X125618763Y-66254381D01*
X125714001Y-66302000D01*
X125761620Y-66349619D01*
X125809239Y-66444857D01*
X125809239Y-66540095D01*
X125761620Y-66635333D01*
X125714001Y-66682952D01*
X125618763Y-66730571D01*
X125285429Y-66730571D01*
X126809239Y-67254381D02*
X126237810Y-67254381D01*
X126523524Y-67254381D02*
X126523524Y-66254381D01*
X126428286Y-66397238D01*
X126333048Y-66492476D01*
X126237810Y-66540095D01*
X137957810Y-68016381D02*
X137624476Y-67540190D01*
X137386381Y-68016381D02*
X137386381Y-67016381D01*
X137767334Y-67016381D01*
X137862572Y-67064000D01*
X137910191Y-67111619D01*
X137957810Y-67206857D01*
X137957810Y-67349714D01*
X137910191Y-67444952D01*
X137862572Y-67492571D01*
X137767334Y-67540190D01*
X137386381Y-67540190D01*
X138148286Y-68111619D02*
X138910191Y-68111619D01*
X139481620Y-67492571D02*
X139148286Y-67492571D01*
X139148286Y-68016381D02*
X139148286Y-67016381D01*
X139624477Y-67016381D01*
X140338763Y-67492571D02*
X140481620Y-67540190D01*
X140529239Y-67587810D01*
X140576858Y-67683048D01*
X140576858Y-67825905D01*
X140529239Y-67921143D01*
X140481620Y-67968762D01*
X140386382Y-68016381D01*
X140005429Y-68016381D01*
X140005429Y-67016381D01*
X140338763Y-67016381D01*
X140434001Y-67064000D01*
X140481620Y-67111619D01*
X140529239Y-67206857D01*
X140529239Y-67302095D01*
X140481620Y-67397333D01*
X140434001Y-67444952D01*
X140338763Y-67492571D01*
X140005429Y-67492571D01*
X140957810Y-67111619D02*
X141005429Y-67064000D01*
X141100667Y-67016381D01*
X141338763Y-67016381D01*
X141434001Y-67064000D01*
X141481620Y-67111619D01*
X141529239Y-67206857D01*
X141529239Y-67302095D01*
X141481620Y-67444952D01*
X140910191Y-68016381D01*
X141529239Y-68016381D01*
X131165667Y-70232762D02*
X131308524Y-70280381D01*
X131546620Y-70280381D01*
X131641858Y-70232762D01*
X131689477Y-70185143D01*
X131737096Y-70089905D01*
X131737096Y-69994667D01*
X131689477Y-69899429D01*
X131641858Y-69851810D01*
X131546620Y-69804190D01*
X131356143Y-69756571D01*
X131260905Y-69708952D01*
X131213286Y-69661333D01*
X131165667Y-69566095D01*
X131165667Y-69470857D01*
X131213286Y-69375619D01*
X131260905Y-69328000D01*
X131356143Y-69280381D01*
X131594239Y-69280381D01*
X131737096Y-69328000D01*
X132070429Y-69280381D02*
X132308524Y-70280381D01*
X132499001Y-69566095D01*
X132689477Y-70280381D01*
X132927572Y-69280381D01*
X133832334Y-70280381D02*
X133260905Y-70280381D01*
X133546619Y-70280381D02*
X133546619Y-69280381D01*
X133451381Y-69423238D01*
X133356143Y-69518476D01*
X133260905Y-69566095D01*
X128945143Y-77126762D02*
X129088000Y-77174381D01*
X129326096Y-77174381D01*
X129421334Y-77126762D01*
X129468953Y-77079143D01*
X129516572Y-76983905D01*
X129516572Y-76888667D01*
X129468953Y-76793429D01*
X129421334Y-76745810D01*
X129326096Y-76698190D01*
X129135619Y-76650571D01*
X129040381Y-76602952D01*
X128992762Y-76555333D01*
X128945143Y-76460095D01*
X128945143Y-76364857D01*
X128992762Y-76269619D01*
X129040381Y-76222000D01*
X129135619Y-76174381D01*
X129373715Y-76174381D01*
X129516572Y-76222000D01*
X129849905Y-76174381D02*
X130088000Y-77174381D01*
X130278477Y-76460095D01*
X130468953Y-77174381D01*
X130707048Y-76174381D01*
X130849905Y-77269619D02*
X131611810Y-77269619D01*
X132421334Y-77079143D02*
X132373715Y-77126762D01*
X132230858Y-77174381D01*
X132135620Y-77174381D01*
X131992762Y-77126762D01*
X131897524Y-77031524D01*
X131849905Y-76936286D01*
X131802286Y-76745810D01*
X131802286Y-76602952D01*
X131849905Y-76412476D01*
X131897524Y-76317238D01*
X131992762Y-76222000D01*
X132135620Y-76174381D01*
X132230858Y-76174381D01*
X132373715Y-76222000D01*
X132421334Y-76269619D01*
X132802286Y-77126762D02*
X132945143Y-77174381D01*
X133183239Y-77174381D01*
X133278477Y-77126762D01*
X133326096Y-77079143D01*
X133373715Y-76983905D01*
X133373715Y-76888667D01*
X133326096Y-76793429D01*
X133278477Y-76745810D01*
X133183239Y-76698190D01*
X132992762Y-76650571D01*
X132897524Y-76602952D01*
X132849905Y-76555333D01*
X132802286Y-76460095D01*
X132802286Y-76364857D01*
X132849905Y-76269619D01*
X132897524Y-76222000D01*
X132992762Y-76174381D01*
X133230858Y-76174381D01*
X133373715Y-76222000D01*
X133659429Y-76174381D02*
X134230858Y-76174381D01*
X133945143Y-77174381D02*
X133945143Y-76174381D01*
X134564191Y-77174381D02*
X134564191Y-76174381D01*
X134897525Y-76888667D01*
X135230858Y-76174381D01*
X135230858Y-77174381D01*
X136230858Y-77174381D02*
X135659429Y-77174381D01*
X135945143Y-77174381D02*
X135945143Y-76174381D01*
X135849905Y-76317238D01*
X135754667Y-76412476D01*
X135659429Y-76460095D01*
X130556095Y-57999381D02*
X131127524Y-57999381D01*
X130841809Y-58999381D02*
X130841809Y-57999381D01*
X131413238Y-58094619D02*
X131460857Y-58047000D01*
X131556095Y-57999381D01*
X131794191Y-57999381D01*
X131889429Y-58047000D01*
X131937048Y-58094619D01*
X131984667Y-58189857D01*
X131984667Y-58285095D01*
X131937048Y-58427952D01*
X131365619Y-58999381D01*
X131984667Y-58999381D01*
X132969095Y-65746381D02*
X132969095Y-66555905D01*
X133016714Y-66651143D01*
X133064333Y-66698762D01*
X133159571Y-66746381D01*
X133350048Y-66746381D01*
X133445286Y-66698762D01*
X133492905Y-66651143D01*
X133540524Y-66555905D01*
X133540524Y-65746381D01*
X134540524Y-66746381D02*
X133969095Y-66746381D01*
X134254809Y-66746381D02*
X134254809Y-65746381D01*
X134159571Y-65889238D01*
X134064333Y-65984476D01*
X133969095Y-66032095D01*
X138465905Y-89100381D02*
X138465905Y-88100381D01*
X138846858Y-88100381D01*
X138942096Y-88148000D01*
X138989715Y-88195619D01*
X139037334Y-88290857D01*
X139037334Y-88433714D01*
X138989715Y-88528952D01*
X138942096Y-88576571D01*
X138846858Y-88624190D01*
X138465905Y-88624190D01*
X139989715Y-89100381D02*
X139418286Y-89100381D01*
X139704000Y-89100381D02*
X139704000Y-88100381D01*
X139608762Y-88243238D01*
X139513524Y-88338476D01*
X139418286Y-88386095D01*
X150233143Y-60523381D02*
X149899809Y-60047190D01*
X149661714Y-60523381D02*
X149661714Y-59523381D01*
X150042667Y-59523381D01*
X150137905Y-59571000D01*
X150185524Y-59618619D01*
X150233143Y-59713857D01*
X150233143Y-59856714D01*
X150185524Y-59951952D01*
X150137905Y-59999571D01*
X150042667Y-60047190D01*
X149661714Y-60047190D01*
X150614095Y-59618619D02*
X150661714Y-59571000D01*
X150756952Y-59523381D01*
X150995048Y-59523381D01*
X151090286Y-59571000D01*
X151137905Y-59618619D01*
X151185524Y-59713857D01*
X151185524Y-59809095D01*
X151137905Y-59951952D01*
X150566476Y-60523381D01*
X151185524Y-60523381D01*
X152137905Y-60523381D02*
X151566476Y-60523381D01*
X151852190Y-60523381D02*
X151852190Y-59523381D01*
X151756952Y-59666238D01*
X151661714Y-59761476D01*
X151566476Y-59809095D01*
X137263143Y-60237666D02*
X137310762Y-60285285D01*
X137358381Y-60428142D01*
X137358381Y-60523380D01*
X137310762Y-60666238D01*
X137215524Y-60761476D01*
X137120286Y-60809095D01*
X136929810Y-60856714D01*
X136786952Y-60856714D01*
X136596476Y-60809095D01*
X136501238Y-60761476D01*
X136406000Y-60666238D01*
X136358381Y-60523380D01*
X136358381Y-60428142D01*
X136406000Y-60285285D01*
X136453619Y-60237666D01*
X137358381Y-59285285D02*
X137358381Y-59856714D01*
X137358381Y-59571000D02*
X136358381Y-59571000D01*
X136501238Y-59666238D01*
X136596476Y-59761476D01*
X136644095Y-59856714D01*
X140374762Y-55570381D02*
X140041428Y-55094190D01*
X139803333Y-55570381D02*
X139803333Y-54570381D01*
X140184286Y-54570381D01*
X140279524Y-54618000D01*
X140327143Y-54665619D01*
X140374762Y-54760857D01*
X140374762Y-54903714D01*
X140327143Y-54998952D01*
X140279524Y-55046571D01*
X140184286Y-55094190D01*
X139803333Y-55094190D01*
X140660476Y-54570381D02*
X140993809Y-55570381D01*
X141327143Y-54570381D01*
X142184286Y-55570381D02*
X141612857Y-55570381D01*
X141898571Y-55570381D02*
X141898571Y-54570381D01*
X141803333Y-54713238D01*
X141708095Y-54808476D01*
X141612857Y-54856095D01*
X136708381Y-67309905D02*
X137517905Y-67309905D01*
X137613143Y-67262286D01*
X137660762Y-67214667D01*
X137708381Y-67119429D01*
X137708381Y-66928952D01*
X137660762Y-66833714D01*
X137613143Y-66786095D01*
X137517905Y-66738476D01*
X136708381Y-66738476D01*
X136708381Y-66357524D02*
X136708381Y-65738476D01*
X137089333Y-66071810D01*
X137089333Y-65928952D01*
X137136952Y-65833714D01*
X137184571Y-65786095D01*
X137279810Y-65738476D01*
X137517905Y-65738476D01*
X137613143Y-65786095D01*
X137660762Y-65833714D01*
X137708381Y-65928952D01*
X137708381Y-66214667D01*
X137660762Y-66309905D01*
X137613143Y-66357524D01*
X146678095Y-100220381D02*
X147249524Y-100220381D01*
X146963809Y-101220381D02*
X146963809Y-100220381D01*
X148106667Y-101220381D02*
X147535238Y-101220381D01*
X147820952Y-101220381D02*
X147820952Y-100220381D01*
X147725714Y-100363238D01*
X147630476Y-100458476D01*
X147535238Y-100506095D01*
M02*
