G04 #@! TF.FileFunction,Legend,Bot*
%FSLAX46Y46*%
G04 Gerber Fmt 4.6, Leading zero omitted, Abs format (unit mm)*
G04 Created by KiCad (PCBNEW 4.0.2-stable) date 26.05.2016 15:15:09*
%MOMM*%
G01*
G04 APERTURE LIST*
%ADD10C,0.100000*%
%ADD11C,0.150000*%
G04 APERTURE END LIST*
D10*
D11*
X136009000Y-91781000D02*
X135009000Y-91781000D01*
X135009000Y-93131000D02*
X136009000Y-93131000D01*
X137965000Y-94453000D02*
X138665000Y-94453000D01*
X138665000Y-93253000D02*
X137965000Y-93253000D01*
X138334000Y-88230000D02*
X139034000Y-88230000D01*
X139034000Y-87030000D02*
X138334000Y-87030000D01*
X133580000Y-59778000D02*
X132580000Y-59778000D01*
X132580000Y-58078000D02*
X133580000Y-58078000D01*
X138092000Y-81626000D02*
X138792000Y-81626000D01*
X138792000Y-80426000D02*
X138092000Y-80426000D01*
X146138000Y-73414000D02*
X146138000Y-74414000D01*
X144438000Y-74414000D02*
X144438000Y-73414000D01*
X128524000Y-59515500D02*
X128524000Y-59134500D01*
X128524000Y-60531500D02*
X128524000Y-60150500D01*
X128524000Y-60150500D02*
X128905000Y-59515500D01*
X128905000Y-59515500D02*
X128143000Y-59515500D01*
X128143000Y-59515500D02*
X128524000Y-60150500D01*
X129032000Y-60150500D02*
X128016000Y-60150500D01*
X127624000Y-61833000D02*
X127624000Y-58293000D01*
X129424000Y-61833000D02*
X129424000Y-58293000D01*
X138942000Y-91781000D02*
X137942000Y-91781000D01*
X137942000Y-93131000D02*
X138942000Y-93131000D01*
X137930000Y-89829000D02*
X138930000Y-89829000D01*
X138930000Y-88479000D02*
X137930000Y-88479000D01*
X135021000Y-94655000D02*
X136021000Y-94655000D01*
X136021000Y-93305000D02*
X135021000Y-93305000D01*
X135728000Y-78119000D02*
X134528000Y-78119000D01*
X134528000Y-79869000D02*
X135728000Y-79869000D01*
X138089000Y-79760000D02*
X138089000Y-78760000D01*
X136739000Y-78760000D02*
X136739000Y-79760000D01*
X138664000Y-72985000D02*
X137664000Y-72985000D01*
X137664000Y-74335000D02*
X138664000Y-74335000D01*
X138688000Y-71461000D02*
X137688000Y-71461000D01*
X137688000Y-72811000D02*
X138688000Y-72811000D01*
X136603740Y-86949280D02*
X137213340Y-86949280D01*
X137213340Y-86949280D02*
X137223500Y-87381080D01*
X142866000Y-79366000D02*
X142866000Y-78841000D01*
X138566000Y-75066000D02*
X138566000Y-75591000D01*
X142866000Y-75066000D02*
X142866000Y-75591000D01*
X138566000Y-79366000D02*
X139091000Y-79366000D01*
X138566000Y-75066000D02*
X139091000Y-75066000D01*
X142866000Y-75066000D02*
X142341000Y-75066000D01*
X142866000Y-79366000D02*
X142341000Y-79366000D01*
X133630000Y-57815000D02*
X132080000Y-57815000D01*
X133630000Y-56515000D02*
X133630000Y-57815000D01*
X132207000Y-52324000D02*
X132207000Y-46482000D01*
X132207000Y-46482000D02*
X131953000Y-46482000D01*
X131953000Y-46482000D02*
X131953000Y-52324000D01*
X131953000Y-52324000D02*
X132080000Y-52324000D01*
X132080000Y-52324000D02*
X132080000Y-46482000D01*
X132334000Y-54991000D02*
X132334000Y-55372000D01*
X131826000Y-54991000D02*
X131826000Y-55372000D01*
X129794000Y-54991000D02*
X129794000Y-55372000D01*
X129286000Y-54991000D02*
X129286000Y-55372000D01*
X133350000Y-54991000D02*
X133350000Y-52451000D01*
X130810000Y-54991000D02*
X130810000Y-52451000D01*
X130810000Y-54991000D02*
X128270000Y-54991000D01*
X128270000Y-54991000D02*
X128270000Y-52451000D01*
X129794000Y-52451000D02*
X129794000Y-46355000D01*
X129794000Y-46355000D02*
X129286000Y-46355000D01*
X129286000Y-46355000D02*
X129286000Y-52451000D01*
X128270000Y-52451000D02*
X130810000Y-52451000D01*
X130810000Y-52451000D02*
X133350000Y-52451000D01*
X131826000Y-46355000D02*
X131826000Y-52451000D01*
X132334000Y-46355000D02*
X131826000Y-46355000D01*
X132334000Y-52451000D02*
X132334000Y-46355000D01*
X130810000Y-54991000D02*
X130810000Y-52451000D01*
X133350000Y-54991000D02*
X130810000Y-54991000D01*
X132732000Y-80138000D02*
X131032000Y-80138000D01*
X131032000Y-80138000D02*
X131032000Y-83338000D01*
X131032000Y-83338000D02*
X127132000Y-83338000D01*
X127132000Y-83338000D02*
X127132000Y-71388000D01*
X127132000Y-71388000D02*
X131032000Y-71388000D01*
X131032000Y-71388000D02*
X131032000Y-72388000D01*
X133232000Y-79238000D02*
X133732000Y-79738000D01*
X133732000Y-79738000D02*
X133732000Y-78738000D01*
X133732000Y-78738000D02*
X133232000Y-79238000D01*
X141803300Y-72686000D02*
X139903300Y-72686000D01*
X141803300Y-71586000D02*
X139903300Y-71586000D01*
X140903300Y-72136000D02*
X140453300Y-72136000D01*
X140953300Y-71886000D02*
X140953300Y-72386000D01*
X140953300Y-72136000D02*
X140703300Y-71886000D01*
X140703300Y-71886000D02*
X140703300Y-72386000D01*
X140703300Y-72386000D02*
X140953300Y-72136000D01*
X141803300Y-74210000D02*
X139903300Y-74210000D01*
X141803300Y-73110000D02*
X139903300Y-73110000D01*
X140903300Y-73660000D02*
X140453300Y-73660000D01*
X140953300Y-73410000D02*
X140953300Y-73910000D01*
X140953300Y-73660000D02*
X140703300Y-73410000D01*
X140703300Y-73410000D02*
X140703300Y-73910000D01*
X140703300Y-73910000D02*
X140953300Y-73660000D01*
X135088000Y-71256000D02*
X133088000Y-71256000D01*
X133088000Y-69206000D02*
X135088000Y-69206000D01*
X134020000Y-81438000D02*
X134020000Y-82138000D01*
X135220000Y-82138000D02*
X135220000Y-81438000D01*
X141414500Y-90805000D02*
X141795500Y-90805000D01*
X140398500Y-90805000D02*
X140779500Y-90805000D01*
X140779500Y-90805000D02*
X141414500Y-91186000D01*
X141414500Y-91186000D02*
X141414500Y-90424000D01*
X141414500Y-90424000D02*
X140779500Y-90805000D01*
X140779500Y-91313000D02*
X140779500Y-90297000D01*
X139097000Y-89905000D02*
X142637000Y-89905000D01*
X139097000Y-91705000D02*
X142637000Y-91705000D01*
X135548666Y-94808381D02*
X135882000Y-94332190D01*
X136120095Y-94808381D02*
X136120095Y-93808381D01*
X135739142Y-93808381D01*
X135643904Y-93856000D01*
X135596285Y-93903619D01*
X135548666Y-93998857D01*
X135548666Y-94141714D01*
X135596285Y-94236952D01*
X135643904Y-94284571D01*
X135739142Y-94332190D01*
X136120095Y-94332190D01*
X135215333Y-93808381D02*
X134596285Y-93808381D01*
X134929619Y-94189333D01*
X134786761Y-94189333D01*
X134691523Y-94236952D01*
X134643904Y-94284571D01*
X134596285Y-94379810D01*
X134596285Y-94617905D01*
X134643904Y-94713143D01*
X134691523Y-94760762D01*
X134786761Y-94808381D01*
X135072476Y-94808381D01*
X135167714Y-94760762D01*
X135215333Y-94713143D01*
X138608666Y-95607143D02*
X138656285Y-95654762D01*
X138799142Y-95702381D01*
X138894380Y-95702381D01*
X139037238Y-95654762D01*
X139132476Y-95559524D01*
X139180095Y-95464286D01*
X139227714Y-95273810D01*
X139227714Y-95130952D01*
X139180095Y-94940476D01*
X139132476Y-94845238D01*
X139037238Y-94750000D01*
X138894380Y-94702381D01*
X138799142Y-94702381D01*
X138656285Y-94750000D01*
X138608666Y-94797619D01*
X137751523Y-95035714D02*
X137751523Y-95702381D01*
X137989619Y-94654762D02*
X138227714Y-95369048D01*
X137608666Y-95369048D01*
X138850666Y-89887143D02*
X138898285Y-89934762D01*
X139041142Y-89982381D01*
X139136380Y-89982381D01*
X139279238Y-89934762D01*
X139374476Y-89839524D01*
X139422095Y-89744286D01*
X139469714Y-89553810D01*
X139469714Y-89410952D01*
X139422095Y-89220476D01*
X139374476Y-89125238D01*
X139279238Y-89030000D01*
X139136380Y-88982381D01*
X139041142Y-88982381D01*
X138898285Y-89030000D01*
X138850666Y-89077619D01*
X137945904Y-88982381D02*
X138422095Y-88982381D01*
X138469714Y-89458571D01*
X138422095Y-89410952D01*
X138326857Y-89363333D01*
X138088761Y-89363333D01*
X137993523Y-89410952D01*
X137945904Y-89458571D01*
X137898285Y-89553810D01*
X137898285Y-89791905D01*
X137945904Y-89887143D01*
X137993523Y-89934762D01*
X138088761Y-89982381D01*
X138326857Y-89982381D01*
X138422095Y-89934762D01*
X138469714Y-89887143D01*
X133722857Y-61385143D02*
X133770476Y-61432762D01*
X133913333Y-61480381D01*
X134008571Y-61480381D01*
X134151429Y-61432762D01*
X134246667Y-61337524D01*
X134294286Y-61242286D01*
X134341905Y-61051810D01*
X134341905Y-60908952D01*
X134294286Y-60718476D01*
X134246667Y-60623238D01*
X134151429Y-60528000D01*
X134008571Y-60480381D01*
X133913333Y-60480381D01*
X133770476Y-60528000D01*
X133722857Y-60575619D01*
X132770476Y-61480381D02*
X133341905Y-61480381D01*
X133056191Y-61480381D02*
X133056191Y-60480381D01*
X133151429Y-60623238D01*
X133246667Y-60718476D01*
X133341905Y-60766095D01*
X132389524Y-60575619D02*
X132341905Y-60528000D01*
X132246667Y-60480381D01*
X132008571Y-60480381D01*
X131913333Y-60528000D01*
X131865714Y-60575619D01*
X131818095Y-60670857D01*
X131818095Y-60766095D01*
X131865714Y-60908952D01*
X132437143Y-61480381D01*
X131818095Y-61480381D01*
X139072857Y-84177143D02*
X139120476Y-84224762D01*
X139263333Y-84272381D01*
X139358571Y-84272381D01*
X139501429Y-84224762D01*
X139596667Y-84129524D01*
X139644286Y-84034286D01*
X139691905Y-83843810D01*
X139691905Y-83700952D01*
X139644286Y-83510476D01*
X139596667Y-83415238D01*
X139501429Y-83320000D01*
X139358571Y-83272381D01*
X139263333Y-83272381D01*
X139120476Y-83320000D01*
X139072857Y-83367619D01*
X138120476Y-84272381D02*
X138691905Y-84272381D01*
X138406191Y-84272381D02*
X138406191Y-83272381D01*
X138501429Y-83415238D01*
X138596667Y-83510476D01*
X138691905Y-83558095D01*
X137263333Y-83605714D02*
X137263333Y-84272381D01*
X137501429Y-83224762D02*
X137739524Y-83939048D01*
X137120476Y-83939048D01*
X147745143Y-73271143D02*
X147792762Y-73223524D01*
X147840381Y-73080667D01*
X147840381Y-72985429D01*
X147792762Y-72842571D01*
X147697524Y-72747333D01*
X147602286Y-72699714D01*
X147411810Y-72652095D01*
X147268952Y-72652095D01*
X147078476Y-72699714D01*
X146983238Y-72747333D01*
X146888000Y-72842571D01*
X146840381Y-72985429D01*
X146840381Y-73080667D01*
X146888000Y-73223524D01*
X146935619Y-73271143D01*
X147840381Y-74223524D02*
X147840381Y-73652095D01*
X147840381Y-73937809D02*
X146840381Y-73937809D01*
X146983238Y-73842571D01*
X147078476Y-73747333D01*
X147126095Y-73652095D01*
X146840381Y-74556857D02*
X146840381Y-75223524D01*
X147840381Y-74794952D01*
X130976381Y-59094905D02*
X129976381Y-59094905D01*
X129976381Y-59333000D01*
X130024000Y-59475858D01*
X130119238Y-59571096D01*
X130214476Y-59618715D01*
X130404952Y-59666334D01*
X130547810Y-59666334D01*
X130738286Y-59618715D01*
X130833524Y-59571096D01*
X130928762Y-59475858D01*
X130976381Y-59333000D01*
X130976381Y-59094905D01*
X130976381Y-60618715D02*
X130976381Y-60047286D01*
X130976381Y-60333000D02*
X129976381Y-60333000D01*
X130119238Y-60237762D01*
X130214476Y-60142524D01*
X130262095Y-60047286D01*
X136334666Y-92908381D02*
X136668000Y-92432190D01*
X136906095Y-92908381D02*
X136906095Y-91908381D01*
X136525142Y-91908381D01*
X136429904Y-91956000D01*
X136382285Y-92003619D01*
X136334666Y-92098857D01*
X136334666Y-92241714D01*
X136382285Y-92336952D01*
X136429904Y-92384571D01*
X136525142Y-92432190D01*
X136906095Y-92432190D01*
X135953714Y-92003619D02*
X135906095Y-91956000D01*
X135810857Y-91908381D01*
X135572761Y-91908381D01*
X135477523Y-91956000D01*
X135429904Y-92003619D01*
X135382285Y-92098857D01*
X135382285Y-92194095D01*
X135429904Y-92336952D01*
X136001333Y-92908381D01*
X135382285Y-92908381D01*
X138596666Y-87706381D02*
X138930000Y-87230190D01*
X139168095Y-87706381D02*
X139168095Y-86706381D01*
X138787142Y-86706381D01*
X138691904Y-86754000D01*
X138644285Y-86801619D01*
X138596666Y-86896857D01*
X138596666Y-87039714D01*
X138644285Y-87134952D01*
X138691904Y-87182571D01*
X138787142Y-87230190D01*
X139168095Y-87230190D01*
X137691904Y-86706381D02*
X138168095Y-86706381D01*
X138215714Y-87182571D01*
X138168095Y-87134952D01*
X138072857Y-87087333D01*
X137834761Y-87087333D01*
X137739523Y-87134952D01*
X137691904Y-87182571D01*
X137644285Y-87277810D01*
X137644285Y-87515905D01*
X137691904Y-87611143D01*
X137739523Y-87658762D01*
X137834761Y-87706381D01*
X138072857Y-87706381D01*
X138168095Y-87658762D01*
X138215714Y-87611143D01*
X136163857Y-92532381D02*
X136497191Y-92056190D01*
X136735286Y-92532381D02*
X136735286Y-91532381D01*
X136354333Y-91532381D01*
X136259095Y-91580000D01*
X136211476Y-91627619D01*
X136163857Y-91722857D01*
X136163857Y-91865714D01*
X136211476Y-91960952D01*
X136259095Y-92008571D01*
X136354333Y-92056190D01*
X136735286Y-92056190D01*
X135211476Y-92532381D02*
X135782905Y-92532381D01*
X135497191Y-92532381D02*
X135497191Y-91532381D01*
X135592429Y-91675238D01*
X135687667Y-91770476D01*
X135782905Y-91818095D01*
X134592429Y-91532381D02*
X134497190Y-91532381D01*
X134401952Y-91580000D01*
X134354333Y-91627619D01*
X134306714Y-91722857D01*
X134259095Y-91913333D01*
X134259095Y-92151429D01*
X134306714Y-92341905D01*
X134354333Y-92437143D01*
X134401952Y-92484762D01*
X134497190Y-92532381D01*
X134592429Y-92532381D01*
X134687667Y-92484762D01*
X134735286Y-92437143D01*
X134782905Y-92341905D01*
X134830524Y-92151429D01*
X134830524Y-91913333D01*
X134782905Y-91722857D01*
X134735286Y-91627619D01*
X134687667Y-91580000D01*
X134592429Y-91532381D01*
X135770857Y-81546381D02*
X136104191Y-81070190D01*
X136342286Y-81546381D02*
X136342286Y-80546381D01*
X135961333Y-80546381D01*
X135866095Y-80594000D01*
X135818476Y-80641619D01*
X135770857Y-80736857D01*
X135770857Y-80879714D01*
X135818476Y-80974952D01*
X135866095Y-81022571D01*
X135961333Y-81070190D01*
X136342286Y-81070190D01*
X134818476Y-81546381D02*
X135389905Y-81546381D01*
X135104191Y-81546381D02*
X135104191Y-80546381D01*
X135199429Y-80689238D01*
X135294667Y-80784476D01*
X135389905Y-80832095D01*
X133961333Y-80546381D02*
X134151810Y-80546381D01*
X134247048Y-80594000D01*
X134294667Y-80641619D01*
X134389905Y-80784476D01*
X134437524Y-80974952D01*
X134437524Y-81355905D01*
X134389905Y-81451143D01*
X134342286Y-81498762D01*
X134247048Y-81546381D01*
X134056571Y-81546381D01*
X133961333Y-81498762D01*
X133913714Y-81451143D01*
X133866095Y-81355905D01*
X133866095Y-81117810D01*
X133913714Y-81022571D01*
X133961333Y-80974952D01*
X134056571Y-80927333D01*
X134247048Y-80927333D01*
X134342286Y-80974952D01*
X134389905Y-81022571D01*
X134437524Y-81117810D01*
X135966381Y-78617143D02*
X135490190Y-78283809D01*
X135966381Y-78045714D02*
X134966381Y-78045714D01*
X134966381Y-78426667D01*
X135014000Y-78521905D01*
X135061619Y-78569524D01*
X135156857Y-78617143D01*
X135299714Y-78617143D01*
X135394952Y-78569524D01*
X135442571Y-78521905D01*
X135490190Y-78426667D01*
X135490190Y-78045714D01*
X135966381Y-79569524D02*
X135966381Y-78998095D01*
X135966381Y-79283809D02*
X134966381Y-79283809D01*
X135109238Y-79188571D01*
X135204476Y-79093333D01*
X135252095Y-78998095D01*
X134966381Y-79902857D02*
X134966381Y-80569524D01*
X135966381Y-80140952D01*
X138806857Y-76012381D02*
X139140191Y-75536190D01*
X139378286Y-76012381D02*
X139378286Y-75012381D01*
X138997333Y-75012381D01*
X138902095Y-75060000D01*
X138854476Y-75107619D01*
X138806857Y-75202857D01*
X138806857Y-75345714D01*
X138854476Y-75440952D01*
X138902095Y-75488571D01*
X138997333Y-75536190D01*
X139378286Y-75536190D01*
X137854476Y-76012381D02*
X138425905Y-76012381D01*
X138140191Y-76012381D02*
X138140191Y-75012381D01*
X138235429Y-75155238D01*
X138330667Y-75250476D01*
X138425905Y-75298095D01*
X137283048Y-75440952D02*
X137378286Y-75393333D01*
X137425905Y-75345714D01*
X137473524Y-75250476D01*
X137473524Y-75202857D01*
X137425905Y-75107619D01*
X137378286Y-75060000D01*
X137283048Y-75012381D01*
X137092571Y-75012381D01*
X136997333Y-75060000D01*
X136949714Y-75107619D01*
X136902095Y-75202857D01*
X136902095Y-75250476D01*
X136949714Y-75345714D01*
X136997333Y-75393333D01*
X137092571Y-75440952D01*
X137283048Y-75440952D01*
X137378286Y-75488571D01*
X137425905Y-75536190D01*
X137473524Y-75631429D01*
X137473524Y-75821905D01*
X137425905Y-75917143D01*
X137378286Y-75964762D01*
X137283048Y-76012381D01*
X137092571Y-76012381D01*
X136997333Y-75964762D01*
X136949714Y-75917143D01*
X136902095Y-75821905D01*
X136902095Y-75631429D01*
X136949714Y-75536190D01*
X136997333Y-75488571D01*
X137092571Y-75440952D01*
X138830857Y-74488381D02*
X139164191Y-74012190D01*
X139402286Y-74488381D02*
X139402286Y-73488381D01*
X139021333Y-73488381D01*
X138926095Y-73536000D01*
X138878476Y-73583619D01*
X138830857Y-73678857D01*
X138830857Y-73821714D01*
X138878476Y-73916952D01*
X138926095Y-73964571D01*
X139021333Y-74012190D01*
X139402286Y-74012190D01*
X137878476Y-74488381D02*
X138449905Y-74488381D01*
X138164191Y-74488381D02*
X138164191Y-73488381D01*
X138259429Y-73631238D01*
X138354667Y-73726476D01*
X138449905Y-73774095D01*
X137402286Y-74488381D02*
X137211810Y-74488381D01*
X137116571Y-74440762D01*
X137068952Y-74393143D01*
X136973714Y-74250286D01*
X136926095Y-74059810D01*
X136926095Y-73678857D01*
X136973714Y-73583619D01*
X137021333Y-73536000D01*
X137116571Y-73488381D01*
X137307048Y-73488381D01*
X137402286Y-73536000D01*
X137449905Y-73583619D01*
X137497524Y-73678857D01*
X137497524Y-73916952D01*
X137449905Y-74012190D01*
X137402286Y-74059810D01*
X137307048Y-74107429D01*
X137116571Y-74107429D01*
X137021333Y-74059810D01*
X136973714Y-74012190D01*
X136926095Y-73916952D01*
X135088381Y-89662095D02*
X135897905Y-89662095D01*
X135993143Y-89709714D01*
X136040762Y-89757333D01*
X136088381Y-89852571D01*
X136088381Y-90043048D01*
X136040762Y-90138286D01*
X135993143Y-90185905D01*
X135897905Y-90233524D01*
X135088381Y-90233524D01*
X135183619Y-90662095D02*
X135136000Y-90709714D01*
X135088381Y-90804952D01*
X135088381Y-91043048D01*
X135136000Y-91138286D01*
X135183619Y-91185905D01*
X135278857Y-91233524D01*
X135374095Y-91233524D01*
X135516952Y-91185905D01*
X136088381Y-90614476D01*
X136088381Y-91233524D01*
X141477905Y-80043381D02*
X141477905Y-80852905D01*
X141430286Y-80948143D01*
X141382667Y-80995762D01*
X141287429Y-81043381D01*
X141096952Y-81043381D01*
X141001714Y-80995762D01*
X140954095Y-80948143D01*
X140906476Y-80852905D01*
X140906476Y-80043381D01*
X139954095Y-80043381D02*
X140430286Y-80043381D01*
X140477905Y-80519571D01*
X140430286Y-80471952D01*
X140335048Y-80424333D01*
X140096952Y-80424333D01*
X140001714Y-80471952D01*
X139954095Y-80519571D01*
X139906476Y-80614810D01*
X139906476Y-80852905D01*
X139954095Y-80948143D01*
X140001714Y-80995762D01*
X140096952Y-81043381D01*
X140335048Y-81043381D01*
X140430286Y-80995762D01*
X140477905Y-80948143D01*
X136632381Y-55705476D02*
X137632381Y-56372143D01*
X136632381Y-56372143D02*
X137632381Y-55705476D01*
X137632381Y-57276905D02*
X137632381Y-56705476D01*
X137632381Y-56991190D02*
X136632381Y-56991190D01*
X136775238Y-56895952D01*
X136870476Y-56800714D01*
X136918095Y-56705476D01*
X131784381Y-71578476D02*
X132784381Y-72245143D01*
X131784381Y-72245143D02*
X132784381Y-71578476D01*
X131879619Y-72578476D02*
X131832000Y-72626095D01*
X131784381Y-72721333D01*
X131784381Y-72959429D01*
X131832000Y-73054667D01*
X131879619Y-73102286D01*
X131974857Y-73149905D01*
X132070095Y-73149905D01*
X132212952Y-73102286D01*
X132784381Y-72530857D01*
X132784381Y-73149905D01*
X143703300Y-71088381D02*
X143703300Y-70088381D01*
X143465205Y-70088381D01*
X143322347Y-70136000D01*
X143227109Y-70231238D01*
X143179490Y-70326476D01*
X143131871Y-70516952D01*
X143131871Y-70659810D01*
X143179490Y-70850286D01*
X143227109Y-70945524D01*
X143322347Y-71040762D01*
X143465205Y-71088381D01*
X143703300Y-71088381D01*
X142941395Y-71183619D02*
X142179490Y-71183619D01*
X141608061Y-70564571D02*
X141465204Y-70612190D01*
X141417585Y-70659810D01*
X141369966Y-70755048D01*
X141369966Y-70897905D01*
X141417585Y-70993143D01*
X141465204Y-71040762D01*
X141560442Y-71088381D01*
X141941395Y-71088381D01*
X141941395Y-70088381D01*
X141608061Y-70088381D01*
X141512823Y-70136000D01*
X141465204Y-70183619D01*
X141417585Y-70278857D01*
X141417585Y-70374095D01*
X141465204Y-70469333D01*
X141512823Y-70516952D01*
X141608061Y-70564571D01*
X141941395Y-70564571D01*
X140465204Y-71088381D02*
X140941395Y-71088381D01*
X140941395Y-70088381D01*
X140131871Y-70088381D02*
X140131871Y-70897905D01*
X140084252Y-70993143D01*
X140036633Y-71040762D01*
X139941395Y-71088381D01*
X139750918Y-71088381D01*
X139655680Y-71040762D01*
X139608061Y-70993143D01*
X139560442Y-70897905D01*
X139560442Y-70088381D01*
X139084252Y-70564571D02*
X138750918Y-70564571D01*
X138608061Y-71088381D02*
X139084252Y-71088381D01*
X139084252Y-70088381D01*
X138608061Y-70088381D01*
X137655680Y-71088381D02*
X138227109Y-71088381D01*
X137941395Y-71088381D02*
X137941395Y-70088381D01*
X138036633Y-70231238D01*
X138131871Y-70326476D01*
X138227109Y-70374095D01*
X143274729Y-72612381D02*
X143274729Y-71612381D01*
X143036634Y-71612381D01*
X142893776Y-71660000D01*
X142798538Y-71755238D01*
X142750919Y-71850476D01*
X142703300Y-72040952D01*
X142703300Y-72183810D01*
X142750919Y-72374286D01*
X142798538Y-72469524D01*
X142893776Y-72564762D01*
X143036634Y-72612381D01*
X143274729Y-72612381D01*
X142512824Y-72707619D02*
X141750919Y-72707619D01*
X140941395Y-72612381D02*
X141274729Y-72136190D01*
X141512824Y-72612381D02*
X141512824Y-71612381D01*
X141131871Y-71612381D01*
X141036633Y-71660000D01*
X140989014Y-71707619D01*
X140941395Y-71802857D01*
X140941395Y-71945714D01*
X140989014Y-72040952D01*
X141036633Y-72088571D01*
X141131871Y-72136190D01*
X141512824Y-72136190D01*
X140512824Y-72088571D02*
X140179490Y-72088571D01*
X140036633Y-72612381D02*
X140512824Y-72612381D01*
X140512824Y-71612381D01*
X140036633Y-71612381D01*
X139608062Y-72612381D02*
X139608062Y-71612381D01*
X139369967Y-71612381D01*
X139227109Y-71660000D01*
X139131871Y-71755238D01*
X139084252Y-71850476D01*
X139036633Y-72040952D01*
X139036633Y-72183810D01*
X139084252Y-72374286D01*
X139131871Y-72469524D01*
X139227109Y-72564762D01*
X139369967Y-72612381D01*
X139608062Y-72612381D01*
X138084252Y-72612381D02*
X138655681Y-72612381D01*
X138369967Y-72612381D02*
X138369967Y-71612381D01*
X138465205Y-71755238D01*
X138560443Y-71850476D01*
X138655681Y-71898095D01*
X134579857Y-70461143D02*
X134627476Y-70508762D01*
X134770333Y-70556381D01*
X134865571Y-70556381D01*
X135008429Y-70508762D01*
X135103667Y-70413524D01*
X135151286Y-70318286D01*
X135198905Y-70127810D01*
X135198905Y-69984952D01*
X135151286Y-69794476D01*
X135103667Y-69699238D01*
X135008429Y-69604000D01*
X134865571Y-69556381D01*
X134770333Y-69556381D01*
X134627476Y-69604000D01*
X134579857Y-69651619D01*
X133627476Y-70556381D02*
X134198905Y-70556381D01*
X133913191Y-70556381D02*
X133913191Y-69556381D01*
X134008429Y-69699238D01*
X134103667Y-69794476D01*
X134198905Y-69842095D01*
X132675095Y-70556381D02*
X133246524Y-70556381D01*
X132960810Y-70556381D02*
X132960810Y-69556381D01*
X133056048Y-69699238D01*
X133151286Y-69794476D01*
X133246524Y-69842095D01*
X133077143Y-81145143D02*
X133124762Y-81097524D01*
X133172381Y-80954667D01*
X133172381Y-80859429D01*
X133124762Y-80716571D01*
X133029524Y-80621333D01*
X132934286Y-80573714D01*
X132743810Y-80526095D01*
X132600952Y-80526095D01*
X132410476Y-80573714D01*
X132315238Y-80621333D01*
X132220000Y-80716571D01*
X132172381Y-80859429D01*
X132172381Y-80954667D01*
X132220000Y-81097524D01*
X132267619Y-81145143D01*
X133172381Y-82097524D02*
X133172381Y-81526095D01*
X133172381Y-81811809D02*
X132172381Y-81811809D01*
X132315238Y-81716571D01*
X132410476Y-81621333D01*
X132458095Y-81526095D01*
X132600952Y-82668952D02*
X132553333Y-82573714D01*
X132505714Y-82526095D01*
X132410476Y-82478476D01*
X132362857Y-82478476D01*
X132267619Y-82526095D01*
X132220000Y-82573714D01*
X132172381Y-82668952D01*
X132172381Y-82859429D01*
X132220000Y-82954667D01*
X132267619Y-83002286D01*
X132362857Y-83049905D01*
X132410476Y-83049905D01*
X132505714Y-83002286D01*
X132553333Y-82954667D01*
X132600952Y-82859429D01*
X132600952Y-82668952D01*
X132648571Y-82573714D01*
X132696190Y-82526095D01*
X132791429Y-82478476D01*
X132981905Y-82478476D01*
X133077143Y-82526095D01*
X133124762Y-82573714D01*
X133172381Y-82668952D01*
X133172381Y-82859429D01*
X133124762Y-82954667D01*
X133077143Y-83002286D01*
X132981905Y-83049905D01*
X132791429Y-83049905D01*
X132696190Y-83002286D01*
X132648571Y-82954667D01*
X132600952Y-82859429D01*
X141835095Y-93257381D02*
X141835095Y-92257381D01*
X141597000Y-92257381D01*
X141454142Y-92305000D01*
X141358904Y-92400238D01*
X141311285Y-92495476D01*
X141263666Y-92685952D01*
X141263666Y-92828810D01*
X141311285Y-93019286D01*
X141358904Y-93114524D01*
X141454142Y-93209762D01*
X141597000Y-93257381D01*
X141835095Y-93257381D01*
X140930333Y-92257381D02*
X140311285Y-92257381D01*
X140644619Y-92638333D01*
X140501761Y-92638333D01*
X140406523Y-92685952D01*
X140358904Y-92733571D01*
X140311285Y-92828810D01*
X140311285Y-93066905D01*
X140358904Y-93162143D01*
X140406523Y-93209762D01*
X140501761Y-93257381D01*
X140787476Y-93257381D01*
X140882714Y-93209762D01*
X140930333Y-93162143D01*
M02*
