M48
;DRILL file {KiCad (2015-09-15 BZR 6201)-product} date Donnerstag, 12. Mai 2016 'u41' 18:41:10
;FORMAT={-:-/ absolute / inch / decimal}
FMAT,2
INCH,TZ
T1C0.016
T2C0.035
T3C0.039
T4C0.040
%
G90
G05
M72
T1
X5.215Y-3.34
X5.398Y-3.505
T2
X5.05Y-3.82
X5.06Y-2.48
X5.07Y-3.48
X5.135Y-3.345
X5.21Y-3.21
X5.22Y-2.88
X5.41Y-3.75
X5.4271Y-2.2475
X5.4271Y-2.3773
X5.455Y-2.635
X5.4612Y-3.1419
X5.555Y-2.43
X5.5606Y-3.2527
X5.59Y-3.83
X5.632Y-3.2405
X5.6374Y-3.6271
X5.707Y-3.1923
X5.74Y-2.62
X5.755Y-3.315
X5.7818Y-3.1085
X5.799Y-3.0046
X5.81Y-2.805
X5.8215Y-3.206
X5.84Y-3.48
X5.8937Y-3.7016
X5.921Y-2.4621
X5.9405Y-3.4105
X5.95Y-3.475
T3
X5.3424Y-2.2288
T4
X5.1Y-2.225
X5.2Y-2.225
T0
M30
